<?xml version="1.0" encoding="UTF-8" standalone="no"?>
<!-- Created with Inkscape (http://www.inkscape.org/) -->

<svg
   width="640"
   height="640"
   viewBox="0 0 169.33333 169.33333"
   version="1.1"
   id="svg1764"
   inkscape:version="1.2.2 (732a01da63, 2022-12-09)"
   sodipodi:docname="face.svg"
   inkscape:export-filename="face.png"
   inkscape:export-xdpi="153.60001"
   inkscape:export-ydpi="153.60001"
   xmlns:inkscape="http://www.inkscape.org/namespaces/inkscape"
   xmlns:sodipodi="http://sodipodi.sourceforge.net/DTD/sodipodi-0.dtd"
   xmlns="http://www.w3.org/2000/svg"
   xmlns:svg="http://www.w3.org/2000/svg">
  <sodipodi:namedview
     id="namedview1766"
     pagecolor="#ffffff"
     bordercolor="#000000"
     borderopacity="0.25"
     inkscape:showpageshadow="2"
     inkscape:pageopacity="0.0"
     inkscape:pagecheckerboard="0"
     inkscape:deskcolor="#d1d1d1"
     inkscape:document-units="mm"
     showgrid="false"
     inkscape:zoom="0.8866208"
     inkscape:cx="81.771147"
     inkscape:cy="255.46434"
     inkscape:window-width="1920"
     inkscape:window-height="1051"
     inkscape:window-x="-9"
     inkscape:window-y="-9"
     inkscape:window-maximized="1"
     inkscape:current-layer="layer1" />
  <defs
     id="defs1761" />
  <g
     inkscape:label="Layer 1"
     inkscape:groupmode="layer"
     id="layer1">
    <path
       d="m 118.7856,96.897722 5.33504,7.391388 5.50069,6.01667 3.61,2.57993 3.09399,3.60808 0.85875,6.70784 -2.92269,11.86009 -1.20141,4.81333 -4.47061,1.89259 -2.06205,3.95274 -0.17325,1.3747 4.29735,0.34272 4.29925,-0.34272 1.37466,-3.61002 v -1.03198 l 2.74945,-1.37659 0.68734,-3.61001 0.51597,-7.90545 2.2353,-8.42335 -2.92453,-26.646629 -18.90684,-5.502591 -1.89641,7.909262"
       style="fill:#cea27d;fill-opacity:1;fill-rule:nonzero;stroke:none;stroke-width:0.190401"
       id="path730" />
    <path
       d="m 57.935282,87.442398 2.001112,12.263747 1.549869,8.680395 -0.687345,4.29734 1.603178,4.67242 1.376594,1.54417 1.374701,9.62859 0.517912,7.39137 -0.346551,3.09401 -3.094016,3.09403 -1.372799,1.37659 -0.519803,2.06205 3.267281,1.20333 6.363211,-0.68734 1.719314,-11.8601 -0.34655,-28.36593 -3.781373,-15.300656 -9.624781,-3.094016"
       style="fill:#cea27d;fill-opacity:1;fill-rule:nonzero;stroke:none;stroke-width:0.190401"
       id="path732" />
    <path
       d="M 3.7851859,58.733713 0.17517809,55.123705 0.51406798,51.686963 6.8753735,42.058377 8.76796,39.137618 l 1.2033379,-2.40667 2.0620431,-4.299256 0.860616,-1.54796 7.218105,-5.325523 10.487302,-0.691155 14.956011,6.53266 17.705404,10.487302 7.050556,3.267281 6.704029,2.062048 4.984703,2.749392 16.677241,2.579936 23.550722,-0.687348 12.20471,-1.892588 9.11075,3.956536 11.34788,9.796141 3.60813,11.692532 1.03195,11.686827 -0.51814,16.161257 2.40856,11.51735 -1.37661,0.86062 -2.06011,-9.79993 -1.54992,-9.455333 v -9.626684 l -3.78327,9.455324 -4.29164,6.534573 -0.34649,9.10878 2.57802,6.87347 1.37661,2.23912 -0.51597,2.74939 -3.43861,16.15934 -0.86064,6.53457 -2.23342,1.02818 -0.86057,2.40667 -0.68356,2.23531 -4.81717,1.37469 -3.95463,-1.20143 1.20525,-3.61001 2.40666,-1.89259 1.20337,-1.71931 3.09399,-8.07873 -0.17325,-11.51546 -2.40478,-5.84721 -3.09399,-11.34599 -3.09784,-8.07874 -3.60813,-3.267278 -2.92075,-0.171361 -3.95463,1.546051 -3.09593,1.376605 -18.05003,1.203343 -12.031454,-1.549871 -9.626685,-4.640078 -2.924559,0.515973 -1.20333,2.063951 -1.203341,8.939355 v 11.68678 l -0.858717,1.72125 0.517922,17.53403 1.201427,6.01668 -1.719326,1.20524 -1.721218,2.7494 -0.16948,3.26728 -5.502591,1.71742 -3.094016,-0.34272 0.173241,-2.92077 2.233407,-2.40666 2.235311,-2.06395 0.68926,-5.33124 0.169468,-7.73409 -1.031969,-11.86198 -2.2296,-3.78138 0.510251,-4.64577 -1.37444,-8.41951 -2.231503,-6.534587 -4.643886,-3.092124 -2.576128,-3.783265 -3.954636,-9.624781 -7.734095,-3.95654 -6.536464,-8.423347 -6.877304,-12.033351 -3.094015,-6.530762 -3.95463,4.295452 -5.843411,2.23531 -3.606198,1.205238 -2.067758,2.062048 -0.85871,1.374693 -2.7512979,1.374699 -1.5479599,0.515972 -1.2033378,-1.890682 -1.8868715,-1.031971"
       style="fill:#e4c7b3;fill-opacity:1;fill-rule:nonzero;stroke:none;stroke-width:0.190401"
       id="path734" />
    <path
       d="m 162.45408,113.74441 -2.92263,1.37659 -0.86059,3.77947 2.06394,6.53647 3.09589,4.29736 3.61003,2.2334 1.71744,-0.68735 -1.89069,-1.54605 -2.23342,-3.78328 -0.34649,-4.47062 -0.5122,-5.32933 -1.72128,-2.40666"
       style="fill:#1b2725;fill-opacity:1;fill-rule:nonzero;stroke:none;stroke-width:0.190401"
       id="path736" />
    <path
       d="m 131.16548,96.555001 -2.74748,-1.719326 -2.92457,-2.578032 -1.20143,-7.909262 -0.34656,-4.811438 -7.04675,2.233407 -12.72071,3.440555 -14.782744,-1.033884 -3.613808,-0.515973 -3.434845,0.687345 -2.408575,0.68926 -2.631341,-0.624518 -0.634035,4.575336 -1.888783,4.986606 -1.549858,1.719326 -3.610012,-0.515973 -1.546051,-5.329327 -0.125654,-7.427552 -2.454258,-0.481699 -4.46873,-7.218109 -3.613808,-4.125992 -7.56083,-2.920753 -12.204716,-10.487296 -8.311014,-10.255007 -1.612694,2.122972 2.873151,6.068087 6.877293,12.03335 6.536475,8.423344 7.734095,3.95654 3.954625,9.624781 2.576128,3.783277 4.643885,3.092112 0.154252,0.451255 0.875849,0.238017 6.704028,1.546062 1.888772,3.267288 -0.33888,12.54932 -1.549869,4.9828 1.376594,13.06914 1.028174,9.28206 -1.372799,4.29734 0.953915,1.22048 1.624117,-2.59517 1.719326,-1.20524 -1.201438,-6.01668 -0.517911,-17.53403 0.858717,-1.72124 V 106.1817 l 1.20333,-8.939354 1.20333,-2.06395 2.924571,-0.515973 9.626684,4.640078 12.031442,1.549869 18.05004,-1.203341 3.09592,-1.376606 3.95464,-1.54605 2.92075,0.17136 1.14622,1.037692 -0.11615,-1.380413"
       style="fill:#d5ae84;fill-opacity:1;fill-rule:nonzero;stroke:none;stroke-width:0.190401"
       id="path738" />
    <path
       d="m 143.54349,53.922273 -9.11075,-3.956536 -12.20469,1.892588 -23.55072,0.687348 -16.677241,-2.579936 -4.984702,-2.749392 -6.704029,-2.062048 -7.050556,-3.267281 -17.705404,-10.487302 -13.349026,-5.83008 0.575005,1.879256 7.21811,3.55289 8.592811,5.156061 7.33615,6.073797 8.25009,3.669032 4.12789,2.749392 6.877292,2.40477 5.498795,2.753198 9.626674,1.9459 15.700481,0.68735 9.3963,-0.226575 10.08746,-1.26045 6.99152,-0.917735 8.36625,1.487031 6.64693,5.045631 5.38639,4.929487 3.40056,2.734162 -1.39371,-4.514411 -11.34788,-9.796143"
       style="fill:#f8dcbe;fill-opacity:1;fill-rule:nonzero;stroke:none;stroke-width:0.190401"
       id="path740" />
    <path
       d="m 23.15279,48.076955 -4.124086,3.208262 -5.274115,2.751297 -3.436742,3.436742 -4.6990978,2.260061 0.053435,0.03238 1.2033378,1.890682 1.5479599,-0.515972 2.7512961,-1.3747 0.858711,-1.374692 2.067759,-2.062049 3.606197,-1.205237 5.843412,-2.23531 3.113061,-3.377717 0.0019,-0.07427 0.154252,-5.713945 h -1.606983 l -2.060144,4.354477"
       style="fill:#d6af85;fill-opacity:1;fill-rule:nonzero;stroke:none;stroke-width:0.190401"
       id="path742" />
    <path
       d="m 158.07679,74.047675 -0.45337,-1.479416 -0.32545,2.153438 -3.4386,12.033356 -7.22382,12.206619 -1.03012,6.704038 1.03012,9.79802 3.26724,6.70402 -2.06011,11.34601 -1.8907,11.69063 -1.89257,1.71933 1.31756,0.30461 1.77643,-0.81872 0.86064,-6.53457 3.43861,-16.15935 0.51597,-2.74939 -1.37661,-2.23912 -2.57802,-6.87347 0.3465,-9.10878 4.29164,-6.534576 3.47481,-8.676577 1.85837,-7.311415 0.0912,-6.174708"
       style="fill:#d5ae84;fill-opacity:1;fill-rule:nonzero;stroke:none;stroke-width:0.190401"
       id="path744" />
    <path
       d="m 144.40596,128.52906 -0.17326,-6.36131 -2.58185,-6.18804 -1.2033,-11.17462 -3.95087,-7.907368 -4.4706,-6.877293 -2.06203,-6.875377 -0.51597,-3.954637 -1.37661,0.515973 0.68926,7.048642 2.23531,5.502602 1.89068,4.984703 v 2.143908 l 0.8568,0.778747 3.09783,8.07873 3.094,11.34599 2.40478,5.84721 0.16731,11.21273 0.86825,-0.55787 1.03005,-7.56275"
       style="fill:#d5ae84;fill-opacity:1;fill-rule:nonzero;stroke:none;stroke-width:0.190401"
       id="path746" />
    <path
       d="m 22.865286,27.962972 3.95463,-0.689249 10.44731,0.506474 -6.667851,-2.913138 -10.487291,0.691154 -7.218105,5.325525 -0.860616,1.547958 -2.0620435,4.299258 -1.2033378,2.40667 -1.8925865,2.920759 -6.36130557,9.628586 -0.33888988,3.436741 0.24179439,0.245627 5.94812796,-8.840326 4.9808969,-6.016677 2.922658,-1.203338 3.265381,-1.031972 1.721226,-2.235308 -1.376599,-3.436742 1.030071,-1.890688 3.956536,-2.751298"
       style="fill:#d5ae84;fill-opacity:1;fill-rule:nonzero;stroke:none;stroke-width:0.190401"
       id="path748" />
    <path
       d="m 74.382131,79.135202 -1.033884,3.552885 -1.717412,4.468718 -1.030065,1.262349 0.915821,0.342721 1.831656,-1.949706 0.68926,-1.488934 3.779458,0.458868 1.837377,2.176279 0.455038,-0.801577 -1.719314,-2.408575 -2.288632,-1.258565 -0.230403,-2.292428 0.114256,-3.210152 0.230414,-5.386458 h -0.917737 l -0.915833,6.534575"
       style="fill:#1b2725;fill-opacity:1;fill-rule:nonzero;stroke:none;stroke-width:0.190401"
       id="path750" />
    <path
       d="m 66.933641,103.54463 2.747488,-0.3446 2.981676,0.68735 1.374702,0.68924 0.114255,1.03199 -2.062047,-0.91584 -4.011741,-0.11615 -1.260458,0.34272 0.116148,-1.3747"
       style="fill:#1b2725;fill-opacity:1;fill-rule:nonzero;stroke:none;stroke-width:0.190401"
       id="path752" />
    <path
       d="m 68.993784,115.46563 3.783265,-0.45886 1.260458,0.57119 v 0.68926 l -1.831656,-0.23041 -3.667128,0.34461 0.455038,-0.91583"
       style="fill:#1b2725;fill-opacity:1;fill-rule:nonzero;stroke:none;stroke-width:0.190401"
       id="path754" />
    <path
       d="m 69.224164,118.78622 2.292427,0.11426 h 2.176291 v 0.91964 h -3.20826 l -1.374702,-0.45887 0.114267,-0.575"
       style="fill:#1b2725;fill-opacity:1;fill-rule:nonzero;stroke:none;stroke-width:0.190401"
       id="path756" />
    <path
       d="m 70.138094,122.91412 1.835462,-0.34461 1.374691,-0.5712 v 0.5712 l -1.717412,0.80349 -1.492741,0.23042 v -0.68925"
       style="fill:#1b2725;fill-opacity:1;fill-rule:nonzero;stroke:none;stroke-width:0.190401"
       id="path758" />
    <path
       d="m 70.021947,125.89199 1.721229,-0.11227 1.033873,-0.45887 v 0.80158 l -2.638955,0.34461 -0.116147,-0.57501"
       style="fill:#1b2725;fill-opacity:1;fill-rule:nonzero;stroke:none;stroke-width:0.190401"
       id="path760" />
    <path
       d="m 135.46663,101.13796 1.25858,-1.831664 4.24214,-1.833558 c 0,0 3.89559,-0.687357 4.35257,-0.687357 0.45877,0 4.47061,-1.15002 4.47061,-1.15002 l 2.63513,-0.799686 -0.57308,1.260458 -4.00985,2.178194 -4.46683,0.801589 -5.15794,1.833564 -1.72128,1.37471 -1.03005,-1.14623"
       style="fill:#1b2725;fill-opacity:1;fill-rule:nonzero;stroke:none;stroke-width:0.190401"
       id="path762" />
    <path
       d="m 137.07171,104.91933 3.20637,-0.45697 c 0,0 2.97978,-1.60508 3.32629,-1.83357 0.34056,-0.2304 2.63329,-1.3766 2.63329,-1.3766 l 1.83353,-0.68735 -0.80159,1.26236 -4.35634,2.7494 -1.71934,1.60508 -2.40666,-0.11426 -1.60319,-0.2304 -0.11227,-0.91774"
       style="fill:#1b2725;fill-opacity:1;fill-rule:nonzero;stroke:none;stroke-width:0.190401"
       id="path764" />
    <path
       d="m 143.9452,123.60337 1.72316,0.34272 2.62941,-0.5731 2.41239,-1.26045 -0.23424,1.14431 -1.7155,1.26236 -3.44056,0.68734 -1.14431,-0.34461 -0.23046,-1.25854"
       style="fill:#1b2725;fill-opacity:1;fill-rule:nonzero;stroke:none;stroke-width:0.190401"
       id="path766" />
    <path
       d="m 143.9452,129.2164 1.94974,-0.45698 2.52087,-0.80349 1.60512,-0.91773 -0.91968,1.60698 -2.97596,0.91774 -2.63896,0.68544 0.45876,-1.03197"
       style="fill:#1b2725;fill-opacity:1;fill-rule:nonzero;stroke:none;stroke-width:0.190401"
       id="path768" />
    <path
       d="m 5.5026016,49.794377 2.5228175,-2.861731 3.0959199,-2.979782 1.372793,-1.606983 1.144314,-1.490841 h 2.063948 l 3.779465,1.031976 2.065852,-1.260457 1.260457,-2.520911 -0.230407,-1.3747 0.46076,-1.148119 1.144307,-2.290522 1.146215,-0.685444 0.689254,1.030066 -1.835469,1.376604 -0.917733,1.603178 0.230406,1.831659 -0.45698,1.488935 -1.378504,1.492747 -1.487037,0.685444 -3.095924,-0.112318 -2.290523,-0.116147 -1.947806,1.146213 L 9.6285656,46.014927 5.7329545,50.25516 5.502548,49.794401"
       style="fill:#1b2725;fill-opacity:1;fill-rule:nonzero;stroke:none;stroke-width:0.190401"
       id="path770" />
    <path
       d="m 13.067239,56.328943 -1.721226,-2.292429 0.344612,-2.63706 -2.4066711,-1.24903 -0.6892544,-0.356053 -4.9237725,-0.685444 -0.5274137,-1.399451 -2.62943962,3.977481 -0.33888989,3.436742 3.61000781,3.610008 1.8868715,1.031972 1.2033378,1.890681 1.5479599,-0.515972 2.7512962,-1.374698 0.858711,-1.374694 1.648877,-1.650781 -0.615,-0.411268"
       style="fill:#1b2725;fill-opacity:1;fill-rule:nonzero;stroke:none;stroke-width:0.190401"
       id="path772" />
    <path
       d="m 9.9713195,36.730948 -1.2033378,2.40667 -1.8925865,2.920759 -4.0707774,6.159477 0.2912864,0.432208 3.5547893,-4.697198 2.749392,-4.472524 2.1800955,-2.749392 0.340833,-2.176285 v -1.884971 l -1.9497047,4.061256"
       style="fill:#1b2725;fill-opacity:1;fill-rule:nonzero;stroke:none;stroke-width:0.190401"
       id="path774" />
    <path
       d="m 13.754589,31.458743 0.917734,3.3225 -0.917734,2.17819 -2.408576,2.292428 -2.176285,2.635155 -2.2924282,2.979778 -2.0601421,2.635149 -1.6088889,1.719326 0.5769171,0.344612 3.6671265,-3.665222 2.5190071,-2.981682 2.2924285,-2.406671 1.605083,-1.260455 1.605078,-1.146215 0.45887,-2.637055 -0.575012,-3.208261 -1.273782,-2.254351 -0.748279,0.552166 0.418877,0.900598"
       style="fill:#1b2725;fill-opacity:1;fill-rule:nonzero;stroke:none;stroke-width:0.190401"
       id="path776" />
    <path
       d="m 18.453692,33.063822 -0.803498,-2.865534 -1.26045,-1.605084 -0.201802,-0.137089 -0.892982,0.656882 0.868231,0.738757 0.913924,2.755109 0.456981,2.749392 0.919639,0.226574 v -2.519007"
       style="fill:#1b2725;fill-opacity:1;fill-rule:nonzero;stroke:none;stroke-width:0.190401"
       id="path778" />
    <path
       d="m 18.832591,26.502599 -0.984378,0.725426 0.948201,0.792072 0.803491,2.063948 -0.118036,2.863635 -0.110426,1.260456 0.573107,0.346554 0.456981,-2.524717 V 29.282454 L 19.48186,26.98812 18.832593,26.502599"
       style="fill:#1b2725;fill-opacity:1;fill-rule:nonzero;stroke:none;stroke-width:0.190401"
       id="path780" />
    <path
       d="m 22.693925,27.216605 -0.342722,3.212068 -0.803492,2.747486 -0.114259,1.146215 0.571203,1.033881 0.919639,-2.292433 0.571202,-2.753197 v -1.603178 l -0.230407,-2.178192 -0.403656,-1.155734 -0.717812,0.04965 0.55026,1.79358"
       style="fill:#1b2725;fill-opacity:1;fill-rule:nonzero;stroke:none;stroke-width:0.190401"
       id="path782" />
    <path
       d="m 12.720712,49.453559 -2.519008,1.831658 0.573108,0.228464 1.376598,-1.144309 h 1.372794 l 1.488936,0.799681 0.689254,1.605084 -0.573107,2.86744 -0.413155,0.47981 0.799687,-0.266567 0.416987,-0.443649 0.68735,-2.063948 -0.344612,-2.751298 -3.554788,-1.142403"
       style="fill:#1b2725;fill-opacity:1;fill-rule:nonzero;stroke:none;stroke-width:0.190401"
       id="path784" />
    <path
       d="m 18.453692,48.191198 -2.979783,-0.689255 -4.127896,1.260456 -2.5209127,1.949711 0.4588707,0.230406 2.40667,-1.833563 1.947805,-0.458869 h 2.294333 l 1.601273,0.571206 1.837374,1.833564 -0.342722,2.292428 -0.6169,1.509882 1.368984,-0.525525 0.620704,-0.984373 0.344612,-2.520913 -0.46076,-1.717416 -1.831658,-0.917734"
       style="fill:#1b2725;fill-opacity:1;fill-rule:nonzero;stroke:none;stroke-width:0.190401"
       id="path786" />
    <path
       d="m 21.547711,43.722479 -2.863635,-0.689248 -3.670936,1.03197 -4.124086,2.867445 -3.4367416,3.3225 0.6854439,0.340832 1.7212261,-1.9459 2.2924276,-1.833563 3.436742,-1.831658 2.751298,-0.576917 2.062042,0.344611 1.949711,1.833563 0.342722,3.324405 -0.714006,3.57954 1.570811,-0.601664 0.230407,-0.243736 0.401768,-2.161055 V 48.878547 L 23.724034,46.12725 21.547749,43.722479"
       style="fill:#1b2725;fill-opacity:1;fill-rule:nonzero;stroke:none;stroke-width:0.190401"
       id="path788" />
    <path
       d="m 28.765817,34.897385 -2.747488,4.470624 -1.148118,4.35447 0.45887,3.667127 0.247515,3.299653 1.030071,-1.121462 -0.245626,-2.635151 0.114259,-3.785178 0.573107,-2.178186 1.146212,-3.208262 1.374702,-3.322499 0.803492,-2.408576 -0.687356,0.114259 -0.91964,2.753197"
       style="fill:#1b2725;fill-opacity:1;fill-rule:nonzero;stroke:none;stroke-width:0.190401"
       id="path790" />
    <path
       d="m 35.199469,26.877688 -1.045306,3.893707 -1.947791,3.092114 -1.488934,4.472523 -1.262361,5.843412 -1.374702,3.897511 -0.357944,0.969143 0.403651,0.849189 0.870138,-1.818332 1.951609,-5.961459 1.030066,-5.03992 2.402864,-3.899417 1.376606,-2.747486 0.515973,-3.082601 -1.073869,-0.468368"
       style="fill:#1b2725;fill-opacity:1;fill-rule:nonzero;stroke:none;stroke-width:0.190401"
       id="path792" />
    <path
       d="m 40.197507,29.057784 -2.374311,-1.037687 -0.460749,3.210162 -2.519012,4.699103 -0.342721,5.03992 -1.262361,5.04563 -3.998429,6.237543 0.538861,1.130983 1.854509,-1.641262 3.094016,-5.384541 1.606985,-7.448496 1.370895,-4.470618 2.492352,-5.380737"
       style="fill:#1b2725;fill-opacity:1;fill-rule:nonzero;stroke:none;stroke-width:0.190401"
       id="path794" />
    <path
       d="m 42.112939,29.897453 -0.622615,2.935984 -2.522807,3.897511 -1.490838,6.991531 -1.260457,8.135846 -3.70521,6.608826 1.955416,3.425315 2.206747,-2.355262 2.408575,-8.13775 1.031981,-11.688723 1.490837,-4.011753 1.374702,-3.78137 0.325612,-1.500362 -1.191909,-0.519804"
       style="fill:#1b2725;fill-opacity:1;fill-rule:nonzero;stroke:none;stroke-width:0.190401"
       id="path796" />
    <path
       d="m 48.495185,33.141887 -0.706391,2.901712 -1.943996,4.354476 -1.146213,5.03992 -0.344602,4.931393 -2.863636,8.250083 -2.062047,3.324403 -3.170179,3.076884 1.21857,2.136298 0.626421,0.807302 2.126778,-1.090995 3.783276,-5.847222 1.715507,-9.283965 1.146214,-10.312124 2.633256,-7.690306 -1.012935,-0.597859"
       style="fill:#1b2725;fill-opacity:1;fill-rule:nonzero;stroke:none;stroke-width:0.190401"
       id="path798" />
    <path
       d="m 57.423104,59.078335 3.206357,-7.44849 2.749392,-7.907366 0.487421,-1.553669 -0.605472,-0.281788 -0.634036,-0.376994 -1.197631,3.128286 -2.979784,7.220015 -3.212067,5.843412 -1.715507,2.522819 -0.799686,-0.573113 2.062047,-6.416518 1.829751,-11.574488 0.314169,-3.528132 -1.768829,-1.043402 -0.719716,5.601606 -1.833558,8.13584 -3.667129,9.512444 -2.983591,5.847222 -2.170569,3.895605 -0.239909,4.900932 0.468375,0.597858 4.127889,2.109646 0.797782,-4.171694 2.867443,-6.188038 5.616835,-8.251988"
       style="fill:#1b2725;fill-opacity:1;fill-rule:nonzero;stroke:none;stroke-width:0.190401"
       id="path800" />
    <path
       d="m 55.816107,80.279512 3.550993,-6.646909 3.897509,-13.752677 2.753199,-9.167816 1.824041,-6.704028 -1.239508,-0.573106 -1.961127,5.327423 -4.242145,13.41186 -1.833559,5.50069 -1.605082,5.384547 -2.635159,5.157969 -2.452366,1.631731 0.938675,2.281006 3.004529,-1.85069"
       style="fill:#1b2725;fill-opacity:1;fill-rule:nonzero;stroke:none;stroke-width:0.190401"
       id="path802" />
    <path
       d="m 74.224095,46.357635 -2.484737,-0.76351 -2.172473,7.753135 -1.831655,9.398201 -2.06395,8.825094 -1.150021,7.334255 -2.633256,2.981687 c 0,0 -2.520903,2.633245 -2.863624,2.749392 -0.251353,0.08378 -3.010251,1.146214 -4.482054,1.711701 l 1.159549,2.814134 1.740265,2.557081 2.498062,-2.499965 3.550981,-4.354474 3.095931,-5.729164 1.605082,-11.460253 1.829752,-9.858971 2.410478,-6.646909 1.79167,-4.811434"
       style="fill:#1b2725;fill-opacity:1;fill-rule:nonzero;stroke:none;stroke-width:0.190401"
       id="path804" />
    <path
       d="m 78.875594,48.242606 -0.89869,-0.49692 -1.646959,2.852208 -1.374702,4.240235 -0.803492,9.742827 -0.917737,5.03992 -3.09592,7.68079 -2.290535,7.334246 -3.554788,7.676979 -2.680843,2.854118 0.723523,0.481699 2.419995,-2.4162 1.490838,-2.40666 2.174388,-2.519011 1.374701,-4.81715 1.374691,-5.386454 2.178183,-5.500684 2.292438,-5.616839 0.460761,-8.137744 1.603178,-7.905454 1.170959,-2.69989"
       style="fill:#1b2725;fill-opacity:1;fill-rule:nonzero;stroke:none;stroke-width:0.190401"
       id="path806" />
    <path
       d="m 81.143276,55.296971 1.549869,-5.224612 -0.693056,-0.106596 -1.018645,-0.559781 -0.872041,4.973281 -2.520915,9.398201 0.116147,6.991531 0.917737,6.30228 2.404768,7.44849 1.606985,5.043734 -0.470312,5.923377 0.66831,0.321783 0.946289,-6.818273 -2.06395,-6.532657 -2.637051,-13.065333 0.462652,-6.761146 1.603179,-7.334253"
       style="fill:#1b2725;fill-opacity:1;fill-rule:nonzero;stroke:none;stroke-width:0.190401"
       id="path808" />
    <path
       d="m 84.656176,50.377003 -1.222377,3.659511 -0.458868,8.480468 0.91964,6.99153 1.603179,8.478573 2.180086,7.452297 -0.118028,5.611125 -1.249037,6.437459 1.186199,0.571197 1.78026,-7.922586 -0.338891,-6.646912 -1.835473,-7.564638 -1.719326,-9.969399 -0.346551,-8.939336 2.380022,-6.212791 -2.760824,-0.426486"
       style="fill:#1b2725;fill-opacity:1;fill-rule:nonzero;stroke:none;stroke-width:0.190401"
       id="path810" />
    <path
       d="m 91.685794,61.943874 -1.14431,-6.302281 0.731137,-4.242139 -1.397544,-0.215132 -1.39564,6.060465 1.715507,10.772901 4.129816,11.231758 0.913918,6.761157 -0.573101,6.989621 -2.121078,6.620252 2.585657,0.333226 1.825933,-2.71131 1.949718,-8.480471 0.573101,-7.909274 -3.781361,-8.708942 -4.011753,-10.199792"
       style="fill:#1b2725;fill-opacity:1;fill-rule:nonzero;stroke:none;stroke-width:0.190401"
       id="path812" />
    <path
       d="m 106.92551,59.537204 1.60889,-3.552889 2.96264,-3.811831 -1.83738,0.05127 -1.01102,1.123368 -2.40477,4.815245 -1.49465,4.811441 -1.83166,4.356375 -2.17819,-4.356375 -1.146218,-5.729175 -0.163746,-4.720044 -0.752087,0.02105 -5.081804,-0.784455 0.26657,4.680061 3.669032,8.708952 3.094013,6.763046 3.20826,5.961466 1.26236,7.791211 v 4.240241 l -0.45886,6.306084 -1.1367,4.548695 3.42341,-0.23042 c 0.85871,-1.91353 1.88688,-4.234521 1.95161,-4.434445 0.11615,-0.344613 0.8035,-8.253887 0.8035,-8.253887 l -1.83356,-10.197882 -3.44056,-6.76115 0.8054,-3.438648 1.71552,-7.90736"
       style="fill:#1b2725;fill-opacity:1;fill-rule:nonzero;stroke:none;stroke-width:0.190401"
       id="path814" />
    <path
       d="m 77.104874,95.913351 -1.233809,-1.077676 -2.178183,-0.915833 -4.011753,-0.230403 -3.781373,2.637051 -1.031969,1.031981 0.687345,1.030077 1.262361,-1.146213 3.094028,-1.146225 2.751284,-0.456976 2.97788,0.456976 0.931061,0.72733 0.533139,-0.910112"
       style="fill:#1b2725;fill-opacity:1;fill-rule:nonzero;stroke:none;stroke-width:0.190401"
       id="path816" />
    <path
       d="m 74.955243,101.2522 -2.06395,-1.487035 -2.637051,-0.801589 -3.781373,0.913929 -0.112272,0.917725 2.977868,-0.575 2.867455,0.34461 2.060132,1.49085 1.306153,0.79967 0.123761,-0.92724 -0.740666,-0.67593"
       style="fill:#1b2725;fill-opacity:1;fill-rule:nonzero;stroke:none;stroke-width:0.190401"
       id="path818" />
    <path
       d="m 71.743176,107.67063 -1.947803,-0.11426 -2.290535,0.57311 0.230403,1.37469 0.573113,-0.56929 2.292427,-0.23042 h 3.204453 1.319478 v -0.93677 l -0.169469,0.0173 -3.212067,-0.11425"
       style="fill:#1b2725;fill-opacity:1;fill-rule:nonzero;stroke:none;stroke-width:0.190401"
       id="path820" />
    <path
       d="m 75.1247,112.89332 v -1.23379 l -2.00493,-0.43605 -3.097823,0.11427 -2.517109,1.03387 0.687357,1.60317 2.292427,-1.03198 3.320589,-0.3446 1.319489,0.29511"
       style="fill:#1b2725;fill-opacity:1;fill-rule:nonzero;stroke:none;stroke-width:0.190401"
       id="path822" />
    <path
       d="m 126.06654,56.557422 4.24404,-3.669027 4.57154,-2.726545 -0.44959,-0.196135 -8.72797,1.353753 -3.99271,2.831262 -3.89561,6.420329 -1.83357,10.081746 -1.03387,9.283963 -0.91774,7.905455 -0.68735,5.96146 -2.38383,6.458407 2.09442,-0.14093 1.78216,-4.598185 1.60128,-7.334246 2.18199,-16.04511 3.43674,-8.825099 4.00985,-6.761146"
       style="fill:#1b2725;fill-opacity:1;fill-rule:nonzero;stroke:none;stroke-width:0.190401"
       id="path824" />
    <path
       d="m 146.48323,56.458416 -2.93974,-2.536143 -1.53464,-0.670214 -5.62637,1.241415 -5.96147,5.274115 -4.12409,6.530761 -2.98168,8.596611 -1.48703,5.729175 -1.03388,5.616835 -1.25855,5.500688 -1.83737,4.581058 -1.69647,3.602387 1.98778,-0.131375 4.06697,-7.021993 2.86554,-11.001386 3.77946,-11.804868 5.04561,-6.99153 4.35257,-5.157968 6.18805,-1.144314 2.19531,-0.213244"
       style="fill:#1b2725;fill-opacity:1;fill-rule:nonzero;stroke:none;stroke-width:0.190401"
       id="path826" />
    <path
       d="m 152.58563,61.732531 -2.67895,2.044906 -8.37004,3.3225 -5.2703,3.210167 -4.01174,4.354465 -4.58488,11.001386 c 0,0 -3.3206,6.30418 -3.54908,6.646913 -0.15425,0.228454 -1.77073,4.200245 -2.8427,6.841103 l 1.98209,-0.881559 0.14469,-0.05904 1.06053,-2.347639 4.00795,-7.103878 3.89944,-8.596607 3.66523,-5.500687 6.07568,-3.781368 c 0,0 6.9877,-2.751298 7.44657,-2.751298 0.46092,0 4.35829,-2.292433 4.35829,-2.292433 l 1.35568,-0.873941 -0.38267,-1.247126 -2.30573,-1.985882"
       style="fill:#1b2725;fill-opacity:1;fill-rule:nonzero;stroke:none;stroke-width:0.190401"
       id="path828" />
    <path
       d="m 156.81061,69.94453 -3.23492,2.313375 -6.76685,4.126002 -5.2722,2.176279 -3.55098,2.182001 -3.66711,3.322493 -3.55291,7.101974 -1.88497,5.656809 1.06625,0.0628 3.56809,-7.437069 3.5567,-5.272211 c 0,0 6.18615,-3.092113 6.53266,-3.206357 0.34056,-0.11804 6.53077,-2.410478 6.53077,-2.410478 l 6.18994,-1.947803 2.01256,-1.73265 -1.52703,-4.935202"
       style="fill:#1b2725;fill-opacity:1;fill-rule:nonzero;stroke:none;stroke-width:0.190401"
       id="path830" />
    <path
       d="m 156.69635,85.178523 c 0,0 -3.58142,2.206758 -3.92797,2.437139 -0.34272,0.226573 -4.46677,1.260457 -4.46677,1.260457 l -4.58488,0.573113 -5.61686,1.376593 -4.01174,3.665226 -1.82592,4.331632 0.67972,0.613086 0.23046,-0.702574 2.29435,-2.981687 3.32063,-1.947802 6.76112,-1.605082 7.4523,-0.915834 2.2734,-1.616503 1.16142,-2.911234 0.26069,-1.57653"
       style="fill:#1b2725;fill-opacity:1;fill-rule:nonzero;stroke:none;stroke-width:0.190401"
       id="path832" />
    <path
       d="m 146.23383,109.04723 1.9554,-1.82024 0.0432,-1.16334 -2.22769,1.72122 -2.28862,1.71932 -2.7494,0.575 -3.09782,-0.45886 0.68921,1.1443 2.29247,0.57312 2.86554,-0.11427 2.51708,-2.17627"
       style="fill:#1b2725;fill-opacity:1;fill-rule:nonzero;stroke:none;stroke-width:0.190401"
       id="path834" />
    <path
       d="m 148.03121,111.37963 0.0377,-1.03959 -2.17626,1.91354 -2.29057,1.26425 h -3.09588 l 0.23046,1.03007 1.37471,0.22847 4.12027,-1.60318 1.79738,-1.79357"
       style="fill:#1b2725;fill-opacity:1;fill-rule:nonzero;stroke:none;stroke-width:0.190401"
       id="path836" />
    <path
       d="m 147.84273,117.64381 1.55558,-2.10202 -0.39615,-1.05101 -1.15953,1.43371 -1.14243,1.26045 -2.18198,1.14433 -2.51904,0.2304 0.45498,1.37469 2.52282,-0.11425 2.86553,-2.1763"
       style="fill:#1b2725;fill-opacity:1;fill-rule:nonzero;stroke:none;stroke-width:0.190401"
       id="path838" />
    <path
       d="m 114.88618,52.071573 -1.88307,3.111155 -1.14622,6.41652 -1.03007,6.075701 -0.2304,4.354476 -1.3747,3.667125 0.45699,2.178194 1.94969,-3.897513 1.48704,-6.075702 1.49085,-9.053579 2.63706,-5.386447 1.32328,-1.496557 -3.68045,0.106653"
       style="fill:#1b2725;fill-opacity:1;fill-rule:nonzero;stroke:none;stroke-width:0.190401"
       id="path840" />
    <path
       d="m 105.34327,100.63531 1.58033,-0.10475 c 0.85871,-1.913546 1.88687,-4.234537 1.95161,-4.434462 0.11615,-0.344601 0.8035,-8.253886 0.8035,-8.253886 l -0.7064,-3.92988 -3.98509,1.077665 0.10851,0.675924 v 4.240241 l -0.45887,6.306084 -1.13669,4.548694 1.84308,-0.12565"
       style="fill:#231a19;fill-opacity:1;fill-rule:nonzero;stroke:none;stroke-width:0.190401"
       id="path842" />
    <path
       d="m 93.831617,55.91006 5.723454,0.249405 -0.125642,-3.63476 -0.752087,0.02105 -5.081804,-0.784456 0.236068,4.148843"
       style="fill:#664d4b;fill-opacity:1;fill-rule:nonzero;stroke:none;stroke-width:0.190401"
       id="path844" />
    <path
       d="m 109.65966,52.223893 -1.01102,1.123367 -1.53274,3.069269 1.23571,-0.03023 0.18281,-0.401768 2.96264,-3.81183 -1.83738,0.05127"
       style="fill:#664d4b;fill-opacity:1;fill-rule:nonzero;stroke:none;stroke-width:0.190401"
       id="path846" />
    <path
       d="m 118.56663,51.964946 -3.68045,0.106653 -1.88307,3.111155 -0.19614,1.094807 2.59898,-0.06283 0.52359,-0.06666 1.31376,-2.686558 1.32329,-1.496557"
       style="fill:#664d4b;fill-opacity:1;fill-rule:nonzero;stroke:none;stroke-width:0.190401"
       id="path848" />
    <path
       d="m 121.71207,54.150752 -0.83396,1.380408 4.61532,-0.576911 2.86554,-0.376994 1.95161,-1.68886 4.57154,-2.726545 -0.44959,-0.196135 -8.72797,1.353753 -3.99271,2.831262"
       style="fill:#664d4b;fill-opacity:1;fill-rule:nonzero;stroke:none;stroke-width:0.190401"
       id="path850" />
    <path
       d="m 116.89872,81.77035 -2.2315,0.603568 -0.63594,5.468328 -0.68735,5.96146 -2.38383,6.458404 1.74598,-0.11614 0.34844,-0.0249 1.78217,-4.598193 1.60126,-7.334246 0.89109,-6.557425 -0.43033,0.138978"
       style="fill:#231a19;fill-opacity:1;fill-rule:nonzero;stroke:none;stroke-width:0.190401"
       id="path852" />
    <path
       d="m 124.28058,84.22462 -0.33512,-4.687677 -2.00111,0.632132 -0.11615,0.455039 -1.03388,5.616835 -1.25856,5.500687 -1.83736,4.581058 -1.69647,3.602387 1.98778,-0.131375 4.06697,-7.021993 2.22389,-8.547104"
       style="fill:#231a19;fill-opacity:1;fill-rule:nonzero;stroke:none;stroke-width:0.190401"
       id="path854" />
    <path
       d="m 136.38248,54.493474 -0.22074,0.198023 4.68957,0.832054 1.88874,1.435627 1.54798,-0.287508 2.19532,-0.213244 -2.93976,-2.536143 -1.53464,-0.670214 -5.62636,1.241416"
       style="fill:#664d4b;fill-opacity:1;fill-rule:nonzero;stroke:none;stroke-width:0.190401"
       id="path856" />
    <path
       d="m 124.46527,95.865752 1.69647,-3.015961 -0.66831,-0.592148 -0.29323,-1.926852 c -0.55216,1.031969 -1.0015,1.865929 -1.07957,1.982077 -0.15425,0.228454 -1.77073,4.200245 -2.84269,6.841103 l 1.98208,-0.881559 0.14469,-0.05904 1.06053,-2.347639"
       style="fill:#231a19;fill-opacity:1;fill-rule:nonzero;stroke:none;stroke-width:0.190401"
       id="path858" />
    <path
       d="m 150.50835,63.318568 2.37617,2.180095 0.68357,0.546451 c 0.21534,-0.125646 0.35027,-0.205633 0.35027,-0.205633 l 1.35567,-0.873942 -0.38266,-1.247125 -2.30574,-1.985883 -2.07728,1.586037"
       style="fill:#664d4b;fill-opacity:1;fill-rule:nonzero;stroke:none;stroke-width:0.190401"
       id="path860" />
    <path
       d="m 129.96405,83.145052 -0.29701,-2.267682 -1.19953,2.878864 0.29323,2.998819 0.29323,0.725426 1.3309,-2.932173 -0.42076,-1.403254"
       style="fill:#231a19;fill-opacity:1;fill-rule:nonzero;stroke:none;stroke-width:0.190401"
       id="path862" />
    <path
       d="m 131.76907,89.163627 -1.00343,2.003027 -0.0952,0.289389 0.32562,0.801589 0.51792,1.363269 1.21283,-2.52471 -0.70067,-1.075773 -0.2569,-0.856802"
       style="fill:#231a19;fill-opacity:1;fill-rule:nonzero;stroke:none;stroke-width:0.190401"
       id="path864" />
    <path
       d="m 129.34905,95.416401 -0.46836,1.407062 1.06624,0.0628 0.40365,-0.841574 -1.00151,-0.628326"
       style="fill:#231a19;fill-opacity:1;fill-rule:nonzero;stroke:none;stroke-width:0.190401"
       id="path866" />
    <path
       d="m 95.042561,84.571148 0.19614,1.439432 -0.573112,6.989633 -2.121067,6.620252 1.186198,0.152302 1.399459,0.180867 1.825933,-2.711311 1.949718,-8.480482 0.283678,-3.903219 -4.146947,-0.287508"
       style="fill:#231a19;fill-opacity:1;fill-rule:nonzero;stroke:none;stroke-width:0.190401"
       id="path868" />
    <path
       d="m 91.272621,51.399454 -1.397544,-0.215132 -0.988178,4.282121 1.42229,0.287509 0.253233,0.01349 -0.02109,-0.125647 0.731136,-4.242139"
       style="fill:#664d4b;fill-opacity:1;fill-rule:nonzero;stroke:none;stroke-width:0.190401"
       id="path870" />
    <path
       d="m 86.310771,97.487966 1.186199,0.571197 1.780249,-7.922586 -0.310338,-6.020491 -1.753601,-0.249404 0.46459,1.572723 -0.118039,5.611113 -1.249025,6.437471"
       style="fill:#231a19;fill-opacity:1;fill-rule:nonzero;stroke:none;stroke-width:0.190401"
       id="path872" />
    <path
       d="m 85.324486,50.481725 -0.66831,-0.104704 -1.222377,3.659511 -0.01516,0.323671 2.442849,0.496973 1.555579,-4.053641 -2.092502,-0.321781"
       style="fill:#664d4b;fill-opacity:1;fill-rule:nonzero;stroke:none;stroke-width:0.190401"
       id="path874" />
    <path
       d="m 83.778424,88.990363 -1.464178,-4.632464 -1.228086,0.348443 1.547965,4.857145 -0.470312,5.923367 0.196129,0.09335 0.472204,0.228465 0.946289,-6.818261"
       style="fill:#231a19;fill-opacity:1;fill-rule:nonzero;stroke:none;stroke-width:0.190401"
       id="path876" />
    <path
       d="m 80.248393,53.590976 0.4341,0.217075 0.852995,0.16753 1.157634,-3.903228 -0.693055,-0.106595 -1.018645,-0.559782 -0.733052,4.185021"
       style="fill:#664d4b;fill-opacity:1;fill-rule:nonzero;stroke:none;stroke-width:0.190401"
       id="path878" />
    <path
       d="m 76.329945,50.597868 -0.2894,0.889172 1.410868,0.70258 0.253245,-1.247125 1.170959,-2.699889 -0.89869,-0.49692 -1.646971,2.852208"
       style="fill:#664d4b;fill-opacity:1;fill-rule:nonzero;stroke:none;stroke-width:0.190401"
       id="path880" />
    <path
       d="m 66.246284,90.825825 1.810717,-2.10202 -0.07614,-4.520135 -0.133313,0.432208 -3.554788,7.676978 -2.680844,2.854119 0.723523,0.481699 2.419996,-2.416189 1.490849,-2.406671"
       style="fill:#231a19;fill-opacity:1;fill-rule:nonzero;stroke:none;stroke-width:0.190401"
       id="path882" />
    <path
       d="m 72.786567,50.217063 1.437528,-3.859428 -1.932563,-0.594054 -0.552174,-0.169472 -1.087183,3.87847 2.134392,0.744468"
       style="fill:#664d4b;fill-opacity:1;fill-rule:nonzero;stroke:none;stroke-width:0.190401"
       id="path884" />
    <path
       d="m 63.491182,84.864366 1.776442,-3.290133 -1.277589,-2.067758 -2.102032,2.380022 c 0,0 -2.520903,2.633245 -2.863624,2.749392 -0.251353,0.08378 -3.010251,1.146214 -4.482054,1.711701 l 1.159549,2.814134 1.740265,2.557081 2.498062,-2.499965 3.550981,-4.354474"
       style="fill:#231a19;fill-opacity:1;fill-rule:nonzero;stroke:none;stroke-width:0.190401"
       id="path886" />
    <path
       d="m 52.811578,82.130202 3.004529,-1.85069 3.550993,-6.646909 0.17136,-0.611189 -1.915432,-2.189611 -0.6626,2.227693 -2.635159,5.157969 -2.452366,1.631731 0.938675,2.281006"
       style="fill:#231a19;fill-opacity:1;fill-rule:nonzero;stroke:none;stroke-width:0.190401"
       id="path888" />
    <path
       d="m 67.841849,44.008082 -0.06474,-0.03023 -1.174777,-0.542645 -1.205245,3.274901 1.447057,0.963427 0.997695,-3.665221"
       style="fill:#664d4b;fill-opacity:1;fill-rule:nonzero;stroke:none;stroke-width:0.190401"
       id="path890" />
    <path
       d="M 78.13494,84.609229 77.306702,84.4131 77.1315,85.6964 l 0.685453,0.08571 1.837366,2.176291 0.455038,-0.801589 -1.719314,-2.408575 -0.255126,-0.138978"
       style="fill:#231a19;fill-opacity:1;fill-rule:nonzero;stroke:none;stroke-width:0.190401"
       id="path892" />
    <path
       d="m 76.784995,96.459803 0.31989,-0.546452 -1.233797,-1.077676 -1.349945,-0.567391 -1.287118,1.426097 -3.610001,-0.515962 -0.350334,-1.205245 -3.373911,2.353362 -0.689248,0.689248 1.477513,0.342721 0.129483,-0.116147 3.094017,-1.146214 2.751295,-0.456988 2.977869,0.456988 0.931061,0.72733 0.213249,-0.363659"
       style="fill:#231a19;fill-opacity:1;fill-rule:nonzero;stroke:none;stroke-width:0.190401"
       id="path894" />
    <path
       d="m 72.891293,99.765165 -1.666017,-0.508359 0.740666,1.279494 0.239909,0.0286 2.060132,1.49084 1.306153,0.79969 0.03989,-0.29323 0.08378,-0.63404 -0.740655,-0.67592 -2.06395,-1.487051"
       style="fill:#231a19;fill-opacity:1;fill-rule:nonzero;stroke:none;stroke-width:0.190401"
       id="path896" />
    <path
       d="m 72.662805,103.88736 -0.180855,-0.0383 -0.02644,1.00532 1.696473,0.75399 -0.114267,-1.03198 -1.37469,-0.68925"
       style="fill:#231a19;fill-opacity:1;fill-rule:nonzero;stroke:none;stroke-width:0.190401"
       id="path898" />
    <path
       d="m 75.1247,107.76773 -0.169479,0.0173 -2.578032,-0.0914 -0.02485,1.01103 h 1.452756 1.319489 v -0.93678"
       style="fill:#231a19;fill-opacity:1;fill-rule:nonzero;stroke:none;stroke-width:0.190401"
       id="path900" />
    <path
       d="m 75.1247,111.65953 -2.00493,-0.43605 -0.837767,0.0302 -0.04377,1.50607 1.567,-0.16186 1.319478,0.29512 v -1.2338"
       style="fill:#231a19;fill-opacity:1;fill-rule:nonzero;stroke:none;stroke-width:0.190401"
       id="path902" />
    <path
       d="m 71.887876,115.11338 -0.308446,0.98247 0.626421,-0.059 1.831656,0.23041 v -0.68925 l -1.260458,-0.5712 -0.889173,0.10669"
       style="fill:#231a19;fill-opacity:1;fill-rule:nonzero;stroke:none;stroke-width:0.190401"
       id="path904" />
    <path
       d="m 70.720713,118.86239 -0.06474,0.20946 0.08002,0.74828 h 2.956942 v -0.91964 h -2.176291 l -0.795879,-0.0383"
       style="fill:#231a19;fill-opacity:1;fill-rule:nonzero;stroke:none;stroke-width:0.190401"
       id="path906" />
    <path
       d="m 71.038688,122.74467 0.07614,0.70829 0.515973,-0.08 1.717423,-0.80348 v -0.57121 l -1.374702,0.57121 -0.934868,0.17513"
       style="fill:#231a19;fill-opacity:1;fill-rule:nonzero;stroke:none;stroke-width:0.190401"
       id="path908" />
    <path
       d="m 72.777049,126.12238 v -0.80158 l -1.033873,0.45886 -0.376995,0.0249 0.0497,0.49504 1.361366,-0.17709"
       style="fill:#231a19;fill-opacity:1;fill-rule:nonzero;stroke:none;stroke-width:0.190401"
       id="path910" />
    <path
       d="m 156.63925,85.502209 0.0572,-0.323663 c 0,0 -1.83165,1.130985 -3.0064,1.860219 l -2.65229,4.487764 1.96302,-0.243739 2.2734,-1.616503 0.85297,-2.132499 0.5122,-2.031579"
       style="fill:#231a19;fill-opacity:1;fill-rule:nonzero;stroke:none;stroke-width:0.190401"
       id="path912" />
    <path
       d="m 135.67037,95.631554 -1.05099,-1.624117 -0.53109,0.483636 -1.20141,2.852216 v 2.043 l 0.0551,0.0497 0.23046,-0.702584 2.29435,-2.981688 0.20347,-0.11992"
       style="fill:#231a19;fill-opacity:1;fill-rule:nonzero;stroke:none;stroke-width:0.190401"
       id="path914" />
    <path
       d="m 147.84273,98.274327 4.00985,-2.178194 0.57308,-1.260458 -2.63513,0.799686 c 0,0 -0.63212,0.182804 -1.42232,0.399825 l -1.41844,2.397154 0.89296,-0.158024"
       style="fill:#231a19;fill-opacity:1;fill-rule:nonzero;stroke:none;stroke-width:0.190401"
       id="path916" />
    <path
       d="m 138.45787,100.82189 -0.92918,-1.862121 -0.80348,0.34655 -1.25858,1.831661 1.03005,1.14622 1.72128,-1.3747 0.24018,-0.0875"
       style="fill:#231a19;fill-opacity:1;fill-rule:nonzero;stroke:none;stroke-width:0.190401"
       id="path918" />
    <path
       d="m 146.08341,102.57549 1.18619,-0.74827 0.80159,-1.26237 -1.78215,0.67022 -0.20563,1.34042"
       style="fill:#231a19;fill-opacity:1;fill-rule:nonzero;stroke:none;stroke-width:0.190401"
       id="path920" />
    <path
       d="m 140.44755,104.80509 -0.16947,-0.34272 -3.20637,0.45699 0.11227,0.91773 1.60318,0.23041 1.80881,0.0838 -0.14841,-1.34614"
       style="fill:#231a19;fill-opacity:1;fill-rule:nonzero;stroke:none;stroke-width:0.190401"
       id="path922" />
    <path
       d="m 146.38236,113.0266 1.64885,-1.64697 0.0324,-0.86441 0.006,-0.1752 -1.80498,1.58794 0.11603,1.09862"
       style="fill:#231a19;fill-opacity:1;fill-rule:nonzero;stroke:none;stroke-width:0.190401"
       id="path924" />
    <path
       d="m 145.83972,107.91054 0.14843,1.35374 0.24558,-0.21707 1.9554,-1.82023 0.0432,-1.16334 -2.2277,1.72121 -0.16569,0.12565"
       style="fill:#231a19;fill-opacity:1;fill-rule:nonzero;stroke:none;stroke-width:0.190401"
       id="path926" />
    <path
       d="m 141.15205,111.32823 -0.13548,-1.26046 -0.0486,0.0114 -3.09783,-0.45887 0.68922,1.14431 2.29246,0.57311 0.30062,-0.0103"
       style="fill:#231a19;fill-opacity:1;fill-rule:nonzero;stroke:none;stroke-width:0.190401"
       id="path928" />
    <path
       d="m 141.51188,114.67737 -0.12576,-1.15954 h -0.87775 l 0.23046,1.03007 0.77305,0.12948"
       style="fill:#231a19;fill-opacity:1;fill-rule:nonzero;stroke:none;stroke-width:0.190401"
       id="path930" />
    <path
       d="m 147.20295,116.62327 0.53702,1.09671 0.10304,-0.0761 1.55558,-2.10203 -0.39615,-1.05101 -1.15954,1.43371 -0.63978,0.69878"
       style="fill:#231a19;fill-opacity:1;fill-rule:nonzero;stroke:none;stroke-width:0.190401"
       id="path932" />
    <path
       d="m 143.28641,119.89627 -0.5864,-1.40136 -0.70071,0.0647 0.45498,1.37469 0.83203,-0.0383"
       style="fill:#231a19;fill-opacity:1;fill-rule:nonzero;stroke:none;stroke-width:0.190401"
       id="path934" />
    <path
       d="m 149.58873,123.90992 0.88724,-0.65307 0.23424,-1.14431 -0.87964,0.45697 -0.24179,1.34043"
       style="fill:#231a19;fill-opacity:1;fill-rule:nonzero;stroke:none;stroke-width:0.190401"
       id="path936" />
    <path
       d="m 48.938826,73.518361 2.43332,-5.258879 -1.517498,-0.584533 -3.238717,-2.783664 -0.660696,1.294728 -2.170569,3.895607 -0.239909,4.900925 0.468375,0.597858 4.127889,2.109645 0.797782,-4.171687"
       style="fill:#231a19;fill-opacity:1;fill-rule:nonzero;stroke:none;stroke-width:0.190401"
       id="path938" />
    <path
       d="m 61.429135,44.638308 -0.01026,0.03238 1.408964,0.628321 0.550259,-1.576522 0.487421,-1.55367 -0.605472,-0.281787 -0.634035,-0.376995 -1.197631,3.128287"
       style="fill:#664d4b;fill-opacity:1;fill-rule:nonzero;stroke:none;stroke-width:0.190401"
       id="path940" />
    <path
       d="m 55.159229,37.088902 -0.521695,4.072683 1.290925,1.070053 0.559777,0.249405 0.125642,-0.820628 0.31418,-3.528132 -1.76884,-1.043403"
       style="fill:#664d4b;fill-opacity:1;fill-rule:nonzero;stroke:none;stroke-width:0.190401"
       id="path942" />
    <path
       d="m 40.229867,66.873363 3.103545,-4.803825 -2.600874,-2.231499 -1.304249,2.105835 -3.170179,3.076884 1.218569,2.136298 0.626411,0.807302 2.126777,-1.090995"
       style="fill:#231a19;fill-opacity:1;fill-rule:nonzero;stroke:none;stroke-width:0.190401"
       id="path944" />
    <path
       d="m 47.870679,35.721823 0.721619,0.43604 0.0685,0.0571 0.847285,-2.475215 -1.012935,-0.597858 -0.624507,2.579936"
       style="fill:#664d4b;fill-opacity:1;fill-rule:nonzero;stroke:none;stroke-width:0.190401"
       id="path946" />
    <path
       d="m 35.037626,53.962254 -2.526614,4.504897 1.955416,3.425315 2.206747,-2.355262 0.773037,-2.602788 -2.408586,-2.972162"
       style="fill:#231a19;fill-opacity:1;fill-rule:nonzero;stroke:none;stroke-width:0.190401"
       id="path948" />
    <path
       d="m 42.97927,31.917608 0.325612,-1.500362 -1.191909,-0.519804 -0.447436,2.10393 1.054823,0.630231 0.258967,-0.714006"
       style="fill:#664d4b;fill-opacity:1;fill-rule:nonzero;stroke:none;stroke-width:0.190401"
       id="path950" />
    <path
       d="m 32.299666,50.584543 -1.110047,-1.372794 -1.949706,3.040706 0.228465,0.4817 0.310339,0.649266 1.854508,-1.641261 0.666407,-1.157635"
       style="fill:#231a19;fill-opacity:1;fill-rule:nonzero;stroke:none;stroke-width:0.190401"
       id="path952" />
    <path
       d="m 40.197507,29.057784 -1.077676,-0.468369 -1.296635,-0.569296 -0.257007,1.784059 1.864026,0.915829 0.767315,-1.662202"
       style="fill:#664d4b;fill-opacity:1;fill-rule:nonzero;stroke:none;stroke-width:0.190401"
       id="path954" />
    <path
       d="m 29.338929,46.932646 -1.612699,2.121067 0.399829,0.841574 0.870126,-1.818332 0.367501,-1.119556 -0.02485,-0.02483"
       style="fill:#231a19;fill-opacity:1;fill-rule:nonzero;stroke:none;stroke-width:0.190401"
       id="path956" />
    <path
       d="m 36.273338,27.346072 -1.073869,-0.468368 -0.418872,1.553675 1.210955,0.597859 0.281786,-1.68315"
       style="fill:#664d4b;fill-opacity:1;fill-rule:nonzero;stroke:none;stroke-width:0.190401"
       id="path958" />
    <path
       d="m 25.212933,43.722479 -0.268457,0.573107 0.384605,3.09402 0.247515,3.299653 0.723526,-0.786356 0.306561,-0.335112 -0.245626,-2.63515 0.09709,-3.210168 h -1.245225"
       style="fill:#231a19;fill-opacity:1;fill-rule:nonzero;stroke:none;stroke-width:0.190401"
       id="path960" />
    <path
       d="m 24.182861,50.483625 v -1.605078 l -0.367495,-2.202942 -0.662598,1.40135 -0.601664,0.46648 0.142811,1.367078 -0.714007,3.57954 1.570812,-0.601662 0.230406,-0.243738 0.401767,-2.161055"
       style="fill:#231a19;fill-opacity:1;fill-rule:nonzero;stroke:none;stroke-width:0.190401"
       id="path962" />
    <path
       d="m 20.401492,53.34726 0.344612,-2.520913 -0.192302,-0.727331 -1.203338,0.93487 0.02105,0.02105 -0.342722,2.292428 -0.6169,1.509882 0.209411,-0.08187 1.159545,-0.44365 0.620705,-0.984373"
       style="fill:#231a19;fill-opacity:1;fill-rule:nonzero;stroke:none;stroke-width:0.190401"
       id="path964" />
    <path
       d="m 15.932779,55.411208 0.687349,-2.063948 -0.09709,-0.755894 -0.873942,0.456981 -0.519804,2.593262 -0.413155,0.479811 0.799687,-0.266568 0.416987,-0.44365"
       style="fill:#231a19;fill-opacity:1;fill-rule:nonzero;stroke:none;stroke-width:0.190401"
       id="path966" />
    <path
       d="m 22.693925,27.216605 -0.100931,0.934865 0.272289,-0.188524 0.544545,-0.09521 -0.144699,-1.338521 -0.403656,-1.155734 -0.653072,0.04588 -0.06471,0.0038 0.55026,1.793581"
       style="fill:#231a19;fill-opacity:1;fill-rule:nonzero;stroke:none;stroke-width:0.190401"
       id="path968" />
    <path
       d="m 18.832591,26.502599 -0.729236,0.538855 -0.255126,0.186582 0.948202,0.792071 0.803491,2.063948 -0.0075,0.154198 0.809202,-0.561681 V 29.282454 L 19.481893,26.98812 18.832626,26.502599"
       style="fill:#231a19;fill-opacity:1;fill-rule:nonzero;stroke:none;stroke-width:0.190401"
       id="path970" />
    <path
       d="m 17.87868,32.604958 0.295119,-0.540741 -0.523583,-1.865929 -1.260451,-1.605084 -0.201801,-0.137089 -0.892983,0.656882 0.868231,0.738757 0.913925,2.755109 0.45698,2.749392 0.91964,0.226574 v -1.544154 l -0.575013,-1.433717"
       style="fill:#231a19;fill-opacity:1;fill-rule:nonzero;stroke:none;stroke-width:0.190401"
       id="path972" />
    <path
       d="m 12.379895,55.411208 -2.062048,2.062048 -4.6990978,2.260061 0.053435,0.03238 1.2033378,1.890682 1.5479599,-0.515972 2.7512961,-1.3747 0.858711,-1.374692 1.648876,-1.650782 -0.614999,-0.411267 -0.687344,-0.917734"
       style="fill:#231a19;fill-opacity:1;fill-rule:nonzero;stroke:none;stroke-width:0.190401"
       id="path974" />
    <path
       d="M 3.670943,49.108932 3.1435293,47.709481 0.51408963,51.686963 0.17519975,55.123705 0.41699414,55.369331 4.546796,49.230801 3.6709487,49.108932"
       style="fill:#231a19;fill-opacity:1;fill-rule:nonzero;stroke:none;stroke-width:0.190401"
       id="path976" />
    <path
       d="m 13.924045,31.915702 -3.779464,-3.094018 -1.7212259,-1.030072 9.2839639,-6.189938 9.628585,-3.610007 12.03145,1.721226 9.455324,1.888781 9.455324,7.050553 12.20662,8.250083 5.15416,4.468718 4.125997,3.783269 3.26728,1.890687 -2.062047,3.094019 -7.220013,-2.922658 -6.877293,-2.579936 -10.140766,-5.498791 -9.626684,-5.845311 -8.939328,-4.125996 -6.361308,-2.922659 -5.841509,-0.515972 -5.5064,0.85871 -4.641979,3.265382 -1.890687,2.063948"
       style="fill:#e4bca0;fill-opacity:1;fill-rule:nonzero;stroke:none;stroke-width:0.190401"
       id="path978" />
    <path
       d="m 15.294932,29.112997 0.630232,0.664503 0.852995,-0.599764 -3.566215,-4.577244 -1.546055,1.030071 3.629043,3.482434"
       style="fill:#664d4b;fill-opacity:1;fill-rule:nonzero;stroke:none;stroke-width:0.190401"
       id="path980" />
    <path
       d="m 14.143008,31.677703 0.620706,-0.675923 -1.066244,-1.892588 -3.059747,-2.79509 -1.1462138,0.763509 4.6514988,4.600092"
       style="fill:#664d4b;fill-opacity:1;fill-rule:nonzero;stroke:none;stroke-width:0.190401"
       id="path982" />
    <path
       d="m 17.823461,24.41009 -1.919244,-1.605084 -1.041491,0.693066 2.273386,2.576124 1.521307,1.782155 0.923445,-0.653078 -1.757403,-2.793183"
       style="fill:#664d4b;fill-opacity:1;fill-rule:nonzero;stroke:none;stroke-width:0.190401"
       id="path984" />
    <path
       d="m 21.258298,22.692674 1.096711,3.60048 0.910118,-0.144698 -0.68735,-3.28632 -0.887267,-2.755108 -1.176681,0.44365 0.744469,2.142012"
       style="fill:#664d4b;fill-opacity:1;fill-rule:nonzero;stroke:none;stroke-width:0.190401"
       id="path986" />
    <path
       d="m 26.856094,25.807634 0.30656,-4.779067 -0.407434,-2.816036 -2.069664,0.771125 0.931066,3.421509 0.154198,3.351061 0.192302,-0.02861 0.892982,0.07998"
       style="fill:#664d4b;fill-opacity:1;fill-rule:nonzero;stroke:none;stroke-width:0.190401"
       id="path988" />
    <path
       d="m 31.471417,26.21319 1.536533,-3.979385 0.148541,-3.41199 -2.142016,-0.302729 -0.298952,4.057447 -1.186199,3.467202 1.942093,0.169471"
       style="fill:#664d4b;fill-opacity:1;fill-rule:nonzero;stroke:none;stroke-width:0.190401"
       id="path990" />
    <path
       d="m 36.34379,19.27878 -0.413161,5.533055 -1.020549,2.857923 1.233797,0.569298 1.732651,-5.032298 0.786361,-3.596682 -2.319087,-0.33128"
       style="fill:#1b2725;fill-opacity:1;fill-rule:nonzero;stroke:none;stroke-width:0.190401"
       id="path992" />
    <path
       d="m 40.783944,19.994686 -0.613097,2.697988 -0.97295,2.865535 -1.365172,3.453877 0.333214,0.154197 1.599383,0.738758 1.033873,-2.17248 1.662198,-4.986606 0.363671,-2.343835 -2.041108,-0.407488"
       style="fill:#1b2725;fill-opacity:1;fill-rule:nonzero;stroke:none;stroke-width:0.190401"
       id="path994" />
    <path
       d="m 47.442266,21.325592 -1.725036,-0.342722 -0.392212,1.709804 -2.174376,5.327423 -1.220473,2.882671 1.273782,0.592147 0.634036,-1.18429 2.006823,-4.238334 1.487042,-3.610007 0.110448,-1.136692"
       style="fill:#1b2725;fill-opacity:1;fill-rule:nonzero;stroke:none;stroke-width:0.190401"
       id="path996" />
    <path
       d="m 50.44871,22.814527 -0.365563,2.684657 -0.801589,2.692273 -0.571197,3.838488 -0.447425,1.966843 1.028162,0.622614 1.022452,-1.443243 1.319489,-2.57803 1.831655,-3.149239 1.416579,-1.332806 -4.43254,-3.301557"
       style="fill:#1b2725;fill-opacity:1;fill-rule:nonzero;stroke:none;stroke-width:0.190401"
       id="path998" />
    <path
       d="m 58.278002,28.652227 -1.098614,-0.820628 -0.906316,3.111156 -0.456976,4.870459 -0.554066,2.433327 1.469899,0.891077 0.07614,0.03994 2.096321,-5.314097 1.664102,-3.665221 -2.290524,-1.54606"
       style="fill:#1b2725;fill-opacity:1;fill-rule:nonzero;stroke:none;stroke-width:0.190401"
       id="path1000" />
    <path
       d="m 64.188056,32.644941 -0.753991,4.542972 -1.205244,4.929488 1.473706,0.799682 1.450864,-3.263476 2.557082,-4.624843 -3.522417,-2.383823"
       style="fill:#1b2725;fill-opacity:1;fill-rule:nonzero;stroke:none;stroke-width:0.190401"
       id="path1002" />
    <path
       d="m 70.484622,36.90231 -1.833559,-1.237606 c -0.390331,1.631736 -1.163356,4.834288 -1.205244,4.961855 -0.04206,0.133258 -0.868223,2.54947 -1.247134,3.64618 l 0.674021,0.363664 0.805396,0.302729 0.91393,-2.650381 3.076885,-4.358286 -1.184295,-1.028167"
       style="fill:#1b2725;fill-opacity:1;fill-rule:nonzero;stroke:none;stroke-width:0.190401"
       id="path1004" />
    <path
       d="m 76.341355,42.01268 -0.702573,-0.641652 -2.381926,-2.065853 -1.167152,3.556694 -0.632132,3.495766 2.292427,0.85871 0.137097,0.05521 1.696473,-2.519007 0.757786,-2.739871"
       style="fill:#1b2725;fill-opacity:1;fill-rule:nonzero;stroke:none;stroke-width:0.190401"
       id="path1006" />
    <path
       d="m 79.764779,45.154297 -0.725438,-0.670213 -0.477915,1.873551 -1.222376,2.309563 1.073858,0.437929 1.180487,-2.060138 0.91393,-1.462284 -0.742569,-0.428376"
       style="fill:#1b2725;fill-opacity:1;fill-rule:nonzero;stroke:none;stroke-width:0.190401"
       id="path1008" />
    <path
       d="m 80.970012,50.139003 2.062047,-3.094019 -0.719716,-0.418877 -0.483591,1.336617 -1.070051,2.090609 0.211345,0.0857"
       style="fill:#1b2725;fill-opacity:1;fill-rule:nonzero;stroke:none;stroke-width:0.190401"
       id="path1010" />
    <path
       d="m 75.638782,41.371028 -5.15416,-4.468718 -12.20662,-8.250083 -9.455324,-7.050553 -9.455324,-1.888781 -12.03145,-1.721226 -9.628585,3.610007 -9.2839639,6.189938 1.7212259,1.030072 0.06666,0.05521 2.8008,-2.40477 5.843411,-3.610003 5.925283,-2.063947 8.741322,-0.228463 10.517761,2.122976 7.130526,2.48854 4.645777,5.074193 4.466815,2.49235 5.241743,3.695688 6.363212,4.554393 2.751295,1.547966 2.747488,2.40667 1.719326,1.376598 2.494255,1.285209 0.837767,0.32178 0.594051,-0.891077 -3.26728,-1.890687 -4.125997,-3.783269"
       style="fill:#664d4b;fill-opacity:1;fill-rule:nonzero;stroke:none;stroke-width:0.190401"
       id="path1012" />
    <path
       d="m 24.582702,29.166311 3.095924,-2.579937 3.438649,-4.641978 2.404768,-1.374698 1.376605,1.892586 -1.547966,6.532666 -4.984703,3.094019 -2.576129,-0.515971 -1.547965,-0.173251 0.340833,-2.233403"
       style="fill:#e4bca0;fill-opacity:1;fill-rule:nonzero;stroke:none;stroke-width:0.190401"
       id="path1014" />
    <path
       d="m 33.522043,20.569698 -2.404768,1.374698 -3.438649,4.641978 -3.095924,2.579937 -0.194191,1.260456 3.806119,-1.372794 4.356378,-3.897511 1.372798,-2.408575 0.70067,0.873942 0.274183,-1.159545 -1.376605,-1.892586"
       style="fill:#d5ae84;fill-opacity:1;fill-rule:nonzero;stroke:none;stroke-width:0.190401"
       id="path1016" />
    <path
       d="m 21.258298,36.357765 -1.803096,-0.171362 -1.976368,0.944391 -0.430319,1.201428 0.346554,1.462284 1.633645,0.77303 2.490446,-1.203338 0.514083,-2.145823 -0.774935,-0.86061"
       style="fill:#e4bca0;fill-opacity:1;fill-rule:nonzero;stroke:none;stroke-width:0.190401"
       id="path1018" />
    <path
       d="m 18.680266,39.765945 -1.346137,-0.215133 0.06094,0.243738 1.633646,0.773029 2.490444,-1.203337 0.276068,-1.161451 -1.338522,0.990089 -1.776444,0.573108"
       style="fill:#d5a26b;fill-opacity:1;fill-rule:nonzero;stroke:none;stroke-width:0.190401"
       id="path1020" />
    <path
       d="m 20.58999,36.671925 -2.122973,0.651172 -0.190412,0.906308 0.441761,0.260847 -0.190414,0.647362 h 1.062438 l 1.125273,-0.908214 0.371273,-1.426102 -0.496974,-0.131367"
       style="fill:#231a19;fill-opacity:1;fill-rule:nonzero;stroke:none;stroke-width:0.190401"
       id="path1022" />
    <path
       d="m 22.033232,37.218375 -0.774934,-0.86061 -1.803096,-0.171362 -1.976368,0.944391 -0.430319,1.201428 0.0571,0.247515 0.773029,-0.818723 1.31567,-0.514082 1.435628,-0.230407 1.378504,0.30845 0.02483,-0.106653"
       style="fill:#f8dcbe;fill-opacity:1;fill-rule:nonzero;stroke:none;stroke-width:0.190401"
       id="path1024" />
    <path
       d="m 2.5799435,55.58257 0.3427219,-1.892588 1.0319763,-0.856805 1.1462135,0.28562 -0.055213,0.917733 -1.2071426,1.085286 -1.2585518,0.460758"
       style="fill:#664d4b;fill-opacity:1;fill-rule:nonzero;stroke:none;stroke-width:0.190401"
       id="path1026" />
    <path
       d="m 3.2082688,55.696812 0.1161475,-1.317576 0.6302311,-0.632135 0.6892486,0.05904 0.401768,0.230407 0.055213,0.630225 -0.6302254,0.571202 -1.2623611,0.45887"
       style="fill:#231a19;fill-opacity:1;fill-rule:nonzero;stroke:none;stroke-width:0.190401"
       id="path1028" />
  </g>
</svg>
