<?xml version="1.0" encoding="UTF-8" standalone="no"?>
<!-- Created with Inkscape (http://www.inkscape.org/) -->

<svg
   width="640"
   height="640"
   viewBox="0 0 169.33333 169.33333"
   version="1.1"
   id="svg1764"
   inkscape:version="1.2.2 (732a01da63, 2022-12-09)"
   sodipodi:docname="bear.svg"
   xmlns:inkscape="http://www.inkscape.org/namespaces/inkscape"
   xmlns:sodipodi="http://sodipodi.sourceforge.net/DTD/sodipodi-0.dtd"
   xmlns="http://www.w3.org/2000/svg"
   xmlns:svg="http://www.w3.org/2000/svg">
  <sodipodi:namedview
     id="namedview1766"
     pagecolor="#ffffff"
     bordercolor="#000000"
     borderopacity="0.25"
     inkscape:showpageshadow="2"
     inkscape:pageopacity="0.0"
     inkscape:pagecheckerboard="0"
     inkscape:deskcolor="#d1d1d1"
     inkscape:document-units="mm"
     showgrid="false"
     inkscape:zoom="1.1383321"
     inkscape:cx="338.65338"
     inkscape:cy="302.63577"
     inkscape:window-width="1920"
     inkscape:window-height="1051"
     inkscape:window-x="-9"
     inkscape:window-y="-9"
     inkscape:window-maximized="1"
     inkscape:current-layer="layer1" />
  <defs
     id="defs1761" />
  <g
     inkscape:label="Layer 1"
     inkscape:groupmode="layer"
     id="layer1">
    <path
       d="m 124.37904,79.120762 -1.39603,7.218177 -0.70034,7.22284 -1.86449,5.355283 0.46691,7.686638 1.62946,10.24833 0.70194,6.05558 1.86134,2.09637 4.42457,2.09636 1.86604,1.8629 v 2.56483 l -5.59187,0.93068 -7.45472,-0.23363 -5.35528,-1.39757 -1.16566,-3.72734 -2.56012,-0.93067 -0.46536,-2.56172 -1.39913,-0.70034 -0.46531,-2.3251 c 0,0 -0.23362,-2.33295 -0.46692,-3.03014 -0.23183,-0.70034 -3.9577,-11.41087 -3.9577,-11.41087 l 5.12341,-17.706196 9.31765,-13.275358 7.45161,3.960814"
       style="fill:#552419;fill-opacity:1;fill-rule:nonzero;stroke:none;stroke-width:0.156678"
       id="path174" />
    <path
       d="m 110.58036,105.61503 -3.14451,6.46298 -1.24404,4.73955 c -0.88523,-2.56954 -3.70544,-10.67606 -3.70544,-10.67606 l 5.12341,-17.706192 9.06694,-12.918148 c 0.28069,-0.009 0.56404,-0.02665 0.84921,-0.03553 l 6.85311,3.641177 -1.39603,7.218175 -0.70034,7.222839 -1.86449,5.355286 0.46691,7.686643 0.89776,5.62783 c -1.1077,-2.01956 -2.12142,-3.81979 -2.12142,-3.81979 l -3.66627,-4.71912 -5.4148,1.92241"
       style="fill:#3d1d18;fill-opacity:1;fill-rule:nonzero;stroke:none;stroke-width:0.156678"
       id="path176" />
    <path
       d="m 150.69783,50.704046 0.35086,-2.796712 -0.81315,-2.09477 -1.86604,-1.397581 -1.74698,-0.115908 -3.26047,1.396025 7.10537,4.893037 0.2305,0.115909"
       style="fill:#3d1d18;fill-opacity:1;fill-rule:nonzero;stroke:none;stroke-width:0.156678"
       id="path178" />
    <path
       d="m 45.886368,96.358491 -3.495459,10.011739 -3.725826,6.75752 -3.028591,5.8206 0.465357,3.95926 4.42457,2.79671 3.262025,2.09636 1.164147,2.56169 -3.26047,1.1657 h -3.95926 -4.891482 l -6.289063,-2.09952 -1.86449,-6.98625 3.262025,-13.74227 8.852341,-15.371685 9.084176,3.030146"
       style="fill:#3d1d18;fill-opacity:1;fill-rule:nonzero;stroke:none;stroke-width:0.156678"
       id="path180" />
    <path
       d="m 169.10284,70.503454 -1.86604,-0.700343 -6.75439,-6.289063 -3.25891,-7.91852 -5.82217,-5.590272 -6.98945,-5.358394 -8.38699,-1.629457 -6.75126,0.69879 -9.31921,-2.561682 -15.1398,-8.151952 -6.289064,0.231834 L 78.726148,37.660566 61.25965,38.824667 37.732861,36.960177 30.978442,37.892445 15.837084,50.005212 0.46695524,67.23983 4.441271e-5,87.272672 0.93071275,104.97576 l 5.35839345,10.24832 2.7951583,13.73911 3.7242275,6.05718 3.962369,1.63101 h 10.712124 c 0.466866,-0.93065 6.058737,-0.23361 6.058737,-0.23361 l 2.560127,-0.46534 -1.397581,-4.6565 -5.820596,-1.63101 -1.400687,-3.72739 0.23361,-4.88988 9.085775,-20.73323 4.424572,-1.162548 7.21973,1.162548 5.82375,-3.258916 9.084176,1.162547 10.014887,1.399133 8.618865,-4.893037 v 6.524053 l 1.164101,11.64746 1.631056,3.02548 -0.700389,1.86445 0.933823,1.39442 1.631012,0.70039 0.695637,2.3298 0.933821,2.79356 -0.700343,1.86289 0.932222,2.09636 1.164146,5.3584 6.987807,0.93378 7.920117,0.46536 5.3568,-1.63102 v -3.03014 l -2.79512,-2.09638 -3.72423,-1.39442 -1.86449,-3.26208 1.39598,-8.38537 3.96086,-18.865636 7.6882,-11.645901 3.02544,-4.661158 7.68508,0.701898 2.33136,4.888374 5.59027,-0.697235 7.92008,-2.795115 4.42461,-3.725826 5.82531,-0.23361 8.14881,0.46691 2.09793,-0.233612 1.16254,-1.631012 3.0302,-0.930667 3.49234,-3.727381 -0.23049,-2.328248"
       style="fill:#662b1f;fill-opacity:1;fill-rule:nonzero;stroke:none;stroke-width:0.156678"
       id="path182" />
    <path
       d="M 4.441271e-5,87.272716 0.46695524,67.239874 15.837084,50.005256 30.978442,37.892489 l 6.754419,-0.932266 23.526789,1.86449 17.466498,-1.164103 19.799408,-4.42617 6.289064,-0.231835 15.1398,8.151952 9.31921,2.561682 6.75126,-0.69879 8.38699,1.629459 6.98945,5.358393 4.86485,4.672128 -0.4419,3.246391 -4.8931,2.097923 -2.32825,1.862892 -1.86289,-1.631013 1.39758,-4.891482 v -3.028591 l -6.52094,-0.932224 -5.3584,1.400688 -7.68664,-2.564833 -9.54798,-2.09477 -5.12807,-3.495502 -3.72422,0.932222 -3.26207,2.328248 -2.56168,-3.026993 -2.56168,-3.725828 -6.9863,-2.793558 -6.522495,2.326649 c 0,0 -11.17899,2.096369 -11.879335,2.096369 -0.698788,0 -19.565974,2.563234 -19.565974,2.563234 l -6.987851,8.385431 -5.823706,-0.930669 -10.481799,-3.262024 -7.219731,-1.397579 -9.082621,6.057182 -6.290616,10.014845 -1.3975788,10.481799 -0.2318343,8.383832 3.2604701,8.617309 0.231834,7.686641 -3.0285911,7.451612 -1.1641015,5.82686 2.3298016,9.54797 1.399134,4.88993 1.397579,4.42773 -0.427694,3.69913 -0.506083,-0.20696 L 9.08422,128.96311 6.2890618,115.224 0.93066833,104.97567 0,87.272582"
       style="fill:#552419;fill-opacity:1;fill-rule:nonzero;stroke:none;stroke-width:0.156678"
       id="path184" />
    <path
       d="m 12.601662,53.635506 3.235422,-3.63025 15.141358,-12.112767 6.754419,-0.932266 23.526789,1.86449 17.466498,-1.164103 19.799408,-4.42617 6.289064,-0.231835 15.1398,8.151952 9.31921,2.561682 6.75126,-0.69879 8.38699,1.629459 6.98945,5.358393 4.26635,4.10027 -1.93969,-0.141235 -5.12497,-5.121806 -4.88993,-3.26047 -5.35995,-0.932223 h -12.11121 l -6.05403,-0.698789 -3.72738,-2.795159 -12.34625,-5.590272 -6.054027,-0.466912 -15.374837,3.262071 -8.617308,1.39598 -18.401874,0.233611 -13.742224,-0.930669 -10.480202,0.930669 -6.520939,4.191139 -10.016444,8.153507 -2.304753,1.300448"
       style="fill:#6d321d;fill-opacity:1;fill-rule:nonzero;stroke:none;stroke-width:0.156678"
       id="path186" />
    <path
       d="m 112.67673,85.002472 v -5.416353 l 0.17232,-7.335691 v -4.542087 l 4.01882,-1.750083 7.51117,3.321537 4.36816,4.192738 4.1927,-3.318473 5.4148,-3.493904 4.71605,-2.796714 -2.27029,3.669424 2.44576,5.240876 4.54054,-0.874263 4.36974,-1.745419 4.36505,-4.542088 2.47242,-5.714051 1.48844,3.616127 0.85544,0.795921 -5.68741,10.210748 -3.02388,4.437096 -1.22523,-0.07062 -5.82531,0.233611 -4.42461,3.725827 -7.92008,2.795113 -5.59027,0.697236 -2.33135,-4.888375 -7.68509,-0.701898 -3.02544,4.661158 -2.43479,3.686655 0.51234,-4.094008"
       style="fill:#552419;fill-opacity:1;fill-rule:nonzero;stroke:none;stroke-width:0.156678"
       id="path188" />
    <path
       d="m 156.28968,59.904184 0.1159,0.814751 -0.69723,0.350859 0.34775,1.280063 0.23361,0.581275 -0.58127,0.23361 -2.79356,-1.978852 0.92911,-0.466867 2.44572,-0.814751"
       style="fill:#3d1d18;fill-opacity:1;fill-rule:nonzero;stroke:none;stroke-width:0.156678"
       id="path190" />
    <path
       d="m 146.48786,79.083146 1.88172,-3.921642 2.79516,-2.096325 3.96083,-3.493947 2.79512,-4.426172 1.68746,-3.753983 0.87426,2.122971 6.75439,6.289063 1.86604,0.700343 0.23049,2.328248 -3.49234,3.727381 -3.0302,0.930667 -1.16254,1.631012 -2.09793,0.233612 -8.14881,-0.46691 -4.91347,0.19586"
       style="fill:#6d321d;fill-opacity:1;fill-rule:nonzero;stroke:none;stroke-width:0.156678"
       id="path192" />
    <path
       d="m 148.83494,53.732637 c 0,-0.349528 -0.46536,-2.447318 -0.46536,-2.447318 l -3.02703,-2.560127 -2.44572,0.231835 -2.21229,1.746975 -0.35086,3.26047 0.70035,1.862891 2.09792,-0.231835 3.02704,-1.164101 2.67608,-0.69879"
       style="fill:#552419;fill-opacity:1;fill-rule:nonzero;stroke:none;stroke-width:0.156678"
       id="path194" />
    <path
       d="m 143.08798,55.601791 -2.05409,0.225616 -0.70034,-1.862891 0.35086,-3.26047 2.21228,-1.746975 2.44572,-0.231833 3.02704,2.560127 c 0,0 0.46536,2.097922 0.46536,2.447317 l -0.50764,0.131457 -1.12342,-2.347034 -1.74537,-1.745376 h -2.21229 l -0.93227,1.864446 0.58287,3.142999 0.19098,0.822523"
       style="fill:#3d1d18;fill-opacity:1;fill-rule:nonzero;stroke:none;stroke-width:0.156678"
       id="path196" />
    <path
       d="m 166.65236,70.733778 0.78811,-0.855433 1.66237,0.625109 0.23049,2.328248 -1.40229,1.494709 -0.57811,-1.029353 0.11767,-1.278508 -0.93066,-0.236721 0.11278,-1.048185"
       style="fill:#552419;fill-opacity:1;fill-rule:nonzero;stroke:none;stroke-width:0.156678"
       id="path198" />
    <path
       d="m 157.10283,75.626861 3.72893,1.046584 3.45007,0.366405 -1.47121,0.449678 -0.0564,0.07994 -1.57146,-0.313109 -1.39913,-0.231835 -1.86294,-0.350859 -1.9804,-0.231835 -1.74693,0.114588 -0.69724,-0.463758 0.69724,-0.814706 2.90947,0.349527"
       style="fill:#552419;fill-opacity:1;fill-rule:nonzero;stroke:none;stroke-width:0.156678"
       id="path200" />
    <path
       d="m 54.270244,97.055726 -5.82375,3.258914 -7.21973,-1.162545 -4.424572,1.162545 -5.77987,13.19231 -0.626708,-1.95226 -0.174097,-8.38693 0.52176,-7.685089 2.448873,-10.655674 -0.700345,-9.25814 1.746931,-1.04814 3.493947,3.142954 13.450834,5.416351 11.528384,2.270291 9.95844,-1.5715 5.941222,-4.018818 7.860561,-6.462937 2.445763,0.874265 -0.349528,3.843298 2.445719,6.461427 4.017263,3.669378 5.590269,3.493947 3.14296,6.289063 1.39913,7.451604 -2.21388,10.54131 -1.39598,8.38539 1.86449,3.26208 3.72422,1.39442 2.79512,2.09636 v 3.03014 l -5.3568,1.63102 -7.920116,-0.46535 -6.987807,-0.93378 -1.164146,-5.35839 -0.932222,-2.09638 0.700343,-1.86288 -0.933821,-2.79357 -0.695637,-2.3298 -1.631012,-0.70039 -0.933821,-1.39442 0.700387,-1.86445 -1.631056,-3.02548 -1.164101,-11.64745 v -6.524051 l -8.618863,4.893037 -10.014889,-1.399134 -9.084176,-1.162546"
       style="fill:#552419;fill-opacity:1;fill-rule:nonzero;stroke:none;stroke-width:0.156678"
       id="path202" />
    <path
       d="m 26.376842,133.56645 1.106143,3.08498 h -1.074832 l -0.726992,-2.03837 -2.097923,-1.74697 c 0.347751,-0.8727 2.793604,0.70036 2.793604,0.70036"
       style="fill:#552419;fill-opacity:1;fill-rule:nonzero;stroke:none;stroke-width:0.156678"
       id="path204" />
    <path
       d="m 31.968669,132.69061 1.397579,2.27026 -0.09726,1.42732 c -0.258482,-0.0311 -0.692483,-0.0737 -1.209536,-0.11766 l -0.266477,-2.00702 -2.094814,-1.74697 -1.573009,-0.52332 c 0.174097,-0.69724 3.843298,0.69723 3.843298,0.69723"
       style="fill:#552419;fill-opacity:1;fill-rule:nonzero;stroke:none;stroke-width:0.156678"
       id="path206" />
    <path
       d="m 39.655308,94.785438 1.397535,-4.543643 5.065448,0.871111 13.102993,1.223659 8.383831,0.87271 9.956886,-1.569902 6.113586,-2.444208 2.271844,5.063847 -0.872709,4.366614 0.174098,9.435174 1.74542,7.33724 3.146062,5.41636 -1.04814,5.23931 -1.06857,1.82062 -0.446524,-1.00747 0.700343,-1.86288 -0.933821,-2.79357 -0.695637,-2.3298 -1.631012,-0.70039 -0.933823,-1.39442 0.700389,-1.86445 -1.631056,-3.02548 -1.164101,-11.64745 v -6.524051 l -8.618865,4.893037 -10.014887,-1.399134 -9.084176,-1.162546 -5.82375,3.258914 -7.21973,-1.162545 -3.82922,1.007415 c 0.726992,-1.765763 2.257764,-5.374072 2.257764,-5.374072"
       style="fill:#3d1d18;fill-opacity:1;fill-rule:nonzero;stroke:none;stroke-width:0.156678"
       id="path208" />
    <path
       d="m 92.653262,134.71957 -2.980003,-0.39794 -0.85077,-3.91698 2.364265,1.23624 1.466508,3.07868"
       style="fill:#3d1d18;fill-opacity:1;fill-rule:nonzero;stroke:none;stroke-width:0.156678"
       id="path210" />
    <path
       d="m 103.40767,135.65024 -1.7611,-0.10349 -0.15189,-1.80647 -2.621198,-2.09949 -0.521761,-1.04663 4.366609,1.74853 0.68942,3.30745"
       style="fill:#3d1d18;fill-opacity:1;fill-rule:nonzero;stroke:none;stroke-width:0.156678"
       id="path212" />
    <path
       d="m 102.71825,130.76973 c 0.1772,-0.69879 3.66627,0.70034 3.66627,0.70034 l 1.39913,1.56995 0.44812,1.56989 -1.08891,0.33044 -0.40726,-1.90051 -2.62124,-1.91934 -1.39602,-0.35087"
       style="fill:#3d1d18;fill-opacity:1;fill-rule:nonzero;stroke:none;stroke-width:0.156678"
       id="path214" />
  </g>
</svg>
