<?xml version="1.0" encoding="UTF-8" standalone="no"?>
<!-- Created with Inkscape (http://www.inkscape.org/) -->

<svg
   width="640"
   height="640"
   viewBox="0 0 169.33333 169.33333"
   version="1.1"
   id="svg1764"
   inkscape:version="1.2.2 (732a01da63, 2022-12-09)"
   sodipodi:docname="beaver.svg"
   xmlns:inkscape="http://www.inkscape.org/namespaces/inkscape"
   xmlns:sodipodi="http://sodipodi.sourceforge.net/DTD/sodipodi-0.dtd"
   xmlns="http://www.w3.org/2000/svg"
   xmlns:svg="http://www.w3.org/2000/svg">
  <sodipodi:namedview
     id="namedview1766"
     pagecolor="#ffffff"
     bordercolor="#000000"
     borderopacity="0.25"
     inkscape:showpageshadow="2"
     inkscape:pageopacity="0.0"
     inkscape:pagecheckerboard="0"
     inkscape:deskcolor="#d1d1d1"
     inkscape:document-units="mm"
     showgrid="false"
     inkscape:zoom="1.1383321"
     inkscape:cx="338.65338"
     inkscape:cy="302.63577"
     inkscape:window-width="1920"
     inkscape:window-height="1051"
     inkscape:window-x="-9"
     inkscape:window-y="-9"
     inkscape:window-maximized="1"
     inkscape:current-layer="layer1" />
  <defs
     id="defs1761" />
  <g
     inkscape:label="Layer 1"
     inkscape:groupmode="layer"
     id="layer1">
    <path
       d="m 55.943813,102.14518 -10.986129,1.74738 -17.234391,1.24779 -18.9817736,1.00149 -6.4922322,1.74737 L 0,113.38229 l 2.4978687,3.24611 16.9835043,4.99582 19.479001,-1.24778 16.734858,-5.24678 5.994937,-3.7457 -5.746356,-9.23878"
       style="fill:#664e48;fill-opacity:1;fill-rule:nonzero;stroke:none;stroke-width:0.232363"
       id="path216" />
    <path
       d="m 38.960374,120.37644 16.734858,-5.24678 5.994937,-3.7457 -1.865875,-2.99981 -9.624466,5.24676 -10.4889,2.74654 -8.492872,1.00149 H 19.978603 l -9.24112,-1.74736 -6.9894615,-1.49876 c 0,0 -2.4979345,-1.49874 -2.7465819,-2.24928 L 0.79264171,111.456 3.2933427e-4,113.38229 2.4981979,116.62842 l 16.9835041,4.99582 19.479003,-1.2478"
       style="fill:#4f3a36;fill-opacity:1;fill-rule:nonzero;stroke:none;stroke-width:0.232363"
       id="path218" />
    <path
       d="m 4.7471559,108.88605 -0.5019056,1.99833 15.2361227,1.7497 24.474805,-3.99898 0.748248,-1.996 -19.727715,-0.75054 -11.241694,1.25012 -8.9878611,1.74737"
       style="fill:#816b67;fill-opacity:1;fill-rule:nonzero;stroke:none;stroke-width:0.232363"
       id="path220" />
    <path
       d="m 146.10559,86.660469 7.24041,3.497076 3.49714,1.745051 1.74968,5.74403 2.24692,3.996644 -0.49927,2.00066 -2.99516,-0.50191 -3.74809,-3.497066 -1.25009,-3.497076 -8.73921,-2.246955 2.49793,-7.240454"
       style="fill:#4f2420;fill-opacity:1;fill-rule:nonzero;stroke:none;stroke-width:0.232363"
       id="path222" />
    <path
       d="m 167.33434,51.94302 -8.99247,-5.244443 -9.74302,-1.747376 -5.48842,-0.748214 -2.49794,1.496422 -8.24192,3.499394 -3.99667,0.996841 -8.74382,-3.745703 -12.98447,-3.745696 -7.744687,1.247788 -20.977802,7.990987 -6.243585,7.993312 -9.740719,30.46984 -1.749687,6.743192 -4.991192,4.245286 1.747381,7.99331 2.49563,3.7457 7.744624,0.24865 6.740879,0.4996 5.495404,-0.4996 12.48954,-0.24865 19.228114,-3.24612 6.99414,-3.49708 4.9935,-5.99497 3.74571,0.7482 2.24929,-0.24864 2.49556,3.7457 4.99811,7.24277 -0.75048,2.50024 1.24778,0.99684 10.4889,0.99684 2.74882,-2.49558 -0.25095,-1.99834 -4.9935,-0.75053 -0.74818,-2.99285 -0.50191,-9.743 3.74572,-7.990987 2.49787,-9.989315 1.5011,-6.994143 6.49223,-3.996655 5.74405,-2.246957 0.99914,-2.500233 1.49873,-0.996836 2.99754,-6.991826 -0.49993,-2.746535 -1.49874,-2.000652"
       style="fill:#7a3e2e;fill-opacity:1;fill-rule:nonzero;stroke:none;stroke-width:0.232363"
       id="path224" />
    <path
       d="m 136.11392,75.66967 v -1.998328 l -1.99597,0.250952 -3.49944,4.744872 -4.74248,6.492238 -5.49777,4.247609 -7.48906,3.497067 -8.99017,1.498749 -11.987634,-0.501906 -2.999773,4.247609 -8.241986,2.995158 -7.742318,-2.495579 0.501904,-13.237755 -2.500239,-6.241286 -5.446597,0.155702 -3.54357,11.081418 -1.749687,6.743191 -4.991192,4.245289 1.747381,7.99331 2.49563,3.7457 7.744624,0.24863 6.740879,0.4996 5.495404,-0.4996 12.48954,-0.24863 19.228114,-3.24612 6.99414,-3.49708 4.9935,-5.99498 3.74571,0.74821 2.0262,-0.22539 -1.02476,-5.265367 1.74508,-7.493725 3.24842,-7.995637 3.24612,-4.493911"
       style="fill:#612e26;fill-opacity:1;fill-rule:nonzero;stroke:none;stroke-width:0.232363"
       id="path226" />
    <path
       d="m 118.88183,98.89674 -10.74216,5.24445 -11.987633,0.25095 -19.727651,3.24612 -10.990806,1.49875 -9.050566,-2.31667 0.562502,2.56762 2.49563,3.7457 7.744624,0.24865 6.740879,0.4996 5.495404,-0.4996 12.489541,-0.24865 19.228116,-3.24612 6.99414,-3.49708 4.99349,-5.99497 3.74572,0.7482 2.24929,-0.24864 0.75516,1.13393 0.24371,-1.88214 -5.74636,-5.744032 -5.49309,4.493912"
       style="fill:#4f2420;fill-opacity:1;fill-rule:nonzero;stroke:none;stroke-width:0.232363"
       id="path228" />
    <path
       d="m 69.932155,85.159404 -2.246982,14.736502 4.242944,7.742354 3.246118,3.49475 -0.999135,3.7457 1.754363,1.49874 15.229076,1.00149 11.739051,1.2478 4.74485,-1.49642 1.74739,-3.49941 -4.49858,-1.996 -6.489927,-0.25095 -7.491432,-0.75053 -3.996603,-0.4973 -1.494124,-2.4979 4.74024,-3.49707 4.247621,-6.994154 v -7.740027 l -7.242785,-9.243432 -9.986994,-1.496414 -7.245091,6.492238"
       style="fill:#7a3e2e;fill-opacity:1;fill-rule:nonzero;stroke:none;stroke-width:0.232363"
       id="path230" />
    <path
       d="m 81.417884,115.12966 5.495404,-3.7457 1.793817,-1.02472 -1.793817,-0.22309 -1.494124,-2.49791 4.74024,-3.49707 2.142386,-3.52728 -4.886596,2.52811 -5.495404,3.49708 -4.742544,-2.49791 -5.000481,-6.494565 -0.680799,-13.890698 -1.563811,1.403478 -2.246982,14.736502 4.242944,7.742353 3.246118,3.49475 -0.999135,3.74571 1.754363,1.49874 4.317309,0.28579 1.171112,-1.53359"
       style="fill:#612e26;fill-opacity:1;fill-rule:nonzero;stroke:none;stroke-width:0.232363"
       id="path232" />
    <path
       d="m 102.68148,118.6035 0.0593,-1.00613 -0.93873,-2.15402 -1.77524,-1.87517 -0.627055,0.31366 1.749685,2.24696 v 2.31434 l 1.53127,0.16036"
       style="fill:#4f2420;fill-opacity:1;fill-rule:nonzero;stroke:none;stroke-width:0.232363"
       id="path234" />
    <path
       d="m 107.76561,116.88633 -0.90626,-2.19351 -2.33755,-1.77758 -0.4716,0.37412 1.68928,1.40348 1.01547,2.71634 0.88762,-0.27883 0.12318,-0.24397"
       style="fill:#4f2420;fill-opacity:1;fill-rule:nonzero;stroke:none;stroke-width:0.232363"
       id="path236" />
    <path
       d="m 141.23289,113.56818 -1.68461,-1.68464 -2.80929,-2.62338 -3.93389,-6.36677 -3.18572,-5.618549 v 2.246954 l -0.69707,1.396505 0.19958,-0.023 2.49556,3.7457 4.99811,7.24277 -0.75049,2.50023 1.24778,0.99686 3.62953,0.34618 0.49005,-2.15865"
       style="fill:#612e26;fill-opacity:1;fill-rule:nonzero;stroke:none;stroke-width:0.232363"
       id="path238" />
    <path
       d="m 143.48218,111.50944 1.59174,-0.4996 -0.71571,-2.8697 -0.0527,-1.06887 -1.1943,2.18887 0.37413,2.24928"
       style="fill:#612e26;fill-opacity:1;fill-rule:nonzero;stroke:none;stroke-width:0.232363"
       id="path240" />
    <path
       d="m 160.75846,48.109023 -2.41659,-1.410446 -9.74302,-1.747376 -5.48842,-0.748214 -2.49794,1.496422 -8.24192,3.499394 -3.99667,0.996841 -8.74382,-3.745703 -12.98447,-3.745696 -7.744687,1.247788 -20.977802,7.990987 -6.243585,7.993312 -3.2392,10.131053 1.426742,-0.889955 5.62088,-11.427641 10.677083,-6.180873 18.168519,-4.308022 10.4912,2.43517 11.05127,3.745703 5.61851,2.43517 c 0,0 1.12231,-3.369273 1.68468,-3.557488 0.5625,-0.188247 8.24192,-4.310346 8.24192,-4.310346 l 8.05374,-1.310526 6.92675,0.938746 4.35683,0.471674"
       style="fill:#954a3b;fill-opacity:1;fill-rule:nonzero;stroke:none;stroke-width:0.232363"
       id="path242" />
    <path
       d="m 143.48218,50.070169 5.43032,-1.498748 5.24683,0.562305 5.62088,1.124638 5.80445,2.80928 -0.56251,1.68463 -6.92906,-2.62106 -6.92906,0.188249 -4.87039,0.18818 h -2.25159 l -0.55987,-2.437495"
       style="fill:#612e26;fill-opacity:1;fill-rule:nonzero;stroke:none;stroke-width:0.232363"
       id="path244" />
    <path
       d="m 169.33268,56.690209 -0.49993,-2.746536 -1.49874,-2.000653 -2.73031,-1.591693 -1.64048,4.029188 -2.06334,2.806955 v 4.496236 3.936236 l -0.90626,3.062553 3.84333,-1.503392 0.99913,-2.500234 1.49873,-0.996834 2.99754,-6.991826"
       style="fill:#954a3b;fill-opacity:1;fill-rule:nonzero;stroke:none;stroke-width:0.232363"
       id="path246" />
    <path
       d="m 167.53181,52.207917 -1.10373,-0.264916 -0.84342,1.124643 -0.65735,1.124636 0.94104,1.122318 0.74594,-0.843483 0.93643,1.126968 1.12461,0.655244 0.62507,0.511192 0.0329,-0.07437 -0.49993,-2.746535 -1.30126,-1.735756"
       style="fill:#4f2420;fill-opacity:1;fill-rule:nonzero;stroke:none;stroke-width:0.232363"
       id="path248" />
    <path
       d="m 156.87798,50.070169 -0.0955,1.217588 0.93412,0.564611 -2.5281,0.841151 -0.93412,0.657615 -0.28323,-0.752858 1.31286,-2.246954 1.59404,-0.281186"
       style="fill:#4f2420;fill-opacity:1;fill-rule:nonzero;stroke:none;stroke-width:0.232363"
       id="path250" />
    <path
       d="m 164.81316,64.743933 -2.10056,0.43683 -3.36929,0.12548 -1.00144,0.622706 1.37326,0.250952 3.49476,-0.497294 1.33605,-0.283491 0.26742,-0.655244"
       style="fill:#4f2420;fill-opacity:1;fill-rule:nonzero;stroke:none;stroke-width:0.232363"
       id="path252" />
    <path
       d="m 150.35084,70.676179 -5.99731,-4.74719 -2.49787,-0.999166 2.24929,6.494563 3.24842,7.24278 2.75119,1.719486 1.49643,-6.963938 3.68525,-2.272519 -4.9354,-0.474042"
       style="fill:#612e26;fill-opacity:1;fill-rule:nonzero;stroke:none;stroke-width:0.232363"
       id="path254" />
    <path
       d="m 145.85464,50.446598 -0.74825,3.371598 -0.74818,0.748209 -3.8712,-0.748209 -2.99746,-1.124643 v -2.746535 l 1.62421,-1.250121 h 4.74254 l 1.99834,1.749701"
       style="fill:#954a3b;fill-opacity:1;fill-rule:nonzero;stroke:none;stroke-width:0.232363"
       id="path256" />
    <path
       d="m 139.11376,48.696897 -1.62421,1.250121 v 2.746535 l 2.99746,1.124643 3.8712,0.748209 0.74818,-0.748209 0.0461,-0.195163 -5.66508,-1.552185 -0.75049,-0.999168 1.37787,-1.124636 2.99754,-0.250954 2.54206,1.663725 0.20221,-0.913191 -1.99833,-1.7497 h -4.74254"
       style="fill:#612e26;fill-opacity:1;fill-rule:nonzero;stroke:none;stroke-width:0.232363"
       id="path258" />
  </g>
</svg>
