<?xml version="1.0" encoding="UTF-8" standalone="no"?>
<!-- Created with Inkscape (http://www.inkscape.org/) -->

<svg
   width="640"
   height="640"
   viewBox="0 0 169.33333 169.33333"
   version="1.1"
   id="svg1764"
   inkscape:version="1.2.2 (732a01da63, 2022-12-09)"
   sodipodi:docname="cow.svg"
   xmlns:inkscape="http://www.inkscape.org/namespaces/inkscape"
   xmlns:sodipodi="http://sodipodi.sourceforge.net/DTD/sodipodi-0.dtd"
   xmlns="http://www.w3.org/2000/svg"
   xmlns:svg="http://www.w3.org/2000/svg">
  <sodipodi:namedview
     id="namedview1766"
     pagecolor="#ffffff"
     bordercolor="#000000"
     borderopacity="0.25"
     inkscape:showpageshadow="2"
     inkscape:pageopacity="0.0"
     inkscape:pagecheckerboard="0"
     inkscape:deskcolor="#d1d1d1"
     inkscape:document-units="mm"
     showgrid="false"
     inkscape:zoom="1.1879191"
     inkscape:cx="277.37579"
     inkscape:cy="277.37579"
     inkscape:window-width="1920"
     inkscape:window-height="1051"
     inkscape:window-x="-9"
     inkscape:window-y="-9"
     inkscape:window-maximized="1"
     inkscape:current-layer="layer1" />
  <defs
     id="defs1761" />
  <g
     inkscape:label="Layer 1"
     inkscape:groupmode="layer"
     id="layer1">
    <path
       d="m 131.47215,90.903448 2.81595,14.837052 -1.151,12.78934 -0.76555,5.24267 -4.22123,4.86097 -0.1286,1.27934 6.01197,0.76852 2.42914,-0.64257 -0.1286,-3.45312 1.0252,-2.30026 1.40663,0.38264 -0.51259,-4.47567 1.53376,-5.37341 2.9404,-12.78828 -6.64903,-10.998604 -4.60667,-0.128603"
       style="fill:#cbab8c;fill-opacity:1;fill-rule:nonzero;stroke:none;stroke-width:0.133837"
       id="path2182" />
    <path
       d="m 113.56874,96.660053 3.32721,5.499237 3.19739,2.42901 -0.76958,3.07036 1.15366,1.66092 2.42914,-2.9392 2.04372,0.89403 0.2595,3.70984 2.04369,-0.12862 0.8967,-4.47524 2.43047,-0.89658 1.53243,2.68625 1.40933,-0.64001 -0.51262,-3.07036 7.54576,-4.0914 -6.13913,-9.976091 -20.84782,6.267861"
       style="fill:#dd5f6a;fill-opacity:1;fill-rule:nonzero;stroke:none;stroke-width:0.133837"
       id="path2184" />
    <path
       d="m 125.20993,110.98425 2.04369,-0.12862 0.8967,-4.47524 2.43047,-0.89658 1.53243,2.68625 1.40933,-0.64001 -0.51262,-3.07036 7.54577,-4.0914 -0.89405,-1.450799 -3.51993,1.258339 -5.36953,0.5767 -6.71595,0.18871 -6.25019,-5.554242 -4.23731,1.273059 3.32721,5.499233 3.19739,2.42901 -0.76958,3.07036 1.15366,1.66092 2.42914,-2.9392 2.04372,0.89404 0.2595,3.70983"
       style="fill:#cd4a59;fill-opacity:1;fill-rule:nonzero;stroke:none;stroke-width:0.133837"
       id="path2186" />
    <path
       d="m 54.737951,95.508784 1.790754,13.044976 1.919212,4.47565 1.917884,11.25598 0.639751,1.53338 -2.557635,1.40781 -2.558962,4.09303 2.431831,1.14963 3.067524,-0.25571 2.176205,-0.38264 2.300642,-4.73394 -1.150967,-2.42899 -0.255703,-10.23226 0.127091,-16.24088 -9.847743,-2.686113"
       style="fill:#cbab8c;fill-opacity:1;fill-rule:nonzero;stroke:none;stroke-width:0.133837"
       id="path2188" />
    <path
       d="m 159.86839,59.441004 1.40662,2.430484 1.02521,31.208419 2.8119,11.379773 4.22121,7.42007 -2.68608,11.38297 1.78939,3.58015 -1.02119,1.02212 -4.34968,-4.60227 -1.53513,-16.49957 0.76958,-2.42901 -2.43183,-10.74351 -0.76825,-27.497918 0.76825,-6.651708"
       style="fill:#cbab8c;fill-opacity:1;fill-rule:nonzero;stroke:none;stroke-width:0.133837"
       id="path2190" />
    <path
       d="M 32.483502,38.210414 26.472895,36.548155 13.427767,44.605156 13.173582,45.756152 3.451661,52.023749 0,53.303231 v 1.789403 l 1.1496608,5.116597 1.7907425,2.176194 2.4304813,-0.129819 1.1523392,1.405291 h 6.5219002 l 7.161612,-1.405291 1.919212,1.663598 2.94043,4.859627 6.905985,4.475515 9.464947,6.394739 5.370896,10.488953 4.732475,7.799632 4.476884,2.045299 6.139105,2.561641 0.638384,5.11406 1.790753,2.43047 1.152332,12.02247 -1.152332,7.54547 -1.660929,1.27828 -1.790715,5.62639 1.53376,0.25569 0.256841,1.28095 7.545735,-1.53658 v -5.37074 l 1.148349,-1.27817 0.511254,-1.79061 1.407958,-0.5123 -1.919212,-13.04392 1.025162,-5.24641 2.046381,-8.18281 16.625269,-0.38277 17.65043,-2.944417 8.18549,0.89403 16.6239,-6.138175 1.53646,0.895506 6.13777,13.556236 0.8967,1.91921 0.25419,3.20006 1.15233,13.68232 -2.30334,1.79114 -0.76555,1.66198 -3.19871,4.47669 0.38412,1.02415 h 8.56824 l 1.66226,-3.19899 0.51262,-2.30185 2.81459,-2.42902 -0.12709,-2.3024 -0.51262,-12.14934 4.47552,-5.62797 -0.63839,-4.60387 -1.40663,-5.244143 6.65036,-28.776062 0.38143,-9.464963 -9.84641,-10.10337 -12.65964,-4.859628 h -6.78154 l -5.88079,1.533773 -21.10344,-1.789403 -13.684841,0.894033 -5.88215,-1.14966 -11.000075,-3.45434 -3.964265,-0.765549 -9.719246,2.683438 -8.698104,1.406626 -9.592116,-0.765549 -2.557597,-0.511256 -6.396097,-3.582822"
       style="fill:#dbc0a1;fill-opacity:1;fill-rule:nonzero;stroke:none;stroke-width:0.133837"
       id="path2192" />
    <path
       d="m 1.8535301,55.47675 2.1092746,-0.575502 1.3437255,0.575502 -1.151,0.384111 -0.7682237,0.766885 -1.5337764,-1.150996"
       style="fill:#524339;fill-opacity:1;fill-rule:nonzero;stroke:none;stroke-width:0.133837"
       id="path2194" />
    <path
       d="m 56.017451,99.982963 5.932988,2.473307 0.140373,-6.309083 -1.917884,-10.743109 -1.726487,-1.342385 -0.191208,0.766888 1.151004,1.536446 0.384123,6.136571 -3.26298,-1.53391 -3.644371,-8.442446 -9.974873,-9.976224 -4.796741,-3.260276 -3.644371,-5.372223 1.917884,-2.492048 2.302008,-5.56361 -0.958279,-0.959613 -4.22122,4.221223 -7.098749,0.958276 -7.290108,-1.343726 -4.879711,1.351756 -0.04553,-0.136507 h -3.451664 l -1.2794847,1.47622 -1.853644,0.57015 -2.2324065,0.260976 1.1469862,1.401277 h 6.5219 l 7.161612,-1.405292 1.919212,1.663597 2.94043,4.859628 6.905985,4.475514 9.464947,6.39474 5.370896,10.488953 4.732475,7.799633 4.476884,2.045299"
       style="fill:#cbab8c;fill-opacity:1;fill-rule:nonzero;stroke:none;stroke-width:0.133837"
       id="path2196" />
    <path
       d="m 67.911536,87.069014 -1.792081,1.021177 v 4.605335 l 2.174877,2.940271 1.407959,-0.767958 1.662257,-4.602795 -1.662257,-2.300793 -1.790755,-0.895237"
       style="fill:#524339;fill-opacity:1;fill-rule:nonzero;stroke:none;stroke-width:0.133837"
       id="path2198" />
    <path
       d="m 92.466664,56.499264 -2.302006,1.279483 -0.128619,2.429145 0.896706,1.023854 0.382794,2.429145 1.53509,2.302 2.430503,-0.638402 2.429139,-3.453001 -2.045015,-3.708627 -3.198713,-1.663597"
       style="fill:#524339;fill-opacity:1;fill-rule:nonzero;stroke:none;stroke-width:0.133837"
       id="path2200" />
    <path
       d="m 117.02175,76.324563 h -2.04638 l -1.0225,2.045034 2.04638,3.070224 4.09272,-2.941738 0.50993,-1.406631 -3.58015,-0.766889"
       style="fill:#524339;fill-opacity:1;fill-rule:nonzero;stroke:none;stroke-width:0.133837"
       id="path2202" />
    <path
       d="m 133.77548,92.565437 1.33838,0.781611 -2.04103,-2.187969 -3.64437,-1.152207 -12.27688,1.728908 -13.23649,1.918157 -10.553086,1.150598 -9.976201,-2.109009 -4.027167,-1.536447 0.190069,-3.453133 0.192727,-3.068756 -1.535128,-1.152335 -0.76688,2.494722 -0.766882,1.534041 -0.192725,6.140319 -1.152369,4.986371 -0.622337,2.496462 16.610549,-0.38277 17.65043,-2.944418 8.18549,0.89403 16.6239,-6.138175"
       style="fill:#cbab8c;fill-opacity:1;fill-rule:nonzero;stroke:none;stroke-width:0.133837"
       id="path2204" />
    <path
       d="m 159.95939,65.837085 -0.0265,-0.0013 -4.03119,11.894108 -3.64304,10.934363 -1.34104,9.402061 0.57416,7.288913 -2.87749,5.1795 -0.95961,4.03131 0.19121,7.66994 0.76824,4.98958 -0.38412,3.06888 -4.40992,-1.34251 -0.9623,0.19273 5.22768,2.45873 0.0151,-0.0304 0.51262,-2.30187 2.81459,-2.42902 -0.12709,-2.30238 -0.51262,-12.14934 4.47552,-5.62799 -0.63838,-4.60386 -1.40663,-5.244151 6.65035,-28.776064 0.091,-2.301995"
       style="fill:#cbab8c;fill-opacity:1;fill-rule:nonzero;stroke:none;stroke-width:0.133837"
       id="path2206" />
    <path
       d="m 153.34383,71.719228 -2.42781,0.768223 -1.91921,2.045034 c 0,0 0.50989,2.558967 0.50989,2.943078 0,0.381438 -0.25571,4.348369 -0.63839,4.858291 -0.38412,0.513933 -0.76824,2.814594 -0.76824,2.814594 l 3.07158,2.300797 3.86923,1.568437 3.26696,-14.13856 -4.96401,-3.159894"
       style="fill:#524339;fill-opacity:1;fill-rule:nonzero;stroke:none;stroke-width:0.133837"
       id="path2208" />
    <path
       d="m 152.48594,87.983121 2.55494,1.034561 3.26696,-14.13856 -1.18446,-0.75484 -1.22328,3.605572 -3.41416,10.253267"
       style="fill:#392d27;fill-opacity:1;fill-rule:nonzero;stroke:none;stroke-width:0.133837"
       id="path2210" />
    <path
       d="m 120.21914,95.958342 -9.39939,0.764347 c 0,0 -15.923947,1.53498 -16.690827,1.726366 -0.766919,0.191245 -13.045128,0 -13.045128,0 0,0 -3.228152,0.364319 -5.851344,0.608021 l -0.54206,2.079694 16.625269,-0.38277 17.65043,-2.944418 8.18549,0.89403 6.67714,-2.463943 -3.60958,-0.281311"
       style="fill:#b89473;fill-opacity:1;fill-rule:nonzero;stroke:none;stroke-width:0.133837"
       id="path2212" />
    <path
       d="m 62.09096,98.161439 c -4.201151,-0.516478 -5.947705,-0.67066 -5.947705,-0.67066 l -6.5219,-5.373429 -5.040304,-6.329159 2.227041,4.34984 4.732475,7.799633 4.476884,2.045299 6.139105,2.561637 -0.06564,-4.383161"
       style="fill:#b89473;fill-opacity:1;fill-rule:nonzero;stroke:none;stroke-width:0.133837"
       id="path2214" />
    <path
       d="m 150.4034,48.57075 -12.65964,-4.859627 h -6.78154 l -5.88078,1.533773 -21.10345,-1.789405 -13.684837,0.894035 -5.882149,-1.149661 -11.000075,-3.45434 -3.964265,-0.765549 -9.719247,2.683437 -8.698105,1.406628 -6.943468,-0.554086 2.338126,1.195168 5.499391,1.022515 11.765628,-1.409306 7.291437,-1.021176 13.430578,4.34837 17.646406,2.557627 12.66503,-0.766888 16.8782,-0.509919 11.89678,1.148321 6.90598,1.662262 5.75635,5.372224 2.42246,0.845849 -8.17881,-8.390252"
       style="fill:#efd0b0;fill-opacity:1;fill-rule:nonzero;stroke:none;stroke-width:0.133837"
       id="path2216" />
    <path
       d="m 94.001754,88.728594 c 0,-0.382773 -2.430465,-8.566919 -2.430465,-8.566919 l 2.046379,-5.115254 c 0,0 -0.895376,-2.430484 -1.278171,-2.68745 -0.385452,-0.256955 -5.499355,-4.219889 -5.499355,-4.219889 l -1.792081,-4.349709 1.407958,-5.882142 6.139105,-12.151079 -0.508561,-1.524401 -1.79341,0.117752 -5.882149,-1.149662 -11.000075,-3.454338 -3.964265,-0.765549 -5.503376,1.519053 -0.638422,1.421349 2.047709,4.34837 3.197384,7.290113 v 1.660918 l 0.128618,4.349708 -0.76688,4.219886 -1.662257,-1.403949 h -2.560292 l -0.638422,-1.409306 -1.151004,-2.687451 -2.046342,0.385451 -2.686131,-4.219888 -2.813262,-7.291449 -2.813261,-2.941741 -0.658454,-1.163045 -3.932131,-0.311851 0.242424,0.964966 -0.256841,1.790742 -4.475519,-0.766888 -1.917884,-1.023854 v -1.587303 l -1.662257,-0.330593 -6.396099,-3.58282 -3.019378,-0.836482 -3.503848,2.627224 -3.324516,1.662257 -2.94172,1.536452 -1.790754,2.429146 -3.324515,1.149661 -4.219888,4.988112 -2.6874512,2.04503 0.1284954,2.304675 3.1973698,3.324515 0.455048,4.219889 h 1.592664 l 7.161613,-1.405292 1.919212,1.663597 1.155025,1.908517 4.598667,-0.886003 4.732473,-1.152335 5.245056,-4.219889 2.429176,-1.662257 1.406592,0.511258 0.256841,3.196033 1.149638,3.455675 -0.639711,3.708627 -3.324516,4.21855 -3.31651,2.856086 4.021818,2.716894 2.746338,-1.863015 3.453011,3.070224 4.988101,5.626515 2.814589,2.430482 4.219892,0.894034 2.174839,-1.789404 c 0,0 3.325882,-3.581481 3.708639,-3.964257 0.384123,-0.385451 7.545735,-2.557627 7.545735,-2.557627 l 5.116597,4.604 1.790754,4.218545 2.940393,3.198576 5.626522,2.5591 4.733801,-2.174855 c 0,0 2.302008,-3.711438 2.302008,-4.094078"
       style="fill:#524339;fill-opacity:1;fill-rule:nonzero;stroke:none;stroke-width:0.133837"
       id="path2218" />
    <path
       d="m 53.842573,87.83456 1.466878,0.310524 -2.426483,-5.619824 -9.974874,-9.976224 -2.228407,-1.51236 -1.54446,1.960717 -3.31651,2.856086 4.021817,2.716894 2.746339,-1.863015 3.45301,3.070224 4.988102,5.626515 2.814588,2.430481"
       style="fill:#392d27;fill-opacity:1;fill-rule:nonzero;stroke:none;stroke-width:0.133837"
       id="path2220" />
    <path
       d="m 27.879526,64.941713 4.732473,-1.15234 4.189086,-3.370018 1.885789,-4.558494 -0.958277,-0.959613 -4.221221,4.221223 -7.098748,0.958276 -7.290108,-1.343726 -4.879712,1.351756 -0.04553,-0.136507 h -3.139821 l 0.398836,3.708627 h 1.592675 l 7.161613,-1.405291 1.919212,1.663596 1.155025,1.908518 4.598666,-0.886003"
       style="fill:#392d27;fill-opacity:1;fill-rule:nonzero;stroke:none;stroke-width:0.133837"
       id="path2222" />
    <path
       d="m 60.173076,85.404078 -1.726487,-1.342385 -0.191208,0.766888 1.151004,1.536446 0.07625,1.19664 0.754817,-0.622477 0.176792,-0.190031 -0.240908,-1.345065"
       style="fill:#392d27;fill-opacity:1;fill-rule:nonzero;stroke:none;stroke-width:0.133837"
       id="path2224" />
    <path
       d="m 16.495329,47.545556 2.047707,-0.89403 2.429138,-2.940403 3.197385,0.638403 1.407959,0.89537 4.22122,-2.045031 1.535089,-0.642421 0.638422,1.153679 -4.859643,2.557627 -2.68742,0.766888 -2.045053,1.278146 h -2.429138 -2.303336 -1.919212 l -0.765553,-0.509922 1.532435,-0.258321"
       style="fill:#392d27;fill-opacity:1;fill-rule:nonzero;stroke:none;stroke-width:0.133837"
       id="path2226" />
    <path
       d="m 21.229129,44.860783 2.814589,0.766888 -0.768208,1.023855 -1.53376,0.638402 -1.407998,-0.381436 0.511292,-1.025194 -0.255703,-1.022515 h 0.639751"
       style="fill:#1b1715;fill-opacity:1;fill-rule:nonzero;stroke:none;stroke-width:0.133837"
       id="path2228" />
    <path
       d="m 77.439424,85.979577 -0.230285,0.460402 1.189816,2.799872 1.005092,1.093183 0.144537,-2.627088 0.192726,-3.068756 -1.535127,-1.152335 -0.76688,2.494722"
       style="fill:#392d27;fill-opacity:1;fill-rule:nonzero;stroke:none;stroke-width:0.133837"
       id="path2230" />
    <path
       d="m 83.385803,92.695526 -2.787843,-1.065343 0.741462,0.808244 5.626523,2.559099 2.303336,-1.058651 -5.883478,-1.243349"
       style="fill:#392d27;fill-opacity:1;fill-rule:nonzero;stroke:none;stroke-width:0.133837"
       id="path2232" />
    <path
       d="m 63.304866,41.920379 0.646427,1.369155 7.029133,-0.986378 13.430578,4.34837 7.203115,1.043926 0.981005,-1.9393 -0.508561,-1.524401 -1.79341,0.117752 -5.882149,-1.149662 -11.000075,-3.454338 -3.964265,-0.765549 -5.503376,1.519053 -0.638422,1.421349"
       style="fill:#6a594e;fill-opacity:1;fill-rule:nonzero;stroke:none;stroke-width:0.133837"
       id="path2234" />
    <path
       d="m 51.923361,44.733638 0.09522,-0.01325 -0.477832,-0.499213 -0.658454,-1.163044 -1.32768,-0.104408 -2.60445,-0.207445 0.242423,0.964965 -0.01897,0.137864 4.751216,0.884662"
       style="fill:#6a594e;fill-opacity:1;fill-rule:nonzero;stroke:none;stroke-width:0.133837"
       id="path2236" />
    <path
       d="m 150.4034,48.57075 -12.65964,-4.859627 h -6.78154 l -5.88078,1.533773 -10.65879,-0.903402 -1.87641,0.776255 -3.70864,0.766888 -1.27946,-0.382772 -0.63975,0.89403 -0.89402,7.415919 2.17352,0.38545 6.65035,2.302 4.85965,-0.511256 4.22122,1.790739 0.51125,2.814595 -2.55896,0.894035 -4.34706,-0.894035 -3.32452,2.045034 -2.04634,1.151001 0.2557,5.243738 1.40663,3.454336 3.7086,-0.768223 5.88215,0.511257 2.30201,3.965598 -0.38412,2.43048 -4.85828,2.30066 1.02251,2.815937 4.72982,-0.513937 8.18814,-2.939062 4.22121,-7.80271 v -5.116593 l 0.76555,-2.174855 3.83714,2.557627 4.9881,-4.858288 5.11527,-4.860966 -2.55897,-4.731145 0.22498,-4.111477 -0.60629,-0.621004"
       style="fill:#524339;fill-opacity:1;fill-rule:nonzero;stroke:none;stroke-width:0.133837"
       id="path2238" />
    <path
       d="m 112.54624,45.117749 -3.70864,0.766888 -1.27946,-0.382772 -0.63975,0.89403 -0.30503,2.537554 8.10919,-0.491184 16.87821,-0.509919 11.89677,1.148321 6.90598,1.662262 0.49658,0.465751 0.10964,-2.016926 -0.60629,-0.621004 -12.65963,-4.859627 h -6.78155 l -5.88078,1.533773 -10.65879,-0.903402 -1.87642,0.776255"
       style="fill:#6a594e;fill-opacity:1;fill-rule:nonzero;stroke:none;stroke-width:0.133837"
       id="path2240" />
    <path
       d="m 27.320052,40.031939 -1.61271,-3.226816 -2.558962,-0.511258 -4.604015,0.638403 h -2.815918 l -1.916556,-3.068885 0.127092,-3.071563 2.046381,2.558966 4.476847,1.151001 5.498026,-1.663597 4.09409,1.152339 1.663586,2.941739 v 2.429145 l -4.397899,0.670526"
       style="fill:#ae7748;fill-opacity:1;fill-rule:nonzero;stroke:none;stroke-width:0.133837"
       id="path2242" />
    <path
       d="m 31.71795,39.195456 v -2.263188 l -1.663585,-2.941739 -4.094089,-1.152339 -5.498027,1.663597 -4.476847,-1.151001 -2.046381,-2.558966 -0.01897,0.481815 1.937991,3.099667 2.814588,0.639743 6.777489,0.255627 3.070254,2.684772 1.08006,1.731851 1.496278,-0.22888 0.62101,-0.260977"
       style="fill:#deb26f;fill-opacity:1;fill-rule:nonzero;stroke:none;stroke-width:0.133837"
       id="path2244" />
    <path
       d="m 28.007984,41.793234 2.430504,-2.558966 2.045014,-3.068885 6.267602,-2.174854 1.151003,1.662257 0.127091,2.04637 -5.882149,3.45166 -2.686093,2.049049 -3.453011,-1.406631"
       style="fill:#524339;fill-opacity:1;fill-rule:nonzero;stroke:none;stroke-width:0.133837"
       id="path2246" />
    <path
       d="m 30.581667,41.087911 1.136283,-1.726498 2.427811,-2.30066 3.197384,-1.28082 1.792082,0.638403 -0.63975,1.407965 -2.81459,1.535112 -2.508125,0.622344 -2.591095,1.104154"
       style="fill:#392d27;fill-opacity:1;fill-rule:nonzero;stroke:none;stroke-width:0.133837"
       id="path2248" />
  </g>
</svg>
