<?xml version="1.0" encoding="UTF-8" standalone="no"?>
<!-- Created with Inkscape (http://www.inkscape.org/) -->

<svg
   width="640"
   height="640"
   viewBox="0 0 169.33333 169.33333"
   version="1.1"
   id="svg1764"
   inkscape:version="1.2.2 (732a01da63, 2022-12-09)"
   sodipodi:docname="elephant.svg"
   xmlns:inkscape="http://www.inkscape.org/namespaces/inkscape"
   xmlns:sodipodi="http://sodipodi.sourceforge.net/DTD/sodipodi-0.dtd"
   xmlns="http://www.w3.org/2000/svg"
   xmlns:svg="http://www.w3.org/2000/svg">
  <sodipodi:namedview
     id="namedview1766"
     pagecolor="#ffffff"
     bordercolor="#000000"
     borderopacity="0.25"
     inkscape:showpageshadow="2"
     inkscape:pageopacity="0.0"
     inkscape:pagecheckerboard="0"
     inkscape:deskcolor="#d1d1d1"
     inkscape:document-units="mm"
     showgrid="false"
     inkscape:zoom="0.71179449"
     inkscape:cx="436.22141"
     inkscape:cy="2.1073498"
     inkscape:window-width="1920"
     inkscape:window-height="1051"
     inkscape:window-x="-9"
     inkscape:window-y="-9"
     inkscape:window-maximized="1"
     inkscape:current-layer="layer1" />
  <defs
     id="defs1761" />
  <g
     inkscape:label="Layer 1"
     inkscape:groupmode="layer"
     id="layer1">
    <path
       d="m 46.657872,92.944472 -1.047321,12.582548 -1.704566,15.59626 -1.30915,12.71345 -3.145971,6.5511 0.260488,3.93281 6.161024,0.78548 10.747058,-0.25902 0.916408,-4.72094 -5.765608,-37.61539 2.751887,-14.480812 -7.864257,4.914661"
       style="fill:#a7817e;fill-opacity:1;fill-rule:nonzero;stroke:none;stroke-width:0.133587"
       id="path1030" />
    <path
       d="m 138.14081,115.48858 -3.4078,4.32288 -2.4914,9.82931 -0.13227,5.63604 2.35914,8.25698 -0.25916,2.09731 -14.54894,0.52502 -5.63603,-0.9191 -1.17957,-3.01506 1.31049,-3.01102 1.57232,-5.24329 1.44273,-13.36937 1.17824,-17.2995 10.22206,-0.12957 9.57017,12.31937"
       style="fill:#665257;fill-opacity:1;fill-rule:nonzero;stroke:none;stroke-width:0.133587"
       id="path1032" />
    <path
       d="m 25.16375,37.047731 0.984539,-2.556853 2.554178,-2.488723 3.015054,-2.360478 18.020865,-4.388326 4.523249,-0.984534 7.46884,3.341005 8.649747,5.505113 14.745316,5.505116 7.468838,0.196379 21.430004,-2.555517 15.3331,-0.392746 14.74665,7.666549 11.40163,9.632947 9.43658,11.993426 1.57232,18.870476 0.78551,21.626375 v 4.71694 l -1.37594,0.19771 -0.98189,-10.22206 -1.9664,-24.181891 -0.59046,1.76869 -3.73509,12.975291 -0.58911,7.864254 1.3746,14.152186 -2.16143,5.89919 -1.76869,3.14598 0.58778,8.45471 1.7727,11.40162 2.35514,4.52192 -0.58778,2.75191 -5.70149,1.57233 -13.17166,0.39271 -2.75323,-0.39271 -0.78549,-2.75057 3.34234,-3.34234 1.77137,-4.32688 -0.7895,-10.22207 -4.71695,-12.97529 -6.48832,-7.27513 -4.52191,-4.12651 -5.11103,0.9832 -19.46227,1.9664 -15.136724,-3.34368 -17.891283,-7.076094 -1.572317,6.094234 -0.195054,5.50245 -1.378616,11.4043 0.984537,16.3163 1.966399,5.70146 0.394079,6.61926 -15.204853,1.57231 -6.42152,-0.78551 -0.655912,-4.98146 1.377281,-3.73374 1.179572,-0.59178 1.440069,-2.4246 0.984534,-4.51924 -1.770027,-21.82275 -4.129168,-23.789144 -2.360478,-11.598008 -2.554184,-8.649748 -2.359141,0.983202 -5.111034,4.324202 -2.753223,0.590455 -4.914662,-0.786825 -1.966395,6.290604 -0.784156,7.275139 -0.197705,7.862921 3.145971,4.324204 2.94826,-0.392744 1.180909,-5.307404 -1.573655,-0.78683 -1.572317,2.751892 0.392748,1.377281 -0.981866,0.394079 -2.753223,-4.328213 -0.196379,-3.735089 h 3.144635 l 4.325538,-0.39141 3.54005,4.71829 0.587782,6.486976 -3.145966,5.89652 -8.844787,1.9664 -6.684683,-8.255666 -2.16277,-10.222065 1.573652,-14.156195 2.750551,-13.36937 2.948262,-8.844784 0.983197,-8.452039 1.57499,-4.917331 1.767354,-2.750556"
       style="fill:#665257;fill-opacity:1;fill-rule:nonzero;stroke:none;stroke-width:0.133587"
       id="path1034" />
    <path
       d="m 167.75968,109.85256 -2.62229,0.26317 -0.78417,6.54977 1.30916,5.76961 -0.65594,3.40514 -1.17956,1.44139 3.27691,-2.22689 1.83414,-4.19462 0.3954,-7.20702 -1.57365,-3.80054"
       style="fill:#665257;fill-opacity:1;fill-rule:nonzero;stroke:none;stroke-width:0.133587"
       id="path1036" />
    <path
       d="m 40.30181,68.502087 -2.359141,0.9832 -5.111034,4.324204 -2.753223,0.590454 -3.215434,-0.515643 -0.321947,-4.202643 1.375943,-0.78549 1.573656,0.589118 0.980527,2.55418 1.57499,-0.589117 5.308741,-3.537381 3.53604,-3.342343 4.719623,-1.574988 1.375948,2.55819 -3.736426,1.965062 1.574988,4.718286 1.768692,9.631611 1.377279,11.205262 -1.540257,2.669066 -1.214303,-6.993273 -2.360478,-11.598009 -2.554184,-8.649746"
       style="fill:#574449;fill-opacity:1;fill-rule:nonzero;stroke:none;stroke-width:0.133587"
       id="path1038" />
    <path
       d="m 69.789771,36.260904 2.555517,3.73509 1.770023,6.09423 -0.78549,3.931461 -5.307404,9.042493 -1.770027,6.096902 1.770027,4.520579 13.760779,7.862921 17.692241,6.486976 11.797053,0.395416 23.39239,-11.79705 h 4.52325 6.68335 l 3.14597,-8.255667 -2.94826,-12.386173 -4.81982,-9.93485 2.85476,1.481475 11.40163,9.632948 9.43658,11.993425 1.57232,18.870476 0.78551,21.626374 v 4.71695 l -1.37594,0.1977 -0.98189,-10.22206 -1.9664,-24.181888 -0.59046,1.76869 -3.73509,12.97529 -0.58911,7.864254 1.3746,14.152194 -2.16143,5.89919 -1.76869,3.14597 0.58778,8.45471 1.7727,11.40163 2.35514,4.52192 -0.58778,2.75187 -5.70149,1.57232 -13.17166,0.39276 -2.75323,-0.39276 -0.78549,-2.75056 3.34234,-3.34233 1.77137,-4.32685 -0.7895,-10.22207 -4.71695,-12.97531 -6.48832,-7.27513 -4.52191,-4.12649 -5.11103,0.98319 -19.46227,1.9664 -15.136724,-3.34368 -17.891283,-7.076092 -1.572317,6.094232 -0.195054,5.50244 -1.378616,11.40432 0.984537,16.31628 1.966399,5.70148 0.394079,6.61921 -13.400095,1.38534 0.422136,-5.05496 2.949596,-3.93413 1.375943,-4.52057 -1.179573,-9.8293 -2.357803,-13.16901 2.751887,-11.01289 -1.572319,-9.433902 -1.770024,-5.112367 -3.145969,-10.027026 -4.127832,-3.34101 -0.391411,-5.506448 11.989419,-27.323851 9.82932,-6.684685"
       style="fill:#574449;fill-opacity:1;fill-rule:nonzero;stroke:none;stroke-width:0.133587"
       id="path1040" />
    <path
       d="m 151.59434,150.74616 -1.00591,-2.23355 0.98453,-4.52058 -3.73508,-0.98322 -0.59179,-1.76871 0.39408,-5.70014 0.78683,-9.04381 0.19637,-6.88106 2.9496,-4.32421 0.19505,-8.64975 c 0,0 1.57499,-12.384838 1.57499,-12.97529 0,-0.591791 3.34101,-11.992092 3.34101,-11.992092 l 3.73509,-8.454708 2.35914,-6.289268 0.39542,6.879719 -0.20838,2.38319 -0.57977,1.744645 -3.73509,12.975291 -0.58912,7.864252 1.37461,14.152191 -2.16143,5.89919 -1.76869,3.14598 0.58778,8.45471 1.7727,11.40162 2.35513,4.52192 -0.58778,2.75191 -5.70148,1.57233 -2.33777,0.0693"
       style="fill:#403135;fill-opacity:1;fill-rule:nonzero;stroke:none;stroke-width:0.133587"
       id="path1042" />
    <path
       d="m 68.217453,98.187751 -0.378067,1.461441 0.577095,-4.018289 1.963726,-7.862921 1.770027,-0.589118 0.392745,2.55418 0.589118,3.145967 3.34368,1.770026 11.598005,3.342344 17.302168,2.359149 11.20393,-2.948267 5.70015,-3.342344 5.11237,-3.342341 3.34234,-4.324207 3.73375,-4.524584 1.37728,0.591788 -3.53871,6.092897 -2.9496,9.437909 -1.76869,4.519239 v 4.76104 l -1.77003,-1.61373 -5.11103,0.9832 -19.46227,1.9664 -15.136719,-3.34368 -17.891285,-7.076099"
       style="fill:#403135;fill-opacity:1;fill-rule:nonzero;stroke:none;stroke-width:0.133587"
       id="path1044" />
    <path
       d="m 20.313213,85.997955 1.441404,-9.305658 3.016391,-4.193293 2.884138,-0.522325 0.181686,2.063919 -2.673074,-0.427479 -1.966395,6.290606 -0.784157,7.275139 -0.197703,7.862921 3.145971,4.324202 2.948259,-0.392743 1.180909,-5.307404 -1.573656,-0.786829 -1.572315,2.751892 0.392746,1.377281 -0.981864,0.394079 -2.753224,-4.328214 -0.19638,-3.735089 h 3.144634 l 2.795973,-0.25246 0.2191,1.760674 1.570983,1.311823 -0.128256,3.015057 v 4.586035 l -2.230901,2.229561 h -3.406463 l -2.226894,-2.361811 -1.705903,-4.849201 -0.524997,-8.780664"
       style="fill:#574449;fill-opacity:1;fill-rule:nonzero;stroke:none;stroke-width:0.133587"
       id="path1046" />
    <path
       d="m 25.426918,94.910871 0.917741,-2.094644 -2.09865,-2.098649 -0.129577,1.572315 1.310486,2.620978"
       style="fill:#403135;fill-opacity:1;fill-rule:nonzero;stroke:none;stroke-width:0.133587"
       id="path1048" />
    <path
       d="m 75.491254,41.044648 -10.745722,-7.339259 -0.216411,-4.314854 5.851101,3.7244 14.745316,5.505116 7.468838,0.196379 21.430004,-2.555517 15.3331,-0.392746 5.53182,2.874788 -5.13774,-0.319258 -11.53389,1.57232 -15.20485,4.719623 -14.67719,-0.788164 -12.844376,-2.882804"
       style="fill:#a7817e;fill-opacity:1;fill-rule:nonzero;stroke:none;stroke-width:0.133587"
       id="path1050" />
    <path
       d="m 17.889947,62.012441 2.948263,-8.844786 0.983198,-8.452037 1.574988,-4.917331 1.767354,-2.750556 0.984539,-2.556853 2.554178,-2.488723 3.015054,-2.360478 18.020865,-4.388326 4.523249,-0.984534 0.391409,0.174983 -5.63469,2.316394 -8.651082,2.750554 -9.437914,2.88414 -2.619637,2.622309 -2.097313,3.143298 -2.620973,4.719623 -1.30915,6.027436 v 4.980118 l -3.145971,8.649747 -1.31316,4.981456 -1.576322,2.479368 1.643115,-7.985817"
       style="fill:#a7817e;fill-opacity:1;fill-rule:nonzero;stroke:none;stroke-width:0.133587"
       id="path1052" />
    <path
       d="m 25.16375,46.812929 1.048658,-2.885474 1.704566,-1.30915 4.194629,0.392742 3.013721,3.670968 -0.130899,3.012384 c 0,0 -3.275549,2.359141 -3.4078,2.753224 -0.130899,0.392744 -3.144634,0.784153 -3.537377,0.784153 -0.394084,0 -2.885479,-1.441401 -2.885479,-1.441401 v -4.977446"
       style="fill:#665257;fill-opacity:1;fill-rule:nonzero;stroke:none;stroke-width:0.133587"
       id="path1054" />
    <path
       d="m 31.586607,46.548428 0.657247,2.097313 -2.361814,0.524996 -2.751891,0.394081 v -1.703234 l 1.048658,-1.838153 3.4078,0.524997"
       style="fill:#403135;fill-opacity:1;fill-rule:nonzero;stroke:none;stroke-width:0.133587"
       id="path1056" />
    <path
       d="m 26.084164,46.285263 -0.371364,-0.981866 0.499617,-1.375942 1.704565,-1.30915 4.19463,0.392742 3.01372,3.670968 -0.130916,3.012384 -0.09619,0.06946 -0.296575,-0.593124 -2.229567,-1.309154 -3.930125,-0.65858 -2.357808,-0.917741"
       style="fill:#a7817e;fill-opacity:1;fill-rule:nonzero;stroke:none;stroke-width:0.133587"
       id="path1058" />
    <path
       d="m 25.207834,51.817091 1.661823,0.236441 3.669628,-0.391409 2.245596,-0.307254 c -0.621179,0.491601 -1.14751,0.939116 -1.198274,1.092744 -0.130899,0.392742 -3.144635,0.784151 -3.537377,0.784151 -0.366024,0 -2.520786,-1.231669 -2.841396,-1.414685"
       style="fill:#574449;fill-opacity:1;fill-rule:nonzero;stroke:none;stroke-width:0.133587"
       id="path1060" />
    <path
       d="m 47.39928,150.68602 0.436828,-4.39898 0.786827,-1.31052 0.78683,0.91511 -0.261852,2.49003 v 2.51945 l -1.748652,-0.21509"
       style="fill:#574449;fill-opacity:1;fill-rule:nonzero;stroke:none;stroke-width:0.133587"
       id="path1062" />
    <path
       d="m 53.211643,151.39807 -2.774597,-0.3408 -0.240457,-3.72173 1.442739,-1.1796 1.441401,0.39408 1.497509,4.70628 -1.366595,0.14169"
       style="fill:#a7817e;fill-opacity:1;fill-rule:nonzero;stroke:none;stroke-width:0.133587"
       id="path1064" />
    <path
       d="m 142.20185,146.80935 1.35323,4.1786 -2.79463,0.0815 -1.8622,-0.26581 -0.10422,-1.63643 1.7059,-2.35781 h 1.7019"
       style="fill:#665257;fill-opacity:1;fill-rule:nonzero;stroke:none;stroke-width:0.133587"
       id="path1066" />
    <path
       d="m 144.71328,150.95322 0.10955,-2.83206 1.31183,-1.18088 1.96506,1.44138 0.16298,2.4647 -3.5494,0.10672"
       style="fill:#665257;fill-opacity:1;fill-rule:nonzero;stroke:none;stroke-width:0.133587"
       id="path1068" />
    <path
       d="m 118.08809,140.91419 1.04732,3.40645 v 1.74863 l -4.90531,-0.79749 -0.20573,-2.26297 2.09598,-2.88014 1.96773,0.78552"
       style="fill:#574449;fill-opacity:1;fill-rule:nonzero;stroke:none;stroke-width:0.133587"
       id="path1070" />
    <path
       d="m 49.018354,26.760209 3.541387,-1.180905 3.666959,-2.88147 2.488723,-2.75456 4.588705,2.882804 5.897858,7.341931 2.487389,12.712124 -1.570981,4.062374 -10.091152,15.727178 -5.765607,8.64975 -0.917741,2.359142 -3.801879,0.392746 -3.143301,-4.718287 -2.88414,-8.520168 2.095977,-8.910242 0.130899,-6.159692 -2.097313,-3.931459 -2.09598,-0.261813 2.487386,-6.684685 2.75456,-3.800547 2.228231,-4.324206"
       style="fill:#665257;fill-opacity:1;fill-rule:nonzero;stroke:none;stroke-width:0.133587"
       id="path1072" />
    <path
       d="m 44.035563,34.884962 2.75456,-3.800547 2.228231,-4.324206 3.541387,-1.180905 1.110106,-0.874997 1.966399,0.94179 5.111032,4.324203 4.915994,8.649751 -6.488312,17.693575 -5.307406,6.092894 -4.325539,0.589118 -2.555516,-3.538714 -2.315061,-3.545397 0.939113,-3.988901 0.130899,-6.159692 -2.097313,-3.931459 -2.09598,-0.261813 2.487386,-6.684685"
       style="fill:#a7817e;fill-opacity:1;fill-rule:nonzero;stroke:none;stroke-width:0.133587"
       id="path1074" />
    <path
       d="m 27.522895,69.879368 0.984535,0.784155 0.9832,2.161434 -0.785493,1.37728 L 25.95058,75.77589 19.267228,78.331405 8.8487913,79.903725 1.9677351,79.509641 0,78.133698 v -1.375945 l 2.5555164,0.786827 7.4715106,-0.981865 8.060629,-1.966394 6.094234,-2.359145 3.341005,-2.357808"
       style="fill:#f8d5af;fill-opacity:1;fill-rule:nonzero;stroke:none;stroke-width:0.133587"
       id="path1076" />
    <path
       d="m 0,78.133698 v -0.106861 l 1.6725079,0.402097 h 7.8629206 l 8.7486025,-1.377281 8.552227,-3.636233 1.959719,-2.113345 0.694653,1.522891 -0.785493,1.377281 -2.754557,1.573651 -6.683352,2.555517 L 8.8487913,79.903731 1.9677351,79.509649 0,78.133705"
       style="fill:#d5a26b;fill-opacity:1;fill-rule:nonzero;stroke:none;stroke-width:0.133587"
       id="path1078" />
  </g>
</svg>
