<?xml version="1.0" encoding="UTF-8" standalone="no"?>
<!-- Created with Inkscape (http://www.inkscape.org/) -->

<svg
   width="640"
   height="640"
   viewBox="0 0 169.33333 169.33333"
   version="1.1"
   id="svg1764"
   inkscape:version="1.2.2 (732a01da63, 2022-12-09)"
   sodipodi:docname="giraffe.svg"
   xmlns:inkscape="http://www.inkscape.org/namespaces/inkscape"
   xmlns:sodipodi="http://sodipodi.sourceforge.net/DTD/sodipodi-0.dtd"
   xmlns="http://www.w3.org/2000/svg"
   xmlns:svg="http://www.w3.org/2000/svg">
  <sodipodi:namedview
     id="namedview1766"
     pagecolor="#ffffff"
     bordercolor="#000000"
     borderopacity="0.25"
     inkscape:showpageshadow="2"
     inkscape:pageopacity="0.0"
     inkscape:pagecheckerboard="0"
     inkscape:deskcolor="#d1d1d1"
     inkscape:document-units="mm"
     showgrid="false"
     inkscape:zoom="1.1383321"
     inkscape:cx="338.65338"
     inkscape:cy="302.63577"
     inkscape:window-width="1920"
     inkscape:window-height="1051"
     inkscape:window-x="-9"
     inkscape:window-y="-9"
     inkscape:window-maximized="1"
     inkscape:current-layer="layer1" />
  <defs
     id="defs1761" />
  <g
     inkscape:label="Layer 1"
     inkscape:groupmode="layer"
     id="layer1">
    <path
       d="m 98.355516,99.151789 -0.597538,7.264841 -0.696478,6.77234 -2.687079,6.86692 -0.69952,5.87537 -0.19789,3.18448 0.19789,2.29079 0.199182,1.48949 -0.994159,1.89614 -0.697347,1.98961 -0.398469,6.57012 v 11.74747 l -0.197889,1.2927 1.293693,1.89179 0.89609,2.5876 0.498602,3.18776 -0.599712,0.59687 h -3.183509 l -2.886259,-5.47743 -0.895656,-7.36814 1.391648,-25.4835 1.494177,-26.577249 8.760214,-0.597972"
       style="fill:#b84e28;fill-opacity:1;fill-rule:nonzero;stroke:none;stroke-width:0.108723"
       id="path1938" />
    <path
       d="m 93.894085,161.62057 0.380528,2.43864 -0.599712,0.59687 h -3.183509 l -1.221064,-2.31361 4.623757,-0.7219"
       style="fill:#f89b20;fill-opacity:1;fill-rule:nonzero;stroke:none;stroke-width:0.108723"
       id="path1940" />
    <path
       d="m 104.52727,9.1087986 -2.98781,3.4345474 -1.641931,5.375246 -4.479262,12.992354 -3.134256,11.049481 -3.884659,11.049481 -2.68621,4.330422 -2.53976,2.090733 -1.941243,2.687625 3.285488,-0.597976 4.778253,-3.584584 c 0,0 5.374484,-11.795316 5.374484,-12.692278 0,-0.894788 8.214976,-27.773194 8.214976,-27.773194 l 1.64193,-8.3618574"
       style="fill:#74421c;fill-opacity:1;fill-rule:nonzero;stroke:none;stroke-width:0.108723"
       id="path1942" />
    <path
       d="m 44.897953,90.489857 -1.095717,2.887673 -1.195103,5.475271 -0.198782,9.556719 0.798437,7.96502 0.794609,7.86064 -0.29728,5.07735 -0.49732,1.89286 0.595433,0.79586 1.294895,-5.37199 -0.100221,-5.6775 -0.795882,-7.16808 -0.59755,-5.97105 0.995072,-8.16398 0.299406,-9.158793"
       style="fill:#f89b20;fill-opacity:1;fill-rule:nonzero;stroke:none;stroke-width:0.108723"
       id="path1944" />
    <path
       d="m 42.408366,130.01053 1.593046,-0.39793 0.696077,1.49385 -0.597973,3.48455 -0.99591,3.88141 -1.293216,4.28369 -0.09809,5.37305 0.59628,2.68871 -1.591778,-2.09073 -0.997604,-6.67013 0.497742,-4.68159 1.296179,-4.97626 0.895256,-2.38862"
       style="fill:#b84e28;fill-opacity:1;fill-rule:nonzero;stroke:none;stroke-width:0.108723"
       id="path1946" />
    <path
       d="m 65.701765,116.07446 -1.390889,9.75568 -2.887564,7.96287 -1.394258,4.3815 0.695281,3.38563 3.188617,13.53922 1.094402,5.27522 1.094509,1.39166 1.393825,3.08663 -1.095705,0.79913 h -3.483365 l -1.693246,-0.49905 v -2.19077 l -0.795088,-1.49167 -0.598409,-0.89804 0.796717,-2.38538 -0.498925,-4.58156 -2.886697,-8.16183 -2.686645,-5.87537 -1.992667,-6.86909 4.083405,-17.51956 9.056702,0.89478"
       style="fill:#b84e28;fill-opacity:1;fill-rule:nonzero;stroke:none;stroke-width:0.108723"
       id="path1948" />
    <path
       d="m 113.68627,6.7690873 -0.0989,-3.4845606 V 1.4927773 l 0.89478,-0.69582237 -0.39792,-0.69691335 -3.68385,-0.100007679098 -0.098,0.796936429098 0.79629,0.39792277 -0.20047,5.1762838 2.78818,0.3979258"
       style="fill:#e06c1e;fill-opacity:1;fill-rule:nonzero;stroke:none;stroke-width:0.108723"
       id="path1950" />
    <path
       d="m 129.61414,17.470656 -0.74747,2.240773 -0.44804,1.492762 -1.34338,-0.150022 -5.52441,-0.746925 -2.68795,0.298974 h -4.03253 l -1.79174,-0.596887 -2.83744,2.687625 -2.23991,11.199516 -0.89566,12.842316 -3.13556,11.197343 -3.43531,12.246517 -0.14873,12.095391 1.04613,7.465983 -1.643237,8.21182 -3.58404,4.627238 -1.641822,8.21508 -2.388528,6.86909 -1.344137,6.27112 -0.298976,6.2733 1.044281,2.38865 v 1.79172 l -1.79175,1.64173 -0.448043,4.78052 -0.745838,17.3228 1.94135,3.43019 1.494065,3.13883 0.298544,2.08964 -2.98813,0.74475 -3.883898,-0.59471 -1.490698,-0.59906 v -1.19378 l 0.746598,-2.53757 -1.64443,-0.89808 -1.044279,-1.79283 1.343702,-4.02816 1.045261,-11.79859 0.449239,-7.61603 -1.195512,-1.64169 0.597974,-4.03253 -1.493195,-12.24543 -1.793056,-5.37307 -4.030891,2.98661 -10.152736,2.38646 -3.43672,-1.04265 -4.328465,-0.59689 -1.793926,10.00357 -1.940482,8.06395 -1.194209,1.64062 -0.447285,3.13883 -1.495261,3.73027 0.59754,8.21183 1.046891,8.96202 0.596668,1.94179 1.641822,2.53757 0.896959,3.28451 -3.135449,0.44902 -3.885204,0.44685 -0.894787,-1.49386 0.749099,-3.2834 -1.493631,-1.04482 v -4.03362 l 0.148617,-5.97322 -0.597103,-8.0607 -1.344158,-5.97649 1.640209,-4.62722 -0.14744,-11.65072 -3.135942,-11.3463 -1.194252,-12.392204 0.896112,-8.960916 5.674855,-4.330422 5.523543,-1.641713 7.168517,-3.732448 9.108021,-5.974308 3.434982,-2.089649 2.388527,-4.630494 1.942111,-6.122172 5.671846,-2.537588 3.288421,-3.136648 5.374596,-14.333989 4.629191,-15.977877 3.134689,-9.855704 2.68839,-7.0180465 2.98595,-2.0907369 0.20005,-1.2448722 -1.69325,-3.2845112 -0.79628,0.1000079 -0.69648,-0.8958716 1.79088,-1.59278806 2.29079,0.1000385 0.0991,0.69473753 -0.49697,0.79802423 1.19302,2.1896722 1.09657,1.6917232 2.68795,0.7969365 2.38722,-0.1000079 1.29609,0.9958978 1.59224,2.4886628 2.48746,0.9958977 3.58449,1.990711 3.6846,2.786563 1.3935,1.941785"
       style="fill:#f89b20;fill-opacity:1;fill-rule:nonzero;stroke:none;stroke-width:0.108723"
       id="path1952" />
    <path
       d="m 107.21424,9.4567113 -1.49233,-0.597975 -2.68708,-1.8906878 -2.09084,-0.8958716 -0.79585,0.497949 0.49653,2.7865592 3.18601,2.4897479 2.98694,-0.597972 0.39662,-1.7917497"
       style="fill:#f89b20;fill-opacity:1;fill-rule:nonzero;stroke:none;stroke-width:0.108723"
       id="path1954" />
    <path
       d="m 115.27841,10.353674 h -1.79262 l -0.89565,-0.497952 0.89565,-0.8958747 2.08997,0.496864 -0.29734,0.8969627"
       style="fill:#eeab72;fill-opacity:1;fill-rule:nonzero;stroke:none;stroke-width:0.108723"
       id="path1956" />
    <path
       d="m 115.47759,10.700499 -1.4422,1.145934 -1.64324,-0.248987 v -0.99481 l -0.14995,-0.499037 1.29413,-0.3979256 1.39339,0.2489868 0.54784,0.7458388"
       style="fill:#74421c;fill-opacity:1;fill-rule:nonzero;stroke:none;stroke-width:0.108723"
       id="path1958" />
    <path
       d="m 128.19521,17.633741 -0.55764,-1.561257 -1.33904,-0.669731 -0.89152,0.334863 2.7882,1.896125"
       style="fill:#eeab72;fill-opacity:1;fill-rule:nonzero;stroke:none;stroke-width:0.108723"
       id="path1960" />
    <path
       d="m 127.56288,17.819656 -0.29692,-1.487326 -1.19128,-0.22396 -0.89098,0.743662 2.37918,0.967633"
       style="fill:#74421c;fill-opacity:1;fill-rule:nonzero;stroke:none;stroke-width:0.108723"
       id="path1962" />
    <path
       d="m 94.074999,101.83833 1.193774,-6.271128 v -6.721231 l -1.791749,-5.822096 -0.745836,-7.763884 4.478937,-8.810881 2.838645,-11.348469 4.77705,-20.010397 3.88215,-12.990178 0.29944,-3.285599 0.44674,-0.745837 3.43499,1.044823 3.8826,0.746927 3.5848,-0.298976 1.15822,0.751273 -2.65185,0.29355 h -4.03253 l -1.79174,-0.596887 -2.83745,2.687625 -2.2399,11.199517 -0.89566,12.842315 -3.13556,11.197343 -3.43531,12.246517 -0.14874,12.095391 1.04613,7.465983 -1.643232,8.21182 -3.584042,4.627239 -1.641821,8.21508 -0.299437,-5.07626 -0.148632,-3.88357"
       style="fill:#e06c1e;fill-opacity:1;fill-rule:nonzero;stroke:none;stroke-width:0.108723"
       id="path1964" />
    <path
       d="m 44.79772,111.84298 -1.194251,-12.392206 0.513462,-5.139317 1.426985,4.541344 1.942134,7.315949 3.284619,4.33042 3.880854,0.74692 2.390701,-0.74692 c 0,0 -0.448043,-2.23969 -0.597538,-2.83658 -0.148738,-0.59688 -1.342506,-5.67423 -1.342506,-5.67423 l 0.148179,-1.64388 0.597541,0.30008 1.342941,4.47937 1.195081,4.62723 1.792619,1.49494 5.822204,-1.04482 c 0,0 5.525718,-1.94179 5.825141,-2.38864 0.298974,-0.45011 6.120322,-5.67641 6.120322,-5.67641 l 3.137302,-5.822092 0.895656,1.044823 -0.895656,4.777269 0.895656,6.12326 2.986934,12.54333 1.044281,7.01804 -0.148617,4.47829 v 2.83985 l -0.297373,11.64527 -0.896528,9.55888 -1.4945,2.98661 1.643994,2.08965 -0.826399,0.82629 -0.967523,-0.5284 -1.04428,-1.79283 1.343702,-4.02816 1.045261,-11.79857 0.449239,-7.61602 -1.195512,-1.64173 0.597975,-4.03251 -1.493197,-12.24543 -1.793056,-5.37307 -4.030889,2.9866 -10.152736,2.38647 -3.43672,-1.04265 -4.328467,-0.59689 -1.793924,10.00357 -1.940482,8.06397 -1.194209,1.64062 -0.447285,3.13882 -1.495263,3.73027 0.597541,8.21181 1.046892,8.96202 0.596668,1.94179 1.64182,2.53757 0.896961,3.28451 -3.135449,0.44902 -3.885206,0.44685 -0.894786,-1.49386 0.7491,-3.2834 -1.493632,-1.04482 v -4.03362 l 0.148602,-5.97322 -0.597103,-8.06068 -1.344159,-5.97648 1.640209,-4.62726 -0.14744,-11.65071 -3.135941,-11.34629"
       style="fill:#e06c1e;fill-opacity:1;fill-rule:nonzero;stroke:none;stroke-width:0.108723"
       id="path1966" />
    <path
       d="M 110.40035,1.8491406e-5 114.0842,0.10002618 114.48212,0.79693951 113.58734,1.4927619 V 1.8830784 L 111.08237,1.5938728 111.0987,1.1948592 110.30243,0.79693643 110.40049,0"
       style="fill:#74421c;fill-opacity:1;fill-rule:nonzero;stroke:none;stroke-width:0.108723"
       id="path1968" />
    <path
       d="m 107.21424,1.8667844 -1.06809,0.8643438 -0.12611,-0.2424531 -0.79628,0.100008 -0.69648,-0.8958716 1.79088,-1.5927881 2.29078,0.1000385 0.0991,0.69473753 -0.49697,0.79802427 0.0476,0.086972 -1.04438,0.086972"
       style="fill:#74421c;fill-opacity:1;fill-rule:nonzero;stroke:none;stroke-width:0.108723"
       id="path1970" />
    <path
       d="M 101.14327,8.5619245 V 7.3670623 l 1.89156,1.7917494 2.28828,0.9948103 1.71793,0.08589 -0.22343,1.008946 -1.3149,0.263102 -0.97546,-0.263102 -1.59398,-0.894787 -1.79001,-1.791749"
       style="fill:#e06c1e;fill-opacity:1;fill-rule:nonzero;stroke:none;stroke-width:0.108723"
       id="path1972" />
    <path
       d="m 53.758043,160.67359 0.596668,1.94179 1.641822,2.53757 0.896959,3.28451 -3.135449,0.44902 -3.885204,0.44685 -0.894788,-1.49386 0.7491,-3.2834 -1.493632,-1.04482 v -4.03362 l 0.148618,-5.97322 -0.597103,-8.06071 -0.08447,-0.37291 2.673491,-2.41692 1.590067,-3.38343 2.19098,-8.56191 2.987262,-13.93824 0.994705,-4.57831 4.779552,0.59689 4.379456,-1.79067 10.552946,-3.38562 0.993289,2.58869 1.425789,3.48021 -3.3654,2.4941 -10.152736,2.38646 -3.43672,-1.04265 -4.328467,-0.59689 -1.793924,10.00357 -1.940482,8.06395 -1.194209,1.64065 -0.447285,3.13879 -1.495263,3.7303 0.597541,8.21181 1.046892,8.96202"
       style="fill:#eeab72;fill-opacity:1;fill-rule:nonzero;stroke:none;stroke-width:0.108723"
       id="path1974" />
    <path
       d="m 83.921285,166.34673 v -1.19378 l 0.746597,-2.53757 -1.644429,-0.89808 -1.04428,-1.79283 1.343703,-4.02816 1.04526,-11.7986 0.44924,-7.61602 -1.195513,-1.6417 0.09729,-0.64908 2.092912,-0.0968 5.723593,-1.01219 v 1.31009 l -1.79175,1.64173 -0.448043,4.78052 -0.74584,17.32281 1.941352,3.43019 1.494065,3.13883 0.298544,2.08964 -2.98813,0.74475 -3.883898,-0.59471 -1.490698,-0.59906"
       style="fill:#fabf85;fill-opacity:1;fill-rule:nonzero;stroke:none;stroke-width:0.108723"
       id="path1976" />
    <path
       d="m 84.667882,156.34315 -1.4945,2.98661 1.643994,2.08965 -0.8264,0.82629 -0.967523,-0.5284 -1.04428,-1.79283 1.343703,-4.02816 1.04526,-11.7986 0.44924,-7.61602 -1.195513,-1.6417 0.09729,-0.64908 2.092912,-0.0968 0.04968,-0.009 v 1.05463 l -0.297372,11.64527 -0.896529,9.55888"
       style="fill:#eeab72;fill-opacity:1;fill-rule:nonzero;stroke:none;stroke-width:0.108723"
       id="path1978" />
    <path
       d="m 91.332252,163.33728 0.653206,1.36883 0.298543,2.08964 -2.98813,0.74475 -3.883898,-0.59471 -1.490697,-0.59906 v -1.19378 l 0.154588,-0.52947 2.830594,0.13258 4.42577,-1.41884"
       style="fill:#f89b20;fill-opacity:1;fill-rule:nonzero;stroke:none;stroke-width:0.108723"
       id="path1980" />
    <path
       d="m 62.718743,163.85806 3.928364,-0.88174 0.848581,1.87655 -1.095705,0.79913 h -3.483365 l -1.693246,-0.49905 v -1.3525 l 1.495371,0.0577"
       style="fill:#f89b20;fill-opacity:1;fill-rule:nonzero;stroke:none;stroke-width:0.108723"
       id="path1982" />
    <path
       d="m 56.027952,165.26384 0.86554,3.17362 -3.135449,0.44902 -3.885204,0.44685 -0.894788,-1.49386 0.0972,-0.41639 2.888868,-0.67627 4.063835,-1.48297"
       style="fill:#f89b20;fill-opacity:1;fill-rule:nonzero;stroke:none;stroke-width:0.108723"
       id="path1984" />
    <path
       d="m 105.7966,19.262405 0.67017,0.895874 0.37335,4.777271 -2.46159,0.151136 -1.19551,-0.07502 -0.29768,-1.641713 -0.37412,-1.12093 -0.67234,-0.895872 0.22461,-1.343814 3.7331,-0.746922"
       style="fill:#87371b;fill-opacity:1;fill-rule:nonzero;stroke:none;stroke-width:0.108723"
       id="path1986" />
    <path
       d="m 104.3021,28.297253 2.76351,0.671907 0.22507,0.521867 c 0,0 0.14916,0.969807 -0.0764,1.044827 -0.22332,0.07609 -3.06076,1.194862 -3.06076,1.194862 l -0.89478,-0.81977 1.04341,-2.613693"
       style="fill:#87371b;fill-opacity:1;fill-rule:nonzero;stroke:none;stroke-width:0.108723"
       id="path1988" />
    <path
       d="m 101.53946,40.466576 0.076,0.820858 -2.239795,2.83766 -1.643232,1.71673 -0.747469,-0.07393 0.67408,-2.390813 0.148633,-2.685447 1.193774,-0.970892 2.538019,0.745835"
       style="fill:#87371b;fill-opacity:1;fill-rule:nonzero;stroke:none;stroke-width:0.108723"
       id="path1990" />
    <path
       d="m 94.074999,46.290849 1.941243,1.194861 c 0,0 0.968719,2.910504 0.968719,3.134472 0,0.225072 -0.222452,2.464741 -0.222452,2.464741 l -2.464196,0.969808 -0.895224,-2.613694 -0.374112,-3.807463 1.046019,-1.342725"
       style="fill:#87371b;fill-opacity:1;fill-rule:nonzero;stroke:none;stroke-width:0.108723"
       id="path1992" />
    <path
       d="m 88.849898,57.713249 2.983567,0.821942 1.122018,1.193774 -0.374984,3.135561 -1.491566,1.419918 -3.956961,-0.07502 V 59.80398 l 1.717926,-2.090733"
       style="fill:#87371b;fill-opacity:1;fill-rule:nonzero;stroke:none;stroke-width:0.108723"
       id="path1994" />
    <path
       d="m 98.776818,55.697528 1.195512,0.596887 2.23991,3.210579 -1.94266,4.255407 -0.966981,-0.14895 -2.467133,-4.777273 1.941352,-3.136648"
       style="fill:#87371b;fill-opacity:1;fill-rule:nonzero;stroke:none;stroke-width:0.108723"
       id="path1996" />
    <path
       d="m 85.113864,64.880244 2.314594,0.597974 0.524481,3.210576 -2.46496,3.210581 -2.016479,0.821942 -2.016044,-3.733535 1.271186,-2.314704 2.387222,-1.792834"
       style="fill:#87371b;fill-opacity:1;fill-rule:nonzero;stroke:none;stroke-width:0.108723"
       id="path1998" />
    <path
       d="m 91.985458,68.464826 0.446416,-0.07502 3.659169,1.493846 -0.07479,1.717817 -1.792618,4.329335 -2.015175,-0.298976 -2.912569,-3.359527 0.223314,-1.268794 2.466264,-2.538672"
       style="fill:#87371b;fill-opacity:1;fill-rule:nonzero;stroke:none;stroke-width:0.108723"
       id="path2000" />
    <path
       d="m 87.428458,76.080849 h 1.867422 l 3.062063,2.388632 -0.598844,1.642802 -1.716623,3.658515 -3.807466,0.372919 -2.53965,-4.62941 0.672776,-1.343809 3.060322,-2.089649"
       style="fill:#87371b;fill-opacity:1;fill-rule:nonzero;stroke:none;stroke-width:0.108723"
       id="path2002" />
    <path
       d="m 95.121456,80.933138 3.059452,3.13556 -0.298544,1.344899 -2.46409,1.417745 -1.941244,-2.090738 0.224609,-2.314704 1.419811,-1.492762"
       style="fill:#87371b;fill-opacity:1;fill-rule:nonzero;stroke:none;stroke-width:0.108723"
       id="path2004" />
    <path
       d="m 79.665445,73.392137 0.747034,0.671907 0.446306,5.67532 h -0.596669 l -3.957721,-0.597976 -1.641495,-2.910504 0.447178,-2.24186 4.555367,-0.596887"
       style="fill:#87371b;fill-opacity:1;fill-rule:nonzero;stroke:none;stroke-width:0.108723"
       id="path2006" />
    <path
       d="m 81.979173,81.755081 0.822159,0.670819 0.670168,4.628321 -0.59754,0.821944 -5.299794,1.194862 -2.015172,-3.060543 -0.448916,-3.062717 1.194317,-1.789574 5.674778,0.596888"
       style="fill:#87371b;fill-opacity:1;fill-rule:nonzero;stroke:none;stroke-width:0.108723"
       id="path2008" />
    <path
       d="m 89.222383,88.250172 2.089976,0.820855 -0.820967,2.240773 -1.344137,1.344898 -2.240773,-1.644974 -0.372811,-1.418829 2.688712,-1.342723"
       style="fill:#87371b;fill-opacity:1;fill-rule:nonzero;stroke:none;stroke-width:0.108723"
       id="path2010" />
    <path
       d="m 92.506568,92.878494 1.120385,1.269878 -0.07609,1.49385 -1.04428,0.147863 -1.344137,-1.491678 1.344137,-1.419915"
       style="fill:#87371b;fill-opacity:1;fill-rule:nonzero;stroke:none;stroke-width:0.108723"
       id="path2012" />
    <path
       d="m 85.56441,93.850473 1.567562,0.597975 0.520672,1.940697 -1.417634,1.491674 c 0,0 -1.417634,0.150022 -1.417634,-0.07502 0,-0.221804 -1.122016,-2.613692 -1.122016,-2.613692 l 1.86905,-1.341638"
       style="fill:#87371b;fill-opacity:1;fill-rule:nonzero;stroke:none;stroke-width:0.108723"
       id="path2014" />
    <path
       d="m 87.428458,104.00517 2.240665,1.94069 0.448047,2.23861 -1.046022,0.74801 -2.611409,-0.59798 -0.895329,-3.80747 1.864048,-0.52186"
       style="fill:#87371b;fill-opacity:1;fill-rule:nonzero;stroke:none;stroke-width:0.108723"
       id="path2016" />
    <path
       d="m 75.259572,92.131567 1.044823,1.046999 0.895221,4.777273 -3.20862,1.793922 -2.016477,-1.943958 -1.195517,-0.894787 1.046892,-2.91268 1.790987,-1.491674 1.642691,-0.375095"
       style="fill:#87371b;fill-opacity:1;fill-rule:nonzero;stroke:none;stroke-width:0.108723"
       id="path2018" />
    <path
       d="m 70.631685,82.649868 0.894786,1.268794 0.747031,5.077345 -0.598406,0.596888 -4.406638,-1.790662 -2.53715,-1.642798 0.821832,-1.343811 2.688712,-1.044826 2.389833,-1.12093"
       style="fill:#87371b;fill-opacity:1;fill-rule:nonzero;stroke:none;stroke-width:0.108723"
       id="path2020" />
    <path
       d="m 68.014621,89.89297 0.824446,1.34381 c 0,0 -0.373354,0.744751 -0.597215,0.744751 -0.227228,0 -1.342834,-0.07286 -1.567996,-0.446851 -0.223316,-0.372916 -0.821293,-2.015718 -0.821293,-2.015718 l 2.162058,0.374008"
       style="fill:#87371b;fill-opacity:1;fill-rule:nonzero;stroke:none;stroke-width:0.108723"
       id="path2022" />
    <path
       d="m 61.82004,91.087832 1.717929,0.372916 3.061193,6.345055 -1.867854,2.091821 -2.463222,1.268796 -2.089537,-1.493851 -2.016044,-2.536497 0.747466,-3.212756 1.940482,-2.014629 0.969587,-0.820855"
       style="fill:#87371b;fill-opacity:1;fill-rule:nonzero;stroke:none;stroke-width:0.108723"
       id="path2024" />
    <path
       d="m 52.935338,90.339821 1.419373,0.971979 -0.596668,2.314705 -1.493742,1.118754 -1.045584,-0.522955 -0.296386,-2.090737 2.013001,-1.791746"
       style="fill:#87371b;fill-opacity:1;fill-rule:nonzero;stroke:none;stroke-width:0.108723"
       id="path2026" />
    <path
       d="m 64.956037,103.92797 0.225072,1.79393 -2.913006,3.06054 -1.342073,0.44902 -1.120278,-1.79392 -0.52502,-4.1793 1.867854,-0.74801 2.835703,1.04483 0.971763,0.37291"
       style="fill:#87371b;fill-opacity:1;fill-rule:nonzero;stroke:none;stroke-width:0.108723"
       id="path2028" />
    <path
       d="m 71.227484,100.41949 1.642798,1.3449 v 2.91268 l -1.044388,1.41666 -1.046892,0.74692 -4.17984,-2.61151 1.567998,-3.06272 1.26901,-0.37292 1.791314,-0.37401"
       style="fill:#87371b;fill-opacity:1;fill-rule:nonzero;stroke:none;stroke-width:0.108723"
       id="path2030" />
    <path
       d="m 97.359618,30.620658 1.344572,-4.638109 0.05643,-0.182665 1.28815,0.107651 0.96828,1.269879 0.52241,2.686536 -0.52241,1.269882 c 0,0 -1.714451,0.298975 -1.940811,0.298975 -0.165682,0 -1.197253,-0.537092 -1.716621,-0.812158"
       style="fill:#87371b;fill-opacity:1;fill-rule:nonzero;stroke:none;stroke-width:0.108723"
       id="path2032" />
    <path
       d="m 95.692683,36.372083 0.85021,-2.927901 2.533346,0.975243 0.150369,1.641713 -3.21036,0.447936 -0.323559,-0.136991"
       style="fill:#87371b;fill-opacity:1;fill-rule:nonzero;stroke:none;stroke-width:0.108723"
       id="path2034" />
    <path
       d="m 103.70674,40.765564 -1.56844,-2.688709 0.0739,-2.239688 1.94125,-1.940698 1.56843,1.193775 0.74486,1.12093 1.33533,-0.04456 -0.4549,6.523357 -3.64046,-1.924391"
       style="fill:#87371b;fill-opacity:1;fill-rule:nonzero;stroke:none;stroke-width:0.108723"
       id="path2036" />
    <path
       d="m 99.150498,48.306565 1.195512,-0.970893 2.01735,-1.493848 1.26814,-0.597974 1.71793,1.269878 1.49917,1.00025 -1.38534,4.946879 -6.312762,-3.333437 v -0.820855"
       style="fill:#87371b;fill-opacity:1;fill-rule:nonzero;stroke:none;stroke-width:0.108723"
       id="path2038" />
    <path
       d="m 103.53974,40.478537 1.28608,-5.388293 0.16688,-0.555572 0.72921,0.555572 0.74485,1.12093 1.33534,-0.04456 -0.29987,4.315201 -0.15505,2.208156 -3.64047,-1.924391 -0.16701,-0.287017"
       style="fill:#9c342e;fill-opacity:1;fill-rule:nonzero;stroke:none;stroke-width:0.108723"
       id="path2040" />
    <path
       d="m 102.23507,45.935327 0.12829,-0.0935 1.26814,-0.597974 1.71793,1.269878 1.49917,1.00025 -1.38534,4.946879 -4.2504,-2.245122 1.02221,-4.280408"
       style="fill:#9c342e;fill-opacity:1;fill-rule:nonzero;stroke:none;stroke-width:0.108723"
       id="path2042" />
    <path
       d="m 106.68345,28.875658 0.38216,0.0935 0.22507,0.521868 c 0,0 0.14916,0.969806 -0.0764,1.044826 -0.0874,0.03052 -0.59156,0.225071 -1.16062,0.449023 l 0.62983,-2.109219"
       style="fill:#9c342e;fill-opacity:1;fill-rule:nonzero;stroke:none;stroke-width:0.108723"
       id="path2044" />
    <path
       d="m 98.370849,61.807742 1.402302,-5.612261 0.199182,0.09892 2.239907,3.210579 -1.94266,4.255407 -0.966978,-0.14895 -0.93175,-1.803708"
       style="fill:#9c342e;fill-opacity:1;fill-rule:nonzero;stroke:none;stroke-width:0.108723"
       id="path2046" />
    <path
       d="m 92.731188,75.259991 2.840813,-5.589428 0.519042,0.213082 -0.07479,1.717817 -1.792618,4.329335 -1.448186,-0.214192 -0.04426,-0.456637"
       style="fill:#9c342e;fill-opacity:1;fill-rule:nonzero;stroke:none;stroke-width:0.108723"
       id="path2048" />
    <path
       d="m 93.701645,82.4259 1.419811,-1.492762 3.059452,3.13556 -0.298544,1.344899 -2.46409,1.417745 -1.151374,-1.239439 -0.663315,-2.157057 0.09806,-1.008946"
       style="fill:#9c342e;fill-opacity:1;fill-rule:nonzero;stroke:none;stroke-width:0.108723"
       id="path2050" />
    <path
       d="m 128.59574,20.61274 -4.80673,-1.201386 v -0.596887 l 4.93709,1.370992 -0.13031,0.427281"
       style="fill:#e06c1e;fill-opacity:1;fill-rule:nonzero;stroke:none;stroke-width:0.108723"
       id="path2052" />
  </g>
</svg>
