<?xml version="1.0" encoding="UTF-8" standalone="no"?>
<!-- Created with Inkscape (http://www.inkscape.org/) -->

<svg
   width="640"
   height="640"
   viewBox="0 0 169.33333 169.33333"
   version="1.1"
   id="svg1764"
   inkscape:version="1.2.2 (732a01da63, 2022-12-09)"
   sodipodi:docname="goat.svg"
   xmlns:inkscape="http://www.inkscape.org/namespaces/inkscape"
   xmlns:sodipodi="http://sodipodi.sourceforge.net/DTD/sodipodi-0.dtd"
   xmlns="http://www.w3.org/2000/svg"
   xmlns:svg="http://www.w3.org/2000/svg">
  <sodipodi:namedview
     id="namedview1766"
     pagecolor="#ffffff"
     bordercolor="#000000"
     borderopacity="0.25"
     inkscape:showpageshadow="2"
     inkscape:pageopacity="0.0"
     inkscape:pagecheckerboard="0"
     inkscape:deskcolor="#d1d1d1"
     inkscape:document-units="mm"
     showgrid="false"
     inkscape:zoom="1.1879191"
     inkscape:cx="197.40401"
     inkscape:cy="284.11025"
     inkscape:window-width="1920"
     inkscape:window-height="1051"
     inkscape:window-x="-9"
     inkscape:window-y="-9"
     inkscape:window-maximized="1"
     inkscape:current-layer="layer1" />
  <defs
     id="defs1761" />
  <g
     inkscape:label="Layer 1"
     inkscape:groupmode="layer"
     id="layer1">
    <path
       d="m 50.548603,101.05121 -5.477898,13.69974 -5.726987,8.71376 -0.747266,2.24202 1.745722,12.20105 0.743084,3.23636 2.742087,3.48478 2.989086,4.23466 -0.74936,2.49301 -5.228805,0.49664 -6.223078,-2.98934 1.741539,-2.98691 v -2.98934 l -2.241813,-1.99016 0.747272,-7.71938 -0.996359,-10.46036 -1.494547,-10.45945 13.944877,-15.688335 4.232446,4.481545"
       style="fill:#ba612d;fill-opacity:1;fill-rule:nonzero;stroke:none;stroke-width:0.20932"
       id="path2340" />
    <path
       d="m 61.257395,104.29165 -2.488812,8.21727 -5.976072,7.71949 -1.245454,2.24037 -2.241814,0.99593 -0.496097,-3.48728 -2.241813,-0.49603 -1.245452,2.73835 -2.989088,-0.24921 v -4.73022 l -2.739993,-3.73677 -1.743634,-6.22475 18.428504,-7.470833 4.979713,4.484043"
       style="fill:#dd5f6a;fill-opacity:1;fill-rule:nonzero;stroke:none;stroke-width:0.20932"
       id="path2342" />
    <path
       d="m 61.257395,104.29165 -1.85876,-1.67703 -0.797507,0.18215 -2.986992,6.31055 -6.308893,3.64843 h -3.983351 l -5.312533,-4.31387 -1.647344,0.65897 1.230797,4.40215 2.739993,3.73678 v 4.73024 l 2.989087,0.24919 1.245453,-2.73835 2.241813,0.49604 0.496097,3.48728 2.241813,-0.99594 1.245455,-2.24035 5.976072,-7.71951 2.488812,-8.21726"
       style="fill:#cd4a59;fill-opacity:1;fill-rule:nonzero;stroke:none;stroke-width:0.20932"
       id="path2344" />
    <path
       d="m 125.0057,96.569658 -0.74728,16.437252 -1.74154,10.21103 -0.50025,7.71529 2.98909,9.96396 v 3.23629 l 3.48517,1.99258 2.24391,4.23466 -6.47635,1.99014 -4.23244,-2.49058 -6.72335,-30.87878 3.48517,-17.93029 8.21789,-4.481552"
       style="fill:#ba612d;fill-opacity:1;fill-rule:nonzero;stroke:none;stroke-width:0.20932"
       id="path2346" />
    <path
       d="m 144.93083,52.332078 4.31618,0.330494 7.63179,-0.164954 -0.99427,3.154471 0.66563,7.300838 2.48882,4.484043 0.66564,2.65582 1.32708,-0.994272 v -3.154645 l 2.15809,-7.304812 2.65835,-6.141439 2.32134,-0.500192 1.16385,-4.314107 -0.49603,-5.478313 -3.48938,-1.826501 -5.14508,-2.989519 -6.64171,-4.900157 -4.48154,-3.152808 -7.9688,-5.726985 -6.97452,-0.663125 -7.96671,3.321497 -5.97608,12.617999 -8.63443,7.964794 -6.72335,5.144674 -9.212156,1.494582 c 0,0 -5.479988,3.986046 -6.227261,4.234717 -0.747272,0.250987 -16.929774,2.740017 -16.929774,2.740017 L 52.792558,57.226183 43.578306,54.239215 33.120695,55.235147 19.920997,59.469924 17.681278,62.95299 10.461841,62.706157 2.9870334,57.975104 4.7467761e-5,59.469864 2.4888535,69.925173 l 5.2308997,2.991774 6.4742588,-2.491286 1.992726,2.491286 -0.749368,5.973759 2.490907,6.721078 3.736354,9.717008 -2.486717,14.690088 -5.232995,4.48155 0.249087,2.48815 3.734264,8.71857 2.241814,17.1806 -0.498175,3.23873 3.487261,2.49057 0.249088,2.49056 -1.247549,3.48569 8.967254,2.98935 3.487267,-0.99915 0.24701,-2.73751 -3.485172,-5.22894 -2.989087,-2.49057 -1.245447,-10.70878 0.745173,-14.44303 4.483627,-3.98609 9.961525,-8.46446 4.23454,-3.23861 15.439416,1.99335 17.180957,3.23546 20.915218,-5.47582 4.73272,-1.74569 2.23972,4.4882 -0.49818,9.70787 -0.99426,5.22898 2.73999,5.72509 2.49091,2.24203 3.48307,18.43006 -0.99427,3.23624 2.48881,1.74409 1.49454,3.48728 6.97244,1.2453 4.48154,-0.50018 -0.24909,-5.47826 -5.47789,-2.48813 -1.98854,-6.22724 -4.23663,-18.42675 0.74937,-5.47832 2.24181,-14.94332 8.71188,-7.968177 3.24027,-9.46353 0.24701,-7.964615 9.21425,-19.673727 3.73845,-7.882971"
       style="fill:#d5a657;fill-opacity:1;fill-rule:nonzero;stroke:none;stroke-width:0.20932"
       id="path2348" />
    <path
       d="m 133.97085,25.352648 5.97608,0.496633 -1.24336,-6.476798 -6.47635,-7.717843 -13.69578,-5.9762504 -0.99427,1.2460876 10.21061,5.2306508 4.73063,7.472494 1.49244,5.725146"
       style="fill:#deb26f;fill-opacity:1;fill-rule:nonzero;stroke:none;stroke-width:0.20932"
       id="path2350" />
    <path
       d="m 136.71085,27.59467 -2.98699,0.246833 -8.71816,11.703116 -2.48882,3.237954 2.48882,2.986968 6.22516,-1.988542 4.98181,-9.216756 0.99427,-4.728502 1.74363,-0.998246 -0.49609,-1.741534 -1.74364,0.498413"
       style="fill:#cd7b41;fill-opacity:1;fill-rule:nonzero;stroke:none;stroke-width:0.20932"
       id="path2352" />
    <path
       d="m 23.906395,103.79289 -3.736352,8.4651 -2.488812,2.24202 0.247011,2.98845 3.240267,-2.73751 2.986991,-7.47251 0.747268,-4.23305 -0.996361,0.7475"
       style="fill:#cd7b41;fill-opacity:1;fill-rule:nonzero;stroke:none;stroke-width:0.20932"
       id="path2354" />
    <path
       d="m 144.93083,52.332078 4.31618,0.330494 7.63179,-0.164954 -0.99427,3.154471 0.66563,7.300838 2.48882,4.484043 0.66564,2.65582 1.32708,-0.994272 v -3.154645 l 2.15809,-7.304812 2.65835,-6.141439 2.32134,-0.500192 0.83104,-3.081013 -3.15446,0.592161 -4.73063,-0.250987 -4.73272,-0.996763 -3.48727,-0.495445 -5.47789,-0.250987 -4.48153,-1.494758 -3.48517,-2.738356 -1.49245,-2.986968 -1.49454,-2.73978 0.24701,4.231988 1.49245,3.983791 0.99636,2.989282 1.74363,2.490515 -0.49817,3.236293 -3.73427,10.21079 -3.23608,7.721225 -3.48726,4.234718 -2.23972,-2.246235 -3.24027,-3.73423 -2.49091,-0.994271 0.99637,1.74177 3.73845,4.981801 0.99636,4.979487 -2.24391,5.23154 -5.2309,8.71603 -1.24126,5.477482 -0.99636,2.98703 1.74363,1.49221 8.71188,-7.968177 3.24027,-9.46353 0.24701,-7.964615 9.21425,-19.673727 3.73845,-7.882971"
       style="fill:#cd7b41;fill-opacity:1;fill-rule:nonzero;stroke:none;stroke-width:0.20932"
       id="path2356" />
    <path
       d="m 99.858035,92.583613 -4.73272,3.487218 -9.214252,2.989342 -7.968798,0.74744 -14.445151,0.249207 -5.228807,-1.493101 -4.72853,-0.995933 -4.483627,-3.736543 -0.24701,2.491286 -0.749368,3.981301 -2.271118,5.57793 0.778672,-0.59678 15.439418,1.99335 17.180957,3.23546 20.915219,-5.47582 4.73272,-1.74569 0.21348,0.4278 0.78286,-3.912408 -5.97398,-7.224"
       style="fill:#cd7b41;fill-opacity:1;fill-rule:nonzero;stroke:none;stroke-width:0.20932"
       id="path2358" />
    <path
       d="m 112.55537,128.44253 -2.49091,-2.98507 -2.48881,-4.73501 0.24701,-5.47517 -0.82891,-5.82163 -0.41653,8.06281 -0.99426,5.22899 2.73999,5.72508 2.49091,2.24202 3.48307,18.43009 -0.99427,3.23622 0.85821,0.59856 0.63424,-5.08419 -0.99217,-5.22645 -1.24755,-14.19625"
       style="fill:#cd7b41;fill-opacity:1;fill-rule:nonzero;stroke:none;stroke-width:0.20932"
       id="path2360" />
    <path
       d="m 119.03171,140.64614 1.59502,1.76616 -3.83893,-16.70557 0.74937,-5.47832 0.27003,-1.81267 -1.76456,5.29598 -0.99636,2.24203 2.4909,8.71609 1.49454,5.9763"
       style="fill:#cd7b41;fill-opacity:1;fill-rule:nonzero;stroke:none;stroke-width:0.20932"
       id="path2362" />
    <path
       d="m 28.465377,146.18824 -2.566255,0.18453 -1.743634,-0.74572 -0.747272,-2.98851 c 0,0 -1.247547,-6.22551 -1.494541,-6.97052 -0.249086,-0.74726 -0.496097,-7.47249 -0.496097,-7.47249 l -1.496635,-5.97625 -5.216244,-4.03761 3.223524,7.52482 2.241813,17.18061 -0.498174,3.23872 3.48726,2.49058 0.249089,2.49057 -1.247549,3.48568 8.967253,2.98934 3.487268,-0.99914 0.24701,-2.73752 -3.485173,-5.22893 -2.911636,-2.4284"
       style="fill:#cd7b41;fill-opacity:1;fill-rule:nonzero;stroke:none;stroke-width:0.20932"
       id="path2364" />
    <path
       d="m 16.18669,72.916532 -0.749367,5.973758 2.490907,6.721078 3.736352,9.717008 -2.089008,12.311594 1.842009,-1.3558 1.492453,-4.4857 2.989086,-1.74153 0.249087,-4.484045 L 24.155488,90.84291 19.92095,82.62458 18.926684,73.414529 16.18669,68.6795 H 12.450331 L 5.9781669,67.934553 1.9906259,64.447275 0.75355071,59.088283 0,59.469212 2.488806,69.92452 l 5.2308997,2.991775 6.4742583,-2.491287 1.992726,2.491287"
       style="fill:#cd7b41;fill-opacity:1;fill-rule:nonzero;stroke:none;stroke-width:0.20932"
       id="path2366" />
    <path
       d="m 105.64781,99.587659 -8.033683,2.959971 -16.433689,4.48155 -16.68487,-1.74408 -17.348411,-2.73747 -1.358484,3.33425 0.778672,-0.59678 15.439418,1.99334 17.180955,3.23547 20.915222,-5.47583 4.73271,-1.74568 0.21349,0.4278 0.78285,-3.91241 -0.18417,-0.220131"
       style="fill:#ba612d;fill-opacity:1;fill-rule:nonzero;stroke:none;stroke-width:0.20932"
       id="path2368" />
    <path
       d="m 34.615188,156.58309 0.24701,-2.73753 -1.461051,-2.1856 -5.262294,0.94028 -5.521854,0.71957 -0.456342,1.27307 8.967253,2.98934 3.487266,-0.99913"
       style="fill:#d5a657;fill-opacity:1;fill-rule:nonzero;stroke:none;stroke-width:0.20932"
       id="path2370" />
    <path
       d="m 128.73996,158.32711 -0.24909,-5.47825 -0.0837,-0.0356 -4.39571,0.78494 -7.85577,1.34179 1.13033,2.64427 6.97244,1.2453 4.48153,-0.50018"
       style="fill:#cd7b41;fill-opacity:1;fill-rule:nonzero;stroke:none;stroke-width:0.20932"
       id="path2372" />
    <path
       d="m 131.23086,43.781117 4.98181,-9.216756 0.86449,-4.096348 -2.77349,1.113533 -3.48726,5.14153 -2.15599,4.650892 -0.3035,3.326065 2.87396,-0.918916"
       style="fill:#ba612d;fill-opacity:1;fill-rule:nonzero;stroke:none;stroke-width:0.20932"
       id="path2374" />
    <path
       d="m 167.00987,50.169387 1.68081,-0.09791 0.30143,-1.124274 -1.81687,0.228438 -3.15446,-0.500785 -2.90535,0.582074 0.0837,0.74477 2.65417,-0.328716 3.15654,0.496632"
       style="fill:#ba612d;fill-opacity:1;fill-rule:nonzero;stroke:none;stroke-width:0.20932"
       id="path2376" />
    <path
       d="m 168.00412,44.524224 -1.1638,-1.32708 -1.99063,-0.167319 0.33281,0.665381 -0.16744,0.829143 h 2.98906"
       style="fill:#ba612d;fill-opacity:1;fill-rule:nonzero;stroke:none;stroke-width:0.20932"
       id="path2378" />
    <path
       d="m 149.74309,36.557117 -2.65417,-2.655881 -1.49663,-1.793865 -0.66146,-1.360545 -2.57881,-0.08188 -1.57409,1.576583 1.65991,1.659709 2.32554,0.332868 2.65417,1.659949 1.99272,1.163374 0.33281,-0.500192"
       style="fill:#cd7b41;fill-opacity:1;fill-rule:nonzero;stroke:none;stroke-width:0.20932"
       id="path2380" />
    <path
       d="m 142.77065,31.910379 -0.72634,0.807783 0.87077,0.622302 2.76093,0.229626 -0.55887,-0.623786 -0.14864,-1.328742 -2.19786,0.29252"
       style="fill:#ba612d;fill-opacity:1;fill-rule:nonzero;stroke:none;stroke-width:0.20932"
       id="path2382" />
    <path
       d="m 158.12425,52.618189 h 1.49455 l -0.87287,3.238786 -0.62168,3.484786 v 2.615 l -0.74309,-3.362261 0.74309,-5.976311"
       style="fill:#d5a657;fill-opacity:1;fill-rule:nonzero;stroke:none;stroke-width:0.20932"
       id="path2384" />
    <path
       d="m 159.86788,55.360699 -0.99426,3.233801 v 3.238784 l 0.99426,2.490456 0.12769,-4.607517 1.11986,-5.851944 -1.24755,1.49642"
       style="fill:#d5a657;fill-opacity:1;fill-rule:nonzero;stroke:none;stroke-width:0.20932"
       id="path2386" />
    <path
       d="m 138.70357,19.372365 -4.38315,-5.222285 0.77239,1.489716 2.7379,4.980317 -2.11622,1.242944 -2.11622,-1.741771 -5.3544,-8.587748 -6.84894,-3.2387856 -3.68193,-1.5927207 -0.17581,0.2225046 10.21061,5.2306517 4.73063,7.472493 1.49244,5.725146 5.97608,0.496631 -1.24336,-6.476798"
       style="fill:#ae7748;fill-opacity:1;fill-rule:nonzero;stroke:none;stroke-width:0.20932"
       id="path2388" />
  </g>
</svg>
