<?xml version="1.0" encoding="UTF-8" standalone="no"?>
<!-- Created with Inkscape (http://www.inkscape.org/) -->

<svg
   width="640"
   height="640"
   viewBox="0 0 169.33333 169.33333"
   version="1.1"
   id="svg1764"
   inkscape:version="1.2.2 (732a01da63, 2022-12-09)"
   sodipodi:docname="horse.svg"
   xmlns:inkscape="http://www.inkscape.org/namespaces/inkscape"
   xmlns:sodipodi="http://sodipodi.sourceforge.net/DTD/sodipodi-0.dtd"
   xmlns="http://www.w3.org/2000/svg"
   xmlns:svg="http://www.w3.org/2000/svg">
  <sodipodi:namedview
     id="namedview1766"
     pagecolor="#ffffff"
     bordercolor="#000000"
     borderopacity="0.25"
     inkscape:showpageshadow="2"
     inkscape:pageopacity="0.0"
     inkscape:pagecheckerboard="0"
     inkscape:deskcolor="#d1d1d1"
     inkscape:document-units="mm"
     showgrid="false"
     inkscape:zoom="1.1879191"
     inkscape:cx="197.40401"
     inkscape:cy="284.11025"
     inkscape:window-width="1920"
     inkscape:window-height="1051"
     inkscape:window-x="-9"
     inkscape:window-y="-9"
     inkscape:window-maximized="1"
     inkscape:current-layer="layer1" />
  <defs
     id="defs1761" />
  <g
     inkscape:label="Layer 1"
     inkscape:groupmode="layer"
     id="layer1">
    <path
       d="m 54.567116,94.844112 -9.238745,6.495228 -5.63089,7.65164 c 0,0 -5.050312,11.98096 -5.340112,12.41589 -0.288004,0.43274 -0.865145,4.0435 -0.865145,4.0435 l 4.762967,23.8179 4.041652,3.89848 0.577798,1.58531 1.299273,1.29945 2.165077,6.20786 -1.01062,0.72275 -8.66111,-0.86832 -4.762967,-1.87267 v -3.03405 l 1.58793,-2.45502 -0.144975,-2.59726 -3.031526,-3.46498 1.010777,-5.19482 -3.177813,-15.59092 -5.05162,-9.09657 12.415253,-28.2929 18.911129,-2.743028 0.143672,7.07253"
       style="fill:#532421;fill-opacity:1;fill-rule:nonzero;stroke:none;stroke-width:0.163452"
       id="path2054" />
    <path
       d="m 31.904294,160.24113 4.762967,1.87267 8.66111,0.86832 1.01062,-0.72275 -2.165077,-6.20786 -1.299273,-1.29945 -0.577798,-1.58531 -4.041652,-3.89848 -2.138268,-10.68952 -5.224718,-5.55228 -1.346508,1.73095 1.780796,8.73758 -1.010776,5.19482 3.031527,3.46498 0.144974,2.59726 -1.587929,2.45502 v 3.03405"
       style="fill:#be8568;fill-opacity:1;fill-rule:nonzero;stroke:none;stroke-width:0.163452"
       id="path2056" />
    <path
       d="m 46.338991,162.25937 -2.085311,-5.9787 -2.099204,1.21438 -3.610634,1.15373 -6.639548,-0.12274 v 1.71496 l 4.762967,1.87267 8.66111,0.86831 1.01062,-0.72273"
       style="fill:#ae7748;fill-opacity:1;fill-rule:nonzero;stroke:none;stroke-width:0.163452"
       id="path2058" />
    <path
       d="m 101.77327,102.92859 3.03202,6.93196 0.28929,14.28856 -1.73471,13.85886 -0.14302,14.29049 1.44295,3.60938 0.86711,2.16756 -0.43233,2.74099 5.77243,1.3006 3.32216,-0.2891 1.44359,-2.02016 -0.43479,-3.17698 -4.33096,-2.74307 -0.43215,-4.90662 0.28801,-12.84757 2.16573,-12.27354 1.87773,-18.47813 -12.99306,-2.45309"
       style="fill:#532421;fill-opacity:1;fill-rule:nonzero;stroke:none;stroke-width:0.163452"
       id="path2060" />
    <path
       d="m 117.65286,161.39171 -2.45487,-4.76109 -4.33096,-2.74308 -0.43215,-4.90662 0.0938,-4.20445 -2.33179,-4.81984 -2.38213,-3.68271 -1.29863,3.03201 -1.17488,0.58875 -0.1244,12.40378 1.44295,3.60938 0.8671,2.16756 -0.43233,2.74099 5.77245,1.3006 3.32214,-0.2891 3.46368,-0.436"
       style="fill:#be8568;fill-opacity:1;fill-rule:nonzero;stroke:none;stroke-width:0.163452"
       id="path2062" />
    <path
       d="m 114.18918,161.82774 3.46368,-0.43598 -2.45487,-4.7611 -2.21623,-1.40601 -1.68109,1.26035 -4.3308,2.3094 -1.60265,0.29236 -0.27262,1.72963 5.77245,1.3006 3.32214,-0.2891"
       style="fill:#ae7748;fill-opacity:1;fill-rule:nonzero;stroke:none;stroke-width:0.163452"
       id="path2064" />
    <path
       d="M 18.766915,55.578121 H 9.5267778 L 4.1871551,65.394794 1.7315648,84.881957 2.8865761,98.597145 1.7315648,106.10427 0,111.73517 c 0,0 4.7630784,6.92691 4.7630784,7.50597 0,0.57651 1.155646,14.43539 1.155646,14.86882 0,0.4332 -1.5879106,5.48527 -1.5879106,5.48527 l -1.587892,1.73404 v 1.2962 l 2.4536768,-1.2962 1.8771372,3.60937 0.4341362,4.47512 2.0188826,4.33016 0.8657844,-0.43137 -1.1530974,-3.61059 1.2986654,-5.05232 3.897984,-8.66159 2.742871,-19.05677 1.587928,-61.352973"
       style="fill:#532421;fill-opacity:1;fill-rule:nonzero;stroke:none;stroke-width:0.163452"
       id="path2066" />
    <path
       d="m 147.82496,13.136402 3.75298,-2.162481 -2.30807,-3.1789719 -3.46631,-3.465121 -7.07384,-0.4332106 -15.44744,2.4550246 -7.07301,6.6410359 -11.69314,20.644043 -5.484594,10.972299 -0.28981,3.894718 42.731024,-34.211615 6.3522,-1.155766"
       style="fill:#532421;fill-opacity:1;fill-rule:nonzero;stroke:none;stroke-width:0.163452"
       id="path2068" />
    <path
       d="m 164.85969,29.305319 2.45336,2.165724 2.02028,2.884714 -0.57698,7.6528 -5.48541,3.463685 -3.46517,-1.297961 -3.03121,-1.877721 -9.52805,-2.597406 -3.03218,0.290506 0.28864,5.049141 -1.87592,17.901013 -6.49456,22.376975 -0.57911,10.537513 -8.94961,10.106478 -1.58923,13.13479 -1.58728,12.27159 -0.2898,18.18897 1.58907,9.38189 3.61064,4.04414 0.288,6.06371 -9.38307,1.01005 -3.03284,-1.15563 0.5778,-4.61752 -2.59789,-2.45498 0.14367,-5.77624 0.57846,-17.1753 V 125.1624 l -2.74418,-15.5911 -4.90746,-4.04414 -12.125946,-1.87643 -9.816709,-0.86776 -18.477659,-1.58532 -14.292326,-5.775028 -3.898638,0.142239 -5.196597,3.03219 -12.847422,12.559559 -5.340272,12.12594 -3.754311,5.91876 1.87642,12.26845 3.89733,15.73723 4.332105,2.741 1.299275,2.02204 1.732253,6.35163 -1.589887,0.86834 -8.083148,-2.0221 -5.918075,-2.16443 1.442945,-3.75234 -2.021398,-5.05428 -1.29862,-1.87637 -1.155595,-8.66114 -0.288652,-11.11649 -4.330179,-18.18851 1.587304,-6.06419 -0.433627,-8.9509 L 5.6295072,83.582421 7.6515634,69.581175 15.014576,55.434351 28.727796,44.319672 41.14305,44.028704 56.878487,49.517726 c 0,0 8.660947,2.020241 9.38242,2.020241 0.72409,0 20.211055,-0.145479 20.211055,-0.145479 l 8.228783,-3.175868 4.763782,-3.177674 2.020743,-1.299257 13.13608,-19.630795 8.66094,-9.385037 5.63024,-4.620611 8.80658,-2.8850851 7.36298,3.3211671 7.07301,8.805276 6.20788,5.485085 6.49671,4.475822"
       style="fill:#7d3e31;fill-opacity:1;fill-rule:nonzero;stroke:none;stroke-width:0.163452"
       id="path2070" />
    <path
       d="m 128.33717,162.98212 -3.61063,-4.04415 -1.58907,-9.38187 0.28981,-18.18897 1.58727,-12.27161 1.58923,-13.13478 3.64692,-4.11962 c 0.0185,-0.7808 0.0324,-1.29597 0.0324,-1.29597 l -1.2973,-6.711134 -4.76558,-7.145922 -4.54672,-9.964148 -0.8676,-4.54393 -1.73095,-0.4346 -0.64874,2.600511 -0.21707,8.010904 -4.54917,10.610904 -0.64742,9.092635 0.81725,7.23141 0.33721,0.27984 2.74417,15.59111 v 13.71384 l -0.57845,17.17531 -0.14367,5.77623 2.59789,2.45498 -0.5778,4.61753 3.03283,1.15563 9.38307,-1.01006 -0.288,-6.0637"
       style="fill:#632c27;fill-opacity:1;fill-rule:nonzero;stroke:none;stroke-width:0.163452"
       id="path2072" />
    <path
       d="M 108.19689,100.97665 89.790177,95.99974 70.736028,92.316994 57.960034,86.253308 l -5.847789,-8.226814 -4.76313,-9.529362 -9.960381,-8.87867 -9.095074,2.816419 -8.660947,5.845181 -9.094582,10.180059 -3.6610447,8.317348 5.6811357,14.561871 0.433627,8.95091 -1.587304,6.06419 4.33018,18.1885 0.288651,11.11649 1.1556,8.66114 1.298618,1.87637 2.021399,5.05429 -1.442945,3.75234 5.918077,2.16442 8.083146,2.02211 1.589889,-0.86833 -1.732255,-6.35164 -1.299273,-2.02206 -4.332107,-2.74099 -3.89733,-15.73723 -1.87642,-12.26845 3.754312,-5.91876 5.340272,-12.12593 12.84742,-12.559565 5.1966,-3.03219 3.898635,-0.142239 14.292327,5.775034 18.477659,1.58532 9.81671,0.86776 12.12595,1.87642 1.89112,1.55608 -0.9539,-6.10654"
       style="fill:#632c27;fill-opacity:1;fill-rule:nonzero;stroke:none;stroke-width:0.163452"
       id="path2074" />
    <path
       d="m 38.471103,74.126679 5.630732,10.610951 -1.732255,4.762945 -7.580698,3.898656 -6.061095,4.331448 -4.331453,-5.630753 1.947353,-13.426027 4.548518,-5.846478 7.578898,1.299258"
       style="fill:#7d3e31;fill-opacity:1;fill-rule:nonzero;stroke:none;stroke-width:0.163452"
       id="path2076" />
    <path
       d="m 128.33717,162.98212 -3.61063,-4.04415 -1.58907,-9.38187 0.16475,-10.22204 -1.89636,-2.8444 -0.43349,-2.81313 -0.8658,-1.7341 -2.16572,5.4155 -3.09217,3.34062 -0.51585,15.35296 -0.14368,5.77623 2.59789,2.45497 -0.57779,4.61754 3.03283,1.15562 9.38307,-1.01005 -0.288,-6.0637"
       style="fill:#d1a380;fill-opacity:1;fill-rule:nonzero;stroke:none;stroke-width:0.163452"
       id="path2078" />
    <path
       d="m 31.615641,159.94807 -4.332105,-2.74099 -3.414495,-13.78546 -2.502928,-0.65052 -3.249898,-2.16573 -2.167036,2.16573 0.07422,2.88833 1.1556,8.66114 1.298619,1.87637 2.021399,5.05429 -1.442945,3.75234 5.918077,2.16442 8.083144,2.02211 1.589889,-0.86833 -1.732256,-6.35164 -1.299272,-2.02206"
       style="fill:#d1a380;fill-opacity:1;fill-rule:nonzero;stroke:none;stroke-width:0.163452"
       id="path2080" />
    <path
       d="m 164.60629,35.36576 -2.92409,-2.705313 -2.59889,-3.463037 -3.89666,-3.89861 -3.1414,-2.382792 0.6507,0.973679 2.70512,2.491304 4.33275,4.763129 2.3815,3.033487 2.49097,1.188153"
       style="fill:#632c27;fill-opacity:1;fill-rule:nonzero;stroke:none;stroke-width:0.163452"
       id="path2082" />
    <path
       d="m 167.7887,37.137564 0.6538,-1.520264 -1.14252,-1.901906 -0.36928,0.692671 -0.47726,0.678031 1.33539,2.051468"
       style="fill:#632c27;fill-opacity:1;fill-rule:nonzero;stroke:none;stroke-width:0.163452"
       id="path2084" />
    <path
       d="m 166.22775,36.23547 1.40892,0.755314 v 0.432746 l -1.29939,-0.647405 -0.10939,-0.540701"
       style="fill:#632c27;fill-opacity:1;fill-rule:nonzero;stroke:none;stroke-width:0.163452"
       id="path2086" />
    <path
       d="m 165.83545,43.85051 -1.98752,-1.987577 -4.76462,-1.515029 -4.54736,-0.64875 -3.67946,-0.434598 -6.28143,-2.815124 -8.87801,-5.412989 1.51633,3.680753 3.89733,4.329642 3.17259,0.933464 2.96321,-0.280776 9.52805,2.597404 3.03121,1.877722 3.46517,1.297962 2.56451,-1.621735"
       style="fill:#632c27;fill-opacity:1;fill-rule:nonzero;stroke:none;stroke-width:0.163452"
       id="path2088" />
    <path
       d="m 166.87831,41.214184 -2.3815,-1.083996 -2.59889,-0.214057 1.95001,1.08219 2.37982,1.082236 0.64235,1.118005 0.89572,-0.564422 -0.88751,-1.420049"
       style="fill:#632c27;fill-opacity:1;fill-rule:nonzero;stroke:none;stroke-width:0.163452"
       id="path2090" />
    <path
       d="m 151.50506,22.26675 -0.43413,-1.949954 -2.16442,-1.18945 -2.05785,-0.107958 -2.49067,0.538893 -0.10721,1.838802 1.08221,1.630119 h 3.78993 l 2.38214,-0.76041"
       style="fill:#632c27;fill-opacity:1;fill-rule:nonzero;stroke:none;stroke-width:0.163452"
       id="path2092" />
    <path
       d="m 149.98872,21.18326 0.21642,-1.080427 -1.8944,0.269653 -1.35353,1.24241 0.10851,0.54399 3.79073,-0.324791 -0.86774,-0.650509"
       style="fill:#532421;fill-opacity:1;fill-rule:nonzero;stroke:none;stroke-width:0.163452"
       id="path2094" />
    <path
       d="m 142.40998,38.616965 -1.29927,11.0424 -5.63088,11.909699 -1.51438,14.074638 0.64874,5.195922 1.49721,4.859593 0.0213,-0.382243 6.49457,-22.376975 1.87593,-17.901012 -0.28866,-5.049141 1.08091,-0.103791 -2.88524,-1.268678"
       style="fill:#632c27;fill-opacity:1;fill-rule:nonzero;stroke:none;stroke-width:0.163452"
       id="path2096" />
    <path
       d="m 145.08209,10.539136 -7.36299,-3.3211656 -8.80657,2.8850836 -5.63025,4.620611 -8.66094,9.385037 -13.13608,19.630795 -2.020741,1.299258 -4.763782,3.177675 -8.228785,3.175868 c 0,0 -10.362469,0.07644 -16.25439,0.117691 l 3.983463,2.26395 13.641793,1.298146 10.825531,0.434136 3.682061,-6.931957 7.36102,-9.957106 8.66291,-10.614842 7.14461,-10.826676 9.45662,-5.088106 4.83637,-0.974328 6.49652,3.682236 4.40501,2.756278 -5.63138,-7.012391"
       style="fill:#632c27;fill-opacity:1;fill-rule:nonzero;stroke:none;stroke-width:0.163452"
       id="path2098" />
    <path
       d="M 134.97557,12.08734 136.13249,9.6190635 136.56463,6.5380382 142.62703,0 l 0.86711,0.61617837 -1.15446,4.56519563 -2.45552,4.0699486 -0.86581,2.3419264 -1.44424,1.110314 -2.59856,-0.616223"
       style="fill:#7d3e31;fill-opacity:1;fill-rule:nonzero;stroke:none;stroke-width:0.163452"
       id="path2100" />
    <path
       d="m 141.11071,3.4275475 -1.7316,3.0320505 -0.542,3.3556383 0.6811,0.4230157 0.36598,-0.9870694 2.45553,-4.069947 0.87789,-3.4684125 -2.10689,1.7145845"
       style="fill:#532421;fill-opacity:1;fill-rule:nonzero;stroke:none;stroke-width:0.163452"
       id="path2102" />
    <path
       d="m 23.386205,164.13779 -2.101819,1.67984 3.689747,1.35036 8.083148,2.02211 1.589888,-0.86833 -1.732255,-6.35164 -0.625689,-0.97239 -3.561438,0.5408 -5.341582,2.59925"
       style="fill:#ae7748;fill-opacity:1;fill-rule:nonzero;stroke:none;stroke-width:0.163452"
       id="path2104" />
    <path
       d="m 32.914914,161.97013 -0.625689,-0.97239 -3.561438,0.5408 -4.233057,2.06101 0.91304,-0.1844 5.773091,-0.57721 h 1.968441 l -0.234397,-0.86773"
       style="fill:#99643e;fill-opacity:1;fill-rule:nonzero;stroke:none;stroke-width:0.163452"
       id="path2106" />
    <path
       d="m 128.33717,162.98212 -0.95765,-1.0707 -3.95226,3.23643 -6.97412,1.80756 -0.24385,1.94484 3.03283,1.15562 11.69182,-1.15562 -2.59675,-5.91813"
       style="fill:#ae7748;fill-opacity:1;fill-rule:nonzero;stroke:none;stroke-width:0.163452"
       id="path2108" />
    <path
       d="m 128.33717,162.98212 -0.95765,-1.0707 -3.95226,3.23643 -2.75316,0.71254 2.32035,0.15204 2.88785,-1.58857 2.47089,-1.08539 -0.0163,-0.35629"
       style="fill:#99643e;fill-opacity:1;fill-rule:nonzero;stroke:none;stroke-width:0.163452"
       id="path2110" />
    <path
       d="m 164.71421,28.760678 -0.10793,1.626182 -2.05786,5.956471 -0.67177,1.261546 -4.30922,-3.39164 -6.13582,-4.550324 -6.49455,-5.409885 -3.73649,-3.749743 2.5093,-11.3369366 -1.40845,-0.2173004 -1.48006,4.260837 -0.7924,4.978855 -1.44361,-1.299259 -3.17635,-5.270007 -1.66,-3.7524773 -1.3001,0.8646582 2.16524,4.7642421 4.83701,7.579548 0.72082,4.547219 2.23798,7.904341 2.27556,6.713083 1.4047,-0.109813 -2.38034,-7.361692 -1.08286,-5.268202 -0.64874,-2.093446 -0.5778,-2.2393 7.17976,6.353496 10.82832,8.120249 1.78487,1.248941 -0.48709,0.916785 -3.1389,3.211682 1.19075,0.79289 3.10373,-2.778658 1.62473,-3.140054 1.29942,-3.393583 1.01013,-4.545274 -1.08205,-1.193343"
       style="fill:#ae7748;fill-opacity:1;fill-rule:nonzero;stroke:none;stroke-width:0.163452"
       id="path2112" />
    <path
       d="m 161.53834,38.689012 -4.11393,-3.177628 -11.11595,-8.659793 -5.84517,-5.487077 -2.59937,-3.608659 -3.39341,-5.485918 -1.54199,-3.8571427 -0.47957,0.3187678 2.16524,4.7642409 4.837,7.57955 0.10541,0.67034 0.83327,0.701059 0.64858,1.588559 1.22849,4.836521 1.01013,4.908613 -0.65446,0.372978 2.06292,6.086711 1.4047,-0.109813 -2.38034,-7.361693 -1.08287,-5.268201 -0.64874,-2.093445 -0.57779,-2.2393 7.17975,6.353494 10.82832,8.120252 1.78487,1.248941 -0.48709,0.916783 -3.1389,3.211682 1.19075,0.792889 2.23421,-1.99786 -0.68161,-0.383634 0.36279,-1.082191 0.86466,-1.658891"
       style="fill:#99643e;fill-opacity:1;fill-rule:nonzero;stroke:none;stroke-width:0.163452"
       id="path2114" />
    <path
       d="m 141.18345,14.653378 1.90584,-5.5834948 -0.78783,-0.1209312 -1.48005,4.260838 -0.79241,4.978854 -0.0708,-0.06487 0.21377,0.859423 1.01145,-4.329641"
       style="fill:#99643e;fill-opacity:1;fill-rule:nonzero;stroke:none;stroke-width:0.163452"
       id="path2116" />
    <path
       d="m 108.12612,34.499295 0.43283,-0.503125 -3.05196,-2.112119 -0.51895,0.920721 3.1381,1.694523"
       style="fill:#632c27;fill-opacity:1;fill-rule:nonzero;stroke:none;stroke-width:0.163452"
       id="path2118" />
    <path
       d="m 107.47493,35.583478 0.21823,-0.433674 -3.12912,-1.594953 -0.0478,0.08156 -0.18585,0.37205 3.14463,1.574566"
       style="fill:#632c27;fill-opacity:1;fill-rule:nonzero;stroke:none;stroke-width:0.163452"
       id="path2120" />
    <path
       d="m 112.88974,27.426903 0.21656,-0.650695 -3.40567,-2.292722 -0.39147,0.689614 3.58056,2.253803"
       style="fill:#632c27;fill-opacity:1;fill-rule:nonzero;stroke:none;stroke-width:0.163452"
       id="path2122" />
    <path
       d="m 114.11628,25.622574 v -0.507019 l -3.31692,-2.570439 -0.27443,0.486445 3.59135,2.591013"
       style="fill:#632c27;fill-opacity:1;fill-rule:nonzero;stroke:none;stroke-width:0.163452"
       id="path2124" />
    <path
       d="m 114.17511,16.586837 3.5505,4.777677 0.72147,-1.010143 -4.02107,-4.211957 -0.25089,0.44433"
       style="fill:#632c27;fill-opacity:1;fill-rule:nonzero;stroke:none;stroke-width:0.163452"
       id="path2126" />
    <path
       d="m 121.76791,16.817295 0.43414,-0.360468 -4.23061,-5.116183 -0.44947,0.42348 4.24597,5.053588"
       style="fill:#632c27;fill-opacity:1;fill-rule:nonzero;stroke:none;stroke-width:0.163452"
       id="path2128" />
    <path
       d="m 122.48873,15.880589 0.43478,-0.364638 -3.71721,-5.33654 -0.42973,0.403556 3.71214,5.297484"
       style="fill:#632c27;fill-opacity:1;fill-rule:nonzero;stroke:none;stroke-width:0.163452"
       id="path2130" />
    <path
       d="m 123.17571,6.4530184 -0.8555,0.8025728 0.81726,1.9107572 2.23781,5.2693126 0.43349,-0.145479 -2.63304,-7.8371587"
       style="fill:#632c27;fill-opacity:1;fill-rule:nonzero;stroke:none;stroke-width:0.163452"
       id="path2132" />
    <path
       d="m 125.52091,10.103054 1.58793,2.382792 0.4315,-0.36093 -2.82787,-6.0005804 -0.73668,0.1176919 1.54511,3.8608495"
       style="fill:#632c27;fill-opacity:1;fill-rule:nonzero;stroke:none;stroke-width:0.163452"
       id="path2134" />
    <path
       d="m 127.61374,11.47575 0.50637,-0.290968 -2.3483,-5.2268739 -0.47254,0.073676 2.31447,5.4444039"
       style="fill:#632c27;fill-opacity:1;fill-rule:nonzero;stroke:none;stroke-width:0.163452"
       id="path2136" />
    <path
       d="m 132.14379,4.9443834 -0.57585,0.091744 -0.12828,4.6354364 h 0.5044 l 0.19974,-4.7269887"
       style="fill:#632c27;fill-opacity:1;fill-rule:nonzero;stroke:none;stroke-width:0.163452"
       id="path2138" />
    <path
       d="m 134.8319,8.4438842 0.3614,-0.07182 -0.56505,-3.8231325 -0.57028,0.093128 0.77394,3.8018666"
       style="fill:#632c27;fill-opacity:1;fill-rule:nonzero;stroke:none;stroke-width:0.163452"
       id="path2140" />
    <path
       d="m 147.57782,6.1048749 -3.14447,4.7221261 0.288,0.43321 3.29452,-4.7186974 -0.43802,-0.4364531"
       style="fill:#632c27;fill-opacity:1;fill-rule:nonzero;stroke:none;stroke-width:0.163452"
       id="path2142" />
  </g>
</svg>
