<?xml version="1.0" encoding="UTF-8" standalone="no"?>
<!-- Created with Inkscape (http://www.inkscape.org/) -->

<svg
   width="640"
   height="640"
   viewBox="0 0 169.33333 169.33333"
   version="1.1"
   id="svg1764"
   inkscape:version="1.2.2 (732a01da63, 2022-12-09)"
   sodipodi:docname="lion.svg"
   xmlns:inkscape="http://www.inkscape.org/namespaces/inkscape"
   xmlns:sodipodi="http://sodipodi.sourceforge.net/DTD/sodipodi-0.dtd"
   xmlns="http://www.w3.org/2000/svg"
   xmlns:svg="http://www.w3.org/2000/svg">
  <sodipodi:namedview
     id="namedview1766"
     pagecolor="#ffffff"
     bordercolor="#000000"
     borderopacity="0.25"
     inkscape:showpageshadow="2"
     inkscape:pageopacity="0.0"
     inkscape:pagecheckerboard="0"
     inkscape:deskcolor="#d1d1d1"
     inkscape:document-units="mm"
     showgrid="false"
     inkscape:zoom="0.93599426"
     inkscape:cx="172.54379"
     inkscape:cy="322.11736"
     inkscape:window-width="1920"
     inkscape:window-height="1051"
     inkscape:window-x="-9"
     inkscape:window-y="-9"
     inkscape:window-maximized="1"
     inkscape:current-layer="layer1" />
  <defs
     id="defs1761" />
  <g
     inkscape:label="Layer 1"
     inkscape:groupmode="layer"
     id="layer1">
    <path
       d="m 43.696135,136.84572 5.741238,0.0404 2.542866,-1.54454 0.513136,-3.9842 1.760835,-1.44636 0.225161,-3.89227 -1.054419,-2.73406 -0.12852,-9.63723 2.100017,-7.67604 -8.277031,-0.15307 -7.155913,21.36532 3.73258,9.66195"
       style="fill:#914920;fill-opacity:1;fill-rule:nonzero;stroke:none;stroke-width:0.175734"
       id="path1080" />
    <path
       d="m 132.06198,82.850261 0.6309,7.401368 -0.0528,7.300499 4.86252,15.023102 4.2334,7.23127 1.34614,2.63793 -0.6045,2.62721 -3.62189,3.0842 -3.1808,9.71476 -4.00671,2.01545 -6.81318,0.0509 -4.18071,-0.80659 0.69944,-2.62365 1.47266,-2.03329 2.1457,-0.37207 2.24059,-0.0845 2.24233,-0.56976 3.45318,-6.78836 -1.71515,-5.46566 -5.97671,-8.21555 -1.71162,-19.578472 4.76588,-13.786121 3.77123,3.237367"
       style="fill:#914920;fill-opacity:1;fill-rule:nonzero;stroke:none;stroke-width:0.175734"
       id="path1082" />
    <path
       d="M 0.10193986,56.968052 1.9469034e-5,57.941441 1.349661,59.798945 l 1.1528008,1.954331 1.650146,1.082517 0.2864317,0.876562 1.3918094,2.638111 1.4603538,-0.08434 5.3686783,-2.347798 2.412802,3.13175 -0.01993,2.920863 0.330268,8.665068 -0.500832,2.040267 1.163362,0.687116 1.855729,-0.76268 1.534129,3.32101 0.370618,2.434262 1.455073,0.885522 1.361922,0.592396 -0.695905,1.553486 -0.110583,2.043604 0.586961,-0.676224 0.97352,0.0084 0.08418,2.237266 0.762656,1.950815 0.687138,-0.479762 1.456816,0.105607 0.955985,2.827551 4.041877,6.747985 2.224803,1.86647 2.114065,3.80778 0.32678,8.9575 0.21769,10.9058 -1.184434,2.42185 -3.3249,2.02435 -3.331875,3.57783 0.08619,1.36193 2.528819,0.21077 0.481703,0.87868 9.148681,0.0666 3.511157,-1.04547 0.323294,-4.18739 1.282864,-2.41979 1.771394,-2.90851 0.695905,-1.74704 -1.632561,-3.42331 0.4289,-6.12607 1.216065,-6.80755 2.361841,-3.77688 10.025611,0.0685 6.512711,1.11414 3.606051,-0.46202 1.574579,-2.32355 3.699154,-0.46198 7.705912,-2.08755 8.19972,-3.44805 6.539064,-2.193327 6.51271,1.506212 2.60962,2.158185 3.15618,8.39671 2.37942,7.80029 5.78692,7.72876 0.0807,2.33954 -8.13471,7.73017 -2.43218,0.0775 -1.45682,-0.49425 -2.0508,1.34614 -1.17213,0.38511 -1.86629,2.41633 -0.49714,1.26377 5.34581,1.01184 4.4777,0.22312 5.94857,-1.61319 6.37562,-6.57215 6.76753,-7.54621 -1.72223,-4.78187 -1.05618,-15.97191 2.91194,-12.827121 1.23013,-9.141657 4.39155,12.781274 4.96804,13.468214 7.63737,7.54775 6.1946,5.00489 0.6959,-1.74697 -11.22061,-10.3964 -5.75,-13.180001 -5.23159,-17.165647 -7.23493,-9.882903 -5.61471,-4.810002 -9.21194,-4.540955 -3.79585,-0.413309 -11.203015,1.188308 -11.680987,0.305412 -20.241013,-1.013809 -3.103427,-1.581602 -2.604387,-3.131746 -2.908353,-1.867873 -4.736038,-4.802445 -7.451111,-6.672954 -7.050406,-7.638956 -4.465397,-2.073831 -7.015288,0.921195 -11.217067,3.4268 -1.281122,2.326538 -0.799568,2.818588 1.446306,1.957675 -2.156259,2.223552 -2.9382916,2.703836 -0.6888809,1.163536 -7.29994561,6.618297"
       style="fill:#c16b2f;fill-opacity:1;fill-rule:nonzero;stroke:none;stroke-width:0.175734"
       id="path1084" />
    <path
       d="m 118.21771,114.29215 -2.26694,-9.55833 0.25455,-8.755035 1.60267,-6.802117 0.0598,-8.56701 -3.87495,-2.750757 -5.65686,1.518512 -3.53925,4.839526 -1.77847,4.081061 -8.002899,3.251071 -13.461148,3.994423 -10.707468,0.120902 -15.564702,-1.664019 -13.478782,-4.531994 -0.116066,-0.04234 -17.473186,-6.932511 -8.862249,-3.731 -0.470744,1.913912 1.16336,0.687117 1.855729,-0.762681 1.53413,3.32101 0.370617,2.434262 1.455074,0.885522 1.361921,0.592396 -0.695906,1.553487 -0.110583,2.043604 0.586962,-0.676224 0.973518,0.0084 0.08418,2.237266 0.762656,1.950813 0.687137,-0.47976 1.456817,0.105608 0.955985,2.827548 4.041875,6.747988 2.224804,1.86646 2.040241,3.67459 3.813429,-5.29134 -0.05977,8.37142 1.869778,11.10829 0.931426,6.04156 -1.400627,5.44086 -3.509412,0.94937 -3.128035,1.92551 -0.339234,1.94201 6.844824,0.0508 3.511155,-1.04548 0.323294,-4.18739 1.282864,-2.41979 1.771396,-2.90852 0.695903,-1.74704 -1.632561,-3.42329 0.4289,-6.12608 1.216065,-6.80757 2.361842,-3.77685 10.02561,0.0685 6.512711,1.11414 3.606053,-0.46203 1.574577,-2.32355 3.699154,-0.46197 7.705913,-2.08754 8.199719,-3.44806 6.539064,-2.19333 6.512709,1.506214 2.60962,2.158176 3.15618,8.39672 2.37943,7.80028 5.78691,7.72876 0.0807,2.33955 -7.07507,6.72313 1.28112,0.44141 0.9788,-0.58007 1.36725,-0.76815 5.28076,-3.27372 2.16503,-3.29491 -0.94897,-3.70622 -3.83096,-9.17522"
       style="fill:#aa5729;fill-opacity:1;fill-rule:nonzero;stroke:none;stroke-width:0.175734"
       id="path1086" />
    <path
       d="m 137.22154,96.901384 -3.62189,-10.928514 -1.33732,-3.706222 -1.95242,0.569202 -1.79774,6.800714 -2.62546,13.807376 0.52719,8.17724 1.51311,6.04892 0.47622,1.01398 -0.87693,-13.2837 2.91194,-12.827134 1.23011,-9.141658 4.39158,12.781274 2.0473,5.556868 -0.88569,-4.868346"
       style="fill:#aa5729;fill-opacity:1;fill-rule:nonzero;stroke:none;stroke-width:0.175734"
       id="path1088" />
    <path
       d="m 130.13597,125.69005 -1.09308,-0.22651 -3.72202,3.67462 -7.45285,7.73434 -4.10514,2.50215 -0.72226,2.0175 4.12093,-1.1196 6.37562,-6.57216 6.76751,-7.5462 -0.16886,-0.46412"
       style="fill:#aa5729;fill-opacity:1;fill-rule:nonzero;stroke:none;stroke-width:0.175734"
       id="path1090" />
    <path
       d="m 33.779517,135.31697 -1.857522,1.05783 -1.277586,1.54866 -0.130014,1.32279 0.507855,0.0404 0.481703,0.87866 -0.0807,-1.75184 2.356612,-3.09662"
       style="fill:#aa5729;fill-opacity:1;fill-rule:nonzero;stroke:none;stroke-width:0.175734"
       id="path1092" />
    <path
       d="m 108.1271,137.70517 -1.60447,-0.15653 -2.55517,-0.16473 -0.58168,0.0598 -1.07195,1.39146 1.65014,-0.64802 2.99274,-0.12698 1.17039,-0.35488"
       style="fill:#aa5729;fill-opacity:1;fill-rule:nonzero;stroke:none;stroke-width:0.175734"
       id="path1094" />
    <path
       d="m 133.35362,79.744699 -7.23492,-9.882902 -5.61471,-4.810002 -9.21195,-4.540955 -3.79584,-0.413309 -11.20302,1.188308 -11.680988,0.305411 -20.241013,-1.013809 -3.103427,-1.581602 -2.604387,-3.131745 -0.392038,-0.249172 -1.277585,1.942033 2.158003,4.540955 10.505371,1.387944 13.570141,1.261765 13.429567,0.383121 7.024056,-2.140437 5.11383,-0.54987 4.51461,1.637837 12.79518,7.682892 5.64984,6.753438 2.44617,5.127906 0.4005,0.200354 -1.24774,-4.098107"
       style="fill:#dc7d41;fill-opacity:1;fill-rule:nonzero;stroke:none;stroke-width:0.175734"
       id="path1096" />
    <path
       d="m 155.36428,119.70686 -1.08959,2.62369 2.89261,4.10496 3.39869,1.19182 4.58136,-0.64879 4.18598,-0.16539 -2.31795,-3.22771 -7.75159,-4.53409 -3.11753,0.0769 -0.78198,0.5787"
       style="fill:#622215;fill-opacity:1;fill-rule:nonzero;stroke:none;stroke-width:0.175734"
       id="path1098" />
    <path
       d="m 91.934983,100.18954 6.539063,-2.193334 6.512714,1.506213 2.41629,1.998261 -0.75564,-3.154414 -0.40249,-4.971325 -0.5641,-3.064969 -4.53917,1.864356 -9.81998,5.482888 -6.147175,1.853985 -12.712589,1.666129 -12.246828,-2.425298 -5.231588,-3.539445 -2.449764,-4.981521 2.367172,-4.217601 1.038577,-2.764465 1.209041,-5.690075 -1.419954,-5.700974 -0.711696,-3.071818 1.179151,-1.307813 1.332082,-2.32636 1.031555,-1.45191 2.643042,-2.173295 2.335489,0.01743 0.901489,-0.964604 -0.06874,-0.0019 -3.103426,-1.581601 -2.604388,-3.131746 -2.908352,-1.867874 -4.736037,-4.802445 -7.451113,-6.672954 -7.050406,-7.638955 -4.465397,-2.073831 -7.015287,0.921194 -11.217067,3.426801 -1.281122,2.326538 -0.799568,2.818587 1.446306,1.957675 -0.233629,0.240952 1.797745,-0.669191 1.739763,1.32626 2.894305,3.817284 -1.806512,8.015208 -1.514851,7.877781 -0.992898,2.727209 -0.01993,2.376617 0.330267,8.66507 -0.500832,2.040265 1.163362,0.687117 1.855729,-0.762681 1.534129,3.32101 0.370618,2.434262 1.455074,0.885522 1.36192,0.592396 -0.695905,1.553486 -0.110583,2.043605 0.58696,-0.676224 0.97352,0.0084 0.08418,2.237267 0.762657,1.950814 0.687137,-0.47976 1.456817,0.105607 0.955985,2.827549 4.041875,6.747995 2.224803,1.86646 2.114067,3.80779 0.01,0.28135 0.917329,-0.71189 3.822196,-4.06314 1.796001,-6.116926 4.679797,-1.135415 3.781797,1.773152 0.562302,3.655249 -0.56584,4.28087 9.927178,0.0685 6.512712,1.11413 3.606051,-0.46202 1.574579,-2.32355 3.699154,-0.46198 7.705912,-2.08754 8.199719,-3.44805"
       style="fill:#622215;fill-opacity:1;fill-rule:nonzero;stroke:none;stroke-width:0.175734"
       id="path1100" />
    <path
       d="m 36.099217,59.895773 1.950625,-7.581322 -2.989252,-11.116552 -7.718216,-2.826144 -5.261429,0.692741 -4.258018,3.329977 -0.60629,3.207134 -0.100125,0.385015 2.266946,2.987467 -1.806513,8.015208 -1.51485,7.877781 -0.992898,2.727209 -0.01993,2.376616 0.262022,6.798607 1.400576,-0.800994 2.066643,-2.905225 4.547989,-3.476186 8.059144,-4.03291 4.711428,-5.658441"
       style="fill:#972f1e;fill-opacity:1;fill-rule:nonzero;stroke:none;stroke-width:0.175734"
       id="path1102" />
    <path
       d="m 41.17439,39.927348 2.767777,4.689801 6.670871,6.614785 5.363399,6.027835 4.94162,3.098007 0.743328,1.172317 1.87685,0.01395 0.901488,-0.964602 -0.06874,-0.0019 -3.103425,-1.581601 -2.604388,-3.131745 -2.908353,-1.867874 -4.736038,-4.802446 -7.451112,-6.672953 -2.393474,-2.593474"
       style="fill:#972f1e;fill-opacity:1;fill-rule:nonzero;stroke:none;stroke-width:0.175734"
       id="path1104" />
    <path
       d="m 28.97145,34.730733 3.71325,-1.628874 -0.63264,-0.293805 -7.015287,0.921195 -11.217067,3.426799 -1.281122,2.326539 -0.799569,2.818588 1.446306,1.957674 -0.233628,0.240952 0.954192,-0.354777 0.715281,-3.234024 6.746391,-4.041871 7.603991,-2.138326"
       style="fill:#972f1e;fill-opacity:1;fill-rule:nonzero;stroke:none;stroke-width:0.175734"
       id="path1106" />
    <path
       d="m 25.339046,46.385554 2.041984,0.210714 2.513028,2.936683 0.555278,3.897774 -0.711694,4.180523 -1.969954,3.783719 -1.189712,2.815072 -0.4025,1.940098 -0.277465,-2.043602 1.094817,-3.397281 1.588626,-4.563624 -0.16887,-3.799537 -1.446307,-1.861018 -0.599265,1.748375 -0.89272,2.81929 -1.078977,1.25632 -0.110595,1.751712 0.182818,1.657169 -0.488678,0.286979 -0.363643,-3.505705 0.992897,-2.914012 1.094818,-3.593752 -1.256465,-1.177239 0.892721,-2.428639"
       style="fill:#622215;fill-opacity:1;fill-rule:nonzero;stroke:none;stroke-width:0.175734"
       id="path1108" />
    <path
       d="m 23.472756,62.921554 -0.412959,3.207134 -2.247619,1.541183 -2.354818,2.518612 -1.182689,2.230237 0.778496,-0.08981 2.651811,-3.295006 2.056081,-1.442945 1.463891,-1.063363 0.307353,-2.140438 -0.08269,-2.043604 -0.977056,0.57799"
       style="fill:#622215;fill-opacity:1;fill-rule:nonzero;stroke:none;stroke-width:0.175734"
       id="path1110" />
    <path
       d="m 22.393731,64.179981 -0.690625,1.360526 -1.268819,0.376097 -1.367201,0.577984 1.372482,-1.161418 1.467378,-1.449803 0.01993,-2.336028 0.48519,-0.191537 -0.01993,2.824214"
       style="fill:#622215;fill-opacity:1;fill-rule:nonzero;stroke:none;stroke-width:0.175734"
       id="path1112" />
    <path
       d="m 13.543784,63.143327 -2.24936,1.349637 0.0017,0.02241 1.363714,-0.597316 2.412802,3.13175 -0.01,1.259657 0.196766,0.0075 c 0,0 2.263459,-3.492176 2.360098,-3.780382 0.100125,-0.291712 -0.662479,-2.439004 -0.662479,-2.439004 l -3.412772,1.045436"
       style="fill:#972f1e;fill-opacity:1;fill-rule:nonzero;stroke:none;stroke-width:0.175734"
       id="path1114" />
    <path
       d="m 12.579033,51.117884 -0.226655,1.017496 -1.168642,0.360256 -1.4620969,-0.01089 -0.8769296,0.13938 0.00498,-0.657598 1.6853145,-0.863027 2.043778,0.01445"
       style="fill:#dc7d41;fill-opacity:1;fill-rule:nonzero;stroke:none;stroke-width:0.175734"
       id="path1116" />
    <path
       d="m 10.760166,50.374532 2.333746,0.161298 -0.298884,0.875151 -1.462098,0.427009 -1.019249,-0.444095 -1.4638904,0.57254 1.9102264,-1.591968"
       style="fill:#4f2717;fill-opacity:1;fill-rule:nonzero;stroke:none;stroke-width:0.175734"
       id="path1118" />
    <path
       d="m 10.805846,50.569421 0.105606,-1.117493 0.687137,-0.433882 1.110608,0.785351 0.04483,0.781839 -1.947139,-0.01594"
       style="fill:#aa5729;fill-opacity:1;fill-rule:nonzero;stroke:none;stroke-width:0.175734"
       id="path1120" />
    <path
       d="M 10.768983,63.174959 10.000997,61.271413 8.6039075,59.36295 6.4652335,58.911334 3.7396483,58.746649 2.7256299,57.716854 1.2652762,58.092403 c 0,0 -0.2741276,0.350045 -0.59747666,0.768131 l 0.68186196,0.93842 1.1528008,1.954332 1.6501458,1.082517 0.2864319,0.876562 1.3918094,2.638111 1.4603538,-0.08432 3.3969318,-1.484948 0.0807,-1.606205"
       style="fill:#e6b36c;fill-opacity:1;fill-rule:nonzero;stroke:none;stroke-width:0.175734"
       id="path1122" />
    <path
       d="M 0.02988857,57.662023 0,57.941432 l 1.3496615,1.857502 0.5974718,1.012574 0.1369891,-1.880347 1.177409,-1.014512 0.00499,-1.022064 -2.48665627,0.855297 -0.75038155,-0.08787"
       style="fill:#622215;fill-opacity:1;fill-rule:nonzero;stroke:none;stroke-width:0.175734"
       id="path1124" />
    <path
       d="m 7.5319554,63.090433 1.0614414,0.007 1.2389294,0.119509 0.5465118,-0.24917 0.410967,-1.20395 -0.132007,-2.336726 -0.9349135,-1.831494 -1.3900161,0.499083 -0.7732661,1.015911 0.3163202,1.867874 -0.1210488,1.34612 -0.2231678,0.766023"
       style="fill:#dc7d41;fill-opacity:1;fill-rule:nonzero;stroke:none;stroke-width:0.175734"
       id="path1126" />
    <path
       d="m 3.4478864,62.44391 c 0,0 2.6254586,0.455153 2.8451394,0.457096 0.2181862,0.0014 2.7010268,0.08927 2.7010268,0.08927 L 10.312037,62.637393 10.451019,63.294462 9.7164584,63.652774 8.7727778,63.281958 7.528568,63.274958 5.7817824,63.042974 3.8100857,62.955094 3.4479362,62.44371"
       style="fill:#4f2717;fill-opacity:1;fill-rule:nonzero;stroke:none;stroke-width:0.175734"
       id="path1128" />
    <path
       d="m 19.509935,44.79499 2.274019,2.214596 1.43749,4.130969 2.031473,-2.090878 0.483197,-3.753497 -1.539407,-2.302458 -2.924195,0.639844 -1.762628,1.161424"
       style="fill:#c16b2f;fill-opacity:1;fill-rule:nonzero;stroke:none;stroke-width:0.175734"
       id="path1130" />
    <path
       d="m 20.502831,45.761525 1.281123,1.248061 0.76445,2.196667 1.715153,-2.311425 -0.08269,-1.48688 -1.205553,-0.477619 -2.472579,0.831222"
       style="fill:#aa5729;fill-opacity:1;fill-rule:nonzero;stroke:none;stroke-width:0.175734"
       id="path1132" />
    <path
       d="m 36.614096,48.994672 3.876692,2.364318 1.82061,3.905854 2.600851,4.103725 1.433952,3.614839 0.277466,2.14237 c 0,0 -10.083595,-5.423663 -10.181978,-5.908335 -0.08967,-0.488726 -2.583315,-6.250844 -2.583315,-6.250844 l 2.755523,-3.971927"
       style="fill:#972f1e;fill-opacity:1;fill-rule:nonzero;stroke:none;stroke-width:0.175734"
       id="path1134" />
    <path
       d="m 48.630731,63.340328 -5.222771,-4.709836 -3.495366,-1.339265 -2.748448,-3.816582 -1.196738,4.669241 -2.217779,3.63206 -4.407413,3.91218 -1.042064,3.060925 c 0,0 -1.349667,4.950587 -1.354897,5.681815 -0.0035,0.731055 -1.790722,5.830665 -1.790722,5.830665 l -2.514771,4.507391 -2.887282,1.223277 0.0528,0.363793 1.455072,0.885523 1.361923,0.592396 -0.695906,1.553486 -0.110583,2.043603 0.586961,-0.676222 0.973518,0.0084 0.08418,2.237265 0.762654,1.950816 0.687139,-0.479761 1.456818,0.105595 0.955982,2.82755 2.335492,3.902517 1.202017,-1.881579 1.193249,-3.347899 c 0,0 1.771394,-2.910501 1.774932,-3.493406 0.0035,-0.58203 1.639584,-4.952699 1.639584,-4.952699 l 1.288097,3.808496 -1.196737,4.22446 1.165105,0.444791 2.65709,-4.069986 -0.546511,-5.259705 0.34272,-7.590108 2.082434,-5.387991 6.134872,-0.395376 4.245716,-2.013376 -3.010323,-8.052285"
       style="fill:#972f1e;fill-opacity:1;fill-rule:nonzero;stroke:none;stroke-width:0.175734"
       id="path1136" />
    <path
       d="m 37.025313,45.638689 0.302373,1.820421 0.940143,1.590567 1.258258,1.038582 0.0035,-0.713828 -0.933171,-2.30035 -0.699391,-1.666133 -0.871649,0.230741"
       style="fill:#972f1e;fill-opacity:1;fill-rule:nonzero;stroke:none;stroke-width:0.175734"
       id="path1138" />
    <path
       d="m 35.810991,52.785421 0.479711,0.880601 -0.903282,3.593747 -1.774928,3.298344 -2.056083,1.835007 -1.665937,1.546457 -0.588705,0.967941 -0.293406,-0.09685 0.697648,-2.234981 2.546354,-2.414401 2.07018,-3.490597 0.699391,-2.915417 0.210714,-2.140258 0.578144,1.170385"
       style="fill:#622215;fill-opacity:1;fill-rule:nonzero;stroke:none;stroke-width:0.175734"
       id="path1140" />
    <path
       d="m 37.417201,59.514077 -1.386529,3.495343 0.173851,2.921043 -0.11956,2.91735 -0.690624,1.554891 0.386559,0.585546 c 0,0 0.982386,-1.453319 0.982386,-1.745036 0.0018,-0.291713 0.910256,-4.957618 0.910256,-4.957618 l 1.193249,-3.592168 0.797824,-2.524764 -1.360178,-0.499083 -0.887438,1.844496"
       style="fill:#622215;fill-opacity:1;fill-rule:nonzero;stroke:none;stroke-width:0.175734"
       id="path1142" />
    <path
       d="m 42.244598,51.370587 1.052624,2.537771 1.242467,3.124892 1.736225,2.250795 1.738019,2.055907 1.448048,1.762955 0.576401,1.073556 0.490172,-0.678155 -1.825841,-3.129639 c 0,0 -2.795923,-4.10355 -2.890819,-4.398784 -0.09315,-0.291713 -1.918993,-4.100215 -1.918993,-4.100215 l -1.444563,-1.86102 -1.838145,-1.959073 -0.112583,2.240599 1.746785,1.080411"
       style="fill:#972f1e;fill-opacity:1;fill-rule:nonzero;stroke:none;stroke-width:0.175734"
       id="path1144" />
    <path
       d="m 24.8821,70.522028 -2.544609,1.8329 -0.412961,3.306075 -1.087793,2.426526 -0.982337,1.360531 0.189793,0.483247 1.472657,-1.545227 1.581601,-3.591466 1.476145,-2.2283 1.469121,-1.451736 0.792545,-1.940094 -1.954162,1.347524"
       style="fill:#972f1e;fill-opacity:1;fill-rule:nonzero;stroke:none;stroke-width:0.175734"
       id="path1146" />
    <path
       d="m 30.554794,38.148752 1.574578,-2.226192 2.043778,-0.276072 2.040291,0.790801 -0.295399,0.483248 -2.23885,0.0803 -1.665937,1.353851 -1.45861,-0.205981"
       style="fill:#972f1e;fill-opacity:1;fill-rule:nonzero;stroke:none;stroke-width:0.175734"
       id="path1148" />
    <path
       d="m 26.474262,37.342134 1.857523,-1.156681 1.660656,-0.766197 0.576401,0.490818 -1.365409,0.867775 -0.783777,0.773575 -1.945394,-0.209319"
       style="fill:#972f1e;fill-opacity:1;fill-rule:nonzero;stroke:none;stroke-width:0.175734"
       id="path1150" />
    <path
       d="m 50.908238,64.865694 1.839938,1.56719 1.154594,1.66472 0.395525,-0.388549 -1.444513,-2.734941 -1.945394,-0.108456"
       style="fill:#972f1e;fill-opacity:1;fill-rule:nonzero;stroke:none;stroke-width:0.175734"
       id="path1152" />
    <path
       d="m 51.089263,67.007356 0.186305,1.17056 1.45861,0.398763 -0.09116,-0.876561 -1.553507,-0.692742"
       style="fill:#972f1e;fill-opacity:1;fill-rule:nonzero;stroke:none;stroke-width:0.175734"
       id="path1154" />
    <path
       d="m 51.430192,74.114372 1.736223,2.349731 0.854066,2.927722 0.67309,1.268618 0.676577,0.488728 -0.66253,-2.240604 -0.179331,-2.534427 -0.861088,-1.948888 -2.033268,-1.572635 -1.365458,0.379584 1.161619,0.88218"
       style="fill:#972f1e;fill-opacity:1;fill-rule:nonzero;stroke:none;stroke-width:0.175734"
       id="path1156" />
    <path
       d="m 50.36875,58.533836 3.205396,0.994653 1.448049,1.957673 0.572864,1.462276 1.068465,0.299982 0.488677,-0.287678 -0.869856,-0.786058 -0.476223,-1.463507 -1.254771,-1.565785 -1.161568,-1.077074 -2.138673,-0.406283 -1.353154,-1.563854 -0.978849,1.252803 1.449793,1.182864"
       style="fill:#972f1e;fill-opacity:1;fill-rule:nonzero;stroke:none;stroke-width:0.175734"
       id="path1158" />
    <path
       d="m 42.464279,75.513385 1.344337,2.830892 1.934834,1.474579 2.230083,1.278812 0.683601,-0.286283 -2.611411,-2.25642 -0.182818,-1.852053 0.0049,-1.556823 -3.405699,0.367279"
       style="fill:#972f1e;fill-opacity:1;fill-rule:nonzero;stroke:none;stroke-width:0.175734"
       id="path1160" />
    <path
       d="m 3.7958388,59.634104 -0.1474501,0.182569 0.1439631,0.1476 L 3.97517,59.818067 3.7958388,59.634054"
       style="fill:#c16b2f;fill-opacity:1;fill-rule:nonzero;stroke:none;stroke-width:0.175734"
       id="path1162" />
    <path
       d="M 4.5251688,59.750265 4.3408562,60.039886 4.5954069,60.224596 4.9241807,60.078392 4.7802176,59.78668 4.5256671,59.750317"
       style="fill:#c16b2f;fill-opacity:1;fill-rule:nonzero;stroke:none;stroke-width:0.175734"
       id="path1164" />
    <path
       d="M 5.5461611,59.90456 5.4335814,60.192936 5.6886302,60.41401 5.9805416,60.27184 5.9103022,59.90456 H 5.5466583"
       style="fill:#c16b2f;fill-opacity:1;fill-rule:nonzero;stroke:none;stroke-width:0.175734"
       id="path1166" />
    <path
       d="m 6.8589153,59.985573 -0.1494426,0.326882 0.2176882,0.182568 0.3302683,-0.03488 0.039851,-0.402949 -0.4393615,-0.07153"
       style="fill:#c16b2f;fill-opacity:1;fill-rule:nonzero;stroke:none;stroke-width:0.175734"
       id="path1168" />
    <path
       d="m 8.2471879,59.92178 -0.073725,0.255349 0.2934057,0.03636 0.1071,-0.252509 -0.070238,-0.221772 -0.2565433,0.182568"
       style="fill:#c16b2f;fill-opacity:1;fill-rule:nonzero;stroke:none;stroke-width:0.175734"
       id="path1170" />
    <path
       d="m 4.1912641,60.693428 -0.039851,0.184711 0.1828182,0.03686 0.1843126,-0.25465 -0.1439631,-0.219681 -0.1843126,0.252708"
       style="fill:#c16b2f;fill-opacity:1;fill-rule:nonzero;stroke:none;stroke-width:0.175734"
       id="path1172" />
    <path
       d="m 5.4301936,60.740696 -0.1105881,0.253406 0.2181863,0.149543 0.1843126,-0.07203 0.00175,-0.290317 -0.2934058,-0.04084"
       style="fill:#c16b2f;fill-opacity:1;fill-rule:nonzero;stroke:none;stroke-width:0.175734"
       id="path1174" />
    <path
       d="m 6.8149792,61.04138 -0.073725,0.253405 0.2953982,0.04035 0.1828182,-0.255349 -0.14745,-0.108443 -0.2565433,0.06994"
       style="fill:#c16b2f;fill-opacity:1;fill-rule:nonzero;stroke:none;stroke-width:0.175734"
       id="path1176" />
    <path
       d="M 8.2049953,60.94121 8.0186901,61.232921 8.3823339,61.456088 8.6035091,61.20129 8.4575534,60.909577 8.2044971,60.94146"
       style="fill:#c16b2f;fill-opacity:1;fill-rule:nonzero;stroke:none;stroke-width:0.175734"
       id="path1178" />
    <path
       d="m 4.5848961,61.609174 -0.039851,0.182568 0.1105881,0.07417 0.1494426,-0.216342 -0.039851,-0.184711 -0.1828182,0.144262"
       style="fill:#c16b2f;fill-opacity:1;fill-rule:nonzero;stroke:none;stroke-width:0.175734"
       id="path1180" />
    <path
       d="m 5.8976504,61.73201 -0.03487,0.216143 0.070237,0.146206 0.3287739,-0.03337 -0.03487,-0.328823 -0.1090928,-0.110545 -0.2211751,0.110545"
       style="fill:#c16b2f;fill-opacity:1;fill-rule:nonzero;stroke:none;stroke-width:0.175734"
       id="path1182" />
    <path
       d="m 7.6128038,61.922156 0.03487,0.291712 0.3267812,-0.03188 -0.03487,-0.32738 -0.1459557,-0.07682 -0.1843126,0.144112"
       style="fill:#c16b2f;fill-opacity:1;fill-rule:nonzero;stroke:none;stroke-width:0.175734"
       id="path1184" />
  </g>
</svg>
