<?xml version="1.0" encoding="UTF-8" standalone="no"?>
<!-- Created with Inkscape (http://www.inkscape.org/) -->

<svg
   width="640"
   height="640"
   viewBox="0 0 169.33333 169.33333"
   version="1.1"
   id="svg1764"
   inkscape:version="1.2.2 (732a01da63, 2022-12-09)"
   sodipodi:docname="penguin.svg"
   inkscape:export-filename="..\tiles\cheetah\face.png"
   inkscape:export-xdpi="153.60001"
   inkscape:export-ydpi="153.60001"
   xmlns:inkscape="http://www.inkscape.org/namespaces/inkscape"
   xmlns:sodipodi="http://sodipodi.sourceforge.net/DTD/sodipodi-0.dtd"
   xmlns="http://www.w3.org/2000/svg"
   xmlns:svg="http://www.w3.org/2000/svg">
  <sodipodi:namedview
     id="namedview1766"
     pagecolor="#ffffff"
     bordercolor="#000000"
     borderopacity="0.25"
     inkscape:showpageshadow="2"
     inkscape:pageopacity="0.0"
     inkscape:pagecheckerboard="0"
     inkscape:deskcolor="#d1d1d1"
     inkscape:document-units="mm"
     showgrid="false"
     inkscape:zoom="1.1383321"
     inkscape:cx="226.20815"
     inkscape:cy="303.51424"
     inkscape:window-width="1920"
     inkscape:window-height="1051"
     inkscape:window-x="-9"
     inkscape:window-y="-9"
     inkscape:window-maximized="1"
     inkscape:current-layer="layer1" />
  <defs
     id="defs1761" />
  <g
     inkscape:label="Layer 1"
     inkscape:groupmode="layer"
     id="layer1">
    <path
       d="m 143.06894,28.069843 0.73649,-3.220463 2.34093,-2.930504 0.8776,0.875675 0.44072,6.009855 -4.39576,-0.734563"
       style="fill:#d7641c;fill-opacity:1;fill-rule:nonzero;stroke:none;stroke-width:0.193306"
       id="path1186" />
    <path
       d="m 121.10369,101.43105 2.34478,8.49383 0.58572,16.40193 v 8.34691 l -0.44072,1.90599 3.07742,2.04904 v 2.19788 l 0.58764,2.19594 4.09807,0.58571 7.46738,-0.14692 -3.36738,-18.74672 -5.56525,-25.626449 -8.78765,2.342849"
       style="fill:#d9a15e;fill-opacity:1;fill-rule:nonzero;stroke:none;stroke-width:0.193306"
       id="path1188" />
    <path
       d="m 45.836492,118.7106 1.463315,2.9305 2.930509,2.48977 3.808108,8.34885 0.587645,4.97566 1.461386,2.19788 v 1.906 l 3.222399,1.75327 7.02857,0.29579 2.194015,-1.46719 1.469118,-0.14503 -0.734562,-3.80618 -2.638609,-1.31641 -3.367376,-1.02646 -4.24305,-10.39787 0.875674,-3.07741 4.101932,-5.27336 4.83263,-7.46352 1.465249,-10.691699 -9.957141,1.02645 -14.499812,18.740929"
       style="fill:#d9a15e;fill-opacity:1;fill-rule:nonzero;stroke:none;stroke-width:0.193306"
       id="path1190" />
    <path
       d="m 168.16187,45.689603 1.17143,-1.465255 -0.58572,-2.194013 -6.64001,-4.735971 -2.48592,-1.904056 -0.88148,-1.755213 -5.27335,-2.197876 -5.41641,-3.661198 -5.27143,-0.583781 -7.17742,4.685712 -5.85713,8.783785 -7.17549,14.646724 -4.68572,2.487836 -11.27354,1.316409 -8.350788,2.342859 -16.838806,0.587645 -17.573365,0.4388 -11.567373,-0.879537 -9.661387,1.024514 -7.616221,3.514287 -4.540737,12.300001 -3.36544,14.499811 -3.663132,12.008114 -3.075486,4.83263 -6.44479,2.4859 L 8.4957484,110.95519 4.3957467,107.43897 4.1019345,101.87178 3.9531141,99.824682 1.7590991,99.237037 2.2323873e-5,100.70035 0.29383372,105.97179 l 2.04903138,6.44284 5.1283858,3.36933 7.0266371,1.02644 8.346912,-1.61216 4.101935,-5.27337 2.634748,-5.41641 2.636681,-9.520271 1.024517,-1.755209 2.195947,8.05308 0.146899,8.0531 -0.583782,6.74055 -4.10193,5.27142 0.587644,3.80426 3.657334,4.54073 3.516216,10.83668 3.369309,1.6083 1.169497,3.37356 8.640732,1.89979 3.512358,-1.02238 0.148821,-1.02857 1.465251,-0.2919 -0.879541,-3.51234 -2.342852,-2.34867 -6.004057,-1.02064 -2.342859,-4.83457 -2.197877,-7.31854 2.485903,-4.5388 7.911978,-4.97954 7.614283,-7.61815 4.538808,-5.70829 4.687646,-2.05097 4.977607,0.58571 14.936683,4.24499 h 15.667371 l 13.03649,-2.34287 4.8307,-0.87566 2.63475,4.09999 2.78166,8.93071 0.73262,14.9386 -0.43688,7.46739 2.19595,2.34285 0.44072,3.22046 2.34092,2.19769 6.88167,0.44111 1.02838,-1.02859 3.07355,0.15121 2.48977,-0.87799 -0.4388,-3.07742 -2.19982,-1.46526 -3.95308,-2.05483 -1.90213,-7.31659 0.145,-17.42453 2.63667,-11.27741 4.97955,-13.9141 1.46525,-11.712355 -0.44072,-4.246908 1.61023,-9.373366 3.51429,-9.957143 2.92857,-0.29381 4.68572,2.342859 2.7836,-0.289976 2.19786,-2.052901 0.14314,-2.342852 1.95626,-4.490479"
       style="fill:#ed9013;fill-opacity:1;fill-rule:nonzero;stroke:none;stroke-width:0.193306"
       id="path1192" />
    <path
       d="m 144.67724,30.265791 1.46912,-2.930504 3.80617,-3.073551 0.87954,0.587644 -1.75521,9.665253 -1.90599,-0.734556 -2.49363,-3.514286"
       style="fill:#ed9013;fill-opacity:1;fill-rule:nonzero;stroke:none;stroke-width:0.193306"
       id="path1194" />
    <path
       d="m 39.685522,113.54161 3.711456,-13.47142 0.976192,-9.959081 -6.64003,-4.299106 -2.930503,-2.926641 -1.948516,3.713389 -4.098068,14.443759 -3.91056,9.5686 -4.488548,3.12575 -5.078124,0.77708 -5.4647346,-0.19332 -6.4467239,-3.12187 -1.7532742,-4.68572 v -3.90862 L 1.8576526,99.264094 1.7590811,99.237254 3.3333332e-6,100.70057 0.29381495,105.972 l 2.04903115,6.44287 5.1283858,3.3693 7.0266391,1.02646 8.346909,-1.61218 4.101936,-5.27336 2.634748,-5.41641 2.636681,-9.520275 1.024517,-1.755209 2.195947,8.053084 0.146916,8.05309 -0.583784,6.74055 -4.101931,5.27144 0.587646,3.80424 1.215888,1.5097 0.150795,-3.75397 3.510417,-4.49048 3.320985,-4.87903"
       style="fill:#e0cc8c;fill-opacity:1;fill-rule:nonzero;stroke:none;stroke-width:0.193306"
       id="path1196" />
    <path
       d="m 136.3342,129.55114 -1.95239,-15.2305 -0.19523,-12.49525 -1.5619,-6.640027 -0.38856,-10.933333 -1.5619,-6.249551 -1.17336,-2.145688 -2.5381,6.440927 -2.92664,5.859074 -14.84196,4.297172 -15.619052,1.950449 -18.547622,-1.757143 -3.123809,-2.147618 2.342859,-3.707594 5.076188,-2.344789 1.954317,-2.930504 -5.663837,-3.12188 -12.106695,0.779023 -6.444796,4.100001 -7.026637,14.840029 -1.561904,10.935262 -5.661909,8.39331 -3.123811,7.22574 2.147624,6.44286 4.084533,3.3152 -0.521922,-1.07093 -2.197877,-7.31853 2.485901,-4.53881 7.91198,-4.97952 7.614282,-7.61816 4.538807,-5.7083 4.687648,-2.05096 4.977605,0.58571 14.936682,4.24498 h 15.667375 l 13.03649,-2.34285 4.8307,-0.87568 2.63475,4.09999 2.78166,8.93071 0.73262,14.93861 -0.43688,7.46738 2.19594,2.34285 0.44072,3.22048 2.34093,2.19767 6.83334,0.43728 v -3.75611 l -4.87903,-3.90478 -0.19715,-9.17618"
       style="fill:#d7641c;fill-opacity:1;fill-rule:nonzero;stroke:none;stroke-width:0.193306"
       id="path1198" />
    <path
       d="m 163.8647,54.575834 2.19788,-2.052899 0.1198,-1.998773 -2.70433,0.144993 -2.15149,-3.320981 -3.9067,-4.683779 -3.51236,1.171428 -7.41904,5.076188 v 5.85521 l -1.95625,17.380066 -3.70759,15.622912 -1.36667,8.783781 0.58765,7.02858 1.25455,2.87445 1.03804,-4.43636 4.97954,-13.914101 1.46526,-11.712356 -0.44072,-4.246906 1.61023,-9.373368 3.51429,-9.957141 2.92857,-0.29381 4.68572,2.342858 2.78359,-0.289975"
       style="fill:#f2d897;fill-opacity:1;fill-rule:nonzero;stroke:none;stroke-width:0.193306"
       id="path1200" />
    <path
       d="m 131.59629,140.32017 0.44072,-6.08332 0.39436,-6.05238 -0.58572,-12.10476 -2.15342,-8.00863 -4.48662,-7.80952 -0.58764,-3.51429 -1.1695,-2.930502 -3.51428,2.344786 -11.90953,2.34286 -18.744788,0.390471 -13.079023,-1.167565 -5.859074,-3.322914 -2.73527,0.780952 -4.099996,5.468602 -6.247622,7.41712 -8.002829,7.81339 -6.056248,3.70759 -1.755214,6.05239 3.315182,11.12663 2.932439,1.95625 0.07922,-0.53156 -0.03069,-0.005 -2.342859,-4.83457 -2.197876,-7.31852 2.485903,-4.53881 7.911978,-4.97954 7.614283,-7.61815 4.538807,-5.7083 4.687647,-2.05097 4.977606,0.58572 14.936683,4.24498 h 15.667371 l 13.03649,-2.34286 4.83071,-0.87567 2.63474,4.09999 2.78166,8.93072 0.73263,14.93861 -0.43688,7.46737 1.99685,2.13023"
       style="fill:#e0cc8c;fill-opacity:1;fill-rule:nonzero;stroke:none;stroke-width:0.193306"
       id="path1202" />
    <path
       d="m 143.95042,141.45873 -2.54003,-0.77901 1.36859,1.36474 1.36474,2.53808 v 0.86215 l 1.41692,0.07 0.0466,-0.0197 -0.48713,-2.2752 -1.16949,-1.76101"
       style="fill:#d7641c;fill-opacity:1;fill-rule:nonzero;stroke:none;stroke-width:0.193306"
       id="path1204" />
    <path
       d="m 55.501745,143.80159 -3.317117,-1.95045 0.193318,0.97813 1.563837,1.5619 0.732627,2.19556 0.678501,-0.19462 0.14882,-1.02858 0.342142,-0.0676 -0.342142,-1.49425"
       style="fill:#d7641c;fill-opacity:1;fill-rule:nonzero;stroke:none;stroke-width:0.193306"
       id="path1206" />
    <path
       d="M 66.628386,138.92065 64.676,138.72733 v 0.78094 l 2.149554,0.9762 0.688167,2.339 1.018718,-0.68237 -0.340224,-2.43952 -1.563837,-0.78095"
       style="fill:#e0cc8c;fill-opacity:1;fill-rule:nonzero;stroke:none;stroke-width:0.193306"
       id="path1208" />
    <path
       d="m 155.78648,37.002469 0.22039,1.02645 1.16948,0.363401 h 1.46526 l 0.87761,0.146899 V 37.88005 l -1.68563,-0.877608 h -2.04709"
       style="fill:#f2d897;fill-opacity:1;fill-rule:nonzero;stroke:none;stroke-width:0.193306"
       id="path1210" />
    <path
       d="m 157.61708,36.267914 -2.34479,0.146898 0.2919,0.879538 1.46716,0.440718 1.02646,-0.440718 1.4614,0.585718 -1.90213,-1.612166"
       style="fill:#4f3021;fill-opacity:1;fill-rule:nonzero;stroke:none;stroke-width:0.193306"
       id="path1212" />
    <path
       d="m 157.56681,36.467017 -0.0966,-1.125038 -0.68429,-0.436881 -1.12503,0.779017 -0.0444,0.782885 h 1.95044"
       style="fill:#d7641c;fill-opacity:1;fill-rule:nonzero;stroke:none;stroke-width:0.193306"
       id="path1214" />
    <path
       d="m 169.3333,44.224348 -0.15653,-0.581847 -1.53097,-0.05041 -1.24295,-0.587651 -0.51228,0.51228 1.17337,1.024517 0.80413,0.734556 0.13919,0.773224 0.15465,-0.359566 1.17142,-1.465254"
       style="fill:#4f3021;fill-opacity:1;fill-rule:nonzero;stroke:none;stroke-width:0.193306"
       id="path1216" />
    <path
       d="m 164.3557,50.988095 1.81512,-0.154638 0.0345,-0.641777 -1.19656,0.210686 -1.75521,0.0715 -2.26939,-0.220385 -1.97559,-0.363401 -1.02643,0.436882 -0.0734,0.510306 h 1.83058 l 2.19594,-0.0715 2.42019,0.222304"
       style="fill:#4a3b33;fill-opacity:1;fill-rule:nonzero;stroke:none;stroke-width:0.193306"
       id="path1218" />
    <path
       d="m 150.76055,25.237928 -0.95493,1.125031 -1.36473,3.220463 0.48905,3.025224 0.33249,0.86601 1.49812,-8.236728"
       style="fill:#d7641c;fill-opacity:1;fill-rule:nonzero;stroke:none;stroke-width:0.193306"
       id="path1220" />
    <path
       d="m 90.416504,81.700402 -1.666288,0.556718 -1.113438,1.735882 0.206852,2.159219 1.459453,1.246815 2.016175,-0.139176 0.904668,-2.7082 -0.0696,-1.670156 -1.737818,-1.181098"
       style="fill:#d9792f;fill-opacity:1;fill-rule:nonzero;stroke:none;stroke-width:0.193306"
       id="path1222" />
    <path
       d="m 89.440312,80.590832 0.421429,1.873129 -1.320272,1.668222 -0.904669,0.767422 -1.043845,-0.835079 0.139174,-2.014241 1.461387,-1.184961 1.246815,-0.27447"
       style="fill:#4a3b33;fill-opacity:1;fill-rule:nonzero;stroke:none;stroke-width:0.193306"
       id="path1224" />
    <path
       d="m 91.736782,81.630812 -0.900805,0.833149 0.202962,1.320272 0.69783,0.556719 1.115367,0.210686 0.27447,-1.529042 -0.624376,-1.322212 -0.765488,-0.0696"
       style="fill:#4a3b33;fill-opacity:1;fill-rule:nonzero;stroke:none;stroke-width:0.193306"
       id="path1226" />
    <path
       d="m 88.611036,85.732748 h -1.25455 l -1.039979,0.761619 -0.141096,1.183027 1.600567,-0.06959 0.906601,-0.624376 -0.0715,-1.250682"
       style="fill:#4a3b33;fill-opacity:1;fill-rule:nonzero;stroke:none;stroke-width:0.193306"
       id="path1228" />
    <path
       d="m 91.390762,86.152221 -1.045783,0.757755 -0.135296,1.53484 1.250683,0.208769 c 0,0 1.183026,-0.208769 1.183026,-0.417538 0,-0.20877 -0.489046,-1.809335 -0.489046,-1.809335 l -0.763552,-0.274469"
       style="fill:#4a3b33;fill-opacity:1;fill-rule:nonzero;stroke:none;stroke-width:0.193306"
       id="path1230" />
    <path
       d="m 96.880622,76.345853 -1.739743,0.769357 -0.62244,2.431775 1.111504,1.805467 2.431774,-0.902734 v -2.847379 l -1.181095,-1.256486"
       style="fill:#d9792f;fill-opacity:1;fill-rule:nonzero;stroke:none;stroke-width:0.193306"
       id="path1232" />
    <path
       d="m 96.186665,74.959854 c 0,0.206851 -0.206855,1.529048 -0.206855,1.529048 l 1.316399,0.974258 0.837018,-0.835078 -0.837018,-1.530976 -1.109565,-0.13727"
       style="fill:#4a3b33;fill-opacity:1;fill-rule:nonzero;stroke:none;stroke-width:0.193306"
       id="path1234" />
    <path
       d="m 94.44885,76.90644 1.111504,1.111504 -0.0715,1.529041 0.141096,1.805467 -1.320272,0.139175 -0.837012,-1.181092 -0.554784,-2.569023 1.530976,-0.835077"
       style="fill:#4a3b33;fill-opacity:1;fill-rule:nonzero;stroke:none;stroke-width:0.193306"
       id="path1236" />
    <path
       d="m 98.894864,79.197101 c 0,0 -1.250685,0.0039 -1.250685,0.282251 0,0.274469 -0.20877,1.385992 -0.20877,1.596696 0,0.208771 -0.06963,1.113438 -0.06963,1.113438 l 1.043847,-0.210687 c 0,0 0.761626,-1.183026 0.761626,-1.529041 0,-0.34795 -0.276439,-1.252619 -0.276439,-1.252619"
       style="fill:#4a3b33;fill-opacity:1;fill-rule:nonzero;stroke:none;stroke-width:0.193306"
       id="path1238" />
    <path
       d="m 83.975582,72.908888 -1.343473,1.134705 -0.388552,2.023901 0.989721,1.927249 1.822864,0.618578 1.819002,-0.871803 -0.166242,-2.855116 -0.682363,-1.52131 -2.050967,-0.456226"
       style="fill:#d9792f;fill-opacity:1;fill-rule:nonzero;stroke:none;stroke-width:0.193306"
       id="path1240" />
    <path
       d="m 82.657239,72.234256 1.082509,1.592836 -0.606975,2.037429 -0.55479,1.045783 -1.281609,-0.390471 -0.614714,-1.92145 0.918203,-1.639231 1.057376,-0.724891"
       style="fill:#4a3b33;fill-opacity:1;fill-rule:nonzero;stroke:none;stroke-width:0.193306"
       id="path1242" />
    <path
       d="m 85.172137,72.357968 -0.52773,1.10764 0.682362,1.148231 0.852476,0.260935 1.113437,-0.220387 -0.309264,-1.523237 -1.068976,-0.995525 -0.742293,0.222305"
       style="fill:#4a3b33;fill-opacity:1;fill-rule:nonzero;stroke:none;stroke-width:0.193306"
       id="path1244" />
    <path
       d="m 83.788073,77.323979 -1.159827,0.463951 -0.684304,1.09604 0.309264,1.150166 1.459452,-0.659168 0.606978,-0.916269 -0.531568,-1.134698"
       style="fill:#4a3b33;fill-opacity:1;fill-rule:nonzero;stroke:none;stroke-width:0.193306"
       id="path1246" />
    <path
       d="m 86.527204,76.680273 -0.682362,1.097968 0.434908,1.471054 1.239082,-0.268716 c 0,0 1.022587,-0.634041 0.943332,-0.827346 -0.08122,-0.193318 -1.123104,-1.498116 -1.123104,-1.498116 l -0.811883,0.02522"
       style="fill:#4a3b33;fill-opacity:1;fill-rule:nonzero;stroke:none;stroke-width:0.193306"
       id="path1248" />
    <path
       d="m 92.583454,71.171077 -1.71848,0.108282 -1.287411,1.875062 0.382745,1.884723 2.352518,-0.0115 0.885341,-2.422115 -0.614713,-1.434322"
       style="fill:#d9792f;fill-opacity:1;fill-rule:nonzero;stroke:none;stroke-width:0.193306"
       id="path1250" />
    <path
       d="m 92.423015,69.771549 c -0.05995,0.177865 -0.651439,1.23522 -0.651439,1.23522 l 0.81961,1.241017 0.972329,-0.452335 -0.233921,-1.561902 -0.906597,-0.461978"
       style="fill:#4a3b33;fill-opacity:1;fill-rule:nonzero;stroke:none;stroke-width:0.193306"
       id="path1252" />
    <path
       d="m 90.339183,70.886916 0.603112,1.293214 -0.539349,1.277745 -0.442689,1.581235 -1.169499,-0.291893 -0.340223,-1.266153 0.330524,-2.360251 1.558041,-0.233919"
       style="fill:#4a3b33;fill-opacity:1;fill-rule:nonzero;stroke:none;stroke-width:0.193306"
       id="path1254" />
    <path
       d="m 93.408865,74.223363 c 0,0 -1.063174,-0.388552 -1.146297,-0.150794 -0.09085,0.235839 -0.612773,1.117306 -0.678502,1.295144 -0.0657,0.173973 -0.407894,0.923999 -0.407894,0.923999 l 0.954926,0.144993 c 0,0 1.018719,-0.765487 1.126972,-1.063179 0.110186,-0.293812 0.150794,-1.150166 0.150794,-1.150166"
       style="fill:#4a3b33;fill-opacity:1;fill-rule:nonzero;stroke:none;stroke-width:0.193306"
       id="path1256" />
    <path
       d="m 100.57855,69.570512 -1.372463,-0.829281 -1.86926,0.255181 -1.374399,1.41886 -0.006,1.757142 1.291274,1.316404 2.420186,-0.97812 1.115362,-1.034181 -0.20493,-1.905989"
       style="fill:#d9792f;fill-opacity:1;fill-rule:nonzero;stroke:none;stroke-width:0.193306"
       id="path1258" />
    <path
       d="m 100.77573,68.23477 -1.059314,1.399528 -1.940791,0.0715 -1.067036,-0.175891 -0.03672,-1.215889 1.482654,-1.097974 1.687552,0.317046 0.933655,0.701695"
       style="fill:#4a3b33;fill-opacity:1;fill-rule:nonzero;stroke:none;stroke-width:0.193306"
       id="path1260" />
    <path
       d="m 101.40783,70.446182 -1.11344,-0.133374 -0.796418,0.925933 0.0269,0.813812 0.512268,0.895008 1.2275,-0.713296 0.54708,-1.212025 -0.40401,-0.57605"
       style="fill:#4a3b33;fill-opacity:1;fill-rule:nonzero;stroke:none;stroke-width:0.193306"
       id="path1262" />
    <path
       d="m 96.704717,70.699412 -0.742289,-0.869872 -1.146297,-0.268716 -0.896937,0.601179 0.989721,1.070911 0.96846,0.257098 0.827342,-0.790616"
       style="fill:#4a3b33;fill-opacity:1;fill-rule:nonzero;stroke:none;stroke-width:0.193306"
       id="path1264" />
    <path
       d="m 98.061717,72.876029 -1.148231,-0.268716 -1.142429,0.809949 0.595375,0.989721 0.987793,0.577978 0.968454,-1.411122 -0.260983,-0.697833"
       style="fill:#4a3b33;fill-opacity:1;fill-rule:nonzero;stroke:none;stroke-width:0.193306"
       id="path1266" />
    <path
       d="m 104.69595,63.216573 -1.5851,0.697831 -0.57412,2.219143 1.01486,1.652758 2.22107,-0.827347 v -2.599951 l -1.07671,-1.142434"
       style="fill:#d9792f;fill-opacity:1;fill-rule:nonzero;stroke:none;stroke-width:0.193306"
       id="path1268" />
    <path
       d="m 104.06385,61.948493 c 0,0.187507 -0.19141,1.393731 -0.19141,1.393731 l 1.20429,0.891133 0.76163,-0.763554 -0.76163,-1.393733 -1.01292,-0.127555"
       style="fill:#4a3b33;fill-opacity:1;fill-rule:nonzero;stroke:none;stroke-width:0.193306"
       id="path1270" />
    <path
       d="m 102.47101,63.724967 1.02258,1.014849 -0.0657,1.393731 0.12373,1.652758 -1.20236,0.123729 -0.76355,-1.078642 -0.50456,-2.348657 1.38987,-0.757756"
       style="fill:#4a3b33;fill-opacity:1;fill-rule:nonzero;stroke:none;stroke-width:0.193306"
       id="path1272" />
    <path
       d="m 106.53428,65.816524 c 0,0 -1.14437,0 -1.14437,0.255181 0,0.253209 -0.18751,1.266146 -0.18751,1.461386 0,0.185592 -0.0638,1.010987 -0.0638,1.010987 l 0.953,-0.185592 c 0,0 0.69783,-1.084439 0.69783,-1.399528 0,-0.317044 -0.25518,-1.142434 -0.25518,-1.142434"
       style="fill:#4a3b33;fill-opacity:1;fill-rule:nonzero;stroke:none;stroke-width:0.193306"
       id="path1274" />
    <path
       d="m 122.13207,62.369893 -1.58704,0.695899 -0.57218,2.221078 1.01872,1.650823 2.21721,-0.82734 v -2.598024 l -1.07671,-1.142436"
       style="fill:#d9792f;fill-opacity:1;fill-rule:nonzero;stroke:none;stroke-width:0.193306"
       id="path1276" />
    <path
       d="m 121.4961,61.101814 c 0,0.187509 -0.18751,1.391797 -0.18751,1.391797 l 1.20429,0.88727 0.75969,-0.757756 -0.75969,-1.39566 -1.01678,-0.12565"
       style="fill:#4a3b33;fill-opacity:1;fill-rule:nonzero;stroke:none;stroke-width:0.193306"
       id="path1278" />
    <path
       d="m 119.90713,62.876355 1.02064,1.014854 -0.0657,1.395661 0.12953,1.650823 -1.20623,0.125651 -0.76161,-1.076709 -0.51031,-2.346721 1.39373,-0.763561"
       style="fill:#4a3b33;fill-opacity:1;fill-rule:nonzero;stroke:none;stroke-width:0.193306"
       id="path1280" />
    <path
       d="m 123.97234,64.969851 c 0,0 -1.1463,0 -1.1463,0.253209 0,0.253209 -0.18559,1.270015 -0.18559,1.459452 0,0.189426 -0.0657,1.016784 -0.0657,1.016784 l 0.95106,-0.191398 c 0,0 0.69976,-1.078644 0.69976,-1.397594 0,-0.318963 -0.2532,-1.1405 -0.2532,-1.1405"
       style="fill:#4a3b33;fill-opacity:1;fill-rule:nonzero;stroke:none;stroke-width:0.193306"
       id="path1282" />
    <path
       d="m 110.35013,59.228692 -1.22556,1.034181 -0.35567,1.851862 0.90659,1.755208 1.65857,0.566386 1.66242,-0.796415 -0.1469,-2.605755 -0.62824,-1.391797 -1.8712,-0.41365"
       style="fill:#d9792f;fill-opacity:1;fill-rule:nonzero;stroke:none;stroke-width:0.193306"
       id="path1284" />
    <path
       d="m 111.44422,58.724166 -0.48131,1.012916 0.62244,1.049644 0.77709,0.235837 1.01485,-0.201042 -0.28225,-1.391797 -0.97812,-0.906597 -0.67271,0.201045"
       style="fill:#4a3b33;fill-opacity:1;fill-rule:nonzero;stroke:none;stroke-width:0.193306"
       id="path1286" />
    <path
       d="m 110.18389,63.259099 -1.06319,0.425263 -0.62244,0.999393 0.27836,1.045777 1.3338,-0.597312 0.55286,-0.837011 -0.47941,-1.036117"
       style="fill:#4a3b33;fill-opacity:1;fill-rule:nonzero;stroke:none;stroke-width:0.193306"
       id="path1288" />
    <path
       d="m 112.67945,62.671452 -0.6263,1.001322 0.40208,1.343467 1.13276,-0.251291 c 0,0 0.92787,-0.57218 0.86021,-0.750024 -0.0734,-0.175892 -1.02645,-1.366667 -1.02645,-1.366667 l -0.74229,0.02301"
       style="fill:#4a3b33;fill-opacity:1;fill-rule:nonzero;stroke:none;stroke-width:0.193306"
       id="path1290" />
    <path
       d="m 105.27007,80.45552 -1.52518,0.50839 -1.01679,1.585103 0.19332,1.969782 1.33188,1.142429 1.84026,-0.133374 0.82155,-2.470439 -0.0618,-1.523244 -1.58317,-1.078642"
       style="fill:#d9792f;fill-opacity:1;fill-rule:nonzero;stroke:none;stroke-width:0.193306"
       id="path1292" />
    <path
       d="m 104.37893,79.4426 0.38082,1.712683 -1.20815,1.52131 -0.82348,0.699767 -0.95107,-0.761626 0.12953,-1.84026 1.32994,-1.078644 1.14243,-0.253207"
       style="fill:#4a3b33;fill-opacity:1;fill-rule:nonzero;stroke:none;stroke-width:0.193306"
       id="path1294" />
    <path
       d="m 106.47436,80.391729 -0.82348,0.763554 0.18751,1.204293 0.63597,0.506471 1.01485,0.191399 0.25321,-1.395665 -0.57025,-1.206221 -0.69783,-0.06378"
       style="fill:#4a3b33;fill-opacity:1;fill-rule:nonzero;stroke:none;stroke-width:0.193306"
       id="path1296" />
    <path
       d="m 103.6173,84.139914 h -1.14435 l -0.94913,0.695898 -0.12565,1.076708 1.45945,-0.0657 0.82155,-0.56832 -0.0619,-1.138566"
       style="fill:#4a3b33;fill-opacity:1;fill-rule:nonzero;stroke:none;stroke-width:0.193306"
       id="path1298" />
    <path
       d="m 106.1554,84.518795 -0.95299,0.697827 -0.12373,1.395664 1.14244,0.189426 c 0,0 1.07671,-0.189426 1.07671,-0.376933 0,-0.193319 -0.44461,-1.650825 -0.44461,-1.650825 l -0.69784,-0.255181"
       style="fill:#4a3b33;fill-opacity:1;fill-rule:nonzero;stroke:none;stroke-width:0.193306"
       id="path1300" />
    <path
       d="m 106.3951,71.381781 -1.22555,1.034182 -0.35568,1.851861 0.90661,1.755209 1.66242,0.568318 1.66242,-0.800282 -0.1508,-2.601886 -0.62631,-1.393732 -1.87312,-0.413648"
       style="fill:#d9792f;fill-opacity:1;fill-rule:nonzero;stroke:none;stroke-width:0.193306"
       id="path1302" />
    <path
       d="m 105.19275,70.770937 0.98971,1.451719 -0.55284,1.857661 -0.50839,0.95493 -1.1695,-0.355675 -0.56251,-1.755215 0.83894,-1.496181 0.96459,-0.657234"
       style="fill:#4a3b33;fill-opacity:1;fill-rule:nonzero;stroke:none;stroke-width:0.193306"
       id="path1304" />
    <path
       d="m 107.49307,70.87532 -0.48323,1.01485 0.6205,1.049645 0.77903,0.235839 1.01291,-0.201043 -0.28027,-1.389869 -0.9762,-0.906603 -0.67269,0.197154"
       style="fill:#4a3b33;fill-opacity:1;fill-rule:nonzero;stroke:none;stroke-width:0.193306"
       id="path1306" />
    <path
       d="m 106.22886,75.412188 -1.06124,0.425265 -0.62631,0.997458 0.28225,1.049645 1.33187,-0.597311 0.55672,-0.838946 -0.48323,-1.036117"
       style="fill:#4a3b33;fill-opacity:1;fill-rule:nonzero;stroke:none;stroke-width:0.193306"
       id="path1308" />
    <path
       d="m 108.72829,74.822608 -0.62631,1.003257 0.3982,1.343467 1.13276,-0.247455 0.85634,-0.750027 c -0.0676,-0.179782 -1.02258,-1.368599 -1.02258,-1.368599 l -0.73842,0.01917"
       style="fill:#4a3b33;fill-opacity:1;fill-rule:nonzero;stroke:none;stroke-width:0.193306"
       id="path1310" />
    <path
       d="m 115.18855,68.588523 -1.5677,0.100491 -1.17916,1.712681 0.34986,1.720415 2.1457,-0.0115 0.81187,-2.21528 -0.56058,-1.306738"
       style="fill:#d9792f;fill-opacity:1;fill-rule:nonzero;stroke:none;stroke-width:0.193306"
       id="path1312" />
    <path
       d="m 115.03777,67.310776 -0.59344,1.128902 0.74809,1.132768 0.88727,-0.407895 -0.2165,-1.430454 -0.82542,-0.423349"
       style="fill:#4a3b33;fill-opacity:1;fill-rule:nonzero;stroke:none;stroke-width:0.193306"
       id="path1314" />
    <path
       d="m 113.13759,68.32949 0.54707,1.181097 -0.49102,1.169494 -0.40209,1.442055 -1.06511,-0.266744 -0.31315,-1.155963 0.29962,-2.155351 1.42467,-0.214578"
       style="fill:#4a3b33;fill-opacity:1;fill-rule:nonzero;stroke:none;stroke-width:0.193306"
       id="path1316" />
    <path
       d="m 115.93858,71.375978 c 0,0 -0.96847,-0.353757 -1.04579,-0.139175 -0.085,0.216494 -0.56058,1.020653 -0.61857,1.181092 l -0.36921,0.846678 0.86794,0.135348 c 0,0 0.9298,-0.703636 1.02838,-0.970396 0.10044,-0.27255 0.13727,-1.053513 0.13727,-1.053513"
       style="fill:#4a3b33;fill-opacity:1;fill-rule:nonzero;stroke:none;stroke-width:0.193306"
       id="path1318" />
    <path
       d="m 97.677043,89.94873 -1.704949,0.570252 -1.134702,1.772605 0.212659,2.205617 1.490376,1.277743 2.060632,-0.14307 0.924006,-2.77006 -0.07343,-1.704956 -1.774539,-1.208155"
       style="fill:#d9792f;fill-opacity:1;fill-rule:nonzero;stroke:none;stroke-width:0.193306"
       id="path1320" />
    <path
       d="m 96.681517,88.814031 0.423351,1.919518 -1.349265,1.699153 -0.918201,0.784821 -1.067042,-0.852476 0.141097,-2.060637 1.488445,-1.206221 1.281615,-0.284168"
       style="fill:#4a3b33;fill-opacity:1;fill-rule:nonzero;stroke:none;stroke-width:0.193306"
       id="path1322" />
    <path
       d="m 99.022449,89.87721 -0.918203,0.856339 0.214582,1.347335 0.703631,0.568319 1.138571,0.212661 0.28608,-1.561908 -0.637904,-1.351205 -0.786757,-0.0715"
       style="fill:#4a3b33;fill-opacity:1;fill-rule:nonzero;stroke:none;stroke-width:0.193306"
       id="path1324" />
    <path
       d="m 95.827112,94.071925 h -1.277747 l -1.06704,0.780958 -0.139176,1.206223 1.633426,-0.0696 0.924001,-0.639837 -0.07347,-1.277751"
       style="fill:#4a3b33;fill-opacity:1;fill-rule:nonzero;stroke:none;stroke-width:0.193306"
       id="path1326" />
    <path
       d="m 98.672559,94.497204 -1.067037,0.779015 -0.139179,1.563837 1.277747,0.21266 c 0,0 1.204295,-0.21266 1.204295,-0.425266 0,-0.21266 -0.496771,-1.846064 -0.496771,-1.846064 L 98.67259,94.497218"
       style="fill:#4a3b33;fill-opacity:1;fill-rule:nonzero;stroke:none;stroke-width:0.193306"
       id="path1328" />
    <path
       d="m 117.08681,78.988332 -1.56577,0.09857 -1.17723,1.710749 0.35184,1.724282 2.14762,-0.0115 0.80608,-2.217209 -0.56252,-1.304808"
       style="fill:#d9792f;fill-opacity:1;fill-rule:nonzero;stroke:none;stroke-width:0.193306"
       id="path1330" />
    <path
       d="m 116.94183,77.708653 -0.59345,1.128906 0.74809,1.132763 0.8892,-0.41173 -0.21458,-1.426593 -0.82927,-0.423346"
       style="fill:#4a3b33;fill-opacity:1;fill-rule:nonzero;stroke:none;stroke-width:0.193306"
       id="path1332" />
    <path
       d="m 115.03777,78.725437 0.55092,1.183026 -0.48713,1.167565 -0.40592,1.445922 -1.06704,-0.268716 -0.31123,-1.157898 0.29572,-2.153416 1.42466,-0.216494"
       style="fill:#4a3b33;fill-opacity:1;fill-rule:nonzero;stroke:none;stroke-width:0.193306"
       id="path1334" />
    <path
       d="m 117.84455,81.773859 c 0,0 -0.97425,-0.355675 -1.04964,-0.135296 -0.0792,0.210688 -0.56058,1.018718 -0.61857,1.179158 l -0.37113,0.846679 0.86987,0.135279 c 0,0 0.93173,-0.705563 1.02838,-0.974257 0.10044,-0.268715 0.1411,-1.051579 0.1411,-1.051579"
       style="fill:#4a3b33;fill-opacity:1;fill-rule:nonzero;stroke:none;stroke-width:0.193306"
       id="path1336" />
    <path
       d="m 77.16544,69.808272 -1.587031,0.693971 -0.572183,2.22107 1.016784,1.65276 2.219144,-0.827342 V 70.946846 L 77.16544,69.808272"
       style="fill:#d9792f;fill-opacity:1;fill-rule:nonzero;stroke:none;stroke-width:0.193306"
       id="path1338" />
    <path
       d="m 76.529471,68.536329 c 0,0.191346 -0.191344,1.39566 -0.191344,1.39566 l 1.204287,0.88727 0.763553,-0.759685 -0.763553,-1.39373 -1.012916,-0.129529"
       style="fill:#4a3b33;fill-opacity:1;fill-rule:nonzero;stroke:none;stroke-width:0.193306"
       id="path1340" />
    <path
       d="m 74.942435,70.312799 1.018719,1.016789 -0.0657,1.393725 0.127556,1.65276 -1.204292,0.123728 -0.763554,-1.074774 -0.5045,-2.35059 1.391798,-0.761624"
       style="fill:#4a3b33;fill-opacity:1;fill-rule:nonzero;stroke:none;stroke-width:0.193306"
       id="path1342" />
    <path
       d="m 79.003774,72.406296 c 0,0 -1.144364,0.0019 -1.144364,0.253209 0,0.257098 -0.187511,1.270014 -0.187511,1.459452 0,0.191344 -0.06378,1.01485 -0.06378,1.01485 l 0.951057,-0.187509 c 0,0 0.701701,-1.08251 0.701701,-1.397594 0,-0.318963 -0.257098,-1.142435 -0.257098,-1.142435"
       style="fill:#4a3b33;fill-opacity:1;fill-rule:nonzero;stroke:none;stroke-width:0.193306"
       id="path1344" />
    <path
       d="m 85.01556,64.206292 -1.227487,1.036117 -0.349867,1.849931 0.900805,1.757144 1.662424,0.566386 1.660489,-0.80222 -0.150795,-2.603819 -0.622439,-1.389862 -1.873128,-0.413704"
       style="fill:#d9792f;fill-opacity:1;fill-rule:nonzero;stroke:none;stroke-width:0.193306"
       id="path1346" />
    <path
       d="m 83.813202,63.595453 0.987792,1.447852 -0.552856,1.863462 -0.510307,0.954925 -1.159832,-0.357594 -0.566386,-1.753273 0.83508,-1.498116 0.966526,-0.657233"
       style="fill:#4a3b33;fill-opacity:1;fill-rule:nonzero;stroke:none;stroke-width:0.193306"
       id="path1348" />
    <path
       d="m 86.1116,63.699838 -0.483237,1.014849 0.622439,1.047716 0.777089,0.235837 1.016784,-0.197151 -0.282251,-1.389864 -0.978121,-0.908535 -0.672703,0.197152"
       style="fill:#4a3b33;fill-opacity:1;fill-rule:nonzero;stroke:none;stroke-width:0.193306"
       id="path1350" />
    <path
       d="m 84.847383,68.236704 -1.061244,0.42143 -0.620505,1.003249 0.278358,1.049651 1.331873,-0.601179 0.554784,-0.835078 -0.483238,-1.03805"
       style="fill:#4a3b33;fill-opacity:1;fill-rule:nonzero;stroke:none;stroke-width:0.193306"
       id="path1352" />
    <path
       d="m 87.344885,67.64906 -0.624373,1.001321 0.402087,1.343467 1.128899,-0.245482 c 0,0 0.929797,-0.579913 0.860208,-0.755823 l -1.024517,-1.364733 -0.742292,0.02137"
       style="fill:#4a3b33;fill-opacity:1;fill-rule:nonzero;stroke:none;stroke-width:0.193306"
       id="path1354" />
    <path
       d="m 70.970017,65.352595 -1.409194,0.616644 -0.508389,1.973643 0.902732,1.463322 1.969783,-0.728765 v -2.311928 l -0.954927,-1.012916"
       style="fill:#d9792f;fill-opacity:1;fill-rule:nonzero;stroke:none;stroke-width:0.193306"
       id="path1356" />
    <path
       d="m 70.403633,64.227559 -0.168163,1.237154 1.068976,0.788682 0.672703,-0.676566 -0.672703,-1.239089 -0.900799,-0.110186"
       style="fill:#4a3b33;fill-opacity:1;fill-rule:nonzero;stroke:none;stroke-width:0.193306"
       id="path1358" />
    <path
       d="m 68.996368,65.801062 0.902737,0.904666 -0.05797,1.237154 0.114031,1.463322 -1.070911,0.110186 -0.672698,-0.954927 -0.452333,-2.083832 1.237149,-0.676566"
       style="fill:#4a3b33;fill-opacity:1;fill-rule:nonzero;stroke:none;stroke-width:0.193306"
       id="path1360" />
    <path
       d="m 72.599576,67.658726 c 0,0 -1.012917,0 -1.012917,0.224221 0,0.226141 -0.166257,1.128901 -0.166257,1.299008 l -0.05797,0.896935 0.844738,-0.166241 c 0,0 0.620512,-0.95686 0.620512,-1.23522 0,-0.286086 -0.228113,-1.018714 -0.228113,-1.018714"
       style="fill:#4a3b33;fill-opacity:1;fill-rule:nonzero;stroke:none;stroke-width:0.193306"
       id="path1362" />
    <path
       d="m 60.516075,62.565135 -1.086374,0.92013 -0.318963,1.643092 0.804147,1.556111 1.476855,0.504499 1.471052,-0.711366 -0.133374,-2.30806 -0.552855,-1.235219 -1.660491,-0.369209"
       style="fill:#d9792f;fill-opacity:1;fill-rule:nonzero;stroke:none;stroke-width:0.193306"
       id="path1364" />
    <path
       d="m 60.3653,66.141279 -0.941397,0.3731 -0.550921,0.891139 0.249374,0.931731 1.179163,-0.537376 0.491019,-0.736491 -0.427183,-0.922065"
       style="fill:#4a3b33;fill-opacity:1;fill-rule:nonzero;stroke:none;stroke-width:0.193306"
       id="path1366" />
    <path
       d="m 62.582509,65.621289 -0.552855,0.889204 0.353757,1.188825 1.005184,-0.220385 0.75969,-0.666903 -0.906603,-1.210088 -0.659168,0.01917"
       style="fill:#4a3b33;fill-opacity:1;fill-rule:nonzero;stroke:none;stroke-width:0.193306"
       id="path1368" />
    <path
       d="m 64.80358,70.871453 -1.389862,0.08702 -1.045781,1.519382 0.313153,1.525173 1.905991,-0.006 0.715229,-1.963978 -0.498745,-1.161766"
       style="fill:#d9792f;fill-opacity:1;fill-rule:nonzero;stroke:none;stroke-width:0.193306"
       id="path1370" />
    <path
       d="m 64.676,69.738684 -0.52773,1.00132 0.663036,1.005191 0.782886,-0.367293 -0.187509,-1.262282 -0.730693,-0.376936"
       style="fill:#4a3b33;fill-opacity:1;fill-rule:nonzero;stroke:none;stroke-width:0.193306"
       id="path1372" />
    <path
       d="m 62.988448,70.639488 0.487129,1.049644 -0.43491,1.036116 -0.359564,1.277746 -0.943327,-0.233921 -0.278358,-1.024515 0.262906,-1.915655 1.266146,-0.189426"
       style="fill:#4a3b33;fill-opacity:1;fill-rule:nonzero;stroke:none;stroke-width:0.193306"
       id="path1374" />
    <path
       d="m 65.476284,73.34576 c 0,0 -0.862141,-0.315073 -0.933664,-0.127556 -0.0696,0.193316 -0.492938,0.90853 -0.545104,1.051578 l -0.332497,0.751954 0.77322,0.114031 c 0,0 0.825418,-0.618578 0.912405,-0.860207 0.08697,-0.237757 0.125651,-0.929797 0.125651,-0.929797"
       style="fill:#4a3b33;fill-opacity:1;fill-rule:nonzero;stroke:none;stroke-width:0.193306"
       id="path1376" />
    <path
       d="m 69.560823,75.402522 -1.587037,0.695898 -0.570248,2.223012 1.014849,1.64889 2.221078,-0.827347 v -2.598018 l -1.078642,-1.142435"
       style="fill:#d9792f;fill-opacity:1;fill-rule:nonzero;stroke:none;stroke-width:0.193306"
       id="path1378" />
    <path
       d="m 68.924848,74.132508 c 0,0.191399 -0.189426,1.395664 -0.189426,1.395664 l 1.202359,0.889206 0.763553,-0.761626 -0.763553,-1.395659 -1.012916,-0.127556"
       style="fill:#4a3b33;fill-opacity:1;fill-rule:nonzero;stroke:none;stroke-width:0.193306"
       id="path1380" />
    <path
       d="m 67.337812,75.908982 1.018718,1.014857 -0.06767,1.397593 0.129531,1.64889 -1.204293,0.12565 -0.761619,-1.076708 -0.510308,-2.346728 1.395659,-0.763554"
       style="fill:#4a3b33;fill-opacity:1;fill-rule:nonzero;stroke:none;stroke-width:0.193306"
       id="path1382" />
    <path
       d="m 71.39915,78.002479 c 0,0 -1.142429,0 -1.142429,0.2571 0,0.25129 -0.189426,1.266145 -0.189426,1.455589 0,0.191399 -0.06188,1.016784 -0.06188,1.016784 l 0.951064,-0.191399 c 0,0 0.695897,-1.078643 0.695897,-1.397601 0,-0.315071 -0.253208,-1.140495 -0.253208,-1.140495"
       style="fill:#4a3b33;fill-opacity:1;fill-rule:nonzero;stroke:none;stroke-width:0.193306"
       id="path1384" />
    <path
       d="m 62.613435,81.62308 -1.563836,0.09858 -1.179164,1.712683 0.349867,1.720413 2.143755,-0.0077 0.811883,-2.215273 -0.562522,-1.308679"
       style="fill:#d9792f;fill-opacity:1;fill-rule:nonzero;stroke:none;stroke-width:0.193306"
       id="path1386" />
    <path
       d="m 62.468459,80.3434 -0.595384,1.130834 0.748093,1.13277 0.885341,-0.411731 -0.214578,-1.426592 -0.823479,-0.425266"
       style="fill:#4a3b33;fill-opacity:1;fill-rule:nonzero;stroke:none;stroke-width:0.193306"
       id="path1388" />
    <path
       d="m 60.566333,81.362118 0.548986,1.179164 -0.491018,1.169493 -0.404004,1.443989 -1.065109,-0.268716 -0.309263,-1.152096 0.295784,-2.159218 1.424657,-0.21266"
       style="fill:#4a3b33;fill-opacity:1;fill-rule:nonzero;stroke:none;stroke-width:0.193306"
       id="path1390" />
    <path
       d="m 63.369258,84.410541 c 0,0 -0.972323,-0.355674 -1.049646,-0.141097 -0.08311,0.216495 -0.556718,1.020652 -0.616641,1.183026 l -0.371128,0.844744 0.871806,0.133374 c 0,0 0.929799,-0.699768 1.028385,-0.96846 0.09474,-0.268716 0.13727,-1.05158 0.13727,-1.05158"
       style="fill:#4a3b33;fill-opacity:1;fill-rule:nonzero;stroke:none;stroke-width:0.193306"
       id="path1392" />
    <path
       d="m 74.38765,83.909884 -1.33767,0.587644 -0.485212,1.876991 0.858279,1.395666 1.878926,-0.697834 v -2.197877 l -0.914334,-0.96459"
       style="fill:#d9792f;fill-opacity:1;fill-rule:nonzero;stroke:none;stroke-width:0.193306"
       id="path1394" />
    <path
       d="m 73.852192,82.840902 -0.160441,1.175295 1.020648,0.753894 0.639843,-0.645641 -0.639843,-1.179163 -0.860207,-0.104385"
       style="fill:#4a3b33;fill-opacity:1;fill-rule:nonzero;stroke:none;stroke-width:0.193306"
       id="path1396" />
    <path
       d="m 72.512588,84.337083 0.860206,0.860213 -0.05995,1.177223 0.110186,1.395666 -1.014854,0.102464 -0.643707,-0.908537 -0.432993,-1.985238 1.181095,-0.641778"
       style="fill:#4a3b33;fill-opacity:1;fill-rule:nonzero;stroke:none;stroke-width:0.193306"
       id="path1398" />
    <path
       d="m 75.94182,86.105825 c 0,0 -0.962657,0.0019 -0.962657,0.218413 0,0.210689 -0.160439,1.067043 -0.160439,1.229423 l -0.05605,0.860207 0.804146,-0.164336 c 0,0 0.587651,-0.908535 0.587651,-1.177229 0,-0.268716 -0.212661,-0.966525 -0.212661,-0.966525"
       style="fill:#4a3b33;fill-opacity:1;fill-rule:nonzero;stroke:none;stroke-width:0.193306"
       id="path1400" />
    <path
       d="m 78.781475,90.938454 -1.339604,0.587646 -0.483294,1.878925 0.860208,1.391796 1.871194,-0.695897 v -2.197877 l -0.908532,-0.964593"
       style="fill:#d9792f;fill-opacity:1;fill-rule:nonzero;stroke:none;stroke-width:0.193306"
       id="path1402" />
    <path
       d="m 78.244082,89.869473 -0.160439,1.175297 1.018718,0.751958 0.643704,-0.643706 -0.643704,-1.17723 -0.858279,-0.106307"
       style="fill:#4a3b33;fill-opacity:1;fill-rule:nonzero;stroke:none;stroke-width:0.193306"
       id="path1404" />
    <path
       d="m 76.904478,91.365655 0.856344,0.858277 -0.05206,1.181093 0.110187,1.391796 -1.024516,0.104385 -0.639837,-0.910466 -0.427183,-1.983309 1.177224,-0.641777"
       style="fill:#4a3b33;fill-opacity:1;fill-rule:nonzero;stroke:none;stroke-width:0.193306"
       id="path1406" />
    <path
       d="m 80.333711,93.138267 c 0,0 -0.964592,0 -0.964592,0.210686 0,0.216497 -0.162362,1.072841 -0.162362,1.23522 l -0.05041,0.856339 0.804146,-0.162363 c 0,0 0.589579,-0.908536 0.589579,-1.177228 0,-0.266743 -0.216494,-0.962657 -0.216494,-0.962657"
       style="fill:#4a3b33;fill-opacity:1;fill-rule:nonzero;stroke:none;stroke-width:0.193306"
       id="path1408" />
    <path
       d="m 53.147285,67.264381 -1.159826,-0.699766 -1.569641,0.214578 -1.157896,1.194622 -0.0039,1.484586 1.086373,1.107635 2.037436,-0.821544 0.943326,-0.87374 -0.175891,-1.606366"
       style="fill:#d9792f;fill-opacity:1;fill-rule:nonzero;stroke:none;stroke-width:0.193306"
       id="path1410" />
    <path
       d="m 53.313528,66.137411 -0.889204,1.181097 -1.639224,0.05797 -0.89887,-0.143072 -0.02904,-1.028378 1.24682,-0.922065 1.422728,0.262906 0.786749,0.591514"
       style="fill:#4a3b33;fill-opacity:1;fill-rule:nonzero;stroke:none;stroke-width:0.193306"
       id="path1412" />
    <path
       d="m 53.848987,68.002807 -0.939462,-0.114032 -0.672704,0.782887 0.02302,0.682369 0.432991,0.755822 1.032248,-0.599246 0.463948,-1.02645 -0.340222,-0.481319"
       style="fill:#4a3b33;fill-opacity:1;fill-rule:nonzero;stroke:none;stroke-width:0.193306"
       id="path1414" />
    <path
       d="m 49.88623,68.21351 -0.626308,-0.730694 -0.962657,-0.226139 -0.759693,0.506473 0.833145,0.902733 0.81768,0.216494 0.697833,-0.668834"
       style="fill:#4a3b33;fill-opacity:1;fill-rule:nonzero;stroke:none;stroke-width:0.193306"
       id="path1416" />
    <path
       d="m 51.02673,70.053772 -0.966526,-0.233921 -0.966525,0.688167 0.506471,0.833143 0.833142,0.483239 0.813818,-1.184961 -0.220386,-0.585716"
       style="fill:#4a3b33;fill-opacity:1;fill-rule:nonzero;stroke:none;stroke-width:0.193306"
       id="path1418" />
    <path
       d="m 42.563836,65.638687 c 0,0.191399 -0.187509,1.397594 -0.187509,1.397594 l 1.206227,0.889205 0.76162,-0.763554 -0.76162,-1.395665 -1.018718,-0.127572"
       style="fill:#5c483b;fill-opacity:1;fill-rule:nonzero;stroke:none;stroke-width:0.193306"
       id="path1420" />
    <path
       d="m 40.980666,67.415162 1.014851,1.016784 -0.0657,1.393725 0.131451,1.65083 -1.20816,0.125649 -0.759686,-1.076708 -0.510307,-2.348655 1.3976,-0.76162"
       style="fill:#5c483b;fill-opacity:1;fill-rule:nonzero;stroke:none;stroke-width:0.193306"
       id="path1422" />
    <path
       d="m 45.042005,69.508652 c 0,0 -1.144363,0 -1.144363,0.255183 0,0.255181 -0.189427,1.268079 -0.189427,1.459452 0,0.189426 -0.05995,1.010987 -0.05995,1.010987 l 0.951062,-0.185593 c 0,0 0.695899,-1.084439 0.695899,-1.397594 0,-0.315072 -0.253209,-1.142435 -0.253209,-1.142435"
       style="fill:#5c483b;fill-opacity:1;fill-rule:nonzero;stroke:none;stroke-width:0.193306"
       id="path1424" />
    <path
       d="m 58.258275,73.608656 -1.252618,0.637903 -0.04658,1.49618 1.057382,0.197154 0.717158,-1.420796 -0.475512,-0.910463"
       style="fill:#5c483b;fill-opacity:1;fill-rule:nonzero;stroke:none;stroke-width:0.193306"
       id="path1426" />
    <path
       d="m 55.898017,73.3129 -0.259016,1.41499 -1.183026,0.740359 -1.285478,1.043847 -0.792551,-0.918202 0.456169,-1.24295 1.639229,-1.75134 1.424657,0.713296"
       style="fill:#5c483b;fill-opacity:1;fill-rule:nonzero;stroke:none;stroke-width:0.193306"
       id="path1428" />
    <path
       d="m 56.483734,77.847832 c 0,0 -0.649508,-0.941392 -0.862141,-0.79448 -0.204933,0.139176 -1.152101,0.562515 -1.304809,0.668835 l -0.875671,0.527732 0.701696,0.670769 c 0,0 1.285476,-0.03672 1.544504,-0.21266 0.262907,-0.1817 0.796421,-0.860208 0.796421,-0.860208"
       style="fill:#5c483b;fill-opacity:1;fill-rule:nonzero;stroke:none;stroke-width:0.193306"
       id="path1430" />
    <path
       d="m 48.480904,73.513937 c -0.100491,0.179782 -0.920136,1.217821 -0.920136,1.217821 l 0.670769,1.488444 1.125038,-0.315072 0.02522,-1.732013 -0.9008,-0.65917"
       style="fill:#5c483b;fill-opacity:1;fill-rule:nonzero;stroke:none;stroke-width:0.193306"
       id="path1432" />
    <path
       d="m 46.033661,74.350944 0.419456,1.501984 -0.806086,1.289339 -0.757751,1.631498 -1.206226,-0.523841 -0.14882,-1.42659 0.77129,-2.497504 1.728145,0.02522"
       style="fill:#5c483b;fill-opacity:1;fill-rule:nonzero;stroke:none;stroke-width:0.193306"
       id="path1434" />
    <path
       d="m 48.763126,78.499269 c 0,0 -1.078642,-0.610839 -1.217821,-0.36921 -0.135296,0.237756 -0.85441,1.101837 -0.95686,1.279681 -0.09666,0.181701 -0.599245,0.927863 -0.599245,0.927863 l 1.00132,0.330577 c 0,0 1.241017,-0.651435 1.40726,-0.951061 0.170085,-0.303511 0.365373,-1.217823 0.365373,-1.217823"
       style="fill:#5c483b;fill-opacity:1;fill-rule:nonzero;stroke:none;stroke-width:0.193306"
       id="path1436" />
    <path
       d="m 39.076613,73.53713 -1.389868,0.365321 -1.024515,1.39373 1.097973,0.949129 1.824799,0.14882 0.220385,-2.050963 -0.728759,-0.806081"
       style="fill:#5c483b;fill-opacity:1;fill-rule:nonzero;stroke:none;stroke-width:0.193306"
       id="path1438" />
    <path
       d="m 40.468409,80.859526 -0.514197,0.732628 1.097973,1.246818 c 0,0 0.661105,-0.734561 0.732623,-0.952996 0.07347,-0.220386 -0.0715,-1.391797 -0.0715,-1.391797 l -1.244886,0.36532"
       style="fill:#5c483b;fill-opacity:1;fill-rule:nonzero;stroke:none;stroke-width:0.193306"
       id="path1440" />
    <path
       d="m 49.617536,87.814646 -1.024515,1.536773 c 0,0 0.952991,1.099908 1.169493,1.099908 0.224221,0 1.101841,-0.951063 1.101841,-1.171434 0,-0.218413 0.0715,-1.244883 0.0715,-1.244883 l -1.318338,-0.220388"
       style="fill:#5c483b;fill-opacity:1;fill-rule:nonzero;stroke:none;stroke-width:0.193306"
       id="path1442" />
    <path
       d="m 41.272555,86.937041 -0.954925,1.169492 1.175295,1.244886 c 0,0 1.46332,-0.583783 1.46332,-0.804151 0,-0.220387 0,-1.465251 0,-1.465251 l -1.68369,-0.144993"
       style="fill:#5c483b;fill-opacity:1;fill-rule:nonzero;stroke:none;stroke-width:0.193306"
       id="path1444" />
    <path
       d="m 35.707304,83.420821 -2.563223,1.536773 -0.583783,-1.169493 0.14882,-2.342859 1.828663,-0.585716 0.949128,0.732628 0.220385,1.828667"
       style="fill:#5c483b;fill-opacity:1;fill-rule:nonzero;stroke:none;stroke-width:0.193306"
       id="path1446" />
    <path
       d="m 38.562421,84.375746 -0.218414,0.951064 c 0,0 1.828668,0.730692 1.90212,0.512278 0.0715,-0.218413 0,-1.612166 0,-1.612166 l -0.877603,-0.512278 -0.806081,0.661102"
       style="fill:#5c483b;fill-opacity:1;fill-rule:nonzero;stroke:none;stroke-width:0.193306"
       id="path1448" />
    <path
       d="m 34.754313,87.52662 -1.534845,0.873736 0.87567,0.951063 1.244885,-0.51228 0.29381,-1.024517 L 34.7543,87.52662"
       style="fill:#5c483b;fill-opacity:1;fill-rule:nonzero;stroke:none;stroke-width:0.193306"
       id="path1450" />
    <path
       d="m 29.99707,89.716764 c 0,0 -0.734556,0.956862 -0.367292,1.24875 0.367292,0.289975 1.612161,0.728764 1.612161,0.728764 0,0 0.438798,-1.610233 0.438798,-1.824805 0,-0.222303 -0.29381,-0.808015 -0.29381,-0.808015 l -1.389869,0.655306"
       style="fill:#5c483b;fill-opacity:1;fill-rule:nonzero;stroke:none;stroke-width:0.193306"
       id="path1452" />
    <path
       d="m 48.15615,97.112619 0.0754,1.540642 1.461387,0.436881 1.022586,-1.318344 -0.65724,-1.024515 -1.90212,0.365373"
       style="fill:#5c483b;fill-opacity:1;fill-rule:nonzero;stroke:none;stroke-width:0.193306"
       id="path1454" />
    <path
       d="m 57.966381,93.894089 c 0,0 -1.536773,1.757142 -1.393725,1.973644 0.146898,0.222303 1.540635,1.540642 1.540635,1.540642 l 1.099909,-0.879538 0.361484,-1.610233 -0.875672,-0.877605 -0.732625,-0.146898"
       style="fill:#5c483b;fill-opacity:1;fill-rule:nonzero;stroke:none;stroke-width:0.193306"
       id="path1456" />
    <path
       d="m 54.013296,100.04312 -1.538709,-0.589577 -0.587649,1.322207 1.099908,1.60829 c 0,0 1.61216,-0.0734 1.61216,-0.28997 0,-0.2223 0.0715,-1.90599 0.0715,-1.90599 l -0.657235,-0.14499"
       style="fill:#5c483b;fill-opacity:1;fill-rule:nonzero;stroke:none;stroke-width:0.193306"
       id="path1458" />
    <path
       d="m 53.719473,98.141003 0.29381,0.802212 c 0,0 1.318338,0.438797 1.389864,0.146898 0.07347,-0.291894 0.732627,-1.536779 0.732627,-1.536779 l -1.02645,-1.024516 -1.389863,1.612166"
       style="fill:#5c483b;fill-opacity:1;fill-rule:nonzero;stroke:none;stroke-width:0.193306"
       id="path1460" />
    <path
       d="m 51.74196,95.138973 0.877605,0.951058 c 0,0 0.881473,-0.585711 0.881473,-0.80608 0,-0.218413 0.144992,-1.538709 0.144992,-1.538709 l -1.244885,-0.07539 -0.659168,1.469117"
       style="fill:#5c483b;fill-opacity:1;fill-rule:nonzero;stroke:none;stroke-width:0.193306"
       id="path1462" />
    <path
       d="m 60.017351,101.5799 -1.171431,0.8776 1.244886,0.88147 c 0,0 2.049035,0.36532 2.049035,0.14307 0,-0.21649 -0.806085,-2.12055 -0.806085,-2.12055 l -1.316405,0.21841"
       style="fill:#5c483b;fill-opacity:1;fill-rule:nonzero;stroke:none;stroke-width:0.193306"
       id="path1464" />
    <path
       d="m 53.792925,105.53492 -0.585715,1.38987 0.659173,0.80414 c 0,0 1.610232,-0.36531 1.610232,-0.65723 0,-0.2919 -0.589584,-1.61024 -0.589584,-1.61024 l -1.094106,0.0734"
       style="fill:#5c483b;fill-opacity:1;fill-rule:nonzero;stroke:none;stroke-width:0.193306"
       id="path1466" />
    <path
       d="m 65.070345,90.673626 -0.512279,1.608297 1.461386,1.026448 0.734556,-0.881467 0.144994,-1.389867 -1.828668,-0.3634"
       style="fill:#5c483b;fill-opacity:1;fill-rule:nonzero;stroke:none;stroke-width:0.193306"
       id="path1468" />
    <path
       d="m 51.450067,82.838972 0.218412,1.387928 c 0,0 1.318344,0.14882 1.465256,-0.07342 0.144993,-0.216495 0.29381,-1.169497 0.29381,-1.169497 l -0.585715,-1.097974 -1.026451,0.144993 -0.365372,0.808022"
       style="fill:#5c483b;fill-opacity:1;fill-rule:nonzero;stroke:none;stroke-width:0.193306"
       id="path1470" />
    <path
       d="m 39.65846,98.210592 -1.314475,1.540642 c 0,0 0.585716,0.949126 0.806081,1.024516 0.218412,0.0735 2.414382,0.80415 2.563229,0.36537 0.144993,-0.44071 0.585711,-2.563226 0.585711,-2.563226 L 39.65846,98.210602"
       style="fill:#5c483b;fill-opacity:1;fill-rule:nonzero;stroke:none;stroke-width:0.193306"
       id="path1472" />
    <path
       d="m 41.929796,94.992063 0.36921,1.318338 c 0,0 0.879537,-0.369211 0.951061,-0.585718 0.07347,-0.220385 0.365374,-1.32027 0.365374,-1.32027 l -1.099907,-0.734557 -0.585711,1.322207"
       style="fill:#5c483b;fill-opacity:1;fill-rule:nonzero;stroke:none;stroke-width:0.193306"
       id="path1474" />
    <path
       d="m 37.242148,93.453355 c 0,0 -0.802217,1.024515 -0.579918,1.024515 0.218414,0 1.830602,-0.07347 1.830602,-0.07347 l 0.291893,-1.244886 -0.734557,-0.363401 -0.808015,0.657241"
       style="fill:#5c483b;fill-opacity:1;fill-rule:nonzero;stroke:none;stroke-width:0.193306"
       id="path1476" />
    <path
       d="m 122.47035,72.636328 -1.26615,1.169496 0.97619,1.366668 1.46526,-0.684297 -0.0985,-1.75715 -1.07671,-0.09474"
       style="fill:#5c483b;fill-opacity:1;fill-rule:nonzero;stroke:none;stroke-width:0.193306"
       id="path1478" />
    <path
       d="m 126.47371,68.143921 -0.87762,2.244272 1.66243,0.978119 c 0,0 1.26421,-1.559968 1.26421,-1.855725 0,-0.293811 -0.38854,-2.636682 -0.38854,-2.636682 l -1.66049,1.270016"
       style="fill:#5c483b;fill-opacity:1;fill-rule:nonzero;stroke:none;stroke-width:0.193306"
       id="path1480" />
    <path
       d="m 127.25852,76.831048 -2.34672,1.660491 0.58764,2.246205 3.12381,1.074778 c 0,0 1.1695,-1.366666 1.1695,-1.660495 0,-0.293811 -0.2919,-2.636675 -0.2919,-2.636675 l -2.24234,-0.684304"
       style="fill:#5c483b;fill-opacity:1;fill-rule:nonzero;stroke:none;stroke-width:0.193306"
       id="path1482" />
    <path
       d="m 131.06276,74.488195 v 1.757142 l 1.46526,0.09666 c 0,0 0.8776,-0.682365 0.8776,-0.974258 0,-0.293812 -0.8776,-2.049031 -0.8776,-2.049031 l -1.46526,1.169497"
       style="fill:#5c483b;fill-opacity:1;fill-rule:nonzero;stroke:none;stroke-width:0.193306"
       id="path1484" />
    <path
       d="m 127.06135,73.121527 -0.0985,1.561902 1.75908,0.09858 0.0947,-1.463321 -0.58184,-0.68237 -1.17336,0.485211"
       style="fill:#5c483b;fill-opacity:1;fill-rule:nonzero;stroke:none;stroke-width:0.193306"
       id="path1486" />
    <path
       d="m 121.78992,82.593474 -0.10044,1.658556 1.85766,0.78095 c 0,0 0.68044,-0.879532 0.68044,-1.366661 0,-0.487129 -0.68044,-1.952383 -0.68044,-1.952383 L 121.79,82.593474"
       style="fill:#5c483b;fill-opacity:1;fill-rule:nonzero;stroke:none;stroke-width:0.193306"
       id="path1488" />
    <path
       d="m 133.99326,87.571081 -0.8776,2.638609 1.16757,0.48713 c 0,0 1.07477,0.09857 1.07477,-0.295784 0,-0.388552 0.0985,-2.630879 0.0985,-2.630879 l -1.46332,-0.199076"
       style="fill:#5c483b;fill-opacity:1;fill-rule:nonzero;stroke:none;stroke-width:0.193306"
       id="path1490" />
    <path
       d="m 129.59944,86.399648 c 0,0 -0.39047,0.879538 -0.0985,1.171433 0.2919,0.29381 1.85573,1.26808 1.95238,0.78095 0.0985,-0.487127 0.29381,-1.658555 0.29381,-1.658555 l -0.68429,-1.465254 -1.46332,1.171426"
       style="fill:#5c483b;fill-opacity:1;fill-rule:nonzero;stroke:none;stroke-width:0.193306"
       id="path1492" />
    <path
       d="m 134.47653,84.056795 c 0,0 -0.68043,1.171427 -0.28997,1.270015 0.39046,0.09857 1.85765,0.48521 1.85765,0.48521 l 0.48713,-1.658555 -0.97618,-1.463322 -1.07865,1.366668"
       style="fill:#5c483b;fill-opacity:1;fill-rule:nonzero;stroke:none;stroke-width:0.193306"
       id="path1494" />
    <path
       d="m 132.33472,80.737744 -1.17337,1.173361 1.07477,0.974257 c 0,0 1.46526,0 1.46526,-0.587644 0,-0.583782 0.19523,-2.050967 0.19523,-2.050967 l -1.56189,0.490965"
       style="fill:#5c483b;fill-opacity:1;fill-rule:nonzero;stroke:none;stroke-width:0.193306"
       id="path1496" />
    <path
       d="m 140.53278,78.590125 -0.68624,1.855731 1.36861,0.581847 0.97618,-0.780952 -0.19331,-1.461384 -1.46525,-0.195237"
       style="fill:#5c483b;fill-opacity:1;fill-rule:nonzero;stroke:none;stroke-width:0.193306"
       id="path1498" />
    <path
       d="m 142.87564,86.20248 c -0.29382,0 -2.63668,0.879537 -2.63668,0.879537 l -0.0966,1.857659 c 0,0 0.97812,0.684304 1.36666,0.684304 0.39047,0 2.05097,-0.295784 2.05097,-0.784819 0,-0.48713 0,-1.656627 0,-1.656627 l -0.6843,-0.980054"
       style="fill:#5c483b;fill-opacity:1;fill-rule:nonzero;stroke:none;stroke-width:0.193306"
       id="path1500" />
    <path
       d="m 138.67899,91.572495 0.77901,0.97812 c 0,0 1.36667,0.390471 1.36667,-0.09666 0,-0.489046 0,-1.660489 0,-1.660489 l -1.46526,-0.780951 -0.68042,1.559973"
       style="fill:#5c483b;fill-opacity:1;fill-rule:nonzero;stroke:none;stroke-width:0.193306"
       id="path1502" />
    <path
       d="m 129.69223,97.238263 c -0.288,0.193318 -1.36474,2.439511 -1.06898,2.5381 0.28997,0.09277 1.06898,0.680427 1.06898,0.680427 l 1.56383,-0.38658 0.19716,-2.445307 -1.76101,-0.386634"
       style="fill:#5c483b;fill-opacity:1;fill-rule:nonzero;stroke:none;stroke-width:0.193306"
       id="path1504" />
    <path
       d="m 135.45659,98.504414 c 0,0 -0.6843,1.465249 -0.49102,1.757146 0.19715,0.29189 1.56577,1.27195 1.56577,1.27195 0,0 0.68237,-0.29382 0.77902,-0.6843 0.0985,-0.3924 0,-2.149561 0,-2.149561 l -1.85379,-0.195235"
       style="fill:#5c483b;fill-opacity:1;fill-rule:nonzero;stroke:none;stroke-width:0.193306"
       id="path1506" />
    <path
       d="m 109.29081,89.229637 0.39239,1.853795 2.4395,0.686233 0.49103,-1.954312 -1.07479,-1.463322 -2.24813,0.877606"
       style="fill:#5c483b;fill-opacity:1;fill-rule:nonzero;stroke:none;stroke-width:0.193306"
       id="path1508" />
    <path
       d="m 115.7356,87.669662 -0.58571,1.270014 1.07478,0.193318 0.68042,-1.171427 -0.28997,-0.779023 -0.87954,0.48713"
       style="fill:#5c483b;fill-opacity:1;fill-rule:nonzero;stroke:none;stroke-width:0.193306"
       id="path1510" />
    <path
       d="m 118.56559,89.424877 c 0,0 0,0.879533 0.2977,1.17336 0.288,0.291895 2.04518,1.561902 2.14183,0.974258 0.0985,-0.585716 0.49102,-2.244272 0.29769,-2.536165 -0.19912,-0.295785 -1.95817,-1.757144 -2.24814,-1.563837 -0.2938,0.197154 -0.48904,1.952384 -0.48904,1.952384"
       style="fill:#5c483b;fill-opacity:1;fill-rule:nonzero;stroke:none;stroke-width:0.193306"
       id="path1512" />
    <path
       d="m 123.34603,88.839161 -0.38467,1.074773 c 0,0 0.97426,0.390471 1.36667,0.295784 0.38855,-0.09857 1.56384,-0.980053 1.46138,-1.270015 -0.0985,-0.295784 -0.58378,-0.881467 -0.58378,-0.881467 l -1.8596,0.780925"
       style="fill:#5c483b;fill-opacity:1;fill-rule:nonzero;stroke:none;stroke-width:0.193306"
       id="path1514" />
    <path
       d="m 114.17369,92.941091 -0.10044,1.171434 c 0,0 0.68623,0.392388 1.0767,0.09857 0.38856,-0.295729 1.56191,-1.368596 1.56191,-1.368596 l -0.58571,-0.780956 -1.95238,0.879538"
       style="fill:#5c483b;fill-opacity:1;fill-rule:nonzero;stroke:none;stroke-width:0.193306"
       id="path1516" />
    <path
       d="m 107.34037,94.404413 c 0,0 -0.3924,1.076707 0,1.076707 0.38855,0 1.95044,0.875676 2.14762,0.288004 0.19523,-0.583783 0.48521,-1.656621 0.48521,-1.656621 l -1.46333,-0.974258 -1.16949,1.266145"
       style="fill:#5c483b;fill-opacity:1;fill-rule:nonzero;stroke:none;stroke-width:0.193306"
       id="path1518" />
    <path
       d="m 26.701218,96.258208 c 0,0 0.489047,2.151487 0.782886,1.85573 0.289976,-0.289976 0.877604,-1.465254 0.877604,-1.465254 l -0.587644,-1.463321 -1.072846,1.072845"
       style="fill:#5c483b;fill-opacity:1;fill-rule:nonzero;stroke:none;stroke-width:0.193306"
       id="path1520" />
    <path
       d="m 28.94549,98.699649 -1.171426,1.169498 0.883402,1.078643 c 0,0 0.875676,0.0947 0.875676,-0.19524 0,-0.29578 0.291893,-1.465244 0.291893,-1.465244 l -0.879538,-0.587652"
       style="fill:#5c483b;fill-opacity:1;fill-rule:nonzero;stroke:none;stroke-width:0.193306"
       id="path1522" />
    <path
       d="m 27.774064,104.26684 c 0,0 -1.660491,0.38658 -1.660491,0.68236 0,0.2919 0.490966,1.17336 0.490966,1.17336 0,0 0.585715,0.39048 0.976191,0.19141 0.392388,-0.19141 0.684299,-1.26809 0.684299,-1.26809 l -0.490965,-0.77901"
       style="fill:#5c483b;fill-opacity:1;fill-rule:nonzero;stroke:none;stroke-width:0.193306"
       id="path1524" />
    <path
       d="m 23.482689,107.09876 c 0,0 -0.392388,0.87761 0.09666,1.26808 0.487129,0.38855 1.656626,0.68236 1.753279,0.1914 0.100492,-0.48713 0.199127,-1.75715 0.199127,-1.75715 l -0.686234,-0.97619 -1.362803,1.27388"
       style="fill:#5c483b;fill-opacity:1;fill-rule:nonzero;stroke:none;stroke-width:0.193306"
       id="path1526" />
    <path
       d="m 18.793109,111.29542 -0.09666,1.46331 1.171432,0.39047 0.976186,-1.75715 c 0,0 -0.291893,-0.87953 -0.58571,-0.87953 -0.291893,0 -1.465253,0.78288 -1.465253,0.78288"
       style="fill:#5c483b;fill-opacity:1;fill-rule:nonzero;stroke:none;stroke-width:0.193306"
       id="path1528" />
    <path
       d="m 10.301216,112.66207 c 0,0 -1.5619024,1.46526 -0.5857105,1.85187 0.9781195,0.39436 2.8319165,1.27002 2.8319165,0.88147 0,-0.39239 0.289976,-2.2462 0.289976,-2.2462 l -0.877605,-0.78095 -1.658561,0.2938"
       style="fill:#5c483b;fill-opacity:1;fill-rule:nonzero;stroke:none;stroke-width:0.193306"
       id="path1530" />
    <path
       d="m 1.3202657,101.72681 c 0,0 0.1971524,1.46719 0.5857104,1.46719 0.3904698,0 0.9761929,-0.19715 0.9761929,-0.19715 l 0.5857157,-0.88148 v -1.94658 c 0,0 -0.9761918,-0.0986 -1.2680806,0 -0.2938111,0.0928 -0.5857158,0.38466 -0.5857158,0.77902 0,0.38855 -0.2938121,0.77901 -0.2938121,0.77901"
       style="fill:#5c483b;fill-opacity:1;fill-rule:nonzero;stroke:none;stroke-width:0.193306"
       id="path1532" />
    <path
       d="m 43.688873,107.78305 c 0,0 -0.193318,1.85187 0.100491,1.9466 0.289976,0.0985 1.068977,0.19523 1.068977,0.19523 l 0.782885,-1.36668 -0.976192,-1.36279 -0.976187,0.58764"
       style="fill:#5c483b;fill-opacity:1;fill-rule:nonzero;stroke:none;stroke-width:0.193306"
       id="path1534" />
    <path
       d="m 38.12555,107.48537 c 0,0 -1.366668,2.0529 -0.583782,2.34286 0.780951,0.29578 1.070911,0.49101 1.851861,0.49101 0.779024,0 1.952384,-0.49101 1.952384,-0.87761 0,-0.39238 -0.09666,-2.2462 -0.390469,-2.2462 -0.291894,0 -2.829989,0.28998 -2.829989,0.28998"
       style="fill:#5c483b;fill-opacity:1;fill-rule:nonzero;stroke:none;stroke-width:0.193306"
       id="path1536" />
    <path
       d="m 42.418858,104.46014 c 0,0 0.291893,1.75714 0.684299,1.66242 0.392388,-0.0985 1.270013,-0.2977 1.366668,-0.58764 0.09666,-0.29381 0.976191,-1.27001 0.489046,-1.46526 -0.489046,-0.19715 -0.87954,-0.87566 -1.463321,-0.78095 -0.587651,0.0966 -1.076708,1.17143 -1.076708,1.17143"
       style="fill:#5c483b;fill-opacity:1;fill-rule:nonzero;stroke:none;stroke-width:0.193306"
       id="path1538" />
    <path
       d="m 39.585002,116.56683 c 0,0 0.883407,1.16951 1.173361,1.07478 0.293812,-0.10054 0.58765,-0.58764 0.58765,-0.9762 0,-0.39237 -0.09666,-1.46717 -0.390469,-1.46717 -0.291894,0 -0.782887,0 -0.782887,0 l -0.587655,1.36859"
       style="fill:#5c483b;fill-opacity:1;fill-rule:nonzero;stroke:none;stroke-width:0.193306"
       id="path1540" />
    <path
       d="m 46.130314,112.26773 c 0,0 -0.293812,1.56577 0,1.56577 0.291893,0 0.877604,-0.0966 0.877604,-0.0966 l 0.780951,-0.68429 -0.487129,-1.07478 -1.171426,0.28997"
       style="fill:#5c483b;fill-opacity:1;fill-rule:nonzero;stroke:none;stroke-width:0.193306"
       id="path1542" />
    <path
       d="m 52.865063,110.99966 c 0,0 -0.195234,1.56769 0.09858,1.66241 0.293813,0.0966 0.780958,0.48714 1.074781,0.39048 0.291893,-0.0985 0.877603,-1.07478 0.877603,-1.07478 l -0.388549,-1.65855 -1.662425,0.68043"
       style="fill:#5c483b;fill-opacity:1;fill-rule:nonzero;stroke:none;stroke-width:0.193306"
       id="path1544" />
    <path
       d="m 85.373176,98.015351 -0.583782,2.153419 1.952384,0.77902 c 0,0 1.561903,-1.078643 1.561903,-1.565772 0,-0.487128 -1.465251,-2.143755 -1.465251,-2.143755 l -1.465254,0.777088"
       style="fill:#5c483b;fill-opacity:1;fill-rule:nonzero;stroke:none;stroke-width:0.193306"
       id="path1546" />
    <path
       d="m 80.983219,97.526289 c 0,0 -0.978126,0.784819 -0.390469,0.978125 0.585716,0.195235 1.755213,0.489047 1.755213,0.489047 l -0.09857,-1.563842 -0.489048,-0.58571 -0.777081,0.682362"
       style="fill:#5c483b;fill-opacity:1;fill-rule:nonzero;stroke:none;stroke-width:0.193306"
       id="path1548" />
    <path
       d="m 81.959405,86.009172 c 0,0 -0.881467,1.072845 -0.199125,1.270014 0.686233,0.193318 1.956247,0.291895 1.956247,0.291895 l 0.388552,-2.14569 -1.366668,-0.585711 -0.779023,1.169492"
       style="fill:#5c483b;fill-opacity:1;fill-rule:nonzero;stroke:none;stroke-width:0.193306"
       id="path1550" />
    <path
       d="m 92.792223,101.62822 c 0,0 -0.39047,1.3686 0.782885,1.17143 1.171433,-0.19523 2.244272,-0.68429 2.050966,-1.07284 -0.195234,-0.39048 -0.195234,-1.55804 -0.879533,-1.55804 -0.682369,0 -1.954318,1.45945 -1.954318,1.45945"
       style="fill:#5c483b;fill-opacity:1;fill-rule:nonzero;stroke:none;stroke-width:0.193306"
       id="path1552" />
    <path
       d="m 85.373176,90.012522 c 0,0 0.197152,1.757143 0.587645,1.855729 0.388553,0.09666 2.049037,0.48713 2.049037,0.193318 0,-0.291893 -0.291895,-2.437572 -0.291895,-2.437572 l -0.390469,-0.39436 -1.954312,0.782885"
       style="fill:#5c483b;fill-opacity:1;fill-rule:nonzero;stroke:none;stroke-width:0.193306"
       id="path1554" />
    <path
       d="m 135.84706,70.877255 c 0,0 -0.68429,2.050966 -0.10044,2.147619 0.58764,0.09666 1.66242,0.684297 2.0529,0.392388 0.39238,-0.295784 0.48905,-1.366667 0.48905,-1.660497 0,-0.295729 -0.39048,-1.368594 -0.78289,-1.270013 -0.38856,0.09858 -1.65856,0.39047 -1.65856,0.39047"
       style="fill:#5c483b;fill-opacity:1;fill-rule:nonzero;stroke:none;stroke-width:0.193306"
       id="path1556" />
    <path
       d="m 159.37616,42.370552 -0.39047,0.976192 c 0,0 0.58185,0.78095 0.87568,0.489047 0.29189,-0.289976 0.48519,-0.684299 0.48519,-0.684299 l -0.1933,-0.780958 h -0.77709"
       style="fill:#5c483b;fill-opacity:1;fill-rule:nonzero;stroke:none;stroke-width:0.193306"
       id="path1558" />
    <path
       d="m 154.29803,44.520104 -0.8776,0.974258 c 0,0 0.8776,0.394361 1.16756,0.293812 0.29381,-0.09857 0.9762,-0.68237 0.9762,-0.68237 l 0.0966,-1.074774 -1.36281,0.489047"
       style="fill:#5c483b;fill-opacity:1;fill-rule:nonzero;stroke:none;stroke-width:0.193306"
       id="path1560" />
    <path
       d="m 156.73948,46.764376 c 0,0 -0.9762,0.195236 -0.87762,0.487129 0.0927,0.293811 0.19333,0.392388 0.68043,0.392388 0.48905,0 0.78096,-0.392388 0.78096,-0.392388 l -0.58377,-0.487129"
       style="fill:#5c483b;fill-opacity:1;fill-rule:nonzero;stroke:none;stroke-width:0.193306"
       id="path1562" />
    <path
       d="m 152.54282,48.716759 0.28998,0.682364 0.68623,-0.289976 v -1.076706 l -0.9762,0.684297"
       style="fill:#5c483b;fill-opacity:1;fill-rule:nonzero;stroke:none;stroke-width:0.193306"
       id="path1564" />
    <path
       d="m 147.07615,52.329633 c 0,0 -0.10044,1.658555 0.38856,1.561902 0.49096,-0.09666 1.27194,-0.78095 1.36667,-1.074773 0.0985,-0.293812 0.19331,-1.270013 0.19331,-1.270013 l -1.94852,0.782884"
       style="fill:#5c483b;fill-opacity:1;fill-rule:nonzero;stroke:none;stroke-width:0.193306"
       id="path1566" />
    <path
       d="m 148.44089,55.646745 c 0,0 0.29578,0.877604 0.77902,0.976191 0.48713,0.09666 0.77901,-0.779017 0.77901,-0.779017 l -0.38855,-1.563842 -1.16949,1.366668"
       style="fill:#5c483b;fill-opacity:1;fill-rule:nonzero;stroke:none;stroke-width:0.193306"
       id="path1568" />
    <path
       d="m 146.87512,47.837221 0.39436,1.074775 1.07284,-0.489047 -0.38663,-1.366668 -1.08058,0.780951"
       style="fill:#5c483b;fill-opacity:1;fill-rule:nonzero;stroke:none;stroke-width:0.193306"
       id="path1570" />
    <path
       d="m 142.09468,44.810063 -1.46331,1.857661 1.17143,1.46332 c 0,0 1.07284,-0.682364 1.17142,-1.074773 0.0947,-0.388554 0.0947,-2.14762 0.0947,-2.14762 l -0.97426,-0.09857"
       style="fill:#5c483b;fill-opacity:1;fill-rule:nonzero;stroke:none;stroke-width:0.193306"
       id="path1572" />
    <path
       d="m 138.97087,50.473903 c 0,0 -0.77902,1.461387 0,1.461387 0.77903,0 1.75715,-0.09474 1.75715,-0.485213 0,-0.390468 -0.29574,-1.952383 -0.29574,-1.952383 l -1.46138,0.976191"
       style="fill:#5c483b;fill-opacity:1;fill-rule:nonzero;stroke:none;stroke-width:0.193306"
       id="path1574" />
    <path
       d="m 134.96559,46.080078 c 0,0 -0.77902,1.368602 -0.19331,1.368602 0.58571,0 1.27193,-0.295784 1.27193,-0.295784 l 0.28999,-1.264217 -0.48714,-0.491019 -0.88147,0.682369"
       style="fill:#5c483b;fill-opacity:1;fill-rule:nonzero;stroke:none;stroke-width:0.193306"
       id="path1576" />
    <path
       d="m 142.09468,65.215344 c 0,0 0.19523,1.658561 0.58378,1.658561 0.39048,0 1.56577,-0.388552 1.66436,-0.777087 0.0908,-0.392388 0.57991,-1.565771 0.18943,-1.761006 -0.38855,-0.193319 -1.26615,-0.487129 -1.26615,-0.487129 l -1.17143,1.366661"
       style="fill:#5c483b;fill-opacity:1;fill-rule:nonzero;stroke:none;stroke-width:0.193306"
       id="path1578" />
    <path
       d="m 140.1423,59.16103 c 0.0966,0.390471 1.17143,0.684304 1.17143,0.684304 l 0.48905,-1.072845 -0.58766,-1.465254 c 0,0 -1.07283,-0.684299 -1.26807,-0.09858 -0.19715,0.587646 0.19524,1.952378 0.19524,1.952378"
       style="fill:#5c483b;fill-opacity:1;fill-rule:nonzero;stroke:none;stroke-width:0.193306"
       id="path1580" />
    <path
       d="m 144.24423,51.84057 c 0,0 -1.17529,0.682365 -1.27001,1.074773 -0.0985,0.388554 0.8776,1.364734 0.8776,1.364734 0,0 0.49102,0 0.78096,-0.291893 0.29189,-0.293812 0.77902,-1.561907 0.77902,-1.561907 l -1.16757,-0.585711"
       style="fill:#5c483b;fill-opacity:1;fill-rule:nonzero;stroke:none;stroke-width:0.193306"
       id="path1582" />
    <path
       d="m 135.25749,94.112525 c 0,0 -0.19333,1.465249 0.10043,1.465249 0.29189,0 0.8776,-0.193318 0.8776,-0.193318 l 0.78483,-1.078643 -0.58766,-0.974257 -1.17529,0.780952"
       style="fill:#5c483b;fill-opacity:1;fill-rule:nonzero;stroke:none;stroke-width:0.193306"
       id="path1584" />
    <path
       d="m 127.93895,92.64727 0.78289,1.169498 c 0,0 0.8776,-0.291895 0.97039,-0.583783 0.10055,-0.291894 -0.19135,-2.052899 -0.19135,-2.052899 0,0 -0.77902,-0.288004 -1.0709,-0.193318 -0.29573,0.09666 -0.49103,1.660491 -0.49103,1.660491"
       style="fill:#5c483b;fill-opacity:1;fill-rule:nonzero;stroke:none;stroke-width:0.193306"
       id="path1586" />
    <path
       d="m 134.57704,104.85255 -1.17142,1.27001 c 0,0 1.27195,1.55998 1.75715,1.46139 0.48712,-0.0985 0.97618,-0.48521 0.97618,-0.88147 0,-0.38855 -0.19331,-1.75328 -0.19331,-1.75328 l -1.36861,-0.0966"
       style="fill:#5c483b;fill-opacity:1;fill-rule:nonzero;stroke:none;stroke-width:0.193306"
       id="path1588" />
    <path
       d="m 128.81656,104.65344 c 0,0 -0.68236,0.88148 -0.48905,1.27196 0.19523,0.38854 0.88147,0.68429 1.07671,0.38854 0.19523,-0.28997 0,-1.55803 0,-1.55803 l -0.58765,-0.10245"
       style="fill:#5c483b;fill-opacity:1;fill-rule:nonzero;stroke:none;stroke-width:0.193306"
       id="path1590" />
    <path
       d="m 106.36417,100.94779 c 0,0 -0.87761,1.75521 -0.29189,1.75521 0.58571,0 1.17336,0.0966 1.46138,-0.1914 0.2919,-0.29962 0.6843,-1.27195 0.58571,-1.56383 -0.0947,-0.29382 -0.39047,-0.87761 -0.39047,-0.87761 l -1.36473,0.87761"
       style="fill:#5c483b;fill-opacity:1;fill-rule:nonzero;stroke:none;stroke-width:0.193306"
       id="path1592" />
    <path
       d="m 104.31514,90.20969 c 0,0 -1.07478,1.461388 -0.78288,1.755215 0.29189,0.291894 2.54003,0.489046 2.54003,0.489046 l 0.58571,-1.757142 -0.58571,-1.368596 -1.75715,0.881467"
       style="fill:#5c483b;fill-opacity:1;fill-rule:nonzero;stroke:none;stroke-width:0.193306"
       id="path1594" />
    <path
       d="m 137.79944,105.43827 c 0,0 0.19524,1.85379 0.58959,1.66049 0.38854,-0.19913 0.97038,-0.58572 0.97038,-0.88148 0,-0.29189 -0.77901,-1.66242 -0.77901,-1.66242 l -0.78096,0.88341"
       style="fill:#5c483b;fill-opacity:1;fill-rule:nonzero;stroke:none;stroke-width:0.193306"
       id="path1596" />
    <path
       d="m 137.40897,110.80635 c 0,0 0.68043,1.27002 0.87953,0.78096 0.19332,-0.48906 0.58572,-1.07478 0.58572,-1.07478 l -0.68237,-1.07092 -0.78288,1.36474"
       style="fill:#5c483b;fill-opacity:1;fill-rule:nonzero;stroke:none;stroke-width:0.193306"
       id="path1598" />
    <path
       d="m 132.23612,113.93016 c 0,0 -1.56384,0.58378 -1.56384,0.97812 0,0.39047 0.0985,1.26615 0.58378,1.26615 0.49102,0 1.27196,-0.48521 1.27196,-0.48521 l -0.2919,-1.75908"
       style="fill:#5c483b;fill-opacity:1;fill-rule:nonzero;stroke:none;stroke-width:0.193306"
       id="path1600" />
    <path
       d="m 130.57563,110.22257 c 0,0 -0.29572,1.16949 0.0966,1.16949 0.39048,0 0.68431,0.29189 0.87954,0 0.19524,-0.29381 0.48522,-0.97812 0.48522,-0.97812 l -0.58381,-0.87567 -0.87761,0.6843"
       style="fill:#5c483b;fill-opacity:1;fill-rule:nonzero;stroke:none;stroke-width:0.193306"
       id="path1602" />
    <path
       d="m 136.3342,121.93685 -0.9762,1.45947 1.17336,0.49095 0.68237,-0.77901 -0.0966,-1.07284 -0.78288,-0.0985"
       style="fill:#5c483b;fill-opacity:1;fill-rule:nonzero;stroke:none;stroke-width:0.193306"
       id="path1604" />
    <path
       d="m 135.55517,118.02823 0.39047,1.07865 0.68044,-0.29382 0.39436,-1.17143 -0.78483,-0.68622 -0.68042,1.07284"
       style="fill:#5c483b;fill-opacity:1;fill-rule:nonzero;stroke:none;stroke-width:0.193306"
       id="path1606" />
    <path
       d="m 132.33472,128.86684 c 0,0 -1.27196,0.97619 -1.27196,1.26809 0,0.29188 0.29382,0.87759 1.07091,0.78095 0.78482,-0.0947 1.85959,-0.48905 1.85959,-0.78095 0,-0.2919 -0.77901,-1.36474 -0.77901,-1.36474 l -0.87953,0.0966"
       style="fill:#5c483b;fill-opacity:1;fill-rule:nonzero;stroke:none;stroke-width:0.193306"
       id="path1608" />
    <path
       d="m 131.9423,66.583947 c 0,0 -2.05096,2.340925 -1.56383,2.437578 0.48904,0.09666 1.36859,0.784819 1.7552,0.684299 0.39436,-0.09858 2.0529,-1.853798 2.0529,-1.853798 l -0.97232,-1.561902 -1.27195,0.293812"
       style="fill:#5c483b;fill-opacity:1;fill-rule:nonzero;stroke:none;stroke-width:0.193306"
       id="path1610" />
    <path
       d="m 117.78657,74.683429 c 0,0 0.19523,2.344794 0.68237,2.147619 0.48905,-0.1914 0.97619,-0.291894 1.07284,-0.779017 0.10044,-0.491019 0.88147,-1.853796 0.19523,-1.952384 -0.68237,-0.09857 -1.95044,0.583782 -1.95044,0.583782"
       style="fill:#5c483b;fill-opacity:1;fill-rule:nonzero;stroke:none;stroke-width:0.193306"
       id="path1612" />
    <path
       d="m 126.47371,61.310583 c 0,0 0.0966,2.050971 0.48713,1.952385 0.39238,-0.09666 1.56189,-0.585717 1.56189,-0.585717 0,0 0.48713,-1.561902 0.19913,-1.658557 -0.29771,-0.09857 -1.46333,-0.978126 -1.46333,-0.978126 l -0.7848,1.270015"
       style="fill:#5c483b;fill-opacity:1;fill-rule:nonzero;stroke:none;stroke-width:0.193306"
       id="path1614" />
    <path
       d="m 134.18657,62.482015 c 0,0 -0.28998,1.270015 0,1.366668 0.28998,0.09666 1.55997,0.195235 1.55997,0.195235 l 0.29771,-1.85573 -0.78675,-0.877605 -1.07091,1.171432"
       style="fill:#5c483b;fill-opacity:1;fill-rule:nonzero;stroke:none;stroke-width:0.193306"
       id="path1616" />
    <path
       d="m 132.03702,59.746746 0.0966,0.881474 0.98199,-0.295784 0.19332,-1.171434 -0.58765,-0.48521 -0.6843,1.070911"
       style="fill:#5c483b;fill-opacity:1;fill-rule:nonzero;stroke:none;stroke-width:0.193306"
       id="path1618" />
    <path
       d="m 135.94565,57.208652 0.87954,1.467184 c 0,0 1.26421,-0.09666 1.26421,-0.489046 0,-0.390471 -0.1914,-2.049032 -0.1914,-2.049032 l -1.27194,-0.684299 -0.68044,1.75521"
       style="fill:#5c483b;fill-opacity:1;fill-rule:nonzero;stroke:none;stroke-width:0.193306"
       id="path1620" />
    <path
       d="m 126.67087,56.137741 0.68236,0.972325 c 0,0 0.88148,-0.09474 0.88148,-0.39047 0,-0.289978 -0.48905,-2.143757 -0.48905,-2.143757 l -1.27194,-0.199125 0.19715,1.761011"
       style="fill:#5c483b;fill-opacity:1;fill-rule:nonzero;stroke:none;stroke-width:0.193306"
       id="path1622" />
    <path
       d="m 130.47512,54.086777 c 0,0 -0.48521,1.270014 -0.0966,1.270014 0.39239,0 1.46718,0.195234 1.46718,0.195234 l 0.1914,-0.784818 -0.1914,-1.07284 -1.37053,0.392387"
       style="fill:#5c483b;fill-opacity:1;fill-rule:nonzero;stroke:none;stroke-width:0.193306"
       id="path1624" />
    <path
       d="m 123.34603,57.50054 c 0,0 0,0.877606 0.20103,1.175296 0.19333,0.291894 0.58573,1.266151 1.07091,0.68237 0.48905,-0.585717 0.7829,-1.658561 0.88148,-1.952383 0.0966,-0.295784 -0.97813,-1.660491 -0.97813,-1.660491 l -1.17529,1.755208"
       style="fill:#5c483b;fill-opacity:1;fill-rule:nonzero;stroke:none;stroke-width:0.193306"
       id="path1626" />
    <path
       d="m 143.46522,73.024874 0.96845,0.877605 c 0,0 1.66242,-0.388553 1.37054,-0.877605 -0.29382,-0.487129 -2.14762,-2.244273 -2.14762,-2.244273 l -0.1914,2.244273"
       style="fill:#5c483b;fill-opacity:1;fill-rule:nonzero;stroke:none;stroke-width:0.193306"
       id="path1628" />
    <path
       d="m 146.9737,67.558204 -0.0985,0.780952 1.08057,0.09857 0.19141,-0.976192 -0.2919,-0.489046 -0.88148,0.585716"
       style="fill:#5c483b;fill-opacity:1;fill-rule:nonzero;stroke:none;stroke-width:0.193306"
       id="path1630" />
    <path
       d="m 147.36612,61.50389 c 0,0 -0.68237,0.881472 -0.28999,0.978125 0.38664,0.09666 0.87955,0.09666 0.87955,0.09666 l 0.38663,-1.658557 -0.19524,-0.291893 -0.78095,0.87567"
       style="fill:#5c483b;fill-opacity:1;fill-rule:nonzero;stroke:none;stroke-width:0.193306"
       id="path1632" />
    <path
       d="m 130.18322,47.742501 0.2919,1.461388 0.78094,-0.48713 0.19716,-1.465254 -1.27002,0.49102"
       style="fill:#5c483b;fill-opacity:1;fill-rule:nonzero;stroke:none;stroke-width:0.193306"
       id="path1634" />
    <path
       d="m 133.597,49.986774 -0.67851,1.072845 1.16949,0.585711 0.58959,-1.171427 -0.20105,-1.171426 -0.87954,0.684297"
       style="fill:#5c483b;fill-opacity:1;fill-rule:nonzero;stroke:none;stroke-width:0.193306"
       id="path1636" />
    <path
       d="m 127.25852,49.691016 c 0,0 -1.07671,0.978122 -0.39437,1.173364 0.68431,0.195234 1.95625,0.682369 2.04904,0.291893 0.0966,-0.390471 0.0966,-1.757144 0.0966,-1.757144 l -1.75135,0.291895"
       style="fill:#5c483b;fill-opacity:1;fill-rule:nonzero;stroke:none;stroke-width:0.193306"
       id="path1638" />
    <path
       d="m 135.358,40.80865 c 0,0 -0.29382,1.171426 0,1.270014 0.29189,0.09858 1.56191,0.585715 1.75907,0 0.19332,-0.585716 0.68237,-1.66049 0.48905,-1.954313 -0.19715,-0.289976 -1.95625,-1.169498 -1.95625,-1.169498 l -0.29188,1.853797"
       style="fill:#5c483b;fill-opacity:1;fill-rule:nonzero;stroke:none;stroke-width:0.193306"
       id="path1640" />
    <path
       d="m 152.73419,34.36386 0.87954,0.784819 c 0,0 0.6843,-0.686238 0.58765,-0.978127 -0.0985,-0.29381 -1.17143,-1.074779 -1.17143,-1.074779 l -0.29579,1.268087"
       style="fill:#5c483b;fill-opacity:1;fill-rule:nonzero;stroke:none;stroke-width:0.193306"
       id="path1642" />
    <path
       d="m 150.39133,34.170552 c 0,0 0.0985,0.680436 0.38856,0.680436 0.2977,0 0.68429,-0.388552 0.68429,-0.388552 l -0.0966,-0.585711 -0.97619,0.293812"
       style="fill:#5c483b;fill-opacity:1;fill-rule:nonzero;stroke:none;stroke-width:0.193306"
       id="path1644" />
    <path
       d="m 151.66135,38.077248 c 0,0 0.78096,1.169492 0.97812,0.877605 0.19332,-0.293811 0.48905,-1.173361 0.48905,-1.173361 0,0 -0.29573,-0.58765 -0.58572,-0.58765 -0.29572,0 -0.88147,0.883406 -0.88147,0.883406"
       style="fill:#5c483b;fill-opacity:1;fill-rule:nonzero;stroke:none;stroke-width:0.193306"
       id="path1646" />
    <path
       d="m 145.02132,37.781492 c 0,0 -0.38855,1.465248 0,1.368602 0.39047,-0.09857 0.88147,-0.684304 0.88147,-0.684304 0,0 0.6843,-1.364733 0.28998,-1.364733 -0.38855,0 -1.17142,0.680435 -1.17142,0.680435"
       style="fill:#5c483b;fill-opacity:1;fill-rule:nonzero;stroke:none;stroke-width:0.193306"
       id="path1648" />
    <path
       d="m 142.09468,37.101057 c 0,0 -1.07284,0.68237 -0.29189,0.87567 0.77902,0.195235 1.75714,0.585717 1.85379,0.293812 0.0966,-0.293812 0.29381,-1.366668 0.29381,-1.366668 l -1.85573,0.197154"
       style="fill:#5c483b;fill-opacity:1;fill-rule:nonzero;stroke:none;stroke-width:0.193306"
       id="path1650" />
    <path
       d="m 142.28993,40.025763 0.10043,1.271949 1.07477,0.09666 0.38664,-1.857664 -1.56191,0.489047"
       style="fill:#5c483b;fill-opacity:1;fill-rule:nonzero;stroke:none;stroke-width:0.193306"
       id="path1652" />
    <path
       d="m 147.26946,42.958202 v 0.976192 c 0,0 1.07285,0 1.07285,-0.297701 0,-0.289976 0,-1.459454 0,-1.459454 l -1.07285,0.780952"
       style="fill:#5c483b;fill-opacity:1;fill-rule:nonzero;stroke:none;stroke-width:0.193306"
       id="path1654" />
    <path
       d="m 138.19185,33.190498 c 0,0 0,1.469119 0.38856,1.469119 0.39046,0 1.26614,0 1.26614,-0.587652 0,-0.583782 -0.19331,-2.340924 -0.48713,-2.340924 -0.2938,0 -1.46138,0.09858 -1.46138,0.585716 0,0.487128 0.29381,0.873741 0.29381,0.873741"
       style="fill:#5c483b;fill-opacity:1;fill-rule:nonzero;stroke:none;stroke-width:0.193306"
       id="path1656" />
    <path
       d="m 135.16277,35.927696 c 0,0 -0.9762,0.09858 -0.9762,0.39047 0,0.293811 0.58572,0.976191 0.58572,0.976191 l 0.8776,-0.390469 0.19716,-0.976192 h -0.68431"
       style="fill:#5c483b;fill-opacity:1;fill-rule:nonzero;stroke:none;stroke-width:0.193306"
       id="path1658" />
    <path
       d="m 131.84565,40.80865 c 0,0 -1.66243,0.879538 -1.66243,1.171426 0,0.293812 0.58766,1.171433 1.07284,1.26808 0.49102,0.09857 1.66243,0.09857 1.66243,0.09857 l 0.29573,-1.853795 -1.3686,-0.684299"
       style="fill:#5c483b;fill-opacity:1;fill-rule:nonzero;stroke:none;stroke-width:0.193306"
       id="path1660" />
    <path
       d="m 29.913951,103.30805 -0.773219,0.56445 c 0,0 0.006,0.85247 0.210686,1.10763 l 0.23003,-0.47167 0.332498,-1.20042"
       style="fill:#5c483b;fill-opacity:1;fill-rule:nonzero;stroke:none;stroke-width:0.193306"
       id="path1662" />
    <path
       d="m 30.899809,96.06877 c 0,0 -0.87954,1.169493 -0.39047,1.658556 0.27255,0.268716 0.481319,0.651437 0.699767,0.916269 l 0.753888,-2.731402 -1.063174,0.156613"
       style="fill:#5c483b;fill-opacity:1;fill-rule:nonzero;stroke:none;stroke-width:0.193306"
       id="path1664" />
    <path
       d="m 24.455012,104.65344 c 0,0 0.589587,-0.58378 0.877611,-0.68236 0.295729,-0.0985 0,-1.36666 0,-1.36666 l -0.910471,-0.90854 -0.866003,2.85318 c 0.301537,0.16434 0.898863,0.10445 0.898863,0.10445"
       style="fill:#5c483b;fill-opacity:1;fill-rule:nonzero;stroke:none;stroke-width:0.193306"
       id="path1666" />
    <path
       d="m 9.1259199,111.10598 -0.6301715,-0.1508 -2.116692,-1.81901 c -0.1836184,0.0947 -0.318963,0.16817 -0.3750178,0.20297 -0.289976,0.19912 -0.6823638,0.98006 -0.6823638,1.37053 0,0.38856 1.8576588,1.07285 2.2500688,1.36475 0.2938121,0.22613 1.1636949,-0.57993 1.554171,-0.96848"
       style="fill:#5c483b;fill-opacity:1;fill-rule:nonzero;stroke:none;stroke-width:0.193306"
       id="path1668" />
    <path
       d="m 4.3957467,107.43898 -0.025215,-0.40982 c -0.2493743,0.11019 -0.4542527,0.26099 -0.4175387,0.45623 0.098571,0.48905 0.5857157,0.88146 0.5857157,0.88146 l 0.8544097,-0.0696 -0.9974591,-0.85827"
       style="fill:#5c483b;fill-opacity:1;fill-rule:nonzero;stroke:none;stroke-width:0.193306"
       id="path1670" />
    <path
       d="m 15.475997,111.97779 -0.32088,-0.18753 -1.242951,0.47749 -0.144994,-0.0345 -0.245482,0.42917 c 0,0 -0.291893,0.87951 0.09666,0.97618 0.392387,0.0985 1.076708,0 1.076708,0 l 0.780958,-1.66049"
       style="fill:#5c483b;fill-opacity:1;fill-rule:nonzero;stroke:none;stroke-width:0.193306"
       id="path1672" />
    <path
       d="m 67.966055,62.37763 -2.696605,0.06767 -0.216496,0.318963 0.311236,1.527113 1.905988,-0.0077 0.695899,-1.905988"
       style="fill:#d9792f;fill-opacity:1;fill-rule:nonzero;stroke:none;stroke-width:0.193306"
       id="path1674" />
    <path
       d="m 64.221732,62.472349 -0.07924,0.560583 0.276441,1.020652 0.94526,0.237756 0.357593,-1.281614 0.247455,-0.579914 -1.747478,0.04274"
       style="fill:#4a3b33;fill-opacity:1;fill-rule:nonzero;stroke:none;stroke-width:0.193306"
       id="path1676" />
    <path
       d="m 62.30028,64.157969 0.898871,-0.179784 -0.249372,-1.23329 -0.388552,-0.361483 -1.159832,-0.08702 -0.342142,0.719094 0.554785,0.929796 0.686233,0.21266"
       style="fill:#4a3b33;fill-opacity:1;fill-rule:nonzero;stroke:none;stroke-width:0.193306"
       id="path1678" />
    <path
       d="m 68.157426,63.630248 c 0,0 -0.864075,-0.315072 -0.931731,-0.123729 -0.0715,0.189429 -0.494855,0.904669 -0.547073,1.049646 l -0.324771,0.74809 0.76742,0.119833 c 0,0 0.827348,-0.620507 0.91627,-0.860207 0.08311,-0.239674 0.119831,-0.933661 0.119831,-0.933661"
       style="fill:#4a3b33;fill-opacity:1;fill-rule:nonzero;stroke:none;stroke-width:0.193306"
       id="path1680" />
    <path
       d="m 58.588826,62.605727 -0.74036,1.32801 0.502582,1.558038 1.032247,0.313155 0.450417,-0.842809 0.494854,-1.654692 -0.790618,-1.152102 -0.255179,-0.02136 -0.693965,0.471678"
       style="fill:#4a3b33;fill-opacity:1;fill-rule:nonzero;stroke:none;stroke-width:0.193306"
       id="path1682" />
    <path
       d="m 76.840691,66.421572 1.838326,-0.125651 0.825419,-2.4743 -0.0657,-1.521317 -0.291894,-0.202961 -3.104478,0.07732 -0.726831,1.136634 0.189429,1.967845 1.33574,1.142435"
       style="fill:#d9792f;fill-opacity:1;fill-rule:nonzero;stroke:none;stroke-width:0.193306"
       id="path1684" />
    <path
       d="m 78.423861,63.121853 0.634039,0.50839 1.018719,0.191399 0.251288,-1.399533 -0.168163,-0.346031 -1.892455,0.04658 0.156613,0.999386"
       style="fill:#4a3b33;fill-opacity:1;fill-rule:nonzero;stroke:none;stroke-width:0.193306"
       id="path1686" />
    <path
       d="m 77.16351,62.147596 -2.721735,0.0696 -0.07732,1.157897 0.951063,0.763555 0.823479,-0.697834 1.024521,-1.293208"
       style="fill:#4a3b33;fill-opacity:1;fill-rule:nonzero;stroke:none;stroke-width:0.193306"
       id="path1688" />
    <path
       d="m 76.206652,64.896394 h -1.148233 l -0.947195,0.701695 -0.129529,1.074779 1.461385,-0.05995 0.827347,-0.574118 -0.06378,-1.142434"
       style="fill:#4a3b33;fill-opacity:1;fill-rule:nonzero;stroke:none;stroke-width:0.193306"
       id="path1690" />
    <path
       d="m 78.742811,65.279137 -0.952993,0.699768 -0.127555,1.393725 1.144369,0.193315 c 0,0 1.078642,-0.193315 1.078642,-0.380824 0,-0.191401 -0.446524,-1.650825 -0.446524,-1.650825 l -0.695899,-0.255181"
       style="fill:#4a3b33;fill-opacity:1;fill-rule:nonzero;stroke:none;stroke-width:0.193306"
       id="path1692" />
    <path
       d="m 93.89793,65.284935 1.664358,-0.802211 -0.152717,-2.599958 -0.14307,-0.322799 -3.688262,0.127572 -0.241646,1.275812 0.900799,1.755213 1.660489,0.56638"
       style="fill:#d9792f;fill-opacity:1;fill-rule:nonzero;stroke:none;stroke-width:0.193306"
       id="path1694" />
    <path
       d="m 94.151159,61.631469 0.773221,0.235839 1.018718,-0.197153 -0.03069,-0.133374 -1.782277,0.06187 0.02136,0.03289"
       style="fill:#4a3b33;fill-opacity:1;fill-rule:nonzero;stroke:none;stroke-width:0.193306"
       id="path1696" />
    <path
       d="m 92.477134,61.658532 -2.528428,0.08697 0.521925,1.627629 1.167563,0.355675 0.508389,-0.954924 0.330579,-1.115373"
       style="fill:#4a3b33;fill-opacity:1;fill-rule:nonzero;stroke:none;stroke-width:0.193306"
       id="path1698" />
    <path
       d="m 92.745834,64.105777 -1.065113,0.423347 -0.620511,1.001319 0.284166,1.049652 1.328005,-0.599251 0.556719,-0.838941 -0.483239,-1.036116"
       style="fill:#4a3b33;fill-opacity:1;fill-rule:nonzero;stroke:none;stroke-width:0.193306"
       id="path1700" />
    <path
       d="m 95.24333,63.518132 -0.624374,1.001315 0.402087,1.343472 1.1289,-0.247455 c 0,0 0.931736,-0.576044 0.860205,-0.755821 l -1.024513,-1.3628 -0.742294,0.02137"
       style="fill:#4a3b33;fill-opacity:1;fill-rule:nonzero;stroke:none;stroke-width:0.193306"
       id="path1702" />
    <path
       d="m 98.260823,61.455565 0.116011,0.564452 2.149546,-0.0098 0.48324,-1.324142 -2.748797,0.769358"
       style="fill:#d9792f;fill-opacity:1;fill-rule:nonzero;stroke:none;stroke-width:0.193306"
       id="path1704" />
    <path
       d="m 98.258892,61.455565 -1.018716,0.03451 0.07343,0.262906 1.063185,0.266743 0.183618,-0.64564 -0.301538,0.08119"
       style="fill:#4a3b33;fill-opacity:1;fill-rule:nonzero;stroke:none;stroke-width:0.193306"
       id="path1706" />
    <path
       d="m 101.52575,61.275788 c 0,0 -0.9704,-0.355675 -1.04772,-0.141098 -0.0831,0.216497 -0.558647,1.024522 -0.620504,1.183028 l -0.369208,0.846677 0.871802,0.131452 c 0,0 0.93173,-0.699767 1.02838,-0.970391 0.10055,-0.264824 0.13727,-1.049649 0.13727,-1.049649"
       style="fill:#4a3b33;fill-opacity:1;fill-rule:nonzero;stroke:none;stroke-width:0.193306"
       id="path1708" />
    <path
       d="m 109.07431,62.880224 0.50839,-0.954927 0.55285,-1.857664 -0.8602,-1.26808 -0.48521,0.05995 -0.60891,0.417539 -0.83508,1.492313 0.56058,1.757143 1.16757,0.353758"
       style="fill:#4a3b33;fill-opacity:1;fill-rule:nonzero;stroke:none;stroke-width:0.193306"
       id="path1710" />
    <path
       d="m 116.49142,57.958678 -1.02644,1.494246 0.34986,1.720414 2.14762,-0.0098 0.80995,-2.215275 -0.56445,-1.308677 -0.0367,0.0039 -0.288,0.152717 -1.39179,0.162362"
       style="fill:#d9792f;fill-opacity:1;fill-rule:nonzero;stroke:none;stroke-width:0.193306"
       id="path1712" />
    <path
       d="m 117.68411,57.815629 0.53158,0.806081 0.88727,-0.407896 -0.1469,-0.985852 -1.07285,0.568314 -0.19913,0.01917"
       style="fill:#4a3b33;fill-opacity:1;fill-rule:nonzero;stroke:none;stroke-width:0.193306"
       id="path1714" />
    <path
       d="m 115.81485,61.173338 0.40593,-1.443989 0.48905,-1.171427 -0.27836,-0.591514 -1.77454,0.206852 -0.22039,1.577371 0.31316,1.155965 1.06511,0.266742"
       style="fill:#4a3b33;fill-opacity:1;fill-rule:nonzero;stroke:none;stroke-width:0.193306"
       id="path1716" />
    <path
       d="m 118.96186,60.427181 c 0,0 -0.96845,-0.355675 -1.04771,-0.139175 -0.0773,0.216495 -0.55865,1.020646 -0.61664,1.184961 l -0.3731,0.842809 0.86987,0.133374 c 0,0 0.93366,-0.69976 1.03225,-0.970389 0.0966,-0.270631 0.1353,-1.051578 0.1353,-1.051578"
       style="fill:#4a3b33;fill-opacity:1;fill-rule:nonzero;stroke:none;stroke-width:0.193306"
       id="path1718" />
  </g>
</svg>
