<?xml version="1.0" encoding="UTF-8" standalone="no"?>
<!-- Created with Inkscape (http://www.inkscape.org/) -->

<svg
   width="640"
   height="640"
   viewBox="0 0 169.33333 169.33333"
   version="1.1"
   id="svg1764"
   inkscape:version="1.2.2 (732a01da63, 2022-12-09)"
   sodipodi:docname="pig.svg"
   xmlns:inkscape="http://www.inkscape.org/namespaces/inkscape"
   xmlns:sodipodi="http://sodipodi.sourceforge.net/DTD/sodipodi-0.dtd"
   xmlns="http://www.w3.org/2000/svg"
   xmlns:svg="http://www.w3.org/2000/svg">
  <sodipodi:namedview
     id="namedview1766"
     pagecolor="#ffffff"
     bordercolor="#000000"
     borderopacity="0.25"
     inkscape:showpageshadow="2"
     inkscape:pageopacity="0.0"
     inkscape:pagecheckerboard="0"
     inkscape:deskcolor="#d1d1d1"
     inkscape:document-units="mm"
     showgrid="false"
     inkscape:zoom="1.1383321"
     inkscape:cx="338.65338"
     inkscape:cy="302.63577"
     inkscape:window-width="1920"
     inkscape:window-height="1051"
     inkscape:window-x="-9"
     inkscape:window-y="-9"
     inkscape:window-maximized="1"
     inkscape:current-layer="layer1" />
  <defs
     id="defs1761" />
  <g
     inkscape:label="Layer 1"
     inkscape:groupmode="layer"
     id="layer1">
    <path
       d="m 21.244408,84.354494 1.125576,8.498695 3.12377,5.750888 3.246768,13.745983 2.125837,3.87105 0.127631,3.99871 3.49509,2.0005 4.998955,-0.24834 -6.997154,-16.24778 -4.750634,-17.744669 -6.495858,-3.625058"
       style="fill:#cd4a59;fill-opacity:1;fill-rule:nonzero;stroke:none;stroke-width:0.232077"
       id="path2144" />
    <path
       d="m 97.725674,97.350856 2.875446,4.502314 1.12325,1.37389 1.99819,19.24623 1.50155,1.87055 4.74831,0.50129 h 4.12402 l -0.12302,-1.62223 -4.25166,-3.24678 0.12532,-3.62969 1.87751,-13.74598 -6.25217,-12.246742 -7.746762,6.997148"
       style="fill:#cd4a59;fill-opacity:1;fill-rule:nonzero;stroke:none;stroke-width:0.232077"
       id="path2146" />
    <path
       d="m 141.58839,56.361267 4.87595,-2.750125 3.49742,-3.871057 11.24649,-2.376482 -0.12302,2.624804 -4.37234,3.123768 -7.12479,12.622713 -7.99973,-9.373621"
       style="fill:#cd4a59;fill-opacity:1;fill-rule:nonzero;stroke:none;stroke-width:0.232077"
       id="path2148" />
    <path
       d="m 133.84395,46.739315 5.99689,6.124532 5.62557,4.873639 8.1204,6.372859 1.62455,4.748311 0.87493,5.1266 5.2496,5.493282 4.24935,3.755024 2.37183,3.121445 1.37623,0.498986 -0.37366,1.501542 -6.12686,9.870273 -0.99561,-0.874933 -0.37597,-0.870293 -6.37517,0.622004 -3.99639,1.501542 -6.5005,1.250899 -8.99998,-2.877762 -8.12272,-2.998447 -2.12352,1.624542 -1.37157,3.374413 0.49898,2.750127 -1.37622,8.61937 1.24858,8.74934 c 0,0 1.12557,1.62687 1.12557,2.0005 0,0.37367 1.25091,4.377 1.25091,4.377 l 4.24702,4.74598 -0.87493,1.37159 -7.24779,-1.12326 -3.87338,-1.3739 0.62194,-2.24884 -2.12119,-4.12402 -1.00026,-3.62505 -3.62506,-9.8726 -2.49948,-2.6248 -3.62273,-5.99689 -2.24651,-4.99896 -10.127881,4.87132 -8.995339,3.8757 -10.123239,-0.12533 -4.873632,-1.87287 -10.872849,-3.374408 -6.498181,-2.998447 -3.123768,4.495355 -0.997933,2.49948 0.619636,6.24985 -1.496897,1.74987 -3.625056,4.87364 0.373664,3.49972 0.378268,5.62326 3.873378,4.49998 v 0.87494 l -9.747271,0.49899 0.248341,-1.87519 -1.49922,-2.00052 0.371295,-4.1217 -1.494575,-5.12427 -5.748572,-12.3744 -2.125837,-8.744691 -3.497411,-5.748572 -6.249855,-6.748825 -1.624547,-11.246493 -2.624797,-10.371559 5.374922,-9.498951 11.374136,-7.50075 21.367408,-7.746765 19.870511,0.498986 8.747011,-0.250643 11.996109,3.126082 h 25.995041 l 14.12425,5.623251"
       style="fill:#dd5f6a;fill-opacity:1;fill-rule:nonzero;stroke:none;stroke-width:0.232077"
       id="path2150" />
    <path
       d="m 141.71603,70.856848 -1.87519,1.501542 -3.12608,-3.627379 0.37596,-2.494836 6.62118,-7.250113 9.87491,-4.495345 1.62455,0.245975 -0.74961,3.253734 -1.3739,4.743666 -2.75013,6.375181 -3.62505,0.125325 -4.99664,1.622226"
       style="fill:#f7919b;fill-opacity:1;fill-rule:nonzero;stroke:none;stroke-width:0.232077"
       id="path2152" />
    <path
       d="m 10.745204,71.984747 -2.9984467,0.874931 -3.123762,-4.998953 0.3759661,-1.74755 2.7477959,-1.378542 2.4971587,2.248838 1.378542,2.624794 z m 5.500249,-7.874402 -2.873124,4.499989 -4.8759551,-6.874147 -7.74907955,3.750379 3.49973475,8.49869 3.0007623,1.499226 L 8.87234,75.730455 6.3705371,77.856292 2.8731245,78.608224 0,78.232258 l 1.9981926,2.624797 5.5002428,-1.499221 4.2470296,-4.126344 1.872863,-0.498987 4.003345,-7.373113 -1.37622,-3.249091"
       style="fill:#cd4a59;fill-opacity:1;fill-rule:nonzero;stroke:none;stroke-width:0.232077"
       id="path2154" />
    <path
       d="m 159.21238,92.978512 -3.7527,-0.250645 -2.37415,-0.498985 -1.00026,-1.127899 -0.99562,-0.87261 -0.50359,1.000254 0.74961,1.248583 2.12583,1.125576 h 1.74987 l 2.87313,0.250643 1.1279,1.31356 h -1.87752 l -4.12402,0.371296 -8.43371,-1.308922 -10.12091,-2.439141 -5.25425,-6.748819 -2.80582,-10.123239 -0.19032,7.688741 -1.31357,4.495344 0.19032,3.938362 -1.12557,4.126345 0.16939,2.928826 1.0165,-2.49252 2.12351,-1.624542 8.12272,2.998447 8.99999,2.877761 6.5005,-1.250898 3.99638,-1.501542 6.37518,-0.622006 0.37596,0.870295 0.99562,0.874931 0.99097,-1.589727 -2.23955,-2.657294 -2.37183,-1.000254"
       style="fill:#bc3b47;fill-opacity:1;fill-rule:nonzero;stroke:none;stroke-width:0.232077"
       id="path2156" />
    <path
       d="m 55.735823,84.667797 4.68565,-2.624794 3.560074,-5.43759 -1.872864,-8.060063 v -3.748056 l -0.747295,-0.375966 v 5.2496 l -1.315882,5.999215 -4.87131,5.999208 -1.501548,2.246516 2.063175,0.75193"
       style="fill:#cd4a59;fill-opacity:1;fill-rule:nonzero;stroke:none;stroke-width:0.232077"
       id="path2158" />
    <path
       d="m 166.14687,89.917403 -1.68721,1.872864 -1.6872,1.311243 0.37366,1.31356 1.03971,1.633831 4.77384,-7.693385 0.37366,-1.501542 -1.13486,-0.41307 -2.05157,3.476526"
       style="fill:#f7919b;fill-opacity:1;fill-rule:nonzero;stroke:none;stroke-width:0.232077"
       id="path2160" />
    <path
       d="m 154.52209,76.23177 -1.12094,0.935277 -1.87751,1.127898 -2.6248,-0.937599 -1.4969,-3.376729 0.37366,-2.248836 h 2.6248 2.62248 l 1.49922,1.689525 v 2.810464"
       style="fill:#cd4a59;fill-opacity:1;fill-rule:nonzero;stroke:none;stroke-width:0.232077"
       id="path2162" />
    <path
       d="m 151.89729,57.674825 -5.0593,2.436819 -3.5624,2.810458 -2.43681,5.249605 -1.09773,4.072967 0.0998,0.113744 1.8752,-1.501544 4.99663,-1.622226 2.42986,-0.08585 2.38112,-4.163475 1.31356,-4.873632 0.93759,-3.936046 -1.87751,1.499226"
       style="fill:#cd4a59;fill-opacity:1;fill-rule:nonzero;stroke:none;stroke-width:0.232077"
       id="path2164" />
    <path
       d="m 55.921484,83.915867 8.811995,2.624801 11.058515,1.68721 13.873612,-0.373664 10.870524,-2.812778 -0.937592,7.310451 c 0,0 -17.995318,5.811227 -18.556944,5.811227 -0.561615,0 -14.99455,-0.747288 -15.560821,-1.123254 C 64.919159,96.666196 55.36218,90.293357 55.36218,90.293357 l -1.503866,-3.752702 -0.185647,-2.624802 h 2.248838"
       style="fill:#cd4a59;fill-opacity:1;fill-rule:nonzero;stroke:none;stroke-width:0.232077"
       id="path2166" />
    <path
       d="m 103.72256,79.606183 -0.18795,5.623249 5.24961,7.872078 5.80891,7.50076 4.12866,9.18332 2.43449,6.74882 2.25348,9.55928 -2.06782,1.31589 -1.49921,-3.94069 -3.74806,-8.80735 -1.31124,-5.24728 -3.37442,-3.94068 -3.74573,-5.43294 -2.06317,-4.50231 -3.00077,-3.372097 -4.499989,-2.063169 1.123253,-6.748825 4.499986,-3.748056"
       style="fill:#cd4a59;fill-opacity:1;fill-rule:nonzero;stroke:none;stroke-width:0.232077"
       id="path2168" />
    <path
       d="m 40.764478,42.220756 -9.020865,3.267662 -11.374136,7.50075 -2.418256,4.272554 0.292419,8.097199 2.060853,11.436798 5.063937,10.306577 2.622481,5.811232 3.00077,6.375181 4.499988,7.872081 2.248838,8.99998 1.308913,6.93216 0.188017,3.94069 4.126344,-1.50154 -1.313558,-4.12402 0.185647,-10.49921 -0.371296,-9.18333 L 34.927766,94.039104 26.865381,77.91898 24.618867,63.112407 28.928551,49.800423 40.764523,42.220756"
       style="fill:#cd4a59;fill-opacity:1;fill-rule:nonzero;stroke:none;stroke-width:0.232077"
       id="path2170" />
    <path
       d="m 20.369477,52.989168 -5.374922,9.498951 2.624797,10.371559 1.624549,11.246494 6.249853,6.748824 3.497411,5.748572 2.125837,8.744692 5.748572,12.37439 1.494575,5.12428 -0.371295,4.1217 1.499219,2.00052 -0.24834,1.87517 0.308666,-0.0184 1.940171,-3.22587 2.624802,-1.87752 -0.749617,-0.75193 -2.998447,1.31356 -0.375966,-2.25117 -0.563981,-5.06161 -1.311237,-6.56085 0.74961,-3.56238 -0.937594,-2.81047 -3.186429,-3.93836 -1.501542,-2.810456 0.190317,-2.063175 -2.62248,-3.18643 -1.877515,-1.872871 -4.124023,-8.997655 -2.434496,-6.748826 -3.191069,-10.872847 1.19056,-12.557737"
       style="fill:#bc3b47;fill-opacity:1;fill-rule:nonzero;stroke:none;stroke-width:0.232077"
       id="path2172" />
    <path
       d="m 98.848928,82.043003 -1.499221,4.683326 -2.62248,3.00077 -6.187199,2.810463 -9.185637,1.127899 -10.872849,-1.31356 -7.498442,-3.37209 -4.68565,-2.063176 -2.624802,-0.937594 0.561614,3.186431 v 2.251152 l -1.018825,4.667084 6.268423,2.894012 10.872849,3.37441 4.873632,1.87287 10.123239,0.12533 8.995339,-3.8757 9.865631,-4.748313 -0.49202,-1.311243 -2.43449,-3.560074 -0.18795,-6.560842 2.62248,-4.687972 2.06317,-5.811232 -3.00077,5.063944 -3.936035,3.184108"
       style="fill:#bc3b47;fill-opacity:1;fill-rule:nonzero;stroke:none;stroke-width:0.232077"
       id="path2174" />
    <path
       d="m 122.84346,130.46837 2.29293,0.3574 -2.85456,-2.85454 3.56239,-1.68722 -0.37596,-0.93758 -4.12635,0.74728 -0.74729,-3.74805 -2.24883,-6.18489 -1.31356,-5.43757 -3.5624,-3.74806 -5.24496,-7.496119 -3.56239,-7.503073 -3.93837,-3.372091 1.20449,8.22716 2.54822,-1.227696 2.24651,4.998959 3.62273,5.99689 2.49949,2.6248 3.62505,9.87259 1.00026,3.62506 2.12119,4.12402 -0.62194,2.24885 3.87338,1.37389"
       style="fill:#bc3b47;fill-opacity:1;fill-rule:nonzero;stroke:none;stroke-width:0.232077"
       id="path2176" />
    <path
       d="m 153.96278,74.91821 -1.31356,-0.937593 h -3.18875 l -1.30892,-0.37136 0.93527,1.687208 h 2.62248 1.50155 l 0.75193,-0.378269"
       style="fill:#bc3b47;fill-opacity:1;fill-rule:nonzero;stroke:none;stroke-width:0.232077"
       id="path2178" />
    <path
       d="m 137.96333,50.944564 -4.11938,-4.205249 -14.12426,-5.623248 H 93.724651 l -11.996108,-3.126085 -8.747012,0.250643 -19.87051,-0.498985 -10.928549,3.961572 9.614989,-1.088447 10.311222,-0.751932 13.868972,-0.185648 7.688741,0.751933 10.306577,3.186429 h 10.125557 l 11.8058,-1.68721 c 0,0 5.99922,1.125583 6.56316,1.311244 0.56162,0.185647 9.37363,3.93604 9.37363,3.93604 l 5.43526,3.374413 0.68695,0.394517"
       style="fill:#f7919b;fill-opacity:1;fill-rule:nonzero;stroke:none;stroke-width:0.232077"
       id="path2180" />
  </g>
</svg>
