<?xml version="1.0" encoding="UTF-8" standalone="no"?>
<!-- Created with Inkscape (http://www.inkscape.org/) -->

<svg
   width="640"
   height="640"
   viewBox="0 0 169.33333 169.33333"
   version="1.1"
   id="svg1764"
   inkscape:version="1.2.2 (732a01da63, 2022-12-09)"
   sodipodi:docname="rabbit.svg"
   xmlns:inkscape="http://www.inkscape.org/namespaces/inkscape"
   xmlns:sodipodi="http://sodipodi.sourceforge.net/DTD/sodipodi-0.dtd"
   xmlns="http://www.w3.org/2000/svg"
   xmlns:svg="http://www.w3.org/2000/svg">
  <sodipodi:namedview
     id="namedview1766"
     pagecolor="#ffffff"
     bordercolor="#000000"
     borderopacity="0.25"
     inkscape:showpageshadow="2"
     inkscape:pageopacity="0.0"
     inkscape:pagecheckerboard="0"
     inkscape:deskcolor="#d1d1d1"
     inkscape:document-units="mm"
     showgrid="false"
     inkscape:zoom="1.1383321"
     inkscape:cx="338.65338"
     inkscape:cy="302.63577"
     inkscape:window-width="1920"
     inkscape:window-height="1051"
     inkscape:window-x="-9"
     inkscape:window-y="-9"
     inkscape:window-maximized="1"
     inkscape:current-layer="layer1" />
  <defs
     id="defs1761" />
  <g
     inkscape:label="Layer 1"
     inkscape:groupmode="layer"
     id="layer1">
    <path
       d="m 141.90969,53.778623 1.33514,-3.731421 -5.3275,-18.89265 L 136.32109,20.237628 142.97795,1.8630859 143.51201,0 h 2.13 l 7.45231,13.313813 0.26109,12.513114 -2.92544,23.696932 1.60142,14.104065 -8.787,-4.788584 -1.33514,-5.060717"
       style="fill:#794d39;fill-opacity:1;fill-rule:nonzero;stroke:none;stroke-width:0.523342"
       id="path12" />
    <path
       d="m 125.93207,146.698 10.1214,3.20286 8.24791,4.51124 1.33959,2.14046 -1.86846,1.59618 v 3.1924 h -8.2531 l -12.24086,-0.52859 -9.85452,-3.73143 -1.06218,-6.39 13.57037,-3.99312"
       style="fill:#623f32;fill-opacity:1;fill-rule:nonzero;stroke:none;stroke-width:0.523342"
       id="path14" />
    <path
       d="m 92.1189,15.972389 -5.055582,6.128338 3.726228,9.582392 12.780104,9.053825 18.90308,17.573829 1.33514,3.187143 -2.13,5.594536 -6.1231,7.452396 -6.9187,-0.790255 h -7.4575 L 65.762932,65.768392 41.535773,71.09078 15.178766,79.87246 2.9330067,113.15178 0.00178019,142.70491 11.983181,153.88875 l 4.789742,2.66381 -1.324755,5.32238 10.910618,1.06767 10.654717,1.85786 22.89202,4.53216 h 6.397399 l 0.528123,-2.66382 h 2.124653 v -5.58931 l 9.059076,-2.93071 9.84933,-3.73664 0.267029,1.86832 10.377897,3.46452 4.25999,3.99833 11.72283,1.59621 11.97413,2.39691 4.79375,-2.39691 -0.79516,-3.73143 -4.25998,-5.05548 -10.3831,-1.32936 13.04166,-6.39523 7.72452,-9.31551 7.99142,-11.71239 1.85792,-10.12144 3.99311,-2.6638 0.26703,-3.72621 h 10.1214 l 6.37959,-6.6569 2.13519,-7.18549 -4.52686,-9.05381 -9.05389,-21.833834 -6.91855,-8.781691 -13.04164,-9.32072 -11.18908,-14.114539 -16.501,-11.178582 -13.30853,-5.856193 -2.674286,-1.334546"
       style="fill:#9d5f46;fill-opacity:1;fill-rule:nonzero;stroke:none;stroke-width:0.523342"
       id="path16" />
    <path
       d="m 167.13999,97.781231 2.02007,-0.675135 0.17208,0.340164 -1.98343,6.71448 h -2.60619 l -0.80108,-2.19281 1.80036,-2.396897 1.39745,-1.78983"
       style="fill:#c48b65;fill-opacity:1;fill-rule:nonzero;stroke:none;stroke-width:0.523342"
       id="path18" />
    <path
       d="m 147.77111,103.17165 1.80022,3.98787 2.79474,1.80553 3.19232,-0.20413 1.99396,-0.79544 4.59496,-1.99919 2.59581,-1.80552 -1.79517,2.99875 -4.19724,2.19803 0.67499,1.93113 h -7.76636 l -1.69043,-1.32936 -3.59524,-3.60058 -0.80109,-5.98704 h 1.99915 l 0.19878,2.79988"
       style="fill:#794d39;fill-opacity:1;fill-rule:nonzero;stroke:none;stroke-width:0.523342"
       id="path20" />
    <path
       d="m 110.76027,149.36707 4.2548,-2.39692 16.7836,-15.71072 6.91856,-11.98977 5.58934,-3.98786 3.72623,-3.18717 2.93063,-2.40213 c 0,0 0.36643,0.64902 0.88416,1.59618 h -1.15118 l -0.26704,3.72621 -3.9931,2.6638 -1.85792,10.12144 -7.99142,11.71239 -7.72452,9.31551 -13.04165,6.39523 -6.38998,-2.92549 -2.93079,-1.59619 -2.66375,-2.67427 v -1.32402 l 1.86831,0.26688 5.05543,2.39692"
       style="fill:#794d39;fill-opacity:1;fill-rule:nonzero;stroke:none;stroke-width:0.523342"
       id="path22" />
    <path
       d="m 48.197381,142.70491 v -7.98619 l -1.862076,-7.9862 2.123763,3.73142 4.792265,8.2531 7.459132,3.45406 14.640556,1.07287 10.916849,-1.07287 h 3.19247 v 4.79905 l -1.596236,4.79383 -0.968718,3.02491 -8.881204,3.35985 -9.059078,2.93071 -0.790699,-2.39691 -5.590233,-3.45928 -9.585566,-1.06767 -9.58601,-0.80063 -8.784334,-0.80065 -1.330691,-1.59095 6.922259,-2.13523 7.98666,-6.12311"
       style="fill:#794d39;fill-opacity:1;fill-rule:nonzero;stroke:none;stroke-width:0.523342"
       id="path24" />
    <path
       d="m 0.0011868,142.70491 2.9312264,-29.55313 12.2457598,-33.27932 14.246391,-4.751944 -0.664602,1.554326 -5.862898,2.935944 -5.319348,4.924652 -7.5905693,25.157062 -2.130439,11.84846 0.5355396,10.65525 -2.9316715,8.37869 7.3168662,1.06768 6.929971,2.38642 5.85474,1.07287 v 2.66381 l -6.919737,5.5893 6.919737,3.46451 2.132515,2.93073 h 15.176987 l 13.048474,1.85786 6.92018,2.93594 0.234392,4.78859 H 59.903744 L 37.011722,164.80046 26.357006,162.9426 15.446388,161.87493 16.771144,156.55255 11.981401,153.88873 0,142.70491"
       style="fill:#794d39;fill-opacity:1;fill-rule:nonzero;stroke:none;stroke-width:0.523342"
       id="path26" />
    <path
       d="m 68.673094,166.66874 h -1.842049 l -0.528123,2.66381 h -0.864873 l -0.201756,-3.19237 -2.393758,-4.53215 3.461426,1.33455 2.370616,3.72619"
       style="fill:#623f32;fill-opacity:1;fill-rule:nonzero;stroke:none;stroke-width:0.523342"
       id="path28" />
    <path
       d="m 90.522666,152.29777 6.133635,3.1924 6.913349,2.12999 5.06583,2.39169 3.18727,-2.13003 4.26518,-1.06231 h 3.72624 l 3.19232,0.80078 -6.3848,1.06234 -1.33514,2.39689 1.86297,1.60143 9.85452,4.51646 0.18247,0.17258 -0.72246,0.36643 -11.97413,-2.3969 -11.72283,-1.59622 -4.25999,-3.99833 -10.377897,-3.46452 -0.267028,-1.86832 -0.554827,0.21986 0.292249,-1.277 v -3.72097 l 2.920249,2.66382"
       style="fill:#794d39;fill-opacity:1;fill-rule:nonzero;stroke:none;stroke-width:0.523342"
       id="path30" />
    <path
       d="m 125.13647,51.920761 -4.79374,-2.124772 -7.98102,-6.128338 -9.59284,-7.19071 -9.053734,-6.651686 -1.591044,-6.662141 0.528122,-2.391668 10.660506,8.24786 11.97413,6.128339 5.05544,7.986202 4.79374,8.786914"
       style="fill:#c48b65;fill-opacity:1;fill-rule:nonzero;stroke:none;stroke-width:0.523342"
       id="path32" />
    <path
       d="m 115.55417,74.544848 6.1231,-7.452396 2.13,-5.594536 -0.21956,-0.53376 -1.1141,-2.653339 -5.83011,-5.432299 5.30155,-0.1623 5.65728,6.458044 -2.12999,16.778354 -1.39745,5.777686 3.98792,9.592864 2.93063,6.117866 3.9983,3.736668 4.78871,3.18715 5.3275,3.20285 -0.26109,1.85788 -9.05374,-4.26002 -7.19077,-7.185473 -8.51478,-9.854537 -2.67429,-4.526913 -3.12437,-9.200348 1.2669,0.146865"
       style="fill:#794d39;fill-opacity:1;fill-rule:nonzero;stroke:none;stroke-width:0.523342"
       id="path34" />
    <path
       d="m 138.18866,50.167573 -3.99829,4.940346 -1.86312,4.799044 -0.80108,-3.7262 -0.53406,-4.793805 2.35503,-6.013205 2.44405,3.082482 2.39688,1.711338"
       style="fill:#794d39;fill-opacity:1;fill-rule:nonzero;stroke:none;stroke-width:0.523342"
       id="path36" />
    <path
       d="m 128.13521,38.805811 -4.32794,-3.129583 -14.97805,-8.980556 -7.37917,-3.799467 -8.593262,-3.794232 -3.396448,0.09345 2.65856,-3.223785 2.674287,1.334546 13.308523,5.856193 16.501,11.178582 3.5325,4.464117"
       style="fill:#c09369;fill-opacity:1;fill-rule:nonzero;stroke:none;stroke-width:0.523342"
       id="path38" />
    <path
       d="m 124.05323,156.26996 2.15092,0.2826 4.25998,5.05547 0.79516,3.73145 -0.99394,0.4919 c -1.13636,-1.58571 -2.99888,-3.95645 -2.99888,-3.95645 l -3.4592,-2.13001 0.24626,-3.47498"
       style="fill:#c09369;fill-opacity:1;fill-rule:nonzero;stroke:none;stroke-width:0.523342"
       id="path40" />
    <path
       d="m 36.142251,74.016267 -1.620862,-0.59132 7.013789,-2.334107 24.22716,-5.322388 35.415642,7.986201 h 3.37553 l -5.908592,2.459714 -8.786855,-2.198042 -18.562902,-3.391257 -23.772322,2.993519 -11.380588,0.397724"
       style="fill:#c09369;fill-opacity:1;fill-rule:nonzero;stroke:none;stroke-width:0.523342"
       id="path42" />
    <path
       d="m 141.14556,52.292332 7.68787,5.484623 6.91856,8.781691 9.05388,21.833834 2.35504,4.710079 -1.61716,-0.314056 -3.00391,-4.594945 -4.19205,-12.581146 -5.98172,-6.594109 -5.35391,-1.146146 -5.73576,-1.936368 2.13518,-5.809092 -0.43466,-3.28136 -1.83166,-4.553079"
       style="fill:#c09369;fill-opacity:1;fill-rule:nonzero;stroke:none;stroke-width:0.523342"
       id="path44" />
    <path
       d="m 153.75803,80.798778 -1.19866,0.805981 -2.19808,-2.391682 -3.59006,-1.203703 -2.98833,-2.799877 -0.80553,-2.799878 -1.60144,-3.391257 3.4018,-1.19317 3.18712,0.999574 2.99873,2.988297 0.99987,3.396479 0.80108,3.192394 0.99394,2.396903"
       style="fill:#794d39;fill-opacity:1;fill-rule:nonzero;stroke:none;stroke-width:0.523342"
       id="path46" />
    <path
       d="m 150.56571,76.816145 -0.80108,-3.003977 -0.99988,-2.192805 -2.7894,-0.994383 -1.19866,1.187979 v 1.999165 l 2.39168,0.805979 3.39645,2.198042"
       style="fill:#c48b65;fill-opacity:1;fill-rule:nonzero;stroke:none;stroke-width:0.523342"
       id="path48" />
    <path
       d="m 146.34756,71.127423 2.09869,0.790255 0.39164,1.004767 -0.27742,1.167061 -0.89009,0.29833 -1.75318,-0.491925 -0.74323,-1.083392 v -0.847815 l 1.17196,-0.837281"
       style="fill:#794d39;fill-opacity:1;fill-rule:nonzero;stroke:none;stroke-width:0.523342"
       id="path50" />
    <path
       d="m 146.61978,72.064202 0.95239,0.20932 0.0445,0.74308 -0.70169,0.204129 -0.6023,-0.256495 -0.14835,-0.601853 0.44505,-0.298329"
       style="fill:#664a3a;fill-opacity:1;fill-rule:nonzero;stroke:none;stroke-width:0.523342"
       id="path52" />
    <path
       d="m 158.2536,102.56982 0.70169,1.09897 -0.90049,0.69605 -1.2031,-0.59666 0.10384,-1.49677 1.29805,0.29833"
       style="fill:#794d39;fill-opacity:1;fill-rule:nonzero;stroke:none;stroke-width:0.523342"
       id="path54" />
    <path
       d="m 155.75199,104.07181 0.20472,1.19316 -0.80108,0.60186 -0.80109,-0.70125 -0.10384,-1.00477 1.49669,-0.089"
       style="fill:#794d39;fill-opacity:1;fill-rule:nonzero;stroke:none;stroke-width:0.523342"
       id="path56" />
    <path
       d="m 156.06085,101.07305 -0.30856,0.80064 -1.19273,-0.19894 v -1.09897 l 1.09333,-0.701241 0.40796,1.198511"
       style="fill:#794d39;fill-opacity:1;fill-rule:nonzero;stroke:none;stroke-width:0.523342"
       id="path58" />
    <path
       d="m 153.15633,102.37094 0.20472,0.40291 -0.59636,0.49193 -0.30857,-0.69605 0.19879,-0.69606 0.5029,0.49712"
       style="fill:#794d39;fill-opacity:1;fill-rule:nonzero;stroke:none;stroke-width:0.523342"
       id="path60" />
    <path
       d="m 158.15421,100.16768 -0.10385,0.70643 -0.50291,0.0994 -0.39312,-0.69606 V 99.6756 l 0.59636,-0.193596 0.39758,0.685516"
       style="fill:#794d39;fill-opacity:1;fill-rule:nonzero;stroke:none;stroke-width:0.523342"
       id="path62" />
    <path
       d="m 153.15633,98.875023 0.20472,1.104309 -0.80108,0.105328 -0.59637,-0.811169 v -0.497117 l 1.19273,0.0994"
       style="fill:#794d39;fill-opacity:1;fill-rule:nonzero;stroke:none;stroke-width:0.523342"
       id="path64" />
  </g>
</svg>
