<?xml version="1.0" encoding="UTF-8" standalone="no"?>
<!-- Created with Inkscape (http://www.inkscape.org/) -->

<svg
   width="640"
   height="640"
   viewBox="0 0 169.33333 169.33333"
   version="1.1"
   id="svg1764"
   inkscape:version="1.2.2 (732a01da63, 2022-12-09)"
   sodipodi:docname="raccoon.svg"
   xmlns:inkscape="http://www.inkscape.org/namespaces/inkscape"
   xmlns:sodipodi="http://sodipodi.sourceforge.net/DTD/sodipodi-0.dtd"
   xmlns="http://www.w3.org/2000/svg"
   xmlns:svg="http://www.w3.org/2000/svg">
  <sodipodi:namedview
     id="namedview1766"
     pagecolor="#ffffff"
     bordercolor="#000000"
     borderopacity="0.25"
     inkscape:showpageshadow="2"
     inkscape:pageopacity="0.0"
     inkscape:pagecheckerboard="0"
     inkscape:deskcolor="#d1d1d1"
     inkscape:document-units="mm"
     showgrid="false"
     inkscape:zoom="1.1383321"
     inkscape:cx="338.65338"
     inkscape:cy="302.63577"
     inkscape:window-width="1920"
     inkscape:window-height="1051"
     inkscape:window-x="-9"
     inkscape:window-y="-9"
     inkscape:window-maximized="1"
     inkscape:current-layer="layer1" />
  <defs
     id="defs1761" />
  <g
     inkscape:label="Layer 1"
     inkscape:groupmode="layer"
     id="layer1">
    <path
       d="m 153.043,58.469035 3.28818,-3.950003 2.14255,1.972906 -0.16563,2.305922 -2.46718,1.480724 -2.79809,-1.809549"
       style="fill:#57473a;fill-opacity:1;fill-rule:nonzero;stroke:none;stroke-width:0.209438"
       id="path318" />
    <path
       d="m 77.5069,106.35504 6.582647,4.60975 4.444316,3.45364 2.46925,0.82309 0.655545,2.13836 8.723112,0.99065 0.65976,-1.64828 -2.632628,-3.29028 -6.584783,-2.46718 -4.442181,-6.09048 4.442181,-2.796 4.278856,-3.290274 L 97.4203,94.507113 87.71078,94.180408 77.5069,106.35507"
       style="fill:#57473a;fill-opacity:1;fill-rule:nonzero;stroke:none;stroke-width:0.209438"
       id="path320" />
    <path
       d="m 101.04153,116.72225 -2.632628,-3.29028 -6.584783,-2.46718 -1.082761,-1.48283 h -0.06947 c 0,0 -3.124794,0.65973 -3.290255,1.15401 -0.09202,0.27648 -0.44823,1.39277 -0.737236,2.31429 l 1.889161,1.46817 2.46925,0.82309 0.655545,2.13836 8.723117,0.99065 0.65976,-1.64828"
       style="fill:#948569;fill-opacity:1;fill-rule:nonzero;stroke:none;stroke-width:0.209438"
       id="path322" />
    <path
       d="m 136.25648,94.341659 2.95939,4.773099 6.08835,5.430742 2.96569,2.46928 -0.3289,3.29237 -3.95002,4.11128 -2.96355,0.33091 -0.65762,-1.48072 2.63471,-3.62119 -0.98855,-1.97291 -9.70958,-4.60974 3.95002,-8.723109"
       style="fill:#57473a;fill-opacity:1;fill-rule:nonzero;stroke:none;stroke-width:0.209438"
       id="path324" />
    <path
       d="m 148.27198,107.01478 -2.96776,-2.46928 -0.38352,-0.34767 -0.43577,0.1822 -2.96147,0.49425 -0.10868,2.51326 0.60111,0.28693 0.98854,1.97292 -2.63471,3.62119 0.65763,1.48072 2.96563,-0.33091 3.94793,-4.11128 0.33069,-3.29238"
       style="fill:#948569;fill-opacity:1;fill-rule:nonzero;stroke:none;stroke-width:0.209438"
       id="path326" />
    <path
       d="m 160.61212,66.695783 1.48071,2.138366 7.24026,4.444281 -0.65762,3.786651 -3.12479,1.809549 -11.19035,0.496378 -4.93855,0.982269 -5.59411,4.61183 -4.44633,7.73247 -3.78249,5.927107 -1.64408,2.796006 -0.82309,8.72101 0.16327,4.44219 1.3153,2.13837 3.78871,1.64828 2.62848,2.14046 v 1.47655 l -9.04774,-0.49216 -0.99062,-1.6441 -2.13839,-0.98645 -0.82308,-3.95211 -2.96147,-7.5691 -6.25173,-6.08838 -1.81163,-1.646185 -4.77309,0.657635 -13.001979,-2.469279 -5.428645,-2.13627 -4.278797,1.644088 -8.228873,9.215301 -5.265262,3.62118 -1.315307,0.8231 6.580569,3.78455 7.734572,2.14046 4.113397,1.80955 0.330682,2.30382 -7.07487,-0.16546 h -4.611854 l -1.149788,-1.64409 -2.961472,-0.8231 -9.707443,-3.78665 -3.950015,-2.46718 1.149788,-3.95001 3.621233,-3.29237 -5.430782,-3.12482 c 0,0 -9.378659,-10.698116 -9.215278,-11.192394 0.165638,-0.492163 -2.140467,-13.653289 -2.140467,-13.653289 l 2.96355,-8.890664 7.732494,-8.063383 22.05179,-11.190292 14.480541,-2.46719 7.242406,0.98646 10.69813,5.430734 12.00914,3.950009 8.39433,0.657642 9.38282,-1.975008 5.59411,1.975008 4.93856,2.961455 3.12485,6.417199"
       style="fill:#796a56;fill-opacity:1;fill-rule:nonzero;stroke:none;stroke-width:0.209438"
       id="path328" />
    <path
       d="M 56.11487,68.672881 47.722675,76.409536 37.520933,83.811092 21.723008,91.05138 11.188208,95.495661 3.7845559,100.59549 0,105.53405 l 0.49453857,8.22674 2.63055333,1.97501 10.0404991,0.32883 18.430556,-7.89792 12.34221,-8.723111 6.580569,-5.922916 5.101881,-7.405748 0.494538,-17.44203"
       style="fill:#796a56;fill-opacity:1;fill-rule:nonzero;stroke:none;stroke-width:0.209438"
       id="path330" />
    <path
       d="m 162.25407,69.990248 -2.63055,-2.46928 -0.82309,-2.469279 -2.30593,-4.609741 -3.28817,0.16546 -5.26526,1.975002 -4.93649,3.950009 -4.11754,4.771009 -1.31525,6.419288 1.47862,4.607646 3.53533,4.794043 1.24193,-2.15931 5.59411,-4.61183 4.93855,-0.982268 11.19035,-0.496379 1.88702,-1.093269 0.74139,-2.854651 -1.97079,-2.469279 -3.95423,-2.467183"
       style="fill:#bcae8e;fill-opacity:1;fill-rule:nonzero;stroke:none;stroke-width:0.209438"
       id="path332" />
    <path
       d="m 152.64507,79.712383 -0.59073,-2.483943 3.4578,-2.632638 3.94793,-1.317372 0.82309,-3.126915 1.36975,-1.954062 -1.04091,-1.50167 -1.89337,-3.889276 -4.52388,1.256633 -5.10395,3.621191 -3.7867,6.088376 0.1698,4.938559 2.12996,3.141578 1.81792,-1.499579 3.22329,-0.640882"
       style="fill:#57473a;fill-opacity:1;fill-rule:nonzero;stroke:none;stroke-width:0.209438"
       id="path334" />
    <path
       d="m 167.19685,74.595802 0.98224,0.33092 0.77073,0.559191 0.38351,-2.207483 -0.6911,-0.425137 -1.6106,0.425137 0.16563,1.317372"
       style="fill:#2e241e;fill-opacity:1;fill-rule:nonzero;stroke:none;stroke-width:0.209438"
       id="path336" />
    <path
       d="m 135.75173,98.379629 -0.15257,-2.553054 2.63262,-2.965646 2.63478,-5.430741 0.88589,-1.434654 0.83359,1.128871 1.24192,-2.15931 -4.44633,7.73247 -3.6296,5.682064"
       style="fill:#584838;fill-opacity:1;fill-rule:nonzero;stroke:none;stroke-width:0.209438"
       id="path338" />
    <path
       d="m 167.4377,77.781361 0.005,-0.02731 0.0415,-0.0021 -0.0475,0.02909"
       style="fill:#584838;fill-opacity:1;fill-rule:nonzero;stroke:none;stroke-width:0.209438"
       id="path340" />
    <path
       d="m 142.58574,87.124405 -0.83359,-1.128871 2.56775,-4.15945 2.47346,-1.179139 0.8105,1.195899 1.81792,-1.499579 -5.59411,4.61183 -1.24193,2.15931 m 10.05933,-7.412022 -0.34137,-1.438846 3.86411,-0.550821 6.58264,0.163383 4.69354,-0.131917 -0.005,0.02731 -1.88702,1.093269 -11.19035,0.496378 -1.71528,0.341368"
       style="fill:#88775b;fill-opacity:1;fill-rule:nonzero;stroke:none;stroke-width:0.209438"
       id="path342" />
    <path
       d="m 147.60386,81.852844 -0.8105,-1.195899 4.7668,-2.276592 0.74354,-0.106809 0.34137,1.438845 -3.22329,0.640882 -1.81792,1.49958"
       style="fill:#3e3126;fill-opacity:1;fill-rule:nonzero;stroke:none;stroke-width:0.209438"
       id="path344" />
    <path
       d="m 93.470344,121.00317 -0.330682,-2.30383 -4.113397,-1.80954 -7.734572,-2.14047 -3.43268,-1.9729 c -0.911066,0.63669 -2.18238,1.56241 -2.490206,1.9729 -0.492164,0.65765 0,1.80956 0.326526,2.30383 0.08608,0.12569 0.345524,0.42936 0.684874,0.81472 l 1.292212,0.50267 2.961473,0.8231 1.149786,1.64409 h 4.611855 l 7.07487,0.16546"
       style="fill:#bcae8e;fill-opacity:1;fill-rule:nonzero;stroke:none;stroke-width:0.209438"
       id="path346" />
    <path
       d="m 134.61032,116.72225 -1.31532,-2.13837 -0.0861,-2.36456 -0.73723,-0.2681 -2.96142,-0.821 c 0,0 -1.0472,1.39696 -1.93107,2.63054 l 0.44823,1.15192 0.82308,3.9521 2.1384,0.98646 0.99061,1.64409 9.04774,0.49216 v -1.47654 l -2.62847,-2.14047 -3.78871,-1.64828"
       style="fill:#bcae8e;fill-opacity:1;fill-rule:nonzero;stroke:none;stroke-width:0.209438"
       id="path348" />
    <path
       d="m 76.380147,117.86578 -8.41523,-3.2819 -3.950016,-2.46718 1.149788,-3.95001 3.621234,-3.29238 -5.430781,-3.12481 c 0,0 -9.215279,-10.509625 -9.217357,-11.175643 0,-0.0065 0,-0.01247 0.0021,-0.01663 0.006,-0.01663 0.006,-0.05046 0.006,-0.09635 0,-0.259677 -0.0837,-0.948754 -0.219663,-1.889132 l 1.692237,-2.456716 0.194727,-6.827691 0.299811,0.737225 4.27672,9.546204 9.546197,6.255925 2.961473,5.265278 -0.163263,4.11128 -2.63471,2.14046 -2.467171,2.46928 1.317384,2.79601 6.209814,2.93842 c 0.02968,0.56756 0.318214,1.17914 0.534315,1.50586 0.08608,0.12569 0.345524,0.42728 0.684873,0.81262"
       style="fill:#584838;fill-opacity:1;fill-rule:nonzero;stroke:none;stroke-width:0.209438"
       id="path350" />
    <path
       d="m 55.62057,86.114912 0.192947,-6.831882 0.0021,0.0042 -0.194728,6.82769 M 52.818607,81.670678 C 52.378687,79.065261 51.999679,76.90386 51.999679,76.90386 l 1.277608,-3.836913 2.446214,5.994128 -2.075518,1.128872 -0.829376,1.480731"
       style="fill:#584838;fill-opacity:1;fill-rule:nonzero;stroke:none;stroke-width:0.209438"
       id="path352" />
    <path
       d="m 89.903552,120.9194 -3.508078,-0.0817 H 81.78362 l -1.149788,-1.6441 -2.961473,-0.8231 -1.292212,-0.50474 v 0 c -0.339587,-0.38536 -0.599027,-0.68697 -0.684873,-0.81263 -0.215508,-0.3267 -0.50285,-0.93828 -0.534316,-1.50586 l 2.840005,1.3425 5.761642,2.7981 2.138389,-1.64619 h 2.301713 l 1.648244,1.97291 0.05343,0.90478"
       style="fill:#88775b;fill-opacity:1;fill-rule:nonzero;stroke:none;stroke-width:0.209438"
       id="path354" />
    <path
       d="m 139.4169,121.90167 -7.43714,-0.40633 -0.99063,-1.64408 -2.13838,-0.98646 -0.82309,-3.9521 -2.96147,-7.56911 -6.25172,-6.08838 -1.81163,-1.646181 -4.7731,0.657641 -13.00197,-2.469284 -2.515319,-0.990645 2.515319,0.990645 13.00197,2.469284 4.7731,-0.657641 1.81163,1.646181 6.25172,6.08838 2.96147,7.56911 0.82309,3.9521 2.13838,0.98646 0.99063,1.64408 7.43714,0.40424 v 0.002"
       style="fill:#b9b1a3;fill-opacity:1;fill-rule:nonzero;stroke:none;stroke-width:0.209438"
       id="path356" />
    <path
       d="m 128.02766,114.9127 -2.96147,-7.56911 -6.25172,-6.08837 -1.81163,-1.646185 -4.7731,0.657635 -13.00197,-2.469279 -2.515319,-0.990644 -2.913325,-1.145625 -4.278798,1.644088 -8.228872,9.2153 -1.782298,1.22521 c 0.852411,-1.3802 1.843032,-3.12064 1.947757,-3.52904 0.161482,-0.65763 4.115475,-5.267376 4.115475,-5.922921 0,-0.659732 1.644089,-5.265281 1.644089,-5.265281 l 2.634709,-3.786646 -1.809548,-7.405748 3.124854,-2.303819 4.936481,4.775195 12.013365,2.959365 11.35575,0.657635 4.7731,1.317372 -1.64617,5.761648 -1.975,4.605555 2.46717,3.784545 4.1134,4.44429 1.58543,4.26207 c -0.36037,0.48588 -0.80426,1.09118 -1.21058,1.66085 l 0.44822,1.15191"
       style="fill:#584838;fill-opacity:1;fill-rule:nonzero;stroke:none;stroke-width:0.209438"
       id="path358" />
    <path
       d="m 139.4169,121.89957 -7.43714,-0.40424 -0.99063,-1.64409 -2.13838,-0.98646 -0.82309,-3.9521 -0.44822,-1.15192 c 0.40608,-0.56963 0.85033,-1.17494 1.21058,-1.66084 l 0.55509,1.49749 1.64409,4.27883 2.14255,1.81164 2.63262,-0.4943 2.95934,0.4943 0.69324,2.21167"
       style="fill:#88775b;fill-opacity:1;fill-rule:nonzero;stroke:none;stroke-width:0.209438"
       id="path360" />
    <path
       d="m 156.5553,68.122055 4.49662,2.85046 c 0.32652,-0.326705 -3.29239,-3.945819 -3.29239,-3.945819 l -1.20423,1.095359"
       style="fill:#796a56;fill-opacity:1;fill-rule:nonzero;stroke:none;stroke-width:0.209438"
       id="path362" />
    <path
       d="m 158.41715,65.1606 -0.10867,0.986453 0.10867,1.646184 -1.86185,0.328842 -2.08603,-1.315272 2.08603,-0.548741 1.86185,-1.097454"
       style="fill:#2e241e;fill-opacity:1;fill-rule:nonzero;stroke:none;stroke-width:0.209438"
       id="path364" />
    <path
       d="m 149.12862,56.110763 -2.17402,-0.768642 -9.38281,1.975008 -8.39433,-0.657641 -12.00916,-3.950009 -10.69812,-5.430735 -7.24241,-0.986459 -14.48054,2.46719 -22.051791,11.190291 -6.45073,6.727168 7.441351,-4.588802 13.65538,-6.417193 16.457686,-6.251734 10.203824,1.149818 6.91357,3.950009 c 0,0 15.9613,5.596194 16.78023,5.596194 0.8273,0 8.55973,0.163382 9.0561,-0.16546 0.49218,-0.328841 5.59411,-0.823089 6.08841,-1.319462 0.49394,-0.490086 4.2788,-1.641993 4.76889,-1.970816 0.17157,-0.113096 0.78538,-0.322549 1.51847,-0.548742"
       style="fill:#a39379;fill-opacity:1;fill-rule:nonzero;stroke:none;stroke-width:0.209438"
       id="path366" />
    <path
       d="m 143.49889,61.922678 5.42864,-2.301729 0.98855,-2.632638 -0.49454,-4.442191 -2.46717,-1.811643 -2.96148,2.138366 -0.98855,3.786645 0.49455,5.26319"
       style="fill:#57473a;fill-opacity:1;fill-rule:nonzero;stroke:none;stroke-width:0.209438"
       id="path368" />
    <path
       d="m 146.9546,50.734477 -2.96147,2.138366 -0.98855,3.786645 0.49454,5.26319 2.66405,-1.126775 -0.85871,-5.124964 1.154,-2.96146 1.48285,0.4943 0.65976,2.138366 -0.49632,3.455738 -0.0921,1.212647 0.91527,-0.389575 0.98854,-2.632637 -0.49453,-4.442192 -2.46717,-1.811644"
       style="fill:#bcae8e;fill-opacity:1;fill-rule:nonzero;stroke:none;stroke-width:0.209438"
       id="path370" />
    <path
       d="m 20.732327,111.13024 -3.455714,-4.11546 -3.455714,-6.58266 1.269177,-6.580547 -3.901868,1.644088 -0.282593,0.194789 -1.3634545,11.65315 5.1019395,5.43074 2.504871,1.58336 4.848497,-2.07763 -1.265022,-1.14982"
       style="fill:#57473a;fill-opacity:1;fill-rule:nonzero;stroke:none;stroke-width:0.209438"
       id="path372" />
    <path
       d="m 12.779934,116.05205 -2.576054,-2.78344 c 0,0 -2.9656876,-3.62119 -3.1310878,-4.11547 -0.163263,-0.49216 -1.6420105,-4.44428 -1.6420105,-4.44428 l 0.3835197,-5.512417 -2.029508,1.399047 -3.78455592649,4.93856 0.49453857649,8.22674 2.63055335,1.97501 9.6550796,0.31625"
       style="fill:#57473a;fill-opacity:1;fill-rule:nonzero;stroke:none;stroke-width:0.209438"
       id="path374" />
    <path
       d="m 26.165188,105.69741 c -0.49632,-0.4943 -2.30385,-4.44219 -2.798091,-4.93646 -0.49454,-0.4943 -0.986466,-3.45574 -0.986466,-3.45574 l 1.702745,-7.334535 -2.360368,1.080705 -0.687011,0.289006 -1.949836,4.812893 c 0,0 0.330682,6.746011 0.49632,7.240291 0.163263,0.49216 3.124795,6.58474 3.124795,6.58474 l 1.658752,1.28805 4.46943,-1.91636 c -0.911067,-1.3069 -2.341548,-3.3196 -2.67033,-3.65261"
       style="fill:#57473a;fill-opacity:1;fill-rule:nonzero;stroke:none;stroke-width:0.209438"
       id="path376" />
    <path
       d="m 36.318723,104.82824 -0.940336,-0.94247 -2.961472,-5.757465 -1.975008,-5.596194 0.55925,-5.734427 -3.700787,1.696451 c -0.179886,1.830494 -0.418547,4.546911 -0.316434,5.191978 0.165638,0.986454 2.46931,7.897927 2.800229,8.723117 0.209571,0.52357 1.629424,3.26724 2.628416,5.17941 l 3.906023,-2.7604"
       style="fill:#57473a;fill-opacity:1;fill-rule:nonzero;stroke:none;stroke-width:0.209438"
       id="path378" />
    <path
       d="M 44.386292,99.03936 44.101324,98.9493 41.303233,96.810934 c 0,0 -2.301772,-2.46928 -2.961473,-3.290279 -0.655546,-0.823096 -2.469309,-4.278827 -2.469309,-4.278827 l -0.456543,-4.465232 -2.241037,1.024158 c -0.0837,1.918453 -0.213726,5.277848 -0.09855,5.744893 0.165638,0.657636 2.140468,4.938558 2.140468,4.938558 l 4.111319,3.782465 1.983379,1.03043 2.626338,-1.853529 0.448231,-0.40424"
       style="fill:#57473a;fill-opacity:1;fill-rule:nonzero;stroke:none;stroke-width:0.209438"
       id="path380" />
    <path
       d="m 48.04938,92.203287 -2.467171,-2.138366 -2.796013,-4.444281 -1.22103,-4.745878 -2.481836,1.801172 c 0.100332,0.879643 0.232725,1.662944 0.408455,1.958253 0.49632,0.823089 1.977145,5.099821 2.308004,5.759553 0.328902,0.65764 2.961474,4.113373 3.126933,4.60974 0.08608,0.259737 1.472336,0.709999 2.756236,1.070233 l 2.764548,-2.488128 -2.398066,-1.382298"
       style="fill:#57473a;fill-opacity:1;fill-rule:nonzero;stroke:none;stroke-width:0.209438"
       id="path382" />
    <path
       d="m 53.233011,89.583213 -3.537405,-3.797119 -3.288177,-3.95001 -0.971801,-3.767796 -1.690218,1.225215 0.35621,3.036859 3.786634,4.115464 c 0,0 2.938438,2.846268 4.83591,3.872516 l 0.508787,-0.735129"
       style="fill:#57473a;fill-opacity:1;fill-rule:nonzero;stroke:none;stroke-width:0.209438"
       id="path384" />
    <path
       d="m 13.165353,116.06461 -0.387675,-0.0125 -2.573976,-2.78343 c 0,0 -1.4472226,-1.76766 -2.3750316,-3.00125 l 3.6944936,-0.81473 3.12064,3.3217 2.502792,1.58335 -3.981421,1.70693"
       style="fill:#584838;fill-opacity:1;fill-rule:nonzero;stroke:none;stroke-width:0.209438"
       id="path386" />
    <path
       d="m 3.1248545,115.7358 v 0 L 0.4943011,113.76079 0.14640242,108.0138 h 0.002078 l 0.34552395,5.74699 2.63055343,1.97501"
       style="fill:#b9b1a3;fill-opacity:1;fill-rule:nonzero;stroke:none;stroke-width:0.209438"
       id="path388" />
    <path
       d="m 21.997349,112.28005 -1.265022,-1.14981 -2.628415,-3.12901 2.892308,-1.57078 c 0.827298,1.72996 1.711116,3.54789 1.711116,3.54789 l 1.656674,1.28594 -2.366661,1.01577"
       style="fill:#584838;fill-opacity:1;fill-rule:nonzero;stroke:none;stroke-width:0.209438"
       id="path390" />
    <path
       d="m 28.550668,109.47149 0.284968,-0.12147 c -0.911067,-1.3069 -2.341548,-3.3196 -2.67033,-3.6526 -0.179887,-0.17805 -0.531941,-0.81263 -0.932024,-1.5687 l 4.32279,-2.3478 c 0.104483,0.2995 0.184041,0.51733 0.228568,0.62831 0.20957,0.52358 1.629424,3.26724 2.628415,5.17941 l 3.906024,-2.7604 -0.940335,-0.94246 -2.117433,-4.117567 3.474594,-1.887041 2.592854,2.385508 1.983379,1.03044 2.626338,-1.853539 -12.342211,8.723119 -3.045241,1.30479 m 15.387452,-10.027909 0.448231,-0.404239 -0.284968,-0.09006 -2.798091,-2.138366 c 0,0 -0.467229,-0.500534 -1.040906,-1.126782 l 3.610666,-2.293353 c 0.540253,0.762362 0.988603,1.417902 1.053492,1.612677 0.08608,0.259737 1.472336,0.709999 2.756236,1.070234 l -3.744779,3.369862"
       style="fill:#584838;fill-opacity:1;fill-rule:nonzero;stroke:none;stroke-width:0.209438"
       id="path392" />
    <path
       d="m 50.445369,93.585585 -2.395989,-1.382298 -0.973878,-0.84613 0.483852,-0.305806 1.817919,-3.244203 c 1.003206,0.879644 2.324806,1.958248 3.346833,2.511163 l -2.205358,3.202319 -0.07302,0.06495"
       style="fill:#584838;fill-opacity:1;fill-rule:nonzero;stroke:none;stroke-width:0.209438"
       id="path394" />
    <path
       d="m 17.146774,114.35769 v 0 l -2.502792,-1.58336 -3.12064,-3.32169 6.576354,-1.45141 h 0.0042 l 2.628416,3.12901 1.265022,1.14981 -4.850575,2.07764"
       style="fill:#3e3126;fill-opacity:1;fill-rule:nonzero;stroke:none;stroke-width:0.209438"
       id="path396" />
    <path
       d="m 12.777856,116.05205 -9.6530015,-0.31627 -2.6305534,-1.97499 -0.34552395,-5.747 1.66083035,0.48379 5.0998622,1.97292 0.9194381,-0.20317 c 0.927809,1.2336 2.3750322,3.00126 2.3750322,3.00126 l 2.573975,2.78343"
       style="fill:#3e3126;fill-opacity:1;fill-rule:nonzero;stroke:none;stroke-width:0.209438"
       id="path398" />
    <path
       d="m 24.36401,111.26428 v 0 l -1.656674,-1.28594 c 0,0 -0.883818,-1.81793 -1.711116,-3.54789 l 4.236943,-2.30173 c 0.400143,0.75607 0.7519,1.39066 0.932025,1.56869 0.3289,0.333 1.759262,2.34571 2.670329,3.6526 l -0.284968,0.12147 -4.186657,1.7928"
       style="fill:#3e3126;fill-opacity:1;fill-rule:nonzero;stroke:none;stroke-width:0.209438"
       id="path400" />
    <path
       d="m 32.412699,107.58864 c -0.998991,-1.91217 -2.418963,-4.65582 -2.628416,-5.17941 -0.04156,-0.11103 -0.123486,-0.32884 -0.228568,-0.62832 l 3.705003,-2.012702 2.117432,4.117562 0.940336,0.94247 -3.906024,2.7604"
       style="fill:#3e3126;fill-opacity:1;fill-rule:nonzero;stroke:none;stroke-width:0.209438"
       id="path402" />
    <path
       d="m 41.311781,101.29711 -1.983378,-1.03044 -2.592855,-2.385504 0.454168,-0.247151 3.072492,-1.949871 c 0.574093,0.626224 1.040906,1.126782 1.040906,1.126782 l 2.798091,2.138366 0.284968,0.09006 -0.448231,0.404239 -2.626339,1.853539"
       style="fill:#3e3126;fill-opacity:1;fill-rule:nonzero;stroke:none;stroke-width:0.209438"
       id="path404" />
    <path
       d="m 47.682899,96.073713 v 0 c -1.2839,-0.360246 -2.670331,-0.810527 -2.756237,-1.070233 -0.06471,-0.194787 -0.512942,-0.850315 -1.053491,-1.612677 l 3.202331,-2.033646 0.973878,0.84613 2.395989,1.382298 -2.76247,2.488128"
       style="fill:#3e3126;fill-opacity:1;fill-rule:nonzero;stroke:none;stroke-width:0.209438"
       id="path406" />
    <path
       d="m 53.233011,89.583213 -3.0285,-3.252574 2.613812,-4.660008 c 0.397768,2.364559 0.848196,5.095635 1.110011,6.900998 l -0.697401,1.009494 m 2.582346,-10.298093 -0.09023,-0.221977 0.09855,-0.05224 -0.006,0.274342"
       style="fill:#584838;fill-opacity:1;fill-rule:nonzero;stroke:none;stroke-width:0.209438"
       id="path408" />
    <path
       d="M 53.928334,88.571629 C 53.666519,86.766266 53.216269,84.03519 52.818323,81.670631 l 0.829376,-1.480731 2.075519,-1.128871 0.09023,0.221978 -0.192947,6.831881 -1.692236,2.456717"
       style="fill:#3f3126;fill-opacity:1;fill-rule:nonzero;stroke:none;stroke-width:0.209438"
       id="path410" />
    <path
       d="m 52.724046,90.318342 v 0 C 51.702019,89.765443 50.38042,88.686821 49.377213,87.807178 l 0.827298,-1.476539 3.0285,3.252574 -0.508787,0.735129"
       style="fill:#3e3126;fill-opacity:1;fill-rule:nonzero;stroke:none;stroke-width:0.209438"
       id="path412" />
  </g>
</svg>
