<?xml version="1.0" encoding="UTF-8" standalone="no"?>
<!-- Created with Inkscape (http://www.inkscape.org/) -->

<svg
   width="640"
   height="640"
   viewBox="0 0 169.33333 169.33333"
   version="1.1"
   id="svg1764"
   inkscape:version="1.2.2 (732a01da63, 2022-12-09)"
   sodipodi:docname="rhino.svg"
   xmlns:inkscape="http://www.inkscape.org/namespaces/inkscape"
   xmlns:sodipodi="http://sodipodi.sourceforge.net/DTD/sodipodi-0.dtd"
   xmlns="http://www.w3.org/2000/svg"
   xmlns:svg="http://www.w3.org/2000/svg">
  <sodipodi:namedview
     id="namedview1766"
     pagecolor="#ffffff"
     bordercolor="#000000"
     borderopacity="0.25"
     inkscape:showpageshadow="2"
     inkscape:pageopacity="0.0"
     inkscape:pagecheckerboard="0"
     inkscape:deskcolor="#d1d1d1"
     inkscape:document-units="mm"
     showgrid="false"
     inkscape:zoom="0.93599426"
     inkscape:cx="172.54379"
     inkscape:cy="322.11736"
     inkscape:window-width="1920"
     inkscape:window-height="1051"
     inkscape:window-x="-9"
     inkscape:window-y="-9"
     inkscape:window-maximized="1"
     inkscape:current-layer="layer1" />
  <defs
     id="defs1761" />
  <g
     inkscape:label="Layer 1"
     inkscape:groupmode="layer"
     id="layer1">
    <path
       d="m 2.3999063,86.84422 0.8161065,7.692519 1.6389831,5.069569 -0.6555995,4.746822 -2.2902626,7.20445 v 3.10629 l 2.7804237,1.31148 2.2945604,5.07271 -0.4926156,4.41935 0.4926156,1.30517 14.5620071,1.14774 1.966111,-1.30675 0.327172,-1.14616 -1.146323,-1.8027 -2.453857,-1.14459 -3.438491,-2.12701 -0.816643,-2.9457 1.635172,-6.70851 1.47301,-10.31233 L 2.3999197,86.84422"
       style="fill:#574449;fill-opacity:1;fill-rule:nonzero;stroke:none;stroke-width:0.157441"
       id="path590" />
    <path
       d="m 23.512236,126.61357 0.327172,-1.14616 -1.146323,-1.8027 -2.453857,-1.14459 -3.438491,-2.12701 -0.816643,-2.9457 1.635172,-6.70851 1.47301,-10.31233 -16.6923563,-13.58235 0.8161065,7.692519 1.6389832,5.069569 -0.6555996,4.746822 -2.2902626,7.20445 v 3.10629 l 2.2342939,1.05327 -0.1057704,-3.6715 2.7791785,-3.76439 4.4218478,1.47364 2.943385,6.70852 0.491327,4.09344 3.600966,1.6358 2.454961,2.29076 0.995808,3.31725 1.787105,-1.18709"
       style="fill:#403135;fill-opacity:1;fill-rule:nonzero;stroke:none;stroke-width:0.157441"
       id="path592" />
    <path
       d="m 8.9465786,123.66471 -0.4913884,-2.94413 -2.2398189,-1.36972 0.7687466,1.6972 -0.4926156,4.41935 0.4926156,1.30517 1.7976514,0.14482 0.1648137,-3.2527"
       style="fill:#574449;fill-opacity:1;fill-rule:nonzero;stroke:none;stroke-width:0.157441"
       id="path594" />
    <path
       d="m 122.09001,96.825917 -1.63899,7.034423 -1.47408,7.53036 -0.32356,4.41934 1.30503,4.91054 2.29329,1.30676 1.31003,1.96485 0.16468,1.63737 -6.87509,0.16375 -3.9275,-2.45606 0.98036,-10.14701 6.54666,-20.945823 1.63899,4.581504"
       style="fill:#574449;fill-opacity:1;fill-rule:nonzero;stroke:none;stroke-width:0.157441"
       id="path596" />
    <path
       d="m 127.54497,93.335473 h 1.09171 l 4.69374,4.14382 4.03313,0.547893 0.98277,0.21569 1.30988,1.638952 2.5093,4.905832 6.22061,4.91056 2.28963,0.11181 6.32847,-2.29548 1.41853,-2.50801 0.98241,-1.30676 -1.85464,-2.73001 v -1.74443 l 2.94255,-1.637376 4.47604,-1.087913 2.29075,-4.148542 2.07348,-3.926556 v -1.092634 l -1.20126,0.763583 -3.60225,3.383389 -2.94412,0.653376 -5.23645,-0.546316 -2.50992,-0.763588 -0.43736,-1.30675 1.09215,-2.399389 1.19811,-2.730006 -0.65194,-0.982429 -3.81794,-0.108622 -3.16596,-0.873793 -0.6526,-2.070338 -2.18635,-11.346698 -1.30611,-3.166118 -9.27496,-4.252456 -7.80055,-5.837875 -8.67648,-6.546356 -4.90835,-2.783543 -7.52756,-0.984 -6.547291,0.984 -7.036155,2.12544 L 83.29927,50.510258 70.208433,51.328944 52.369686,49.038195 41.404955,45.43439 38.950464,45.599696 26.186014,50.510249 15.382956,50.346477 12.434688,52.63723 1.9649242,66.874528 0,74.07741 0.16298387,86.84422 4.9089387,97.644607 l 8.8375463,8.671793 4.255178,2.2939 1.962492,3.76282 0.494516,6.38419 0.490112,2.12544 2.29028,0.984 3.273652,1.3099 1.63643,1.47207 0.818057,4.58308 1.800641,0.98084 5.073819,0.81712 9.325802,0.49122 1.802512,-1.14459 v -1.80112 l -2.782888,-3.2716 -6.217621,-2.6198 -2.619804,-5.39862 -3.271919,-9.49363 -0.329538,-2.12701 v -1.96486 l 4.419968,-4.255604 1.144437,-3.271607 1.800796,0.327485 13.911251,7.690956 8.346228,3.43533 17.34734,-0.16374 13.092086,-0.97928 4.74715,-3.9297 2.618677,-0.49121 2.128431,3.76123 1.47364,1.96801 -0.82041,8.01842 0.16423,4.25403 0.98273,2.78196 -1.3099,2.78354 v 1.80111 l 4.58167,2.45292 6.54729,0.32904 5.56394,-0.81868 v -3.27003 l -2.7842,-1.80269 -1.9617,-3.27317 0.16245,-4.25719 2.29329,-7.68936 1.96188,-9.329898 1.63831,0.492788 1.30941,-1.804259 0.65497,-3.106293 1.79952,-0.656524 2.12544,0.818687 1.31181,-0.492787 0.54599,-1.687757"
       style="fill:#665257;fill-opacity:1;fill-rule:nonzero;stroke:none;stroke-width:0.157441"
       id="path598" />
    <path
       d="m 127.89245,93.335473 -0.24233,-1.90975 0.98522,-2.945701 3.10883,-5.239602 3.60145,-4.091868 4.74412,-1.634225 -0.16157,-6.056721 1.14446,-3.435341 -1.79938,0.982429 -3.76394,2.452912 -3.92669,4.25403 -4.74653,-0.488064 -4.25655,-4.583078 -2.9446,-4.910554 -1.14691,-4.910554 -1.96375,-0.815539 -0.49203,1.960126 v 5.020764 l 1.74793,9.602269 2.29088,6.873827 -2.23675,2.563126 -6.05655,6.710093 -0.81555,-1.308329 -2.45623,-0.820261 -5.56769,1.475214 -2.28838,0.979277 -0.820408,-5.398618 0.657468,-3.926554 -1.310564,-0.163743 -2.292172,2.452917 -3.763759,2.616649 -10.799421,1.473639 -15.548939,2.456067 -24.549621,-5.565506 -9.164111,-2.123866 -5.892979,-7.040715 -1.799382,-5.075868 0.49137,-4.252456 h -0.98337 l -0.487751,2.128591 0.326547,6.055141 4.745397,6.382617 6.871944,6.54636 1.3099,4.090289 v 2.515892 l 1.473639,0.2692 13.911227,7.690951 8.346229,3.43533 17.34734,-0.16373 13.092085,-0.97928 4.747152,-3.92971 2.618675,-0.49121 2.128434,3.76124 1.47363,1.968 -0.8204,8.01842 0.16423,4.25404 0.98272,2.78196 -1.02083,2.16323 2.4926,-1.01707 3.27534,-0.98085 1.96188,-0.49121 -0.49199,-2.12702 1.31239,-8.02 1.14335,-6.5495 4.09155,-4.25245 1.93242,-0.0913 0.35792,-1.708227 1.63832,0.492787 1.30941,-1.804258 0.65497,-3.106293 1.79951,-0.656524 2.12544,0.818686 1.31182,-0.492784 0.54599,-1.687759 h 0.34765"
       style="fill:#574449;fill-opacity:1;fill-rule:nonzero;stroke:none;stroke-width:0.157441"
       id="path600" />
    <path
       d="m 130.43557,61.638072 6.38373,2.619805 5.42663,0.818687 -7.60937,-3.490444 -7.80056,-5.837875 -8.67648,-6.546356 -4.90835,-2.783543 -7.52756,-0.984 -6.547293,0.984 -7.036154,2.125441 -8.840715,1.966427 -13.090837,0.818687 -17.838745,-2.290749 -10.964731,-3.603806 -2.454492,0.165305 -12.764449,4.910554 -10.80306,-0.163741 -2.948268,2.290752 -10.4697633,14.237298 -0.5928561,2.166378 4.6832291,-6.746306 6.2157913,-8.023144 3.438397,-2.289178 6.057819,0.329047 6.871944,0.162181 7.365358,-1.963278 h 8.837577 l 10.799275,3.107864 15.712681,1.963278 11.94513,-0.160574 8.185611,-1.635802 10.472921,-2.292329 7.52943,-0.982423 9.00053,2.619801 6.38181,4.090292 5.56582,4.417764"
       style="fill:#a7817e;fill-opacity:1;fill-rule:nonzero;stroke:none;stroke-width:0.157441"
       id="path602" />
    <path
       d="m 148.51281,82.549257 0.8549,2.164802 1.74602,2.618225 1.52638,1.527171 0.82907,0.510105 1.02512,-2.25297 1.1981,-2.730007 -0.65193,-0.982429 -3.81794,-0.108623 -2.70972,-0.746268"
       style="fill:#a7817e;fill-opacity:1;fill-rule:nonzero;stroke:none;stroke-width:0.157441"
       id="path604" />
    <path
       d="m 155.29565,83.789884 -0.25526,-0.385725 -3.81795,-0.108623 -2.70971,-0.746267 0.64269,1.631079 2.82905,0.533723 3.3111,-0.924174"
       style="fill:#c2aea5;fill-opacity:1;fill-rule:nonzero;stroke:none;stroke-width:0.157441"
       id="path606" />
    <path
       d="m 151.86648,88.087994 0.77363,0.771461 0.82907,0.510105 1.02512,-2.25297 0.22404,-0.516403 -2.85168,1.487807"
       style="fill:#665257;fill-opacity:1;fill-rule:nonzero;stroke:none;stroke-width:0.157441"
       id="path608" />
    <path
       d="m 145.24782,82.588619 -2.29387,-0.73682 -2.12605,0.980849 -0.40836,2.374196 0.11871,1.365003 1.1076,1.660994 3.60206,0.165305 1.63533,-2.046724 -0.40968,-2.536358 -1.22569,-1.226455"
       style="fill:#665257;fill-opacity:1;fill-rule:nonzero;stroke:none;stroke-width:0.157441"
       id="path610" />
    <path
       d="m 142.95395,83.404154 -0.65322,1.229609 0.4901,1.308325 2.1267,0.329046 0.083,-0.738394 0.32668,-1.390196 -2.37321,-0.738394"
       style="fill:#403135;fill-opacity:1;fill-rule:nonzero;stroke:none;stroke-width:0.157441"
       id="path612" />
    <path
       d="m 146.4735,83.815072 -1.22568,-1.226453 -2.29387,-0.73682 -2.12605,0.980849 -0.12496,0.719503 1.43478,-0.06297 2.04546,0.653377 2.69423,2.188415 -0.40389,-2.515892"
       style="fill:#a7817e;fill-opacity:1;fill-rule:nonzero;stroke:none;stroke-width:0.157441"
       id="path614" />
    <path
       d="m 145.87762,87.609378 -1.2866,0.05195 -2.61872,-0.329047 -1.47662,-1.250075 0.0446,0.489639 1.1076,1.660994 3.60207,0.165305 0.6298,-0.788777"
       style="fill:#574449;fill-opacity:1;fill-rule:nonzero;stroke:none;stroke-width:0.157441"
       id="path616" />
    <path
       d="m 149.74908,109.01808 -1.39304,-1.47522 -2.61873,-2.86226 -0.24724,-2.12702 -2.04248,-4.009991 -3.3579,-2.37105 -4.66227,-0.73682 -5.23615,-2.783537 -1.93902,-6.028378 -1.98955,7.99323 0.29812,0.573081 0.43781,-0.166866 0.54599,-1.687759 h 1.0917 l 4.69374,4.14382 4.03313,0.547893 0.98277,0.215691 1.3099,1.638952 2.50929,4.905834 6.2206,4.91055 2.28963,0.11181 0.791,-0.28968 -1.71766,-0.50224"
       style="fill:#574449;fill-opacity:1;fill-rule:nonzero;stroke:none;stroke-width:0.157441"
       id="path618" />
    <path
       d="m 157.55051,100.96974 v -1.744436 l 0.97929,-0.543171 -1.08948,-0.547887 -0.73842,1.637372 0.32892,1.799542 0.57468,2.12859 -1.39491,2.37262 -2.71396,2.71426 3.50745,-1.2721 1.41852,-2.50803 0.98241,-1.30675 -1.85463,-2.73001"
       style="fill:#574449;fill-opacity:1;fill-rule:nonzero;stroke:none;stroke-width:0.157441"
       id="path620" />
    <path
       d="m 155.09523,105.03327 0.57307,-2.042 -0.57307,-1.96328 -0.81867,-0.24876 -0.81853,0.24876 0.16334,1.7161 0.65496,1.80269 0.81867,0.48649"
       style="fill:#a7817e;fill-opacity:1;fill-rule:nonzero;stroke:none;stroke-width:0.157441"
       id="path622" />
    <path
       d="m 153.13148,101.41057 1.19922,0.27081 0.49029,1.14458 v 1.09264 l -0.38248,1.25165 -0.65381,-0.97927 -0.38246,-1.25638 -0.27045,-1.52402"
       style="fill:#403135;fill-opacity:1;fill-rule:nonzero;stroke:none;stroke-width:0.157441"
       id="path624" />
    <path
       d="m 115.2475,123.55609 -2.43231,0.87535 -6.54729,0.65495 -0.87079,0.86908 3.27177,-0.32592 5.45434,0.43766 4.36472,0.16849 v -0.11181 l -2.7842,-1.80269 -0.45624,-0.76516"
       style="fill:#a7817e;fill-opacity:1;fill-rule:nonzero;stroke:none;stroke-width:0.157441"
       id="path626" />
    <path
       d="m 37.803694,91.261984 -2.453862,6.051995 -4.910237,4.420911 -0.981482,4.58151 1.47096,5.72924 2.62122,4.58466 3.056542,3.24798 -1.257003,-2.59303 -3.271919,-9.49363 -0.329537,-2.12701 v -1.96486 l 4.419968,-4.255604 1.144435,-3.271607 1.800798,0.327485 1.266289,0.697462 1.515991,-3.972214 -4.09218,-1.963278"
       style="fill:#574449;fill-opacity:1;fill-rule:nonzero;stroke:none;stroke-width:0.157441"
       id="path628" />
    <path
       d="m 27.987625,121.86675 1.689328,-4.91056 3.436131,-1.63579 -2.945233,-7.52878 -8.726898,-1.30833 -4.746031,-2.78354 L 8.6741429,97.154968 2.2904367,84.222844 1.2104945,69.636029 1.7851465e-4,74.07741 0.16316239,86.84422 4.9091172,97.644607 l 8.8375458,8.671793 4.255178,2.2939 1.962492,3.76282 0.494516,6.38419 0.490113,2.12544 2.290281,0.984 3.27365,1.3099 1.636431,1.47207 0.818057,4.58308 0.179496,0.0944 1.292741,-1.24063 -1.145061,-2.9457 -1.306909,-3.27318"
       style="fill:#574449;fill-opacity:1;fill-rule:nonzero;stroke:none;stroke-width:0.157441"
       id="path630" />
    <path
       d="m 10.146442,94.698901 4.418792,5.234884 5.071931,2.293895 2.127801,0.65338 -0.162939,-0.87379 -6.325783,-3.162974 -4.421924,-4.803495 -0.707864,0.6581"
       style="fill:#574449;fill-opacity:1;fill-rule:nonzero;stroke:none;stroke-width:0.157441"
       id="path632" />
    <path
       d="m 44.187258,125.30367 -4.825224,-2.03413 -3.357249,2.68593 -2.619961,0.98399 2.783539,0.16059 6.545413,-1.14459 1.487017,-0.63764 -0.01338,-0.0143"
       style="fill:#a7817e;fill-opacity:1;fill-rule:nonzero;stroke:none;stroke-width:0.157441"
       id="path634" />
    <path
       d="m 169.33333,87.332284 -1.20126,0.763582 -3.60225,3.383389 -2.94412,0.653377 -5.23645,-0.546317 -1.44718,-0.437674 -0.0826,1.640528 0.65684,3.166118 0.65386,1.854641 1.56964,1.333519 2.79299,-1.555506 4.47604,-1.087913 2.29074,-4.148541 2.07349,-3.926555 v -1.092634"
       style="fill:#a7817e;fill-opacity:1;fill-rule:nonzero;stroke:none;stroke-width:0.157441"
       id="path636" />
    <path
       d="m 163.76627,92.789155 3.38339,-2.289178 1.85463,-2.959871 -0.87222,0.55576 -3.60225,3.383389 -2.94412,0.653377 -5.23645,-0.546317 -1.44718,-0.437674 -0.0826,1.640528 0.0535,0.255053 5.18531,0.398311 3.70771,-0.653378"
       style="fill:#c2aea5;fill-opacity:1;fill-rule:nonzero;stroke:none;stroke-width:0.157441"
       id="path638" />
    <path
       d="m 164.4228,95.190115 -5.12628,1.418535 -3.49656,0.259783 0.33025,0.941492 1.56964,1.333518 2.79299,-1.555506 4.47604,-1.087913 1.31618,-2.382069 -1.86248,1.072169"
       style="fill:#665257;fill-opacity:1;fill-rule:nonzero;stroke:none;stroke-width:0.157441"
       id="path640" />
    <path
       d="m 138.29339,66.384889 2.28967,-0.980849 3.4372,-2.130167 8.67087,-0.815535 h 2.12861 v 0.815535 l -3.27427,2.621381 -3.925,2.127011 -2.45574,-0.817111 -3.43472,1.472064 -1.14695,1.144586 -2.28967,-3.436915"
       style="fill:#665257;fill-opacity:1;fill-rule:nonzero;stroke:none;stroke-width:0.157441"
       id="path642" />
    <path
       d="m 141.73001,68.677218 3.43472,-1.472064 2.45574,0.817111 3.925,-2.127011 0.8678,-0.694311 -2.01239,0.203106 -3.92738,0.491214 -2.45324,0.818686 -2.29025,1.144587 -0.0951,0.90843 0.0951,-0.08975"
       style="fill:#574449;fill-opacity:1;fill-rule:nonzero;stroke:none;stroke-width:0.157441"
       id="path644" />
    <path
       d="m 86.956945,103.04637 -11.293328,0.81397 -17.676922,-3.10472 -15.053293,-6.385766 -6.32531,-3.880896 1.031865,3.225943 v 2.515892 l 1.473639,0.2692 13.91124,7.690947 8.346229,3.43534 17.34734,-0.16374 13.092085,-0.97928 4.747152,-3.9297 1.499924,-0.28183 -11.100621,0.7746"
       style="fill:#403135;fill-opacity:1;fill-rule:nonzero;stroke:none;stroke-width:0.157441"
       id="path646" />
    <path
       d="m 125.66374,94.942935 -1.31369,-2.454492 -0.899,-2.781963 -0.32847,-6.46606 -1.07938,-1.155611 -0.0794,0.07244 -0.31106,3.210202 -0.16557,5.565507 -2.6168,2.865404 -6.71341,3.027574 2.45811,0.409334 4.41761,0.979278 1.54924,0.969829 0.52519,-0.72422 0.65497,-3.106293 1.79952,-0.656524 2.12544,0.818686 0.11692,-0.04565 -0.14014,-0.527427"
       style="fill:#403135;fill-opacity:1;fill-rule:nonzero;stroke:none;stroke-width:0.157441"
       id="path648" />
    <path
       d="m 116.52419,62.348127 0.38426,2.619802 0.96621,5.019189 1.7336,6.108673 1.7356,5.126244 1.15798,4.036766 0.19235,3.381808 0.77244,4.801924 0.96241,0.220421 0.38604,-1.747588 -0.67523,-4.798772 -0.28785,-3.600649 -0.67528,-2.621377 -2.50487,-6.76205 -2.41258,-8.075096 -1.15816,-3.59908 -0.57745,-0.110229"
       style="fill:#665257;fill-opacity:1;fill-rule:nonzero;stroke:none;stroke-width:0.157441"
       id="path650" />
    <path
       d="m 118.54083,99.606308 1.36278,0.506952 0.52287,-0.71792 -0.41237,-0.442404 -2.53558,-0.980853 -3.19131,-0.08501 -4.17277,0.247197 -5.40021,1.065867 -3.27302,0.979273 -1.718916,1.14617 -0.495155,0.82813 1.116251,1.9743 0.85049,-0.59355 1.63725,-1.14459 2.04609,-0.89898 3.2711,-0.32749 6.87763,-1.309894 3.51469,-0.2472"
       style="fill:#403135;fill-opacity:1;fill-rule:nonzero;stroke:none;stroke-width:0.157441"
       id="path652" />
    <path
       d="m 110.63432,98.242876 5.45265,-0.107069 3.49201,0.980855 0.63038,0.579377 0.74597,-1.026508 -1.37635,-0.97298 -4.69123,-1.306751 -5.12672,0.327486 -6.6561,0.870643 -3.05527,1.746007 -1.990844,2.937834 1.117501,-0.2094 0.103537,0.18418 1.970486,-1.71137 4.14699,-1.201266 5.23722,-1.09106"
       style="fill:#665257;fill-opacity:1;fill-rule:nonzero;stroke:none;stroke-width:0.157441"
       id="path654" />
    <path
       d="m 102.2864,101.89863 -2.0738,0.5479 -0.495606,0.5778 1.587756,2.79928 1.47364,1.96801 -0.82041,8.01842 0.16423,4.25403 0.76137,2.16322 0.4939,-4.61457 0.76373,-7.42172 -0.11202,-3.60066 -1.74288,-4.69171"
       style="fill:#403135;fill-opacity:1;fill-rule:nonzero;stroke:none;stroke-width:0.157441"
       id="path656" />
    <path
       d="m 112.924,130.21264 5.56394,-0.81868 v -0.58568 l -2.67459,0.25822 -5.23678,-0.21726 -4.68935,-0.32747 -4.09218,-1.91605 v 0.82499 l 4.58167,2.45291 6.54729,0.32905"
       style="fill:#574449;fill-opacity:1;fill-rule:nonzero;stroke:none;stroke-width:0.157441"
       id="path658" />
    <path
       d="m 45.167634,131.52098 1.80252,-1.14459 v -0.14643 l -2.40158,0.58409 -6.98514,-0.32904 -4.69061,-0.43456 -2.724973,-0.54788 -0.367294,0.18262 0.967469,0.52741 5.073819,0.81712 9.325802,0.49122"
       style="fill:#574449;fill-opacity:1;fill-rule:nonzero;stroke:none;stroke-width:0.157441"
       id="path660" />
    <path
       d="m 18.274362,126.99457 -3.275539,-0.87064 -4.25337,-0.87537 c 0,0 -2.5270357,-0.89898 -4.0731467,-1.40437 l -0.1807907,1.62322 0.4926157,1.30517 11.9107167,0.93834 -0.620473,-0.71635"
       style="fill:#403135;fill-opacity:1;fill-rule:nonzero;stroke:none;stroke-width:0.157441"
       id="path662" />
    <path
       d="m 145.27428,64.037461 5.1266,-0.325923 2.44217,-1.253222 h -0.15174 l -8.67086,0.815535 -3.43721,2.130166 -0.38425,0.162182 h 1.36451 l 3.71101,-1.528742"
       style="fill:#a7817e;fill-opacity:1;fill-rule:nonzero;stroke:none;stroke-width:0.157441"
       id="path664" />
  </g>
</svg>
