<?xml version="1.0" encoding="UTF-8" standalone="no"?>
<!-- Created with Inkscape (http://www.inkscape.org/) -->

<svg
   width="640"
   height="640"
   viewBox="0 0 169.33333 169.33333"
   version="1.1"
   id="svg1764"
   inkscape:version="1.2.2 (732a01da63, 2022-12-09)"
   sodipodi:docname="sheep.svg"
   inkscape:export-filename="..\tiles\wolf\face.png"
   inkscape:export-xdpi="96"
   inkscape:export-ydpi="96"
   xmlns:inkscape="http://www.inkscape.org/namespaces/inkscape"
   xmlns:sodipodi="http://sodipodi.sourceforge.net/DTD/sodipodi-0.dtd"
   xmlns="http://www.w3.org/2000/svg"
   xmlns:svg="http://www.w3.org/2000/svg">
  <sodipodi:namedview
     id="namedview1766"
     pagecolor="#ffffff"
     bordercolor="#000000"
     borderopacity="0.25"
     inkscape:showpageshadow="2"
     inkscape:pageopacity="0.0"
     inkscape:pagecheckerboard="0"
     inkscape:deskcolor="#d1d1d1"
     inkscape:document-units="mm"
     showgrid="false"
     inkscape:zoom="1.1383321"
     inkscape:cx="226.20815"
     inkscape:cy="303.51424"
     inkscape:window-width="1920"
     inkscape:window-height="1051"
     inkscape:window-x="-9"
     inkscape:window-y="-9"
     inkscape:window-maximized="1"
     inkscape:current-layer="layer1" />
  <defs
     id="defs1761" />
  <g
     inkscape:label="Layer 1"
     inkscape:groupmode="layer"
     id="layer1">
    <path
       d="M 40.198227,19.571666 36.345547,18.896603 32.95565,16.019618 30.414709,13.92968 20.144811,17.057222 13.824871,23.312304 10.74744,28.62412 13.597903,31.79588 3.1010284,43.135802 0.27415296,45.520514 0,47.902286 l 0.66620586,3.071533 0.10904286,2.915304 2.42303258,1.361858 2.4937891,3.1865 4.5070796,-1.264579 4.790064,-3.463586 3.658134,0.40676 4.745846,0.18274 1.588826,8.141633 3.75541,2.953624 0.224018,5.827668 3.17471,1.880651 2.033938,5.571213 5.468044,-0.02674 1.665463,10.143149 4.619098,1.644834 1.659575,5.223378 c 0,0 2.882883,8.822564 2.906464,9.364954 0.02088,0.54829 8.474726,11.88819 8.474726,11.88819 l 6.735565,4.48645 0.686845,3.61687 1.509245,1.40016 0.739903,9.81006 -1.184989,7.1571 -2.57337,4.10914 -4.595509,3.82025 -0.04429,3.64635 5.302968,0.34785 4.545407,-0.35671 1.641886,-4.62206 -0.08272,-2.18425 5.208639,-2.0192 -0.834241,-2.70013 0.421549,-3.29851 1.403127,-15.72909 8.430508,-3.60802 0.188674,-4.5631 1.170252,-2.77676 11.319291,0.47754 19.407834,2.35523 10.81521,-3.15407 7.03624,2.83571 8.77247,5.31477 3.15113,6.07823 2.90054,4.44223 -0.3033,6.39363 -1.91599,6.99496 -3.04793,1.39133 -2.08703,2.63822 -2.34346,0.63378 -3.92637,7.07456 0.93443,0.51589 2.36701,-0.0972 -0.48964,1.47976 3.66108,0.40977 8.88444,-1.25573 1.30885,-3.87332 -0.24148,-1.63306 3.9588,-1.24689 -0.371,-5.08777 1.57114,-6.4408 3.384,-11.60817 -1.02876,-3.05974 4.13861,-10.9184 2.538,-19.413757 2.58518,-18.143295 -0.85186,-12.725358 0.9904,-7.513764 -1.72146,-6.862323 -6.73559,-4.4776 -4.1976,-4.94335 -18.16094,-2.950675 -15.0069,-1.615364 -21.51841,-0.268219 -16.436558,-0.828309 -16.716587,1.370698 -7.251426,-3.73478 -3.823209,-4.592568 -10.89481,-3.773092 3.304408,-4.138615 0.362557,-4.751744 -2.897616,0.474607 -8.857939,4.350852"
       style="fill:#d5ab7f;fill-opacity:1;fill-rule:nonzero;stroke:none;stroke-width:0.294773"
       id="path2250" />
    <path
       d="m 162.16653,128.81755 -3.01259,0.84601 -3.91459,11.99726 -0.66596,6.40837 0.61582,3.97649 2.60583,-0.82237 -0.371,-5.08779 1.57114,-6.44079 3.17177,-10.87714"
       style="fill:#a9754d;fill-opacity:1;fill-rule:nonzero;stroke:none;stroke-width:0.294773"
       id="path2252" />
    <path
       d="m 77.843715,124.39596 2.706017,-1.16141 -2.299234,-2.49967 -2.461351,2.46135 -2.322814,10.66194 0.984537,6.70609 -0.386121,4.20641 -1.028763,1.67432 -0.02089,1.16731 3.83794,-1.48862 -0.83424,-2.70012 0.421548,-3.2985 1.403127,-15.7291"
       style="fill:#a9754d;fill-opacity:1;fill-rule:nonzero;stroke:none;stroke-width:0.294773"
       id="path2254" />
    <path
       d="m 152.07351,154.17984 -4.68692,-3.46949 -3.39579,-1.88655 -0.30916,0.39206 -2.34347,0.63378 -3.92638,7.07456 0.93443,0.5159 2.36703,-0.0972 -0.48965,1.47976 3.66108,0.40976 8.88445,-1.25574 0.95807,-2.83572 -1.65369,-0.96095"
       style="fill:#a9754d;fill-opacity:1;fill-rule:nonzero;stroke:none;stroke-width:0.294773"
       id="path2256" />
    <path
       d="m 67.517808,149.94395 -3.914589,-1.39723 -3.322089,2.76497 -0.04428,3.64635 5.302966,0.34785 4.545408,-0.35671 1.462068,-4.1121 -4.029546,-0.89315"
       style="fill:#a9754d;fill-opacity:1;fill-rule:nonzero;stroke:none;stroke-width:0.294773"
       id="path2258" />
    <path
       d="m 153.13176,156.90355 -5.28536,-0.1032 -5.60363,0.0794 2.64711,-5.84242 -0.28911,-0.40383 -3.77898,4.79302 -2.53506,-0.0769 -0.87552,1.5741 0.93442,0.51589 2.36704,-0.0972 -0.48966,1.47975 3.66108,0.40978 8.88445,-1.25575 0.36264,-1.07297"
       style="fill:#714139;fill-opacity:1;fill-rule:nonzero;stroke:none;stroke-width:0.294773"
       id="path2260" />
    <path
       d="m 70.085286,154.9492 0.297717,-0.84601 -2.337553,0.0117 -4.250625,-0.24757 2.762026,-4.26832 -1.500396,-0.53945 -2.440722,2.52621 -0.74876,1.94256 -1.612405,0.12383 -0.01755,1.30585 5.302966,0.34784 4.545408,-0.3567"
       style="fill:#714139;fill-opacity:1;fill-rule:nonzero;stroke:none;stroke-width:0.294773"
       id="path2262" />
    <path
       d="m 170.75034,56.312199 -1.72146,-6.862323 -6.73559,-4.4776 -4.19762,-4.943352 -18.16094,-2.950675 -15.00687,-1.615362 -21.51846,-0.26822 -16.43656,-0.828309 -16.716586,1.370699 -7.251426,-3.73478 -3.823209,-4.592569 -10.89481,-3.773091 3.304408,-4.138616 0.362557,-4.751745 -2.897616,0.474609 -8.857939,4.350851 -3.852681,-0.675064 -3.389896,-2.876984 -2.540941,-2.089938 -10.269898,3.127541 -6.31994,6.255083 -1.081814,1.86002 -1.995618,3.451796 1.918979,2.137106 1.680204,-2.944784 0.716257,-0.725114 4.757644,-4.283052 8.33618,-3.596234 3.893958,1.762751 3.118701,2.885825 1.264572,4.330222 -1.957291,6.087065 c 0,0 -2.190165,7.192466 -2.145954,8.286071 0.04094,1.093611 -0.07352,5.196848 -0.07352,5.196848 l -7.012651,2.458411 -2.803295,4.041337 0.952116,0.03844 1.588825,8.141633 3.755411,2.953624 0.224017,5.827669 3.174711,1.88065 2.033938,5.571212 5.468043,-0.02674 1.665465,10.14315 4.619097,1.644834 1.659574,5.223378 c 0,0 2.882883,8.822558 2.906463,9.364938 0.02089,0.54832 8.474728,11.88821 8.474728,11.88821 l 6.735564,4.48644 0.686845,3.61687 1.403126,1.29995 5.20569,-0.006 4.734056,-0.6338 0.114975,-1.27931 8.430509,-3.60802 0.188673,-4.56309 1.170251,-2.77676 11.319292,0.47753 19.407896,2.35524 10.8152,-3.15408 7.03623,2.83572 8.77249,5.31477 3.15113,6.07823 2.75314,4.21819 7.33394,-0.0501 3.51671,-1.26163 0.6392,-2.17543 -1.02876,-3.05973 4.13862,-10.9184 2.53798,-19.41376 2.5852,-18.143294 -0.85188,-12.72536 0.99041,-7.513763"
       style="fill:#a46d46;fill-opacity:1;fill-rule:nonzero;stroke:none;stroke-width:0.294773"
       id="path2264" />
    <path
       d="m 170.37006,72.937407 -1.80694,7.154139 -3.0745,10.143149 -3.73186,7.431234 -5.41788,6.042841 h -9.65977 l -6.29341,-2.49083 -2.56748,-5.185055 0.99635,-7.331015 -2.47014,-2.638219 -6.47624,2.252066 -4.14446,5.995685 -5.55358,7.319218 -13.86609,4.35971 -14.349557,1.27636 c 0,0 -2.658857,-2.63234 -2.676538,-3.1806 -0.02089,-0.53945 -1.494506,-5.777561 -1.494506,-5.777561 l -3.118692,-5.164428 -0.851896,-3.245449 -1.190882,2.231434 1.102444,4.881444 c 0,0 2.782665,6.09001 2.620539,6.64418 -0.159178,0.54832 -1.792222,5.5388 -1.792222,5.5388 l -1.700843,3.15996 -11.384141,2.62348 -4.232943,-1.11424 -3.28377,-4.79301 -1.718533,-6.86528 -2.947724,-10.27578 -2.809195,-6.638296 -0.984536,-6.703136 2.741388,-4.660366 -4.188724,0.153246 -1.945509,1.538715 -6.237394,-5.7805 -3.569703,-7.69358 0.784105,-3.13344 -1.718532,-2.119417 -4.374431,-0.01755 -0.672055,-3.25724 0.162103,-5.288236 0.483463,-6.393629 2.142998,-10.658993 -0.43918,-6.726726 -5.444455,-4.165143 -3.74657,-2.591059 -3.955858,1.426706 -5.017033,2.199005 -2.072256,2.644119 1.397227,-1.255739 8.33618,-3.596234 3.893958,1.762751 3.118701,2.885826 1.264572,4.330221 -1.957292,6.087065 c 0,0 -2.190165,7.192466 -2.145954,8.286071 0.04094,1.093611 -0.07352,5.196848 -0.07352,5.196848 l -7.012649,2.458412 -2.803296,4.041335 0.952115,0.03844 1.588825,8.141632 3.755412,2.953625 0.224017,5.827667 3.17471,1.880652 2.033938,5.571212 5.468043,-0.02674 1.665465,10.143151 4.619098,1.644834 1.659573,5.223378 c 0,0 2.882884,8.822553 2.906463,9.364943 0.02089,0.54831 8.474729,11.8882 8.474729,11.8882 l 6.735565,4.48645 0.686844,3.61687 1.403127,1.29995 5.20569,-0.006 4.734054,-0.63378 0.114976,-1.27931 8.430509,-3.60803 0.188673,-4.56308 1.170251,-2.77677 11.319292,0.47753 19.407842,2.35524 10.8152,-3.15407 7.03623,2.83571 8.77249,5.31476 3.15113,6.07824 2.75314,4.21819 7.33394,-0.0502 3.51671,-1.26162 0.6392,-2.17543 -1.02876,-3.05974 4.13862,-10.9184 2.53798,-19.413757 2.58519,-18.143294 -0.24149,-3.613915"
       style="fill:#874d2d;fill-opacity:1;fill-rule:nonzero;stroke:none;stroke-width:0.294773"
       id="path2266" />
    <path
       d="m 1.8010788,48.477122 0.9756954,-3.047952 2.3876625,-1.868861 0.038436,0.958014 0.725114,1.064133 -2.1312155,1.447329 -1.9956095,1.447337"
       style="fill:#714139;fill-opacity:1;fill-rule:nonzero;stroke:none;stroke-width:0.294773"
       id="path2268" />
    <path
       d="m 13.326708,38.917632 3.790781,-4.52182 0.698626,-3.174709 1.146664,-2.228485 4.330221,-1.120134 1.721473,2.122368 -0.01504,3.14228 -4.277153,2.626429 -5.217488,2.932994 -3.725931,2.602841 -0.173884,-0.949166 1.721474,-1.432598"
       style="fill:#a9754d;fill-opacity:1;fill-rule:nonzero;stroke:none;stroke-width:0.294773"
       id="path2270" />
    <path
       d="m 19.180906,31.173943 2.599899,0.0351 1.400169,0.902007 -0.654424,0.710409 -3.519594,0.955064 0.633785,-1.391328 -0.459819,-1.211513"
       style="fill:#714139;fill-opacity:1;fill-rule:nonzero;stroke:none;stroke-width:0.294773"
       id="path2272" />
    <path
       d="m 25.24439,50.219235 7.012652,-2.458412 c 0,0 0.114975,-4.103236 0.07353,-5.196848 -0.02089,-0.565937 0.554155,-2.776766 1.117192,-4.772376 l -0.338994,0.09434 -2.538,5.152631 -1.904231,3.7672 -4.966932,2.375872 -4.840174,2.095838 -4.716375,1.82465 c 0,0 -3.20123,2.175426 -3.602124,2.322814 -0.400911,0.156253 -4.3420116,0.851887 -4.3420116,0.851887 l -1.2586794,-0.769403 2.8298251,-1.067075 3.9204789,-1.105402 0.890216,-1.809902 -1.240992,-0.229951 -1.7244212,1.435548 -4.5778289,1.812852 -2.5321003,0.318354 0.6926936,0.389128 2.4937893,3.186501 4.5070795,-1.26458 4.790065,-3.463586 3.658133,0.40676 3.79373,0.14447 2.803295,-4.041337"
       style="fill:#a9754d;fill-opacity:1;fill-rule:nonzero;stroke:none;stroke-width:0.294773"
       id="path2274" />
    <path
       d="m 148.13535,127.35548 2.75314,4.21821 7.33395,-0.0502 3.51669,-1.26164 0.63922,-2.17542 -1.02876,-3.05974 0.0168,-0.0594 -0.38937,-0.11204 -7.20428,1.23509 -4.38026,-3.79962 c 0,0 -4.73706,-5.83356 -5.16153,-6.22855 -0.42699,-0.39206 -2.48785,-7.83509 -2.48785,-7.83509 l -6.04875,-4.41275 -8.10627,6.04875 -13.55072,3.1187 -14.396734,-1.08771 -10.225676,-2.89173 -1.470918,0.87548 -1.120141,2.91236 c 0,0 -4.008909,2.34639 -4.400962,2.90941 -0.386119,0.55415 -7.496082,4.11208 -7.496082,4.11208 l -9.521171,-2.37587 -7.817386,-7.76137 -5.347187,-7.58451 -3.608024,-8.477684 -1.983819,-0.860737 0.928536,2.906464 c 0,0 2.882884,8.822557 2.906465,9.364957 0.02088,0.54829 8.474726,11.88819 8.474726,11.88819 l 6.735565,4.48645 0.686844,3.61686 1.403127,1.29995 5.20569,-0.006 4.734056,-0.63378 0.114974,-1.27931 8.43051,-3.60802 0.188672,-4.56309 1.170252,-2.77678 11.319292,0.47754 19.407911,2.35524 10.81521,-3.15407 7.03623,2.83571 8.77247,5.31477 3.15113,6.07822"
       style="fill:#723e24;fill-opacity:1;fill-rule:nonzero;stroke:none;stroke-width:0.294773"
       id="path2276" />
    <path
       d="m 45.474672,25.246057 2.983104,-1.550515 -0.170959,-0.05933 3.304408,-4.138615 0.362557,-4.751745 -2.897616,0.474609 -8.82551,4.33317 -0.412692,0.713332 -2.119417,1.857071 -1.320589,1.143723 0.960965,3.655183 3.26019,-0.536524 4.875551,-1.140773"
       style="fill:#d5ab7f;fill-opacity:1;fill-rule:nonzero;stroke:none;stroke-width:0.294773"
       id="path2278" />
    <path
       d="m 37.533479,24.868742 3.192398,-2.311022 4.798905,-3.192391 4.878494,-1.140773 -0.896106,1.671364 -2.210805,2.956574 -4.574878,1.951399 -5.034722,0.601365 -0.153245,-0.536524"
       style="fill:#a9754d;fill-opacity:1;fill-rule:nonzero;stroke:none;stroke-width:0.294773"
       id="path2280" />
    <path
       d="m 39.98599,49.650323 -1.208562,1.868861 0.928536,0.327212 2.092887,-2.446612 -1.812861,0.25059"
       style="fill:#874d2d;fill-opacity:1;fill-rule:nonzero;stroke:none;stroke-width:0.294773"
       id="path2282" />
    <path
       d="m 39.201901,52.963572 -0.300642,1.650732 0.996335,-0.03844 0.0351,-1.547566 -0.731048,-0.06518"
       style="fill:#874d2d;fill-opacity:1;fill-rule:nonzero;stroke:none;stroke-width:0.294773"
       id="path2284" />
    <path
       d="m 49.147545,50.941433 -1.462076,2.243224 -2.703068,0.742828 0.02924,0.816527 3.080373,-0.480457 1.921928,-2.169527 -0.06183,-1.547564 -0.804746,0.394977"
       style="fill:#874d2d;fill-opacity:1;fill-rule:nonzero;stroke:none;stroke-width:0.294773"
       id="path2286" />
    <path
       d="m 47.187306,49.738753 -0.112052,1.827599 c 0,0 0.80767,-0.394977 0.792964,-0.666206 -0.0059,-0.277076 0.294791,-1.833491 0.294791,-1.833491 l -0.975695,0.672055"
       style="fill:#874d2d;fill-opacity:1;fill-rule:nonzero;stroke:none;stroke-width:0.294773"
       id="path2288" />
    <path
       d="m 48.593374,62.629188 -0.338994,3.018474 0.801821,1.974979 c 0,0 1.84233,0.477533 1.83054,0.200455 -0.0059,-0.26822 -0.159177,-4.182833 -0.173883,-4.545398 -0.01504,-0.365483 0.716256,-2.764977 0.716256,-2.764977 l -2.835715,2.116476"
       style="fill:#874d2d;fill-opacity:1;fill-rule:nonzero;stroke:none;stroke-width:0.294773"
       id="path2290" />
    <path
       d="m 47.258046,61.128793 -1.762743,1.526926 0.515886,1.441437 1.302899,-1.600615 0.854846,-1.400177 -0.910856,0.03258"
       style="fill:#874d2d;fill-opacity:1;fill-rule:nonzero;stroke:none;stroke-width:0.294773"
       id="path2292" />
    <path
       d="m 64.372576,101.03224 -0.05933,3.28082 1.465017,0.12675 1.126033,-3.87037 0.801821,-2.94478 -1.612414,0.78703 -1.721474,2.62054"
       style="fill:#874d2d;fill-opacity:1;fill-rule:nonzero;stroke:none;stroke-width:0.294773"
       id="path2294" />
    <path
       d="m 68.747009,101.04402 -1.585876,1.52103 1.88655,1.57115 3.15702,-3.22482 0.274153,-2.378825 -3.731831,2.511465"
       style="fill:#874d2d;fill-opacity:1;fill-rule:nonzero;stroke:none;stroke-width:0.294773"
       id="path2296" />
    <path
       d="m 47.007489,56.857529 -4.884393,1.096554 0.981595,1.786322 3.218928,-1.579985 1.759793,-1.712624 -1.075923,0.409768"
       style="fill:#874d2d;fill-opacity:1;fill-rule:nonzero;stroke:none;stroke-width:0.294773"
       id="path2298" />
    <path
       d="m 58.149915,57.523711 -4.156296,0.884324 2.667689,3.183551 1.553456,-2.246175 1.727372,-2.620529 -1.792221,0.798811"
       style="fill:#874d2d;fill-opacity:1;fill-rule:nonzero;stroke:none;stroke-width:0.294773"
       id="path2300" />
    <path
       d="m 55.075432,53.449953 -0.103194,2.007399 1.812853,-0.250589 0.06768,-2.918255 -1.777482,1.161411"
       style="fill:#874d2d;fill-opacity:1;fill-rule:nonzero;stroke:none;stroke-width:0.294773"
       id="path2302" />
    <path
       d="m 50.249998,70.219591 -2.647067,2.287444 3.280828,0.05599 1.037603,-1.494505 -1.671364,-0.848947"
       style="fill:#874d2d;fill-opacity:1;fill-rule:nonzero;stroke:none;stroke-width:0.294773"
       id="path2304" />
    <path
       d="m 55.83595,68.548227 -0.83424,2.036887 1.980869,-0.622003 0.792963,-3.130491 1.187941,-2.231435 -3.257247,0.492238 0.129681,3.454737"
       style="fill:#874d2d;fill-opacity:1;fill-rule:nonzero;stroke:none;stroke-width:0.294773"
       id="path2306" />
    <path
       d="m 71.8156,81.244107 -1.149612,3.322098 c 0,0 4.165144,-0.704475 4.144506,-1.249839 -0.02089,-0.545298 2.414191,-3.557915 2.414191,-3.557915 l -2.042778,-1.014014 -3.366307,2.49967"
       style="fill:#874d2d;fill-opacity:1;fill-rule:nonzero;stroke:none;stroke-width:0.294773"
       id="path2308" />
    <path
       d="m 91.217574,102.37052 4.424541,1.29404 4.678045,-1.45914 1.34712,-2.962456 -5.02588,2.013306 -5.423826,1.11425"
       style="fill:#874d2d;fill-opacity:1;fill-rule:nonzero;stroke:none;stroke-width:0.294773"
       id="path2310" />
    <path
       d="m 93.319302,100.28941 1.621254,-5.350138 1.099504,0.141464 -0.418541,3.295567 -2.302183,1.913077"
       style="fill:#874d2d;fill-opacity:1;fill-rule:nonzero;stroke:none;stroke-width:0.294773"
       id="path2312" />
    <path
       d="m 90.837311,97.282716 -1.783372,0.981595 1.659573,0.483465 1.603565,-0.975696 0.683837,-1.114242 -2.163636,0.624928"
       style="fill:#874d2d;fill-opacity:1;fill-rule:nonzero;stroke:none;stroke-width:0.294773"
       id="path2314" />
    <path
       d="m 104.27013,95.858967 -2.11353,1.904231 c 0,0 2.39357,0.45397 2.5498,-0.09726 0.15917,-0.554155 2.07226,-2.997843 2.07226,-2.997843 l -0.0502,-1.276369 -2.45841,2.46725"
       style="fill:#874d2d;fill-opacity:1;fill-rule:nonzero;stroke:none;stroke-width:0.294773"
       id="path2316" />
    <path
       d="m 115.85172,98.332109 -6.85343,1.898331 -0.31836,1.29407 c 0,0 3.4371,-0.68091 3.97646,-0.88138 0.53978,-0.20338 2.69725,-1.019911 2.69725,-1.019911 l 1.57405,-1.697894 -1.07597,0.406759"
       style="fill:#874d2d;fill-opacity:1;fill-rule:nonzero;stroke:none;stroke-width:0.294773"
       id="path2318" />
    <path
       d="m 99.497747,52.114625 -5.597743,1.3029 2.092895,2.293334 4.303681,-1.804013 1.90424,-2.629377 -2.703073,0.837156"
       style="fill:#874d2d;fill-opacity:1;fill-rule:nonzero;stroke:none;stroke-width:0.294773"
       id="path2320" />
    <path
       d="m 76.953499,82.143173 -1.742112,2.066358 3.434107,-0.680912 2.269753,-2.635269 -3.961748,1.249839"
       style="fill:#874d2d;fill-opacity:1;fill-rule:nonzero;stroke:none;stroke-width:0.294773"
       id="path2322" />
    <path
       d="m 78.940268,76.961055 0.07353,1.818751 2.293334,-1.91013 0.996334,-2.591059 -3.363366,2.682438"
       style="fill:#874d2d;fill-opacity:1;fill-rule:nonzero;stroke:none;stroke-width:0.294773"
       id="path2324" />
    <path
       d="m 70.990233,73.983852 -1.391328,1.691993 4.162195,-0.70155 0.648491,-2.030989 -3.419375,1.040554"
       style="fill:#874d2d;fill-opacity:1;fill-rule:nonzero;stroke:none;stroke-width:0.294773"
       id="path2326" />
    <path
       d="m 70.55692,67.436935 -2.51147,1.008123 4.577827,0.554155 0.999284,-2.411242 -3.065641,0.848947"
       style="fill:#874d2d;fill-opacity:1;fill-rule:nonzero;stroke:none;stroke-width:0.294773"
       id="path2328" />
    <path
       d="m 85.313267,48.096868 -0.610222,3.127541 1.226251,-1.32942 1.538716,-2.605799 -2.154786,0.807669"
       style="fill:#874d2d;fill-opacity:1;fill-rule:nonzero;stroke:none;stroke-width:0.294773"
       id="path2330" />
    <path
       d="m 100.78002,47.504377 -4.318436,1.444387 1.833491,0.294792 3.074485,-0.666206 0.49524,-1.294058 -1.08476,0.221093"
       style="fill:#874d2d;fill-opacity:1;fill-rule:nonzero;stroke:none;stroke-width:0.294773"
       id="path2332" />
    <path
       d="m 73.257038,95.0395 3.428216,-0.857796 1.379538,-2.063408 -2.980154,-1.706743 0.07938,2.187217 -3.422316,1.037603 1.515126,1.403127"
       style="fill:#874d2d;fill-opacity:1;fill-rule:nonzero;stroke:none;stroke-width:0.294773"
       id="path2334" />
    <path
       d="m 76.083914,97.483163 -1.812852,0.253514 1.137822,1.22921 1.627153,-0.424474 -0.952123,-1.058242"
       style="fill:#874d2d;fill-opacity:1;fill-rule:nonzero;stroke:none;stroke-width:0.294773"
       id="path2336" />
    <path
       d="m 111.97548,92.280415 -0.13285,1.282269 1.6094,-0.610223 1.0347,-1.683154 -2.5115,1.011066"
       style="fill:#874d2d;fill-opacity:1;fill-rule:nonzero;stroke:none;stroke-width:0.294773"
       id="path2338" />
  </g>
</svg>
