<?xml version="1.0" encoding="UTF-8" standalone="no"?>
<!-- Created with Inkscape (http://www.inkscape.org/) -->

<svg
   width="640"
   height="640"
   viewBox="0 0 169.33333 169.33333"
   version="1.1"
   id="svg1764"
   inkscape:version="1.2.2 (732a01da63, 2022-12-09)"
   sodipodi:docname="squirrel.svg"
   xmlns:inkscape="http://www.inkscape.org/namespaces/inkscape"
   xmlns:sodipodi="http://sodipodi.sourceforge.net/DTD/sodipodi-0.dtd"
   xmlns="http://www.w3.org/2000/svg"
   xmlns:svg="http://www.w3.org/2000/svg">
  <sodipodi:namedview
     id="namedview1766"
     pagecolor="#ffffff"
     bordercolor="#000000"
     borderopacity="0.25"
     inkscape:showpageshadow="2"
     inkscape:pageopacity="0.0"
     inkscape:pagecheckerboard="0"
     inkscape:deskcolor="#d1d1d1"
     inkscape:document-units="mm"
     showgrid="false"
     inkscape:zoom="1.1383321"
     inkscape:cx="338.65338"
     inkscape:cy="302.63577"
     inkscape:window-width="1920"
     inkscape:window-height="1051"
     inkscape:window-x="-9"
     inkscape:window-y="-9"
     inkscape:window-maximized="1"
     inkscape:current-layer="layer1" />
  <defs
     id="defs1761" />
  <g
     inkscape:label="Layer 1"
     inkscape:groupmode="layer"
     id="layer1">
    <path
       d="m 27.052538,34.473674 -0.764093,-7.385721 -1.274845,-6.11692 2.549268,-3.828622 2.798599,-0.504159 6.123015,8.665624 -1.534778,8.660096 -7.897151,0.509655"
       style="fill:#d14e1f;fill-opacity:1;fill-rule:nonzero;stroke:none;stroke-width:0.554069"
       id="path524" />
    <path
       d="m 23.989654,77.463851 5.218216,4.476883 -1.49096,5.97285 -6.341875,3.352121 -7.823993,-5.224873 -5.9734173,-7.080995 -3.358765,-0.382282 v 1.872754 l -2.2362185,-0.376785 -2.23788353,1.86721 1.49158733,5.213785 1.4909589,5.972852 4.8503208,1.867209 1.8633296,2.615202 5.2226447,6.709778 18.64773,10.06743 5.971752,-0.37678 1.488761,19.02671 8.579743,13.80184 9.696198,5.60163 28.718481,9.69066 14.548186,0.74793 8.2074,-4.10012 8.95154,-24.99403 2.23345,-20.51162 L 104.9291,85.669513 90.75269,68.138784 80.684152,66.271575 73.968288,65.152375 68.750073,59.933044 58.29869,54.336962 55.316129,45.759981 49.723924,36.063785 43.386478,31.963672 29.20787,31.592385 12.425684,40.911812 4.5928167,56.952101 l -0.7463434,2.98088 -1.8638793,3.357667 5.5949835,10.815413 2.9847615,1.1192 1.493157,2.980898 3.354886,-0.365634 8.579195,-0.376783"
       style="fill:#d14e1f;fill-opacity:1;fill-rule:nonzero;stroke:none;stroke-width:0.554069"
       id="path526" />
    <path
       d="m 66.509974,106.92923 -12.310283,3.35765 -5.967321,6.72084 -2.986993,11.55233 0.374586,9.70174 4.103993,11.18112 4.101214,5.97839 -6.715865,-1.12469 H 35.551428 l -4.471323,1.12469 -1.872203,6.70977 2.608008,1.49049 0.755139,2.6152 h 13.800189 l 22.745065,-1.12469 14.171964,-0.3713 2.246191,-5.96176 5.218215,-2.24399 3.354885,-12.67707 -6.709206,-14.17862 -8.952082,-15.66906 -11.936311,-7.08099"
       style="fill:#d14e1f;fill-opacity:1;fill-rule:nonzero;stroke:none;stroke-width:0.554069"
       id="path528" />
    <path
       d="m 76.113098,164.93465 -0.004,-0.006 7.179063,-0.18831 1.378506,-3.65686 -1.378506,3.65686 -7.175183,0.19397"
       style="fill:#c0b9b4;fill-opacity:1;fill-rule:nonzero;stroke:none;stroke-width:0.554069"
       id="path530" />
    <path
       d="m 53.825138,155.4213 -4.144985,-0.69263 -0.006,-0.006 4.151079,0.69814"
       style="fill:#c0b9b4;fill-opacity:1;fill-rule:nonzero;stroke:none;stroke-width:0.554069"
       id="path532" />
    <path
       d="m 94.107575,143.85789 -4.014784,-8.48279 0.0023,-0.006 4.012554,8.48833 m -45.875205,-26.85017 3.064547,-3.45738 -0.0023,0.005 -3.062332,3.45183"
       style="fill:#9b3a1e;fill-opacity:1;fill-rule:nonzero;stroke:none;stroke-width:0.554069"
       id="path534" />
    <path
       d="m 76.109218,164.92912 -1.017269,-0.93638 -2.242312,-4.09457 -14.550947,-1.87275 -6.339096,-1.11371 -2.279441,-2.18302 4.144985,0.69263 -4.101214,-5.97841 -4.103993,-11.1811 -0.374584,-9.70174 2.986991,-11.55233 3.062332,-3.45184 -3.062332,12.76574 2.235668,14.1786 7.083759,11.55788 11.198276,2.98643 11.557877,-1.49598 7.090419,-7.08101 1.484363,-10.07295 1.210138,-1.01948 4.014784,8.4828 -3.354885,12.67707 -5.218216,2.24399 -0.867751,2.30493 -1.378503,3.65684 -7.179064,0.18832"
       style="fill:#9b3a1e;fill-opacity:1;fill-rule:nonzero;stroke:none;stroke-width:0.554069"
       id="path536" />
    <path
       d="m 33.506333,166.23672 h -0.935284 l -0.755139,-2.6152 -1.036744,-0.5929 c 1.112603,-1.51264 2.90221,-3.51279 2.90221,-3.51279 l 5.227073,-0.73692 c -0.376784,1.1192 -4.475751,2.60967 -4.475751,2.60967 l -0.926491,4.84808"
       style="fill:#9b3a1e;fill-opacity:1;fill-rule:nonzero;stroke:none;stroke-width:0.554069"
       id="path538" />
    <path
       d="m 63.898102,109.91565 -8.581973,4.47134 -2.980333,11.56341 1.863895,12.31139 5.220431,-1.49049 0.748541,-17.53626 5.220431,-6.71532 2.240097,-1.86166 -3.731089,-0.74242"
       style="fill:#ea642f;fill-opacity:1;fill-rule:nonzero;stroke:none;stroke-width:0.554069"
       id="path540" />
    <path
       d="m 39.321844,114.55321 -0.03927,-0.54295 -5.971753,0.37678 L 14.663096,104.3196 9.4404517,97.609829 7.5771221,94.994627 2.7268013,93.127418 1.2358424,87.154566 l 1.4909589,5.972852 4.8503208,1.867209 1.8633296,2.615202 5.2226443,6.709771 18.64773,10.06744 5.971753,-0.37678 0.04083,0.54295 h -0.0023"
       style="fill:#c0b9b4;fill-opacity:1;fill-rule:nonzero;stroke:none;stroke-width:0.554069"
       id="path542" />
    <path
       d="m 39.324058,114.55321 -0.04083,-0.54295 -5.971751,0.37678 L 14.66374,104.3196 9.4410958,97.609829 7.577766,94.994627 2.7274452,93.127418 1.2364863,87.154566 0.98330747,86.268126 4.5930524,90.51784 l 4.848106,1.1192 1.8661096,3.357649 10.444739,7.834541 11.559527,2.60965 10.443089,-1.86721 8.58141,-7.457764 6.339646,-7.463292 1.11873,1.867209 -5.594419,10.820957 -4.475767,7.08654 -7.086539,4.47133 -3.313328,1.65667"
       style="fill:#9b3a1e;fill-opacity:1;fill-rule:nonzero;stroke:none;stroke-width:0.554069"
       id="path544" />
    <path
       d="m 30.699426,79.7023 -3.272886,0.714775 1.78133,1.523627 -1.49096,5.972852 -6.341875,3.352121 -5.399948,-3.601452 1.673288,3.224684 7.835082,3.728872 11.184973,0.376786 0.74697,-5.596084 -4.474102,-6.715315 -2.241762,-2.980881"
       style="fill:#c14320;fill-opacity:1;fill-rule:nonzero;stroke:none;stroke-width:0.554069"
       id="path546" />
    <path
       d="m 73.968288,65.152452 -4.994924,-4.997703 c 0,0 0,0 -0.0023,-0.0055 l 4.997138,5.003233"
       style="fill:#c0b9b4;fill-opacity:1;fill-rule:nonzero;stroke:none;stroke-width:0.554069"
       id="path548" />
    <path
       d="m 102.31445,162.87907 v 0 l -9.236883,-0.47653 11.481403,-7.35803 9.69011,-26.85014 -5.59499,-23.12684 L 93.737465,83.431158 84.413591,72.238976 c 0,0 -6.71365,-4.100113 -7.837294,-4.476881 -1.114177,-0.365633 -7.459979,-4.471323 -7.459979,-5.961779 0,-0.288046 -0.05184,-0.880942 -0.142924,-1.645583 l 4.994926,4.997704 6.715864,1.119201 4.915704,0.91424 7.392931,9.158756 16.405971,23.126827 8.57921,19.386849 -2.60801,21.64191 -5.22264,16.78275 0.72309,0.5153 -0.34851,0.98068 -8.2074,4.10012"
       style="fill:#9b3a1e;fill-opacity:1;fill-rule:nonzero;stroke:none;stroke-width:0.554069"
       id="path550" />
    <path
       d="m 28.463207,74.854194 8.952084,-6.338547 5.222094,-7.834531 1.868325,-18.273177 -1.1192,-4.853635 2.984775,0.376784 1.11653,23.498035 -2.242327,9.690668 -8.576981,2.986426 -8.205189,0.747915"
       style="fill:#c14320;fill-opacity:1;fill-rule:nonzero;stroke:none;stroke-width:0.554069"
       id="path552" />
    <path
       d="m 7.5775933,74.106202 2.9847607,1.1192 1.493158,2.980898 3.354886,-0.365633 7.371884,-0.326839 -1.03062,-4.903501 -6.341311,-3.723346 -4.475767,-6.338547 -3.7355338,-6.344075 -2.4240452,0.365633 -0.1823453,0.382282 -0.7463433,2.980881 -1.8638793,3.357666 5.5949835,10.815413"
       style="fill:#ea642f;fill-opacity:1;fill-rule:nonzero;stroke:none;stroke-width:0.554069"
       id="path554" />
    <path
       d="m 7.5775933,78.959837 -0.422174,-0.04397 2.4113077,2.404664 z"
       style="fill:#ea642f;fill-opacity:1;fill-rule:nonzero;stroke:none;stroke-width:0.554069"
       id="path556" />
    <path
       d="m 110.14731,157.28297 5.22265,3.72888 8.20687,-0.74791 9.32441,-15.29229 10.81043,-27.96385 -5.59222,-21.636373 -8.57088,-20.517154 1.49315,-13.430616 4.8459,-1.861679 3.72278,8.953748 9.70062,5.967323 15.29063,-5.224875 4.47632,-27.603693 L 146.70081,9.950688 118.35466,1.0024855 97.466276,7.3465605 81.426554,32.706277 l -1.86999,14.915526 4.105658,17.159505 9.330501,11.563405 16.405967,23.126827 8.57921,19.38685 -2.60801,21.64193 -5.22264,16.78272"
       style="fill:#a63e1f;fill-opacity:1;fill-rule:nonzero;stroke:none;stroke-width:0.554069"
       id="path558" />
    <path
       d="m 138.96996,129.26927 c 0.57782,-5.40219 1.38745,-14.50553 1.38745,-14.50553 0,0 -7.83508,-20.888377 -8.20076,-22.378818 -0.37678,-1.495985 -11.93851,-21.265146 -11.93851,-21.265146 0,0 -5.22044,-20.511626 -4.8481,-22.378835 0.37678,-1.861664 7.09042,-16.034743 7.09042,-16.034743 l 16.41206,1.1192 8.94487,12.30587 -4.84587,10.820959 1.86166,9.690651 6.34354,4.476883 3.83747,1.407403 -5.70303,1.955868 -9.70062,-5.967321 -3.72278,-8.95375 -4.8459,1.861681 -1.49315,13.430616 8.57088,20.517152 5.59222,21.63638 -4.74171,12.26154"
       style="fill:#7b2e19;fill-opacity:1;fill-rule:nonzero;stroke:none;stroke-width:0.554069"
       id="path560" />
    <path
       d="m 112.03059,158.62935 -1.16019,-0.83115 v 0 l 1.16239,0.83115 h -0.002 M 97.46628,7.3464815 l 5.35065,-1.6289506 -0.005,0.00546 -5.346202,1.6234226"
       style="fill:#c0b9b4;fill-opacity:1;fill-rule:nonzero;stroke:none;stroke-width:0.554069"
       id="path562" />
    <path
       d="m 110.87037,157.79825 -0.7231,-0.5153 0.7231,0.5153 v 0"
       style="fill:#742c18;fill-opacity:1;fill-rule:nonzero;stroke:none;stroke-width:0.554069"
       id="path564" />
    <path
       d="m 112.03281,158.62935 -1.1624,-0.83115 -0.7231,-0.51531 5.22265,-16.78274 2.60801,-21.64191 L 109.39876,99.471384 92.992787,76.344557 83.662286,64.78115 79.556628,47.621647 81.426616,32.706119 97.46634,7.3464025 l 5.3462,-1.6234226 -4.971646,4.9810891 c 0,0 -8.583625,13.425071 -9.323874,14.909983 -0.750741,1.490487 -3.73109,17.159488 -3.73109,17.159488 l 5.96676,14.178623 15.28897,14.167534 16.78883,21.641915 5.59276,15.281208 c 0,0 -2.24009,22.75559 -2.60799,24.25157 -0.37019,1.49049 -6.34187,15.66906 -6.34187,15.66906 l -7.44058,10.66582"
       style="fill:#7b2e19;fill-opacity:1;fill-rule:nonzero;stroke:none;stroke-width:0.554069"
       id="path566" />
    <path
       d="m 118.35472,1.0024065 -8.94543,2.7093903 10.43422,2.1386993 17.1523,5.9673239 11.5684,8.948204 9.70062,17.907497 0.74917,10.438645 5.58778,8.953748 -2.28109,11.967879 2.28109,-0.775713 4.47631,-27.603693 L 146.70094,9.950594 118.35478,1.0023914"
       style="fill:#d14e1f;fill-opacity:1;fill-rule:nonzero;stroke:none;stroke-width:0.554069"
       id="path568" />
    <path
       d="m 16.526897,48.181342 2.42406,-4.848107 3.545478,-1.484833 5.598862,1.484833 -0.564627,4.105641 -2.798597,3.352121 -4.285162,0.565099 -3.363759,-2.055586 -0.556302,-1.1192"
       style="fill:#ea642f;fill-opacity:1;fill-rule:nonzero;stroke:none;stroke-width:0.554069"
       id="path570" />
    <path
       d="m 21.931291,42.867822 -2.371966,1.263223 -1.257255,2.23289 -0.703624,1.678833 0.28145,0.842149 3.214145,1.401751 3.0773,-0.288047 2.237883,-2.094379 0.842149,-2.105467 0.138221,-1.667745 -3.21859,-1.401748 -2.240097,0.13822"
       style="fill:#59494c;fill-opacity:1;fill-rule:nonzero;stroke:none;stroke-width:0.554069"
       id="path572" />
    <path
       d="m 23.518149,43.244591 -1.857252,0.282548 -1.400179,0.831156 -0.562898,1.1192 v 1.678833 l 0.844347,1.773021 1.486563,0.565097 2.142579,-0.282549 1.589074,-1.401748 0.280978,-2.332637 -0.748541,-1.579101 -1.774671,-0.653836"
       style="fill:#2e2424;fill-opacity:1;fill-rule:nonzero;stroke:none;stroke-width:0.554069"
       id="path574" />
    <path
       d="m 22.119666,44.823676 -0.181722,1.1192 0.842149,0.09423 0.648809,-1.119202 -1.309241,-0.09423"
       style="fill:#59494c;fill-opacity:1;fill-rule:nonzero;stroke:none;stroke-width:0.554069"
       id="path576" />
    <path
       d="M 1.9826098,63.290789 3.6470245,66.509928 5.1513335,64.592836 4.9674171,62.91402 7.1992067,62.359917 V 60.681084 L 5.8960904,60.498267 h -2.363656 l -1.5496989,2.792505"
       style="fill:#a63e1f;fill-opacity:1;fill-rule:nonzero;stroke:none;stroke-width:0.554069"
       id="path578" />
    <path
       d="m 7.56484,74.089586 0.012757,0.01731 2.2921787,0.864296 5.5406883,-0.116225 4.664143,-1.684378 0.740219,-1.1192 -0.930888,-0.554103 -3.352671,1.673271 -5.036482,1.31317 -3.9300197,-0.393434"
       style="fill:#a63e1f;fill-opacity:1;fill-rule:nonzero;stroke:none;stroke-width:0.554069"
       id="path580" />
    <path
       d="m 44.035852,35.033292 5.98449,1.540274 -0.296369,-0.509655 -6.337448,-4.100115 -14.178608,-0.371285 -16.782186,9.319427 -3.6923107,7.557495 6.7635167,-6.997878 10.07518,-4.194303 10.34945,-3.363194 8.114332,1.119202"
       style="fill:#ea642f;fill-opacity:1;fill-rule:nonzero;stroke:none;stroke-width:0.554069"
       id="path582" />
    <path
       d="m 31.450182,33.620421 1.772472,2.282756 3.294496,0.254907 6.332437,-1.013973 2.026232,-5.069715 -0.253807,-8.106025 -1.016641,-6.08367 -4.051898,-0.243757 -7.603482,6.831665 0.264331,5.828796 -0.764093,5.319063"
       style="fill:#d14e1f;fill-opacity:1;fill-rule:nonzero;stroke:none;stroke-width:0.554069"
       id="path584" />
    <path
       d="m 36.006285,20.693998 -2.281091,3.047379 v 7.601818 l -1.154067,3.717801 0.651638,0.842149 3.294496,0.254907 2.248406,-0.365633 1.038944,-6.227726 -0.499762,-4.305107 -3.298376,-4.565526"
       style="fill:#ea642f;fill-opacity:1;fill-rule:nonzero;stroke:none;stroke-width:0.554069"
       id="path586" />
    <path
       d="m 42.183045,35.2383 0.666559,-0.09423 2.02623,-5.069714 -0.253807,-8.106025 -1.016641,-6.083671 -4.051896,-0.243756 -7.603483,6.831664 0.26433,5.828797 -0.764091,5.319063 1.77247,2.282756 0.29637,0.01731 c 0.729696,-2.127611 1.476039,-4.848089 1.476039,-5.341207 0,-0.759064 0,-6.837209 0,-6.837209 l 3.296711,-5.064187 3.036291,-1.778566 1.770257,2.282772 0.506987,6.837192 -0.251608,4.305124 -1.170718,4.914588"
       style="fill:#a63e1f;fill-opacity:1;fill-rule:nonzero;stroke:none;stroke-width:0.554069"
       id="path588" />
  </g>
</svg>
