<?xml version="1.0" encoding="UTF-8" standalone="no"?>
<!-- Created with Inkscape (http://www.inkscape.org/) -->

<svg
   width="640"
   height="640"
   viewBox="0 0 169.33333 169.33333"
   version="1.1"
   id="svg1764"
   inkscape:version="1.2.2 (732a01da63, 2022-12-09)"
   sodipodi:docname="tiger.svg"
   xmlns:inkscape="http://www.inkscape.org/namespaces/inkscape"
   xmlns:sodipodi="http://sodipodi.sourceforge.net/DTD/sodipodi-0.dtd"
   xmlns="http://www.w3.org/2000/svg"
   xmlns:svg="http://www.w3.org/2000/svg">
  <sodipodi:namedview
     id="namedview1766"
     pagecolor="#ffffff"
     bordercolor="#000000"
     borderopacity="0.25"
     inkscape:showpageshadow="2"
     inkscape:pageopacity="0.0"
     inkscape:pagecheckerboard="0"
     inkscape:deskcolor="#d1d1d1"
     inkscape:document-units="mm"
     showgrid="false"
     inkscape:zoom="1.1383321"
     inkscape:cx="338.65338"
     inkscape:cy="302.63577"
     inkscape:window-width="1920"
     inkscape:window-height="1051"
     inkscape:window-x="-9"
     inkscape:window-y="-9"
     inkscape:window-maximized="1"
     inkscape:current-layer="layer1" />
  <defs
     id="defs1761" />
  <g
     inkscape:label="Layer 1"
     inkscape:groupmode="layer"
     id="layer1">
    <path
       d="m 47.943633,53.083955 -8.602866,4.842829 -7.810141,14.431193 -4.149193,15.222119 -3.459165,12.656574 -5.540062,5.23558 -5.828332,0.89181 -5.9328228,-2.17639 -2.96551,-5.732838 L 0.88820965,97.764802 0,100.23667 l 3.7546331,8.89473 7.7110489,2.56915 6.720144,0.39814 5.83373,-3.0646 9.092916,-10.876547 3.659147,-15.616678 1.581842,-13.939344 4.347375,-9.292898 5.242797,-6.224688"
       style="fill:#c93e21;fill-opacity:1;fill-rule:nonzero;stroke:none;stroke-width:0.180164"
       id="path1720" />
    <path
       d="m 33.135894,69.396066 0.846774,-1.563828 2.841195,1.70796 -1.185484,0.890017 -2.502485,-1.034149"
       style="fill:#664d4b;fill-opacity:1;fill-rule:nonzero;stroke:none;stroke-width:0.180164"
       id="path1722" />
    <path
       d="m 30.525306,76.053154 0.439615,-1.621483 2.497081,0.740477 2.57095,0.299069 0.09907,1.282775 -3.657338,-0.09551 -1.949385,-0.605351"
       style="fill:#664d4b;fill-opacity:1;fill-rule:nonzero;stroke:none;stroke-width:0.180164"
       id="path1724" />
    <path
       d="m 29.18488,80.964443 0.760293,-2.787148 2.035861,1.6395 3.161893,0.891816 0.495432,1.484557 -3.064602,0.39457 -3.388898,-1.623285"
       style="fill:#664d4b;fill-opacity:1;fill-rule:nonzero;stroke:none;stroke-width:0.180164"
       id="path1726" />
    <path
       d="m 28.321892,85.059587 -0.212605,-0.149543 0.479244,-1.749399 2.104322,1.799847 h 4.251889 l 0.394569,0.888209 -3.160087,0.594546 c 0,0 -3.558252,-1.189091 -3.857326,-1.383669"
       style="fill:#664d4b;fill-opacity:1;fill-rule:nonzero;stroke:none;stroke-width:0.180164"
       id="path1728" />
    <path
       d="m 26.932822,89.210582 4.021277,2.53852 3.554651,0.445028 -0.07026,0.311681 -1.684539,1.913348 c 0,0 -3.624914,-0.09009 -3.92579,-0.412596 -0.176551,-0.194578 -1.531399,-1.230524 -2.626802,-2.10973 l 0.73147,-2.686256"
       style="fill:#664d4b;fill-opacity:1;fill-rule:nonzero;stroke:none;stroke-width:0.180164"
       id="path1730" />
    <path
       d="m 23.922268,100.23667 0.263063,-0.971095 1.270159,2.399785 3.806883,1.10082 -1.324212,1.58004 -2.387184,-0.40718 c 0,0 -1.80525,-1.7476 -2.691661,-2.70067 l 1.062973,-1.00171"
       style="fill:#664d4b;fill-opacity:1;fill-rule:nonzero;stroke:none;stroke-width:0.180164"
       id="path1732" />
    <path
       d="m 68.305845,89.855574 -2.174584,8.008319 -5.637355,9.390187 -5.235586,4.84463 -2.473661,1.9746 v 1.58184 l 5.140099,6.42651 3.75643,3.26276 4.846435,0.98731 2.271879,0.49179 1.879115,3.26458 0.295493,1.97999 -1.581847,0.39274 h -1.385465 l -0.491858,1.28457 h -5.042809 l -4.34918,-0.2957 -1.284572,-0.69364 -0.09907,-1.18544 -2.174588,-2.86643 -1.385467,-0.49384 -3.259179,-4.94375 -5.044613,-6.02829 -3.657344,-3.36369 -0.194578,-2.56916 2.46826,-2.76731 1.484556,-8.50198 10.181107,-16.803961 13.148418,6.622853"
       style="fill:#cca78d;fill-opacity:1;fill-rule:nonzero;stroke:none;stroke-width:0.180164"
       id="path1734" />
    <path
       d="m 55.157426,102.51034 c 0.297279,-0.0972 4.250086,0.59274 4.250086,0.59274 l 2.734902,1.40349 -1.648508,2.74751 -0.02349,0.0251 c -0.834162,-0.47924 -2.0773,-1.19269 -2.644819,-1.50797 -0.888214,-0.49543 -2.471859,-1.58365 -2.471859,-1.58365 l -4.545559,0.39814 0.09728,-1.08819 c 0,0 3.954619,-0.89002 4.251888,-0.98731"
       style="fill:#664d4b;fill-opacity:1;fill-rule:nonzero;stroke:none;stroke-width:0.180164"
       id="path1736" />
    <path
       d="m 59.902966,97.074776 c 0.29728,0.194579 2.961904,1.183681 3.262779,1.284571 0.163938,0.05403 1.486361,0.07926 2.614192,0.08831 l -1.711565,2.850203 c -0.888209,-0.12251 -1.821463,-0.28467 -2.187198,-0.46663 -0.792724,-0.39814 -2.372773,-1.68273 -2.967312,-2.176381 -0.594545,-0.491857 -2.569148,-1.286378 -2.569148,-1.286378 l -4.941922,0.29728 -0.19999,-1.185486 c 0,0 4.549158,-0.19999 5.931019,-0.19999 1.383668,0 2.471859,0.594539 2.769135,0.794526"
       style="fill:#664d4b;fill-opacity:1;fill-rule:nonzero;stroke:none;stroke-width:0.180164"
       id="path1738" />
    <path
       d="m 133.54709,90.349224 -3.16189,11.766556 -1.68094,17.00033 -0.29728,3.06283 0.39636,1.98001 2.47186,1.7782 2.86462,3.261 v 1.38542 l -1.58005,0.98736 -0.89,0.49741 -6.32559,0.59093 -6.03192,-3.5582 5.73464,-37.566156 8.50018,-1.185486"
       style="fill:#cca78d;fill-opacity:1;fill-rule:nonzero;stroke:none;stroke-width:0.180164"
       id="path1740" />
    <path
       d="m 122.47417,110.51686 2.66824,-0.19636 4.58339,-1.52599 -0.19637,1.94396 -6.16524,1.65572 -0.89001,-1.87732"
       style="fill:#664d4b;fill-opacity:1;fill-rule:nonzero;stroke:none;stroke-width:0.180164"
       id="path1742" />
    <path
       d="m 122.84171,105.9641 2.69526,-0.49186 c 0,0 2.67004,-0.79093 3.65915,-1.38006 0.33328,-0.19999 0.70624,-0.4558 1.06297,-0.70264 l -0.13871,1.40168 -0.23063,0.28824 c 0,0 -4.151,1.97641 -4.44826,1.97641 -0.24141,0 -2.13856,0.51347 -2.87184,0.70985 l 0.27206,-1.80166"
       style="fill:#664d4b;fill-opacity:1;fill-rule:nonzero;stroke:none;stroke-width:0.180164"
       id="path1744" />
    <path
       d="m 154.80112,37.860038 -0.39456,-3.360074 -1.97821,-2.370969 -2.37277,0.886412 -1.87911,2.668239 6.62465,2.176392"
       style="fill:#f3741c;fill-opacity:1;fill-rule:nonzero;stroke:none;stroke-width:0.180164"
       id="path1746" />
    <path
       d="m 167.74958,53.478513 1.58364,-2.075496 -0.29927,-1.484559 -7.4102,-5.531052 -1.48455,-3.367279 -0.29728,-1.477352 -5.63194,-2.572755 -5.93463,-1.680932 -4.44647,0.693632 -5.83193,2.174588 -4.35098,5.041007 -5.04281,2.271879 -9.39019,2.967311 -3.65554,1.284577 -2.37456,1.778222 -15.814868,0.1027 -13.939344,0.390944 -11.961138,0.693637 -14.333903,-2.273681 -9.588364,1.877319 -6.721946,6.228295 -6.42107,14.137522 -0.300855,14.135727 -2.273681,9.192002 -4.741934,8.797441 -5.242792,3.65555 -0.495432,2.47186 2.0773,2.47185 4.251883,16.70668 1.879118,1.68276 1.974608,2.96366 5.041007,0.39632 4.549159,-0.2002 0.29728,-0.78914 2.963707,-0.69185 -0.495432,-2.96729 -2.271879,-1.48278 -4.842823,-1.38185 -1.284576,-5.041 -1.581848,-9.39198 2.372767,-2.17459 9.982929,-8.30561 c 0,0 8.008326,-7.806532 8.206504,-8.102004 0.194576,-0.29728 4.743736,-4.648246 4.743736,-4.648246 l 5.830132,0.890013 9.492877,4.646448 9.489277,1.679136 11.562972,-2.372773 7.911039,-1.580044 7.21558,1.580044 2.47007,2.176392 0.79272,8.797444 -0.39635,15.12306 -1.48276,3.36186 1.38367,2.47185 -0.59455,3.95279 0.9909,1.68276 3.06281,1.8773 0.79272,2.0755 5.63195,0.88821 5.23919,-0.6918 0.49727,-0.98735 1.58005,-0.099 0.39457,-2.67007 -3.95282,-3.55821 -3.16368,-1.38187 -0.59455,-2.76734 2.37458,-17.99305 1.58003,-10.973832 5.241,-2.470057 3.16369,-4.150995 1.87551,-8.204705 3.36369,-4.745534 4.64464,-5.736448 2.07369,-7.213794 2.86823,-3.163693 5.63374,-0.890013 4.44827,2.176387 2.27548,0.09728 0.69002,-1.086393 0.59456,-2.174585 1.78006,-1.679135 1.1855,-1.780029 0.59272,-1.581847"
       style="fill:#f1471d;fill-opacity:1;fill-rule:nonzero;stroke:none;stroke-width:0.180164"
       id="path1748" />
    <path
       d="m 36.481549,126.48667 -3.369077,0.43972 -2.570951,-4.5474 -1.580044,-6.52555 2.569149,-8.89472 7.90743,-7.711055 3.560054,-8.305596 0.987303,-10.476579 1.980011,-7.316491 3.558252,-2.370965 3.360069,4.745535 8.105613,3.558258 11.66206,-0.396356 15.225723,-0.39457 17.991249,5.138296 6.92013,1.18909 8.1038,-7.316491 4.94373,-10.87294 6.52376,-5.734645 5.33828,-6.523762 -2.76913,-5.140098 -5.52385,-3.920387 4.24108,-1.911546 0.33149,-0.383741 2.73311,0.879199 4.94191,-0.201779 -0.59454,2.967313 -0.19637,5.340081 0.39457,5.336479 7.31469,3.165497 0.9837,1.19629 -1.87371,2.062889 -2.0737,7.213794 -4.64464,5.736447 -3.36368,4.745535 -1.87551,8.204705 -3.1637,4.150994 -5.24099,2.470057 -0.0721,0.508047 -4.96894,-0.111693 -3.75824,1.780031 -3.35826,11.072927 -1.37466,3.66454 0.18916,-7.2246 -0.79272,-8.797443 -2.47006,-2.176392 -7.2156,-1.580045 -7.91103,1.580045 -11.56297,2.372772 -9.489279,-1.679135 -9.492877,-4.646449 -5.830131,-0.890013 c 0,0 -4.549159,4.350977 -4.743736,4.648246 -0.198153,0.295494 -8.206503,8.102014 -8.206503,8.102014 l -9.982929,8.30559 -2.372768,2.17458 1.581848,9.392 0.994506,3.90957"
       style="fill:#c93e21;fill-opacity:1;fill-rule:nonzero;stroke:none;stroke-width:0.180164"
       id="path1750" />
    <path
       d="m 154.75068,44.3838 0.22338,1.03775 1.18729,0.369339 h 1.48275 l 0.89001,0.147755 v -0.664807 l -1.70615,-0.890013 h -2.0773"
       style="fill:#f3741c;fill-opacity:1;fill-rule:nonzero;stroke:none;stroke-width:0.180164"
       id="path1752" />
    <path
       d="m 156.60457,43.641524 -2.37457,0.147755 0.29907,0.893619 1.48276,0.443188 1.03775,-0.443188 1.48455,0.590939 -1.92956,-1.632289"
       style="fill:#1b2725;fill-opacity:1;fill-rule:nonzero;stroke:none;stroke-width:0.180164"
       id="path1754" />
    <path
       d="m 156.55233,43.841505 -0.0955,-1.13684 -0.69183,-0.445027 -1.13864,0.789124 -0.0505,0.792723 h 1.97641"
       style="fill:#c93e21;fill-opacity:1;fill-rule:nonzero;stroke:none;stroke-width:0.180164"
       id="path1756" />
    <path
       d="m 135.72348,89.461015 -3.16369,4.150995 -4.83021,2.27728 -2.23945,-3.414121 1.18549,-2.815976 2.22502,-3.116846 1.92777,-9.782947 5.04281,-4.152799 3.40872,-4.889669 3.36367,-4.05551 2.47006,-4.150994 -3.06461,-1.583644 -1.77822,-0.592743 -0.69183,-1.680938 0.59093,-1.482755 0.19822,-5.239191 v -2.965511 l 3.26097,-0.789122 6.13101,-0.199992 3.36007,2.471859 2.17458,0.890013 0.69364,3.16189 3.16189,0.594546 3.36005,0.394568 3.95463,-1.383662 2.19624,1.172871 -0.91166,1.199896 -0.59272,1.581847 -1.1855,1.78003 -1.78001,1.679136 -0.59456,2.174584 -0.69,1.086393 -2.27552,-0.09728 -4.44826,-2.176386 -5.63375,0.89001 -2.86822,3.163695 -2.0737,7.213792 -4.64464,5.736448 -3.36368,4.745535 -1.87551,8.204706"
       style="fill:#f5d3bd;fill-opacity:1;fill-rule:nonzero;stroke:none;stroke-width:0.180164"
       id="path1758" />
    <path
       d="m 165.87228,51.500304 0.20019,-1.086392 2.17463,0.592743 0.98009,-0.129717 0.10614,0.526082 -1.58364,2.075496 -0.0408,0.115322 -0.84497,-1.10441 -0.98907,-0.989105"
       style="fill:#1b2725;fill-opacity:1;fill-rule:nonzero;stroke:none;stroke-width:0.180164"
       id="path1760" />
    <path
       d="m 54.910599,92.774242 c 0.147738,-0.445027 3.412324,-5.194146 3.556454,-5.783288 0.149526,-0.594541 4.304134,-1.187283 4.304134,-1.187283 l 3.558253,1.776425 5.338281,1.484552 12.454788,1.48276 23.426811,-1.778227 4.74554,0.295492 2.51871,3.709594 1.33861,9.930673 -0.59453,14.38436 -1.63049,6.22831 -0.76751,2.8394 -1.06297,-1.90073 1.48276,-3.36186 0.39635,-15.12307 -0.79272,-8.797443 -2.47005,-2.176392 -7.2156,-1.580043 -7.911036,1.580043 -11.562971,2.372773 -9.489278,-1.679137 -9.492878,-4.646447 -5.830131,-0.890013 c 0,0 -4.549159,4.350976 -4.743736,4.648245 -0.0286,0.03984 -0.210768,0.228796 -0.493646,0.515274 0.455803,-1.11702 0.873797,-2.15657 0.936855,-2.343943"
       style="fill:#f5d3bd;fill-opacity:1;fill-rule:nonzero;stroke:none;stroke-width:0.180164"
       id="path1762" />
    <path
       d="m 36.277963,111.01052 -2.372768,2.17458 1.511586,8.98302 c -0.780116,-0.67382 -1.416099,-1.22513 -1.562033,-1.37103 -0.443188,-0.44504 -0.742276,-2.96735 -1.035945,-3.40874 -0.299068,-0.44861 -0.446815,-4.00688 -0.446815,-4.00688 l 2.223234,-3.85371 c 0,0 4.448265,-2.81778 4.895075,-3.26279 0.299066,-0.30269 3.668154,-1.76021 6.316575,-3.1781 l -9.528914,7.92365"
       style="fill:#cca78d;fill-opacity:1;fill-rule:nonzero;stroke:none;stroke-width:0.180164"
       id="path1764" />
    <path
       d="m 40.326265,134.967 -0.39278,-2.45561 -1.628694,-1.48457 -0.668409,-0.59277 c 0,0 0.814341,0.0741 1.039552,0.0741 0.219806,0 1.403483,0.8918 1.403483,0.8918 l 0.967482,2.00165 0.284665,0.9729 -0.210767,0.55671 -0.794525,0.0358"
       style="fill:#c93e21;fill-opacity:1;fill-rule:nonzero;stroke:none;stroke-width:0.180164"
       id="path1766" />
    <path
       d="m 127.54941,136.65334 0.31531,-1.1026 v -1.70433 l -1.85389,-1.7062 0.14591,-0.4433 1.78003,1.03597 1.03775,2.07729 -0.18197,1.32782 -0.18917,0.37485 -1.05396,0.1404"
       style="fill:#c93e21;fill-opacity:1;fill-rule:nonzero;stroke:none;stroke-width:0.180164"
       id="path1768" />
    <path
       d="m 157.27298,42.603775 -0.39635,-1.479154 -1.87912,-0.592742 -1.38366,0.394569 -0.39274,1.284577 0.69004,-0.10091 1.18908,-0.690026 1.18368,0.194579 0.9891,0.989103"
       style="fill:#1b2725;fill-opacity:1;fill-rule:nonzero;stroke:none;stroke-width:0.180164"
       id="path1770" />
    <path
       d="m 154.40656,38.948229 -1.48455,0.789122 -0.69183,1.282776 -0.099,0.989103 h -1.08641 l 0.39457,-1.776424 1.28458,-1.385467 1.28458,-0.392781 0.39814,0.493646"
       style="fill:#1b2725;fill-opacity:1;fill-rule:nonzero;stroke:none;stroke-width:0.180164"
       id="path1772" />
    <path
       d="m 163.40038,52.984862 0.19611,2.075498 -1.38365,0.989104 -3.65375,0.790926 -2.0809,0.493646 -0.98731,-0.29728 0.29728,-3.459161 2.1764,-0.789123 5.43557,0.196365"
       style="fill:#cca78d;fill-opacity:1;fill-rule:nonzero;stroke:none;stroke-width:0.180164"
       id="path1774" />
    <path
       d="m 152.42835,44.185617 1.58005,0.890019 -0.0972,1.08819 0.39273,1.383669 1.68454,0.594538 1.28457,-0.19999 0.79093,0.790925 -0.49543,0.394571 -0.88822,-0.493647 h -2.27368 l -1.08999,-0.789123 -0.98731,-1.879118 -0.69183,-0.89001 0.79092,-0.890019"
       style="fill:#1b2725;fill-opacity:1;fill-rule:nonzero;stroke:none;stroke-width:0.180164"
       id="path1776" />
    <path
       d="m 159.34668,49.821169 -2.57096,0.592743 -2.56914,0.396357 -1.9764,0.196365 -2.17459,-1.480952 -0.99091,-2.277281 0.19999,-2.071897 0.29544,-1.778222 -1.48095,-0.497271 -0.59274,-0.493647 v 0.493647 l 0.69003,0.792723 0.29365,1.08459 -0.39094,2.275483 0.39094,2.073695 1.68454,2.0773 1.87732,0.59454 1.78183,-0.100859 1.97461,-0.39457 3.65914,-1.185484 -0.10087,-0.297281"
       style="fill:#664d4b;fill-opacity:1;fill-rule:nonzero;stroke:none;stroke-width:0.180164"
       id="path1778" />
    <path
       d="m 153.51475,58.519526 -0.9855,-2.569154 -0.29907,-1.482755 -2.96551,-0.691827 -3.16189,-0.891817 -1.08819,-2.569147 -0.19821,-1.877321 0.099,-2.57095 c 0,0 -0.29906,-1.385466 -0.59274,-1.479149 -0.2955,-0.100909 -1.78183,-0.794527 -1.78183,-0.794527 l -0.19458,0.794527 1.28277,0.789118 0.39815,1.679136 0.0955,2.271879 0.29728,2.372765 1.08819,1.978209 c 0,0 1.28638,1.187287 1.58185,1.187287 0.29549,0 3.26098,0.690033 3.26098,0.690033 l 1.38367,1.088196 0.79452,2.174583 0.98549,-0.09907"
       style="fill:#664d4b;fill-opacity:1;fill-rule:nonzero;stroke:none;stroke-width:0.180164"
       id="path1780" />
    <path
       d="m 146.79461,57.135858 -2.76734,-1.086394 -0.9891,-1.780024 -0.39456,-1.877319 -0.79273,-0.198205 0.59455,2.17459 c 0,0 0.78732,1.581841 0.9873,1.879115 0.19636,0.297282 1.48275,0.987303 1.48275,0.987303 l 1.77823,0.691835 0.10087,-0.790927"
       style="fill:#664d4b;fill-opacity:1;fill-rule:nonzero;stroke:none;stroke-width:0.180164"
       id="path1782" />
    <path
       d="m 142.93908,42.110119 2.0755,-1.385465 0.79092,-2.071892 1.18368,-2.075498 0.99091,0.09728 -0.39457,1.482755 c 0,0 -1.09,1.780026 -1.28818,2.176387 -0.19458,0.390944 -1.38186,1.87732 -1.68093,1.87732 -0.29366,0 -1.38367,0.392782 -1.38367,0.392782 l -0.29365,-0.493641"
       style="fill:#1b2725;fill-opacity:1;fill-rule:nonzero;stroke:none;stroke-width:0.180164"
       id="path1784" />
    <path
       d="m 148.77101,39.047321 1.38367,-1.482755 1.97641,-0.693632 -0.29728,0.989104 -1.97641,1.286374 -1.77823,1.978209 h -0.69364 l 1.38547,-2.0773"
       style="fill:#1b2725;fill-opacity:1;fill-rule:nonzero;stroke:none;stroke-width:0.180164"
       id="path1786" />
    <path
       d="m 156.87662,39.243702 0.98911,-0.605352 1.9764,0.904425 0.12971,0.644987 -0.3297,0.04494 -2.37097,-0.100909 -1.97641,-0.690031 1.58185,-0.198155"
       style="fill:#1b2725;fill-opacity:1;fill-rule:nonzero;stroke:none;stroke-width:0.180164"
       id="path1788" />
    <path
       d="m 134.24073,81.256309 c 0,0 0.49364,-1.482755 0.49364,-1.778222 0,-0.29728 0.59275,-4.05551 0.59275,-4.05551 l -0.89002,-3.259179 -1.68094,-3.068207 c 0,0 -1.18548,-3.851921 -1.28637,-4.149193 -0.0972,-0.295492 -0.49364,-4.644644 -0.49364,-5.340078 0,-0.690032 0.49364,-3.851923 0.49364,-3.851923 l -0.59275,-2.572753 -0.98729,-2.96551 -0.49187,0.09907 1.18369,3.855522 c 0,0 -0.19637,3.659147 -0.29728,3.956416 -0.0972,0.295492 -0.59094,5.334677 -0.59094,5.334677 l 0.88821,4.152798 2.57096,5.141902 0.39456,2.864614 c 0,0 -0.19815,3.460969 -0.19815,3.857331 0,0.394569 -0.19636,2.569148 -0.19636,2.569148 l 1.48275,1.482755 1.0882,0.495432 v -0.596347 l -1.48276,-2.172786"
       style="fill:#1b2725;fill-opacity:1;fill-rule:nonzero;stroke:none;stroke-width:0.180164"
       id="path1790" />
    <path
       d="m 127.12241,94.103858 -0.98909,1.288176 -2.56916,-1.482755 -2.76913,-3.954614 -1.67913,-4.74554 -0.69003,-4.446466 c 0,0 0,-0.789118 0,-1.680935 0,-1.057568 0,-2.259268 0,-2.47006 0,-0.398144 -0.20178,-3.167294 -0.20178,-3.167294 l -0.19458,-1.976407 h 0.39636 l 0.29365,3.066401 0.78912,8.202902 1.48456,4.152797 2.27548,4.051903 1.0864,2.471859 2.76732,0.690033"
       style="fill:#1b2725;fill-opacity:1;fill-rule:nonzero;stroke:none;stroke-width:0.180164"
       id="path1792" />
    <path
       d="m 114.66584,86.200031 c 0,0.297282 0.39635,3.064604 0.39635,3.064604 0,0 0.39457,1.580043 0.69183,1.776425 0.29728,0.19999 0.98731,1.583643 0.98731,1.583643 l -0.19637,1.183683 -1.58365,-2.767326 c 0,0 -1.38186,-1.978209 -1.38186,-2.370971 0,-0.394569 0.29728,-2.767332 0.29728,-2.767332 l 0.78913,0.297279"
       style="fill:#1b2725;fill-opacity:1;fill-rule:nonzero;stroke:none;stroke-width:0.180164"
       id="path1794" />
    <path
       d="m 101.91557,69.590645 1.18549,0.789123 c 0,0 0.39636,5.637356 0.39636,5.934625 0,0.297281 -0.19815,3.657343 -0.19815,4.050101 0,0.398144 -0.19821,2.372772 0.099,2.868226 0.29549,0.495432 1.08458,2.570951 1.18547,3.062799 0.0991,0.497272 0.79094,3.165496 0.79094,3.165496 l -0.59094,0.29728 -0.99091,-3.165496 -1.77822,-3.163693 c 0,0 -0.29907,-3.558253 -0.49544,-4.34737 -0.19999,-0.790926 -1.18548,-6.327388 -1.09,-7.019221 0.10271,-0.691831 1.48636,-2.47186 1.48636,-2.47186"
       style="fill:#1b2725;fill-opacity:1;fill-rule:nonzero;stroke:none;stroke-width:0.180164"
       id="path1796" />
    <path
       d="m 42.603547,64.747815 c 0,0 -0.590939,2.470062 -0.693632,2.969117 -0.09728,0.490071 -1.187288,3.457361 -1.187288,3.457361 0,0 -0.790921,1.084592 -1.181878,1.381862 -0.398145,0.295492 -1.484559,0.495434 -1.484559,0.495434 0,0 0.690032,-1.284573 0.890013,-1.583646 0.196366,-0.293655 1.682741,-2.172785 1.682741,-2.567351 0,-0.398143 0.491858,-2.66824 0.491858,-2.66824 l 0.196367,-1.583643 1.286373,0.09907"
       style="fill:#1b2725;fill-opacity:1;fill-rule:nonzero;stroke:none;stroke-width:0.180164"
       id="path1798" />
    <path
       d="m 115.55765,49.722082 0.0811,-0.0286 -1.56564,7.73988 v 5.237387 l 1.0882,4.646448 0.59274,3.460964 0.59275,1.879117 0.49364,1.679135 v 2.668241 1.976405 l -0.68824,0.396357 -0.19999,-2.66824 -0.89001,-4.350977 -1.78003,-5.140098 -0.78911,-5.437374 -0.10087,-7.312886 0.11532,-2.961904 0.67561,-0.0056 2.37457,-1.778224"
       style="fill:#1b2725;fill-opacity:1;fill-rule:nonzero;stroke:none;stroke-width:0.180164"
       id="path1800" />
    <path
       d="m 107.94388,56.344936 0.79273,4.349174 c 0,0 0.49544,6.031914 0.49544,6.327387 0,0.295492 0.0955,4.051903 0.0955,4.051903 l 0.79092,3.659146 c 0,0 0.99091,2.075499 1.09,2.372768 0.0991,0.295492 0.9873,2.17459 0.9873,2.470062 0,0.295492 -0.0991,1.978209 -0.0991,1.978209 l -0.69002,0.198152 -0.39815,-2.471859 -1.58184,-5.239192 c 0,0 -1.0846,-4.251883 -1.18369,-4.844627 -0.0991,-0.594543 -1.48455,-5.929222 -1.48455,-6.720141 0,-0.792728 -0.0991,-7.021018 -0.0991,-7.318294 0,-0.201779 0.51347,-2.316918 0.83416,-3.621309 l 1.57644,-0.0108 -1.12603,4.81941"
       style="fill:#1b2725;fill-opacity:1;fill-rule:nonzero;stroke:none;stroke-width:0.180164"
       id="path1802" />
    <path
       d="m 100.62739,63.960501 c 0,0.295492 -0.787312,3.060996 -0.787312,3.060996 l -0.792726,-0.09907 c 0,0 0.09907,-3.85372 0,-4.644646 -0.09728,-0.790919 -1.086392,-5.042809 -1.187287,-5.732841 -0.08468,-0.589137 0.403558,-3.951014 0.551304,-4.950923 l 3.052001,-0.01787 -0.73328,4.077128 c 0,0 0,3.0646 0,3.45916 0,0.398144 -0.1027,4.549159 -0.1027,4.848237"
       style="fill:#1b2725;fill-opacity:1;fill-rule:nonzero;stroke:none;stroke-width:0.180164"
       id="path1804" />
    <path
       d="m 94.006344,54.566709 c 0,0 -1.580044,6.521965 -1.580044,6.819235 0,0.297281 0.09728,3.262785 0.09728,3.560054 0,0.297282 0.297282,2.370971 0.297282,2.961911 0,0.59454 -0.198204,4.350976 -0.198204,4.350976 l -1.385466,3.660949 -0.69183,2.172787 -0.491859,-0.396358 0.394571,-3.360072 c 0,0 -0.495434,-4.25189 -0.792728,-4.943719 -0.297282,-0.690033 -0.196366,-8.597463 -0.196366,-8.597463 l 0.693632,-7.711049 0.399982,-1.28998 3.985242,-0.115322 -0.531485,2.888041"
       style="fill:#1b2725;fill-opacity:1;fill-rule:nonzero;stroke:none;stroke-width:0.180164"
       id="path1806" />
    <path
       d="m 83.428872,55.454925 0.626975,-3.477183 2.960106,-0.08289 -1.014328,2.273675 c 0,0 -0.691833,3.857325 -0.691833,4.350981 0,0.495434 0.09549,3.75643 0.09549,4.253688 0,0.493644 0,2.765529 0,2.765529 l -0.890011,2.369166 -0.78912,-0.690031 c 0,0 0.396358,-2.569149 0.396358,-2.965512 0,-0.396355 0.09728,-3.262783 0,-3.855526 -0.09907,-0.592742 -0.693637,-4.941915 -0.693637,-4.941915"
       style="fill:#1b2725;fill-opacity:1;fill-rule:nonzero;stroke:none;stroke-width:0.180164"
       id="path1808" />
    <path
       d="m 70.523676,52.538053 -0.439614,3.313233 c 0,0 -1.08459,2.765529 -1.28457,3.163689 -0.194579,0.394569 -0.592744,2.370969 -0.592744,2.765528 0,0.398144 0.295442,2.275485 0.295442,2.275485 h -0.792724 c 0,0 -0.293655,-3.361878 -0.293655,-4.050106 0,-0.697238 1.879117,-4.945522 1.879117,-5.736442 0,-0.335125 -0.108116,-1.140447 -0.228795,-1.963797 l 1.457533,0.23242"
       style="fill:#1b2725;fill-opacity:1;fill-rule:nonzero;stroke:none;stroke-width:0.180164"
       id="path1810" />
    <path
       d="m 71.269557,67.513344 c 0.297281,-0.985497 1.58365,-4.644646 1.978208,-5.732841 0.394569,-1.086393 2.273677,-6.325578 2.37457,-6.918321 0.03984,-0.24861 0.09728,-1.291783 0.153155,-2.423215 l 3.042985,-0.174763 -1.320608,4.968942 c 0,0 -0.985504,3.163693 -1.185484,3.855528 -0.199992,0.691829 -1.879118,4.053705 -2.273681,4.846429 -0.396358,0.790921 -1.679136,3.457364 -2.073694,3.853726 -0.398145,0.398144 -1.980013,2.374569 -1.980013,2.965509 0,0.594545 -0.29728,2.374571 -0.29728,2.374571 l -0.69003,-0.104488 c 0,0 0.69003,-3.556449 0.790926,-3.850119 0.09549,-0.29728 1.185478,-2.670042 1.480951,-3.660948"
       style="fill:#1b2725;fill-opacity:1;fill-rule:nonzero;stroke:none;stroke-width:0.180164"
       id="path1812" />
    <path
       d="m 119.21319,48.437505 0.89902,-0.286452 -0.20719,0.976496 -0.49365,4.547355 1.18549,5.931026 0.49543,1.482754 0.29728,4.250087 h -0.49727 c 0,0 -0.0972,-1.974608 -0.0972,-2.470061 0,-0.493647 -0.19821,-1.580044 -0.29549,-1.879117 -0.10087,-0.295493 -1.28638,-3.457362 -1.28638,-3.457362 l -0.29365,-2.077296 0.29365,-4.349179 -0.0613,-2.648419 0.0613,-0.01991"
       style="fill:#1b2725;fill-opacity:1;fill-rule:nonzero;stroke:none;stroke-width:0.180164"
       id="path1814" />
    <path
       d="m 130.97615,88.969163 -0.39458,-1.783633 c 0,0 -2.96371,-2.767331 -3.36007,-3.062798 -0.39457,-0.29728 -1.68093,-3.260982 -1.68093,-3.260982 0,0 -0.59275,-4.547357 -0.69184,-5.141902 -0.0991,-0.590939 -0.89001,-4.842824 -0.89001,-5.140098 0,-0.295495 -0.19636,-3.657345 -0.19636,-3.657345 l -1.0882,-2.567346 -0.9891,-2.574556 c 0,0 0.69363,-6.819235 0.69363,-7.114703 0,-0.297279 0.58913,-3.855526 0.58913,-4.152796 0,-0.297282 0.49727,-2.769131 0.49727,-2.769131 v -0.648591 l 1.05217,-0.331498 0.0363,0.484658 -0.89181,3.462766 c 0,0 -0.89002,5.931019 -0.89002,6.226491 0,0.297281 -0.0972,3.857325 -0.0972,3.857325 l 1.87912,4.248284 0.099,4.25189 0.69184,6.22829 1.28276,5.732841 2.57096,2.37097 2.17458,1.286374 0.49365,3.361877 v 2.176387 l -0.49365,-0.399982 -0.39635,-1.082792"
       style="fill:#1b2725;fill-opacity:1;fill-rule:nonzero;stroke:none;stroke-width:0.180164"
       id="path1816" />
    <path
       d="m 126.42879,48.832065 -0.59274,4.25189 0.39635,2.866417 -0.49364,0.987307 -0.49544,-2.470062 -0.29549,-4.349172 0.89721,-3.774455 1.17108,-0.372966 -0.58734,2.861016"
       style="fill:#1b2725;fill-opacity:1;fill-rule:nonzero;stroke:none;stroke-width:0.180164"
       id="path1818" />
    <path
       d="m 144.02727,64.355059 2.37098,0.888211 0.60175,0.688229 -0.43778,1.522394 -0.45942,-0.830561 -2.17641,-1.677334 -1.08819,-1.581845 -0.59274,-1.680938 0.59274,0.394569 1.18909,2.27728"
       style="fill:#664d4b;fill-opacity:1;fill-rule:nonzero;stroke:none;stroke-width:0.180164"
       id="path1820" />
    <path
       d="m 135.91806,47.34931 0.79273,0.792723 0.29728,4.448271 0.59094,4.150995 c 0,0 1.08639,3.264583 1.38367,3.657344 0.29728,0.396356 2.9673,3.657345 2.9673,3.657345 l 1.77823,2.965509 0.49365,3.062799 0.30989,2.017844 -1.22691,1.516987 -1.45575,-2.052077 c 0,0 -1.08638,-4.053706 -1.18547,-4.644645 -0.0991,-0.59454 -1.58005,-4.350976 -1.58005,-4.350976 0,0 -2.17638,-2.66824 -2.27548,-2.965509 -0.0972,-0.297281 -0.0972,-4.053707 -0.1982,-4.54556 -0.0972,-0.493646 -0.49186,-5.635552 -0.49186,-5.635552 l -0.49365,-2.075498 h 0.29366"
       style="fill:#1b2725;fill-opacity:1;fill-rule:nonzero;stroke:none;stroke-width:0.180164"
       id="path1822" />
    <path
       d="m 115.06219,101.81671 2.47547,0.9891 0.88821,2.1746 -0.39636,0.89181 -0.59455,-0.9909 -1.28277,-1.48276 -1.88091,-0.39458 -0.5477,-0.047 -0.25402,-2.78715 1.59265,1.64671"
       style="fill:#1b2725;fill-opacity:1;fill-rule:nonzero;stroke:none;stroke-width:0.180164"
       id="path1824" />
    <path
       d="m 113.8623,110.03402 0.0721,-2.72589 2.31512,0.63598 1.78002,1.88092 1.0864,1.08459 v 0.69363 l -1.97821,-1.08639 -3.27539,-0.48281"
       style="fill:#1b2725;fill-opacity:1;fill-rule:nonzero;stroke:none;stroke-width:0.180164"
       id="path1826" />
    <path
       d="m 58.322923,78.98083 c 0,0 0.293653,-1.480952 0.394569,-2.073694 0.09907,-0.592743 0.196365,-2.767331 0.196365,-3.264588 0,-0.493647 0.297279,-3.457359 0.198153,-3.952812 -0.09907,-0.493645 -0.295442,-4.943718 -0.295442,-5.437367 0,-0.491858 0.789117,-3.163695 0.888209,-3.653746 0.09728,-0.499058 1.086394,-2.870024 1.187287,-3.264582 0.09728,-0.396357 1.383665,-5.437374 1.383665,-5.437374 l 0.124299,-0.646789 2.664634,0.421585 c -0.508046,1.765613 -1.551219,5.365303 -1.702556,5.662578 -0.196366,0.394569 -2.570951,2.965511 -2.66824,3.655541 -0.1027,0.693633 -1.088196,4.844628 -0.989105,6.131006 0.09728,1.286374 -0.09907,4.644646 0.198205,5.435567 0.29728,0.792728 0.198204,2.668239 0,3.460969 -0.198205,0.790921 -0.989104,2.868221 -0.989104,2.868221 l -0.590939,0.09549"
       style="fill:#1b2725;fill-opacity:1;fill-rule:nonzero;stroke:none;stroke-width:0.180164"
       id="path1828" />
    <path
       d="m 52.193719,55.753997 c -0.100909,0.295492 -1.978209,6.42467 -1.978209,7.213794 0,0.792725 0.198153,7.116505 0.198153,7.71105 0,0.592742 -0.198153,4.053705 -0.198153,4.644645 0,0.596348 -0.396355,4.450068 -0.396355,4.450068 l -0.690034,1.877318 -0.69363,-0.989104 0.594544,-4.741934 c 0,0 -0.495432,-5.240993 -0.495432,-5.540066 0,-0.295492 -0.297281,-7.213794 -0.297281,-7.808339 0,-0.589137 0.989104,-5.435571 1.088196,-6.026511 0.08831,-0.520677 1.468343,-4.096947 1.803451,-4.95453 l 2.85741,-0.56211 c -0.677417,1.778222 -1.725978,4.523935 -1.792634,4.725719"
       style="fill:#1b2725;fill-opacity:1;fill-rule:nonzero;stroke:none;stroke-width:0.180164"
       id="path1830" />
    <path
       d="m 66.32944,72.357977 0.293653,-3.161891 0.792723,0.394569 c 0,0 -0.592741,4.450068 -0.691833,4.745541 -0.100909,0.297279 -1.484554,3.954614 -1.583645,4.349177 -0.09907,0.396356 0.0035,3.758233 0.09907,4.051903 0.09907,0.299069 0.297281,2.66824 0.396358,3.462765 0.09907,0.790923 2.471859,4.051904 2.275478,5.037402 -0.05766,0.281042 -0.111693,0.607162 -0.162149,0.931457 l -2.365524,-1.158473 c -0.347738,-0.749483 -0.736873,-1.662916 -0.736873,-2.041264 0,-0.693633 -1.381866,-7.120111 -1.381866,-7.613763 0,-0.493645 -0.09907,-5.534658 0.09728,-5.932823 0.198204,-0.398142 2.967313,-3.0646 2.967313,-3.0646"
       style="fill:#1b2725;fill-opacity:1;fill-rule:nonzero;stroke:none;stroke-width:0.180164"
       id="path1832" />
    <path
       d="m 55.651076,86.792776 c 0.295493,1.18368 1.682742,3.556448 1.978209,4.34737 l 0.06308,0.273839 c -0.675613,0.648591 -1.457531,1.40528 -2.084506,2.023247 l -0.747695,-2.297086 -1.088196,-5.237389 c 0,0 -0.690031,-4.547357 -0.690031,-4.945522 0,-0.392729 0.297281,-3.754632 0.394569,-4.743736 0.09907,-0.989105 1.680939,-5.833731 1.680939,-5.833731 l 0.10091,-2.268273 0.88821,0.295492 c 0,0 -0.88821,3.756437 -0.88821,4.149193 0,0.396358 -0.495433,3.064602 -0.495433,4.150994 0,1.09 -0.396357,3.36368 0,4.943723 0.39457,1.581849 0.59094,3.952812 0.88821,5.141904"
       style="fill:#1b2725;fill-opacity:1;fill-rule:nonzero;stroke:none;stroke-width:0.180164"
       id="path1834" />
    <path
       d="m 44.776333,86.200031 c 0,-0.497271 -0.291866,-3.561856 -0.291866,-4.152796 0,-0.594546 -0.398145,-3.361872 -0.398145,-3.361872 l 0.398145,-0.690031 0.688228,1.480952 c 0,0 0.792729,3.657343 0.792729,4.053706 0,0.394568 0.295493,4.74554 0.592742,5.734645 0.295492,0.9873 2.370965,5.435565 2.668234,6.422871 0.203567,0.688229 0.697239,2.136752 0.980101,3.158286 -0.491858,0.484658 -0.981898,0.962078 -1.437717,1.410688 -0.04851,-0.736872 -0.127927,-1.587248 -0.234206,-1.801648 -0.198205,-0.394568 -2.077301,-5.830129 -2.374572,-6.32378 -0.295492,-0.499058 -1.383668,-5.439172 -1.383668,-5.931021"
       style="fill:#1b2725;fill-opacity:1;fill-rule:nonzero;stroke:none;stroke-width:0.180164"
       id="path1836" />
    <path
       d="m 40.526247,105.9677 c 0,0 0.790927,-5.34008 0.790927,-5.73103 0,-0.398147 0.100909,-5.338286 0.100909,-5.835543 0,-0.491858 -0.201779,-3.853719 -0.297279,-4.248284 -0.09728,-0.394569 0.196366,-1.778222 0.196366,-1.778222 l 0.596342,1.480953 0.592743,3.361872 c 0,0 0.09728,2.670042 0.194578,3.855527 0.10091,1.185484 0.19999,4.251877 0.19999,5.631947 0,0.85218 -0.147754,2.04126 -0.288292,3.03577 l -2.304307,1.91696 c 0.109905,-0.88281 0.21802,-1.68995 0.21802,-1.68995"
       style="fill:#1b2725;fill-opacity:1;fill-rule:nonzero;stroke:none;stroke-width:0.180164"
       id="path1838" />
    <path
       d="m 31.43514,105.07949 0.789117,0.29728 c 0,0 2.963713,2.17279 3.262785,2.56734 0.223381,0.3027 1.073784,1.68455 1.515185,2.46286 l -0.724264,0.60355 -0.338699,0.30811 -0.648591,-1.1981 -2.870025,-3.36008 -1.284571,-0.8882 0.299068,-0.79273"
       style="fill:#1b2725;fill-opacity:1;fill-rule:nonzero;stroke:none;stroke-width:0.180164"
       id="path1840" />
    <path
       d="m 27.577809,114.2733 2.866423,-0.89183 0.792724,1.2864 c 0,0 -3.659147,1.58183 -4.450068,1.68092 -0.363927,0.0449 -1.448521,0.15491 -2.549332,0.2288 l -0.796324,-3.13126 4.136577,0.82695"
       style="fill:#1b2725;fill-opacity:1;fill-rule:nonzero;stroke:none;stroke-width:0.180164"
       id="path1842" />
    <path
       d="m 35.784313,128.21086 1.113419,-0.55671 3.529428,1.00888 -0.347738,0.13888 -4.592401,1.48457 -3.857324,-0.29723 1.482755,-1.03776 2.671841,-0.74046"
       style="fill:#f3741c;fill-opacity:1;fill-rule:nonzero;stroke:none;stroke-width:0.180164"
       id="path1844" />
    <path
       d="m 31.577468,96.451401 1.635894,-0.268426 3.064601,-1.088195 1.679135,-1.086394 0.297282,0.690031 c 0,0 -0.792729,1.484558 -2.273681,2.27548 -1.037749,0.553107 -4.201444,1.92416 -6.141813,2.702472 l 1.738587,-3.224953"
       style="fill:#1b2725;fill-opacity:1;fill-rule:nonzero;stroke:none;stroke-width:0.180164"
       id="path1846" />
    <path
       d="m 39.73713,84.320911 c -0.295493,0.888214 -1.185486,2.471865 -2.473664,3.460969 -1.282773,0.987301 -3.062799,2.073694 -3.358271,2.270075 -0.07568,0.05224 -0.327922,0.126087 -0.661202,0.210816 l 0.78732,-3.18171 1.354835,-0.583733 c 0,0 3.262785,-2.770932 3.363679,-3.264582 0.09728,-0.495434 0.987303,-2.370971 1.284572,-3.064603 0.297281,-0.691833 1.778227,-2.271878 1.778227,-2.271878 h 0.88821 c 0,0 -1.282769,2.174589 -1.383662,2.56915 -0.09907,0.396355 -1.282775,2.963706 -1.580044,3.855521"
       style="fill:#1b2725;fill-opacity:1;fill-rule:nonzero;stroke:none;stroke-width:0.180164"
       id="path1848" />
    <path
       d="m 147.83596,38.05101 -1.29359,2.428619 -1.29358,2.662836 -2.84479,-0.241409 -1.29179,-2.78535 1.29179,-2.666436 1.94036,-0.73147 3.4916,1.333221"
       style="fill:#f3741c;fill-opacity:1;fill-rule:nonzero;stroke:none;stroke-width:0.180164"
       id="path1850" />
    <path
       d="m 145.56048,38.600511 1.59626,0.722461 -0.61437,1.156657 -1.00171,2.061085 -2.54933,-1.273765 -0.19637,-1.284572 1.48095,-1.288177 1.28458,-0.09365"
       style="fill:#c93e21;fill-opacity:1;fill-rule:nonzero;stroke:none;stroke-width:0.180164"
       id="path1852" />
    <path
       d="m 118.96637,131.02682 0.14952,-1.33502 2.96551,-1.03597 1.84488,-0.9855 0.0321,0.14614 3.16369,1.38185 1.25034,1.12783 -4.95812,0.85037 -4.44827,-0.14968"
       style="fill:#f3741c;fill-opacity:1;fill-rule:nonzero;stroke:none;stroke-width:0.180164"
       id="path1854" />
    <path
       d="m 95.689081,83.429094 c 0,-0.295492 0,-4.34737 0,-5.039203 0,-0.693633 0.691835,-4.844632 0.691835,-4.844632 l 0.590939,-3.460963 -0.196365,-2.666438 0.69003,0.490071 -0.09728,1.88092 c 0,0 0.295493,2.965509 0.295493,3.460963 0,0.493646 -0.394569,4.349177 -0.295493,4.940117 0.09907,0.594541 1.09,5.141898 1.09,6.131002 0,0.989105 0.787321,3.659147 0.787321,4.05371 0,0.390943 2.372769,2.370966 2.769129,2.666439 0.39456,0.295442 3.0646,1.879115 3.0646,1.879115 l 0.33691,0.717052 -1.91876,-0.419796 -4.329355,0.864794 -1.898936,-2.643018 c 0,0 -1.482755,-2.077298 -1.580044,-2.374574 -0.102699,-0.295493 -0.497272,-2.471859 -0.497272,-2.967313 0,-0.491859 0.497272,-2.369162 0.497272,-2.668239"
       style="fill:#1b2725;fill-opacity:1;fill-rule:nonzero;stroke:none;stroke-width:0.180164"
       id="path1856" />
    <path
       d="m 97.269125,91.439222 c 0,0 -1.482754,-2.0773 -1.580044,-2.374574 -0.102699,-0.295493 -0.497272,-2.471859 -0.497272,-2.967314 0,-0.491858 0.497272,-2.369162 0.497272,-2.66824 0,-0.169347 0,-1.598056 0,-2.906052 l 2.271879,0.648593 c 0.252236,1.313401 0.497272,2.662831 0.497272,3.149276 0,0.989103 0.78732,3.659147 0.78732,4.05371 0,0.390943 2.372768,2.370965 2.769128,2.666439 0.39457,0.295439 3.06461,1.879115 3.06461,1.879115 l 0.33691,0.717052 -1.91876,-0.419798 -4.329364,0.864795 -1.898936,-2.643017"
       style="fill:#231a19;fill-opacity:1;fill-rule:nonzero;stroke:none;stroke-width:0.180164"
       id="path1858" />
    <path
       d="m 97.269125,91.439222 c 0,0 -0.772903,-1.082793 -1.237729,-1.796244 l 4.014074,-0.304481 c 0.72426,0.695434 1.72417,1.520588 1.9692,1.702558 0.39456,0.295439 3.0646,1.879115 3.0646,1.879115 l 0.33691,0.717052 -1.91876,-0.419798 -4.329359,0.864795 -1.898936,-2.643017"
       style="fill:#664d4b;fill-opacity:1;fill-rule:nonzero;stroke:none;stroke-width:0.180164"
       id="path1860" />
    <path
       d="m 84.515265,74.829836 c 0,-0.295493 -0.392731,-3.952812 -0.392731,-3.952812 l 0.690031,0.196366 c 0,0 0.497272,2.967313 0.497272,3.262786 0,0.297279 -0.100909,3.756435 -0.100909,4.349177 0,0.594541 -0.592744,5.042809 -0.693637,5.534657 -0.09728,0.493646 1.68274,4.54916 2.079102,5.240995 0.394569,0.690026 2.666438,3.45916 2.963707,3.853719 0.18375,0.243248 1.288177,1.372857 2.120542,2.286289 l -5.460796,1.117026 -0.21618,-0.336911 c -0.497271,-0.792723 -1.781828,-3.361872 -2.178191,-4.350977 -0.394568,-0.989104 -1.082792,-3.560054 -1.082792,-5.039208 0,-1.484559 0.589137,-5.439172 0.78732,-6.525566 0.198205,-1.088196 0.987303,-5.336478 0.987303,-5.635551"
       style="fill:#1b2725;fill-opacity:1;fill-rule:nonzero;stroke:none;stroke-width:0.180164"
       id="path1862" />
    <path
       d="m 85.208902,78.685363 c 0,0.594541 -0.592743,5.042809 -0.693637,5.534657 -0.09728,0.493646 1.68274,4.549161 2.079103,5.240995 0.394569,0.690026 2.666436,3.45916 2.963708,3.853719 0.18375,0.243248 1.288175,1.372857 2.120541,2.286289 l -5.460796,1.117026 -0.216179,-0.336911 c -0.497272,-0.792723 -1.781828,-3.361871 -2.178191,-4.350976 -0.394569,-0.989102 -1.082793,-3.560055 -1.082793,-5.039208 0,-1.48456 0.589138,-5.439173 0.787321,-6.525567 0.07026,-0.390943 0.218019,-1.192691 0.381955,-2.068291 l 1.304392,-0.03626 -0.0056,0.324298"
       style="fill:#231a19;fill-opacity:1;fill-rule:nonzero;stroke:none;stroke-width:0.180164"
       id="path1864" />
    <path
       d="m 83.322575,90.453719 0.799934,0.09365 3.071808,-0.232419 c 0.821553,1.088195 2.142159,2.70607 2.363759,2.999741 0.18375,0.243248 1.288175,1.372856 2.120541,2.28629 l -5.460796,1.117026 -0.216179,-0.336911 C 85.50437,95.588374 84.219814,93.019225 83.823451,92.030121 83.681113,91.673396 83.497368,91.100467 83.322606,90.453678"
       style="fill:#664d4b;fill-opacity:1;fill-rule:nonzero;stroke:none;stroke-width:0.180164"
       id="path1866" />
    <path
       d="m 101.91377,82.299466 1.34943,0.385529 c 0.0251,0.237835 0.0649,0.434201 0.13514,0.547703 0.29549,0.495434 1.08459,2.570953 1.18548,3.0628 0.099,0.497273 0.79093,3.165495 0.79093,3.165495 l -0.59094,0.297281 -0.99091,-3.165495 -1.77822,-3.163695 c 0,0 -0.0398,-0.479242 -0.10097,-1.129629"
       style="fill:#231a19;fill-opacity:1;fill-rule:nonzero;stroke:none;stroke-width:0.180164"
       id="path1868" />
    <path
       d="m 77.89241,77.400786 c 0,0 -1.580042,3.460964 -1.677332,3.855523 -0.102698,0.394568 -1.088195,3.16189 -1.189085,4.053705 -0.09907,0.890017 0.691829,3.459167 1.086393,4.349179 0.396356,0.888215 1.980006,3.160088 2.178189,3.558253 0.194578,0.394569 0.194578,1.385465 0.194578,1.385465 l -0.392781,0.09549 c 0,0 -1.385466,-1.87912 -1.680933,-2.369166 -0.299068,-0.495433 -2.0773,-2.670043 -2.471859,-3.064601 -0.396358,-0.398145 -1.682742,-2.767331 -1.682742,-3.361877 0,-0.592742 1.187288,-3.165492 1.187288,-3.165492 0,0 2.077295,-2.468257 2.372767,-2.866422 0.295493,-0.39457 1.680938,-3.459162 1.680938,-3.459162 l 0.394569,0.989105"
       style="fill:#1b2725;fill-opacity:1;fill-rule:nonzero;stroke:none;stroke-width:0.180164"
       id="path1870" />
    <path
       d="m 75.816914,79.870843 c 0.109905,-0.149543 0.383742,-0.68282 0.672013,-1.284571 l 0.879207,-0.02349 c -0.47383,1.043153 -1.093599,2.448438 -1.153056,2.693459 -0.102698,0.394569 -1.088195,3.16189 -1.189085,4.053705 -0.09907,0.890019 0.691829,3.459167 1.086393,4.349178 0.396356,0.888216 1.980006,3.160088 2.178189,3.558253 0.194578,0.394568 0.194578,1.385467 0.194578,1.385467 l -0.392781,0.09549 c 0,0 -1.385466,-1.879123 -1.680933,-2.369167 -0.299068,-0.495434 -2.0773,-2.670042 -2.471859,-3.064602 -0.396358,-0.398144 -1.682742,-2.767332 -1.682742,-3.361876 0,-0.592743 1.187288,-3.165491 1.187288,-3.165491 0,0 2.077295,-2.46826 2.372767,-2.866425"
       style="fill:#231a19;fill-opacity:1;fill-rule:nonzero;stroke:none;stroke-width:0.180164"
       id="path1872" />
    <path
       d="m 76.085359,89.590732 0.02707,0.06848 c 0.396358,0.888214 1.980006,3.160088 2.178191,3.558253 0.194577,0.394569 0.194577,1.385465 0.194577,1.385465 l -0.392782,0.09549 c 0,0 -1.385466,-1.879122 -1.680933,-2.369168 -0.281041,-0.468416 -1.884524,-2.437631 -2.39439,-2.981725 l 2.068291,0.243196"
       style="fill:#664d4b;fill-opacity:1;fill-rule:nonzero;stroke:none;stroke-width:0.180164"
       id="path1874" />
    <path
       d="m 118.42587,79.53033 0.71165,-0.644985 0.37112,3.851921 1.48456,4.152797 2.27549,4.051903 1.08639,2.471859 2.76732,0.690033 -0.98909,1.288176 -2.56916,-1.482755 -2.76913,-3.954614 -1.67913,-4.74554 -0.69003,-4.446466 c 0,0 0,-0.540493 0,-1.232329"
       style="fill:#231a19;fill-opacity:1;fill-rule:nonzero;stroke:none;stroke-width:0.180164"
       id="path1876" />
    <path
       d="m 124.64335,69.050152 0.009,0.245036 0.69183,6.22829 1.28278,5.732841 2.57095,2.37097 2.17459,1.286374 0.49364,3.361877 v 2.176387 l -0.49364,-0.399982 -0.39636,-1.082793 -0.39457,-1.783632 c 0,0 -2.96371,-2.767331 -3.36007,-3.062798 -0.39458,-0.29728 -1.68093,-3.260982 -1.68093,-3.260982 0,0 -0.59275,-4.547357 -0.69184,-5.141902 -0.0991,-0.590939 -0.89001,-4.842824 -0.89001,-5.140098 v -0.01991 l 0.68462,-1.509782"
       style="fill:#231a19;fill-opacity:1;fill-rule:nonzero;stroke:none;stroke-width:0.180164"
       id="path1878" />
    <path
       d="m 130.97615,88.969163 -0.39458,-1.783633 c 0,0 -0.74048,-0.686424 -1.52779,-1.416093 l 0.39278,-1.994422 1.92596,1.138638 0.49364,3.361877 v 2.176386 l -0.49364,-0.399982 -0.39636,-1.082792"
       style="fill:#664d4b;fill-opacity:1;fill-rule:nonzero;stroke:none;stroke-width:0.180164"
       id="path1880" />
    <path
       d="m 131.4698,64.945998 c 0.10087,0.297282 1.28637,4.149193 1.28637,4.149193 l 1.68093,3.068207 0.89003,3.259179 c 0,0 -0.59275,3.758235 -0.59275,4.05551 0,0.295441 -0.49365,1.778222 -0.49365,1.778222 l 1.48276,2.172785 v 0.59635 l -1.0882,-0.495434 -1.48275,-1.482755 c 0,0 0.19637,-2.17459 0.19637,-2.569148 0,-0.396356 0.19815,-3.85733 0.19815,-3.85733 l -0.39457,-2.864615 -2.57095,-5.141903 -0.88821,-4.152796 c 0,0 0.0164,-0.174764 0.045,-0.461217 l 1.39268,-1.223317 c 0.11889,1.412491 0.28104,2.994339 0.33869,3.169095"
       style="fill:#231a19;fill-opacity:1;fill-rule:nonzero;stroke:none;stroke-width:0.180164"
       id="path1882" />
    <path
       d="m 134.79924,73.489409 0.52789,1.933168 c 0,0 -0.59275,3.758235 -0.59275,4.05551 0,0.295441 -0.49365,1.778222 -0.49365,1.778222 l 1.48276,2.172785 v 0.59635 l -1.0882,-0.495434 -1.48275,-1.482755 c 0,0 0.19637,-2.17459 0.19637,-2.569148 0,-0.396356 0.19815,-3.85733 0.19815,-3.85733 l -0.13513,-0.989104 1.38726,-1.142244"
       style="fill:#664d4b;fill-opacity:1;fill-rule:nonzero;stroke:none;stroke-width:0.180164"
       id="path1884" />
    <path
       d="m 136.64773,55.454925 0.65219,-0.798132 0.29907,2.084506 c 0,0 1.0864,3.264583 1.38367,3.657344 0.29728,0.396356 2.96731,3.657345 2.96731,3.657345 l 1.77822,2.965509 0.49365,3.062799 0.30989,2.017844 -1.22691,1.516987 -1.45574,-2.052077 c 0,0 -1.08639,-4.053706 -1.18548,-4.644645 -0.0991,-0.59454 -1.58004,-4.350976 -1.58004,-4.350976 0,0 -2.17639,-2.66824 -2.27548,-2.965509 -0.0829,-0.252237 -0.0972,-3.048388 -0.16036,-4.150995"
       style="fill:#231a19;fill-opacity:1;fill-rule:nonzero;stroke:none;stroke-width:0.180164"
       id="path1886" />
    <path
       d="m 137.00806,52.590304 0.0577,0.40177 -0.78012,-1.444917 c -0.0919,-1.14585 -0.16757,-2.122344 -0.16757,-2.122344 l -0.49364,-2.075498 h 0.29365 l 0.79273,0.792723 0.29728,4.448271"
       style="fill:#231a19;fill-opacity:1;fill-rule:nonzero;stroke:none;stroke-width:0.180164"
       id="path1888" />
    <path
       d="m 140.47082,66.273812 1.6305,-1.961994 1.62688,2.709679 0.49365,3.062799 0.30989,2.017844 -1.22691,1.516987 -1.45575,-2.052077 c 0,0 -1.08638,-4.053706 -1.18547,-4.644645 -0.0199,-0.111693 -0.0901,-0.349525 -0.1928,-0.648593"
       style="fill:#664d4b;fill-opacity:1;fill-rule:nonzero;stroke:none;stroke-width:0.180164"
       id="path1890" />
    <path
       d="m 155.59025,57.728599 0.19999,-0.592741 1.38546,-0.09907 2.27188,0.29728 3.26099,0.495434 2.05926,0.147754 -0.4341,0.407185 -0.53511,-0.06124 -1.97819,-0.196363 -2.0773,-0.398145 h -1.58185 l -1.97821,0.398145 -0.59274,-0.398145"
       style="fill:#1b2725;fill-opacity:1;fill-rule:nonzero;stroke:none;stroke-width:0.180164"
       id="path1892" />
  </g>
</svg>
