<?xml version="1.0" encoding="UTF-8" standalone="no"?>
<!-- Created with Inkscape (http://www.inkscape.org/) -->

<svg
   width="640"
   height="640"
   viewBox="0 0 169.33333 169.33333"
   version="1.1"
   id="svg1764"
   inkscape:version="1.2.2 (732a01da63, 2022-12-09)"
   sodipodi:docname="walrus.svg"
   inkscape:export-filename="..\tiles\penguin\face.png"
   inkscape:export-xdpi="153.60001"
   inkscape:export-ydpi="153.60001"
   xmlns:inkscape="http://www.inkscape.org/namespaces/inkscape"
   xmlns:sodipodi="http://sodipodi.sourceforge.net/DTD/sodipodi-0.dtd"
   xmlns="http://www.w3.org/2000/svg"
   xmlns:svg="http://www.w3.org/2000/svg">
  <sodipodi:namedview
     id="namedview1766"
     pagecolor="#ffffff"
     bordercolor="#000000"
     borderopacity="0.25"
     inkscape:showpageshadow="2"
     inkscape:pageopacity="0.0"
     inkscape:pagecheckerboard="0"
     inkscape:deskcolor="#d1d1d1"
     inkscape:document-units="mm"
     showgrid="false"
     inkscape:zoom="1.1240659"
     inkscape:cx="178.37033"
     inkscape:cy="249.54053"
     inkscape:window-width="1920"
     inkscape:window-height="1051"
     inkscape:window-x="-9"
     inkscape:window-y="-9"
     inkscape:window-maximized="1"
     inkscape:current-layer="layer1" />
  <defs
     id="defs1761" />
  <g
     inkscape:label="Layer 1"
     inkscape:groupmode="layer"
     id="layer1"
     transform="matrix(1.1488475,0,0,1.1488475,-15.663019,-12.175771)">
    <path
       d="m 90.802927,151.5237 v 3.23279 l 0.192181,2.09522 -5.898321,1.14063 -8.749887,-0.75939 -7.606216,-0.57031 -8.749896,1.13758 -0.951533,-2.09217 2.857661,-2.47034 9.31411,-0.37814 10.274791,-0.75939 9.317154,-0.57637"
       style="fill:#272223;fill-opacity:1;fill-rule:nonzero;stroke:none;stroke-width:0.304981"
       id="path430" />
    <path
       d="m 47.248664,22.580978 1.994567,-3.424927 6.279553,-1.137577 12.836633,-1.146731 9.417792,-5.697037 5.706192,-0.576457 9.411697,3.424936 8.844442,14.26089 1.99456,4.855288 0.28667,3.415781 6.56014,6.563182 3.70856,14.263942 3.1413,23.395052 v 5.706192 l 0.56729,34.234058 -1.99762,11.97964 -0.28062,5.99287 5.41645,8.27107 6.2765,4.27888 v 2.56793 l -1.99457,2.56794 -11.12874,-0.5673 -9.98506,-3.14435 H 93.178709 l -5.983717,2.28126 -9.417801,-0.85094 -1.710937,-5.41951 v -7.98439 l -4.281927,-3.99525 -0.573344,-7.70685 -7.133501,-21.1077 -6.560131,-13.977262 -3.989142,-6.279554 -0.573344,-8.27412 c 0,0 -0.570319,-9.698378 -0.853965,-11.125687 -0.289698,-1.427308 -0.860016,-9.698386 -0.860016,-10.842057 0,-1.140628 3.995246,-9.411705 4.281926,-10.558428 0.286672,-1.137577 9.982007,-11.976582 9.982007,-11.976582 l 2.854626,-4.846142 -0.283646,-4.278883 -4.278875,-2.574032 -10.268696,-1.424257 -6.279545,0.856991"
       style="fill:#f0e892;fill-opacity:1;fill-rule:nonzero;stroke:none;stroke-width:0.304981"
       id="path432" />
    <path
       d="m 94.798173,37.034005 c 0,-0.567292 1.521852,-8.179577 1.521852,-8.179577 l -4.376469,-8.368663 c 0,0 -6.849864,-3.232799 -7.795302,-3.232799 -0.951542,0 -10.652972,4.376478 -11.22023,4.565564 -0.20437,0.06743 -2.299558,1.726188 -4.934589,3.851901 l 0.08213,0.05187 0.283647,4.278883 -2.854627,4.846142 c 0,0 -5.770226,6.459484 -8.539447,9.924067 l 4.169081,-2.031171 6.846812,-2.854617 5.70314,-0.567293 4.754642,0.756362 c 0,0 10.463885,0.762412 11.034195,0.381249 0.567292,-0.381249 5.32496,-2.848514 5.32496,-3.421884"
       style="fill:#f6a30e;fill-opacity:1;fill-rule:nonzero;stroke:none;stroke-width:0.304981"
       id="path434" />
    <path
       d="m 75.590504,30.94965 2.08911,2.092161 3.61097,-0.570318 3.043713,-2.089118 0.762412,-5.328012 0.573345,-5.135874 -4.754642,-0.954585 -3.80616,3.235841 -1.5188,8.749896"
       style="fill:#ea4e1d;fill-opacity:1;fill-rule:nonzero;stroke:none;stroke-width:0.304981"
       id="path436" />
    <path
       d="m 125.41822,156.37594 1.99457,-2.56794 v -2.56793 l -6.2765,-4.27888 -5.41645,-8.27107 0.28062,-5.99286 1.99762,-11.97965 -0.56729,-34.234054 v -5.706193 l -3.1413,-23.395052 -3.70857,-14.263941 -6.56013,-6.563183 -0.28667,-3.415781 -1.99457,-4.855288 -8.844435,-14.26089 -9.411697,-3.424936 -5.706192,0.576457 -9.417792,5.697037 -12.836632,1.146731 -6.279554,1.137577 -1.994567,3.424927 6.279545,-0.85699 10.268696,1.424257 4.278875,2.574031 0.283646,4.278884 -1.12843,1.921377 2.272101,-0.594698 3.610971,0.384276 6.465587,-0.189069 1.524904,-1.717041 -0.762499,-4.562512 v -3.424928 l 2.665531,-0.570318 6.270399,2.284308 4.379521,6.27345 0.94849,3.80616 -2.281256,2.284299 -3.610962,0.570318 h -4.943736 l 0.564181,-1.52186 2.095213,-0.762413 -3.614022,-0.570318 -6.468631,1.5188 0.570318,3.806159 c 0,0 1.710938,7.603165 1.710938,8.173474 0,0.573344 0.573344,7.228044 0.573344,7.228044 l 0.378138,6.468631 3.046755,14.071804 3.803108,20.543487 2.66248,2.848522 2.66248,3.046755 1.521852,5.13588 1.713989,5.32496 0.375112,3.99219 3.235841,2.09216 2.47034,0.95154 -0.38125,4.7516 -0.38125,6.2826 -2.662477,3.04066 -3.229746,4.75464 -1.140629,5.32496 -1.140628,4.94374 -0.878344,5.48964 1.921378,-0.73803 h 11.125696 l 9.98506,3.14435 11.12873,0.56729"
       style="fill:#272223;fill-opacity:1;fill-rule:nonzero;stroke:none;stroke-width:0.304981"
       id="path438" />
    <path
       d="m 82.626402,41.599569 0.570318,-4.565564 1.07049,-0.567292 h -0.497094 l 0.564181,-1.521861 2.095213,-0.762412 -3.614022,-0.570319 -6.468631,1.5188 0.570318,3.80616 c 0,0 1.710938,7.603164 1.710938,8.173474 0,0.573344 0.573344,7.228044 0.573344,7.228044 l 0.378138,6.468631 3.046755,14.071804 0.06743,0.365947 0.503232,-1.692636 -0.38125,-7.038949 c 0,0 -1.140628,-4.565564 -1.140628,-5.135874 0,-0.570318 -0.384275,-5.517097 -0.384275,-6.081312 0,-0.573344 0.57637,-7.234139 0.57637,-7.234139 l 0.759387,-6.462536"
       style="fill:#110f0e;fill-opacity:1;fill-rule:nonzero;stroke:none;stroke-width:0.304981"
       id="path440" />
    <path
       d="m 83.577944,60.621204 -1.329714,-4.760745 0.189068,-3.226695 1.710938,-3.23585 3.421885,-0.192094 5.135873,2.665532 2.851566,4.562512 0.762413,3.424927 c 0,0 0.378224,3.418833 0.378224,4.187384 0,0.756361 -1.140628,3.986099 -1.140628,3.986099 l -2.851566,-1.140628 -9.128068,-6.270399"
       style="fill:#453d41;fill-opacity:1;fill-rule:nonzero;stroke:none;stroke-width:0.304981"
       id="path442" />
    <path
       d="m 83.007626,54.911969 -0.38125,3.806151 -1.140628,5.328011 -2.284299,6.651631 -2.854618,11.979634 1.332757,9.704481 2.473394,12.357803 6.654674,11.7936 4.565564,7.03286 0.951533,1.33886 1.332766,-1.33886 0.38125,-2.66248 -1.332766,-10.64992 -2.473394,-6.4595 0.570318,-3.42797 c 0,0 1.521852,-2.095218 1.521852,-2.659433 0,-0.576457 0.38125,-4.37647 0.38125,-4.37647 0,0 -0.38125,-3.04066 -0.38125,-3.800056 0,-0.762413 0.759387,-3.232798 0.759387,-3.998297 0,-0.756362 1.521852,-3.992194 1.521852,-3.992194 l 1.521852,-3.995246 0.570318,-3.424936 c 0,0 -0.192181,-4.565556 -0.378224,-5.132822 -0.19218,-0.576457 -2.098265,-5.135874 -2.098265,-5.135874 l -2.46729,-3.610962 -0.192181,-3.806159 -1.521852,-1.906128 -2.281256,-0.567292 -2.848514,-0.186043 -1.903084,1.137576"
       style="fill:#110f0e;fill-opacity:1;fill-rule:nonzero;stroke:none;stroke-width:0.304981"
       id="path444" />
    <path
       d="m 93.465407,65.183708 -0.08213,-2.564885 -1.628593,-2.378843 -0.192181,-3.806159 -1.521852,-1.906128 -2.281256,-0.567292 -2.848514,-0.186043 -0.695327,0.411767 0.311051,4.718047 -0.756361,4.565555 -3.046755,9.701429 -1.906128,6.279554 -0.378224,6.27345 0.951542,7.984388 2.476437,10.842062 4.184341,8.56081 4.751589,7.98744 1.140629,-0.76242 -1.521852,-7.60316 -1.14368,-6.47168 -0.375112,-4.37343 1.137577,-3.617067 1.14368,-3.04066 -0.189069,-3.607919 -0.38125,-3.998297 1.521852,-3.421876 c 0,0 2.281256,-5.324959 2.281256,-5.901373 0,-0.567292 0.573344,-7.032854 0.573344,-7.032854 L 93.465518,65.18376"
       style="fill:#272223;fill-opacity:1;fill-rule:nonzero;stroke:none;stroke-width:0.304981"
       id="path446" />
    <path
       d="m 51.240858,21.248212 4.946779,-0.94849 h 3.998298 l 5.892226,0.94849 2.08911,0.762499 -0.38125,1.137577 -2.281256,-0.756362 -5.889166,-1.143679 h -3.427962 -4.946779"
       style="fill:#f6a30e;fill-opacity:1;fill-rule:nonzero;stroke:none;stroke-width:0.304981"
       id="path448" />
    <path
       d="m 115.91503,134.54544 0.0856,-1.84818 1.99761,-11.97965 -0.56728,-34.234054 v -5.706193 l -3.14131,-23.395052 -3.70856,-14.263941 -6.56013,-6.563183 -0.28667,-3.415781 -1.99457,-4.855288 -1.39377,-2.241609 0.72585,4.147737 v 6.084364 l -3.42493,5.70008 -1.140628,2.665531 2.476437,0.948491 3.232801,6.090459 2.85156,17.682774 0.94849,21.305942 -0.38125,17.118553 -0.56729,14.44998 -1.52185,10.08266 -1.5188,3.80616 0.94849,1.32971 7.03895,-0.75939 5.90137,-2.15011"
       style="fill:#110f0e;fill-opacity:1;fill-rule:nonzero;stroke:none;stroke-width:0.304981"
       id="path450" />
    <path
       d="m 121.13629,146.96119 -5.41645,-8.27107 0.0674,-1.43951 -3.68112,2.86072 -7.03895,1.71704 -6.465584,1.5249 v 1.70484 l 8.365624,2.47645 8.36866,0.57334 h 5.32496 l 0.75939,-0.95154 -0.28365,-0.1952"
       style="fill:#453d41;fill-opacity:1;fill-rule:nonzero;stroke:none;stroke-width:0.304981"
       id="path452" />
    <path
       d="m 84.526434,130.416 -3.23585,-6.84986 -2.473385,-8.93288 -4.943736,-12.18093 -2.281256,-6.270397 -7.032855,-4.373418 -6.657725,-3.614022 -3.8031,-4.184331 c 0,0 -0.48793,-1.555404 -1.058283,-3.418833 l 0.48793,7.032846 3.989143,6.279554 6.56013,13.977261 7.133501,21.1077 0.573345,7.70686 4.281926,3.99524 v 7.98439 l 1.710938,5.41951 6.88951,0.62522 -0.896637,-10.80242 0.186043,-6.46253 0.570318,-7.03895"
       style="fill:#ddc27a;fill-opacity:1;fill-rule:nonzero;stroke:none;stroke-width:0.304981"
       id="path454" />
    <path
       d="m 71.592207,42.358965 -7.414078,1.137577 -4.562504,2.476445 c 0,0 -2.476446,3.614022 -2.66248,4.184332 -0.192181,0.570318 -2.284308,12.556047 -2.284308,12.556047 l 0.759387,10.265644 1.332766,2.66248 3.614013,-0.951534 4.184332,-8.36562 4.562512,-7.990491 3.80616,-3.037601 2.08911,-4.568607 0.573344,-5.331063 -3.998297,-3.037609"
       style="fill:#fef6b9;fill-opacity:1;fill-rule:nonzero;stroke:none;stroke-width:0.304981"
       id="path456" />
    <path
       d="m 125.03699,153.23769 -5.70618,0.57032 -5.5171,-0.18907 -5.32496,-2.09521 -7.0359,-0.94544 -4.946782,0.37814 -1.253473,1.70789 h 9.051825 l 9.98506,3.14435 11.12874,0.56729 1.99457,-2.56793 v -0.90884 l -2.3758,0.33854"
       style="fill:#110f0e;fill-opacity:1;fill-rule:nonzero;stroke:none;stroke-width:0.304981"
       id="path458" />
  </g>
</svg>
