<?xml version="1.0" encoding="UTF-8" standalone="no"?>
<!-- Created with Inkscape (http://www.inkscape.org/) -->

<svg
   width="640"
   height="640"
   viewBox="0 0 169.33333 169.33333"
   version="1.1"
   id="svg1764"
   inkscape:version="1.2.2 (732a01da63, 2022-12-09)"
   sodipodi:docname="wolf.svg"
   xmlns:inkscape="http://www.inkscape.org/namespaces/inkscape"
   xmlns:sodipodi="http://sodipodi.sourceforge.net/DTD/sodipodi-0.dtd"
   xmlns="http://www.w3.org/2000/svg"
   xmlns:svg="http://www.w3.org/2000/svg">
  <sodipodi:namedview
     id="namedview1766"
     pagecolor="#ffffff"
     bordercolor="#000000"
     borderopacity="0.25"
     inkscape:showpageshadow="2"
     inkscape:pageopacity="0.0"
     inkscape:pagecheckerboard="0"
     inkscape:deskcolor="#d1d1d1"
     inkscape:document-units="mm"
     showgrid="false"
     inkscape:zoom="1.1383321"
     inkscape:cx="338.65338"
     inkscape:cy="302.63577"
     inkscape:window-width="1920"
     inkscape:window-height="1051"
     inkscape:window-x="-9"
     inkscape:window-y="-9"
     inkscape:window-maximized="1"
     inkscape:current-layer="layer1" />
  <defs
     id="defs1761" />
  <g
     inkscape:label="Layer 1"
     inkscape:groupmode="layer"
     id="layer1">
    <path
       d="m 14.012845,43.36981 -0.690881,-4.439152 -1.479747,-3.454315 0.790304,-1.678281 4.2411,2.565378 4.934853,5.130749 -7.795629,1.875621"
       style="fill:#664e48;fill-opacity:1;fill-rule:nonzero;stroke:none;stroke-width:0.184426"
       id="path66" />
    <path
       d="m 61.576984,97.742528 2.565377,9.669502 2.170701,8.09265 0.790273,6.11927 -0.989265,4.5369 -3.551512,0.98669 -1.578506,2.36988 v 2.36805 l 3.750504,0.7875 5.920285,-0.39282 0.788977,-2.76272 2.17126,-4.34324 -0.790273,-2.95821 -0.788793,-9.47402 -0.985575,-15.196762 -1.186601,-9.474003 -7.498059,1.383201 -0.788793,8.288144"
       style="fill:#81655a;fill-opacity:1;fill-rule:nonzero;stroke:none;stroke-width:0.184426"
       id="path68" />
    <path
       d="m 72.50575,125.19999 -1.260006,2.21865 -0.518079,2.58936 -0.664862,-0.66394 0.664862,-4.73792 1.778058,0.59385"
       style="fill:#664e48;fill-opacity:1;fill-rule:nonzero;stroke:none;stroke-width:0.184426"
       id="path70" />
    <path
       d="m 71.050437,97.545188 -1.186601,-9.474003 -7.498059,1.383199 -0.788793,8.288144 2.565377,9.669502 1.695067,6.31846 0.524509,-5.77441 2.072591,-7.17973 2.774329,-0.76353 -0.1584,-2.467632"
       style="fill:#a98879;fill-opacity:1;fill-rule:nonzero;stroke:none;stroke-width:0.184426"
       id="path72" />
    <path
       d="m 67.250321,129.41783 -0.07508,-0.44446 -1.110065,0.29694 -1.627383,1.55471 -0.614512,1.65799 0.734022,0.15311 0.17576,-0.70082 0.665593,-1.48096 1.851647,-1.03646"
       style="fill:#664e48;fill-opacity:1;fill-rule:nonzero;stroke:none;stroke-width:0.184426"
       id="path74" />
    <path
       d="m 61.847169,130.30677 -0.449647,1.66721 0.512904,0.10509 0.232744,-1.10841 0.66504,-1.32971 1.110807,-1.11025 -0.962525,0.14757 -1.109328,1.6285"
       style="fill:#664e48;fill-opacity:1;fill-rule:nonzero;stroke:none;stroke-width:0.184426"
       id="path76" />
    <path
       d="m 73.473989,125.45635 -2.079967,-4.77112 -0.592194,-8.58693 -1.33193,-9.61969 -0.29323,-1.90697 2.032194,-0.55882 -0.1584,-2.467632 0.985574,15.196772 0.788793,9.474 0.790274,2.95821 -0.141109,0.2822"
       style="fill:#6a4e43;fill-opacity:1;fill-rule:nonzero;stroke:none;stroke-width:0.184426"
       id="path78" />
    <path
       d="m 69.176663,100.57164 -1.403489,-9.123601 2.495664,-0.143861 0.781599,6.241003 0.1584,2.467629 -2.032193,0.55882"
       style="fill:#8b6759;fill-opacity:1;fill-rule:nonzero;stroke:none;stroke-width:0.184426"
       id="path80" />
    <path
       d="m 136.57304,58.861666 6.11783,0.19735 9.27535,5.527271 11.44684,15.788781 5.13149,12.039381 0.78878,8.288141 -2.36659,5.72276 h -3.35638 l -10.4605,-10.460681 -5.72146,-18.156822 -4.54002,-9.669498 -3.55316,-2.96005 -2.76218,-6.316618"
       style="fill:#a98879;fill-opacity:1;fill-rule:nonzero;stroke:none;stroke-width:0.184426"
       id="path82" />
    <path
       d="m 166.42142,98.777162 -4.4399,-2.812508 -4.8838,-4.588539 -3.553,-6.954735 -5.47674,-11.102497 -4.14443,-7.993059 -5.27568,-1.717012 0.68735,1.569472 3.55316,2.960048 4.54002,9.669498 5.72146,18.156824 10.4605,10.460686 h 3.35638 l 2.36659,-5.72276 -0.2912,-3.057802 c -0.3926,-0.202892 -0.69582,-0.34671 -0.69582,-0.34671 l -1.92504,1.479104"
       style="fill:#d6c6bf;fill-opacity:1;fill-rule:nonzero;stroke:none;stroke-width:0.184426"
       id="path84" />
    <path
       d="m 166.64052,87.947621 -3.22746,-7.572568 -11.44684,-15.788781 -9.27535,-5.527271 -1.00568,-0.03136 6.82747,4.669685 6.06801,7.993059 4.44137,8.734456 4.88359,6.512108 2.73489,1.010663"
       style="fill:#81655a;fill-opacity:1;fill-rule:nonzero;stroke:none;stroke-width:0.184426"
       id="path86" />
    <path
       d="m 105.19245,85.505807 2.76216,10.458847 5.3303,8.686496 4.53856,6.1156 0.19824,2.96005 -3.94802,8.0945 -1.97393,3.35287 -1.18438,1.18402 -4.14371,1.38319 -2.96023,3.94491 0.78953,0.79118 6.90808,-0.3947 3.9471,-0.98669 0.78898,-4.54058 5.52561,-6.90678 4.34196,-5.92195 1.38247,-2.96006 -0.39633,-2.7627 -2.96023,-3.74755 0.1975,-12.435905 -6.11854,-9.079331 -13.02515,2.764558"
       style="fill:#81655a;fill-opacity:1;fill-rule:nonzero;stroke:none;stroke-width:0.184426"
       id="path88" />
    <path
       d="m 124.13862,104.25648 0.1975,-12.435898 -6.11854,-9.079333 -13.02514,2.764558 2.76215,10.458847 4.6293,7.543056 2.77286,-2.6078 4.93342,-0.988526 2.17291,4.542436 3.55022,5.32624 -1.14344,5.64162 1.24284,-1.69488 1.38247,-2.96005 -0.39632,-2.76272 -2.96024,-3.74755"
       style="fill:#a98879;fill-opacity:1;fill-rule:nonzero;stroke:none;stroke-width:0.184426"
       id="path90" />
    <path
       d="m 115.74517,129.42521 -0.78382,-0.99407 0.88894,-2.96005 3.74903,-5.32993 3.74829,-5.82051 v -5.13259 l -1.97171,-6.1156 c 0,0 -0.023,-0.38916 -0.059,-1.01434 l 1.14622,2.3957 3.55022,5.32624 -1.14345,5.64162 1.24285,-1.69488 -4.34196,5.92195 -5.52561,6.90677 -0.49999,2.86969"
       style="fill:#6a4e43;fill-opacity:1;fill-rule:nonzero;stroke:none;stroke-width:0.184426"
       id="path92" />
    <path
       d="m 124.86987,115.42168 1.14345,-5.64162 -3.55022,-5.32624 -1.14621,-2.3957 c -0.10806,-1.87009 -0.33438,-5.866625 -0.41572,-7.982001 l 3.34698,3.280956 -0.10958,6.899405 2.96023,3.74755 0.39633,2.76272 -1.38247,2.96005 -1.24285,1.69488"
       style="fill:#8b6759;fill-opacity:1;fill-rule:nonzero;stroke:none;stroke-width:0.184426"
       id="path94" />
    <path
       d="m 0.39407506,66.756978 4.73745874,-5.722766 2.1720709,-3.948577 0.1981354,-3.354725 1.5769956,-5.130754 4.1452693,-5.724608 4.736026,-2.170701 10.262284,0.592007 6.315881,2.764558 3.947286,1.182179 17.760489,1.185864 5.726452,-1.381359 3.747734,-0.396532 5.921022,2.764558 14.999806,1.578694 17.564435,-0.787502 11.05344,-1.580539 10.65637,1.973366 12.62902,8.684659 3.55373,12.234876 1.57923,14.997589 -1.97246,13.61992 1.38025,5.525425 3.35638,3.94674 1.57782,1.38135 -0.78883,8.0908 -3.15772,12.04123 -1.57908,1.77419 -1.38171,3.94858 -4.53879,1.57869 -1.97392,-0.19735 -0.59146,-1.38135 -2.96079,0.592 -1.77732,-1.38135 2.76271,-4.34325 4.9349,-0.98484 1.38175,-2.36988 2.76292,-13.81357 -6.71079,-4.73793 -5.13149,-5.52543 -10.06361,-9.866838 -4.73812,-6.119278 -4.93341,0.791187 -16.380793,2.368043 -18.157372,1.576849 -10.261693,0.593857 -2.566852,9.47216 -1.972445,11.05269 -0.989266,7.30147 0.592932,3.74939 v 1.77603 l -3.156098,4.34325 -1.578506,4.93342 -1.186418,0.98484 H 45.98649 l -1.974657,-0.59016 0.788056,-2.76272 4.342698,-2.96005 3.354908,-7.89531 0.197508,-6.70946 -3.15628,-21.316041 -1.777876,-4.144067 -6.710736,-4.343254 -6.314407,-7.694287 -2.368036,-0.789347 -2.962449,2.565378 -3.551511,-2.565378 -5.525609,-7.305147 -3.945795,-1.379514 -5.72514,3.354725 L 7.6969635,71.887702 3.3557232,70.90286 2.0911386e-5,68.925802 0.39409598,66.756948"
       style="fill:#a98879;fill-opacity:1;fill-rule:nonzero;stroke:none;stroke-width:0.184426"
       id="path96" />
    <path
       d="m 147.95349,109.65465 -3.48755,-0.26923 -2.96022,-2.56538 -4.14369,-4.93342 -5.32828,-8.289982 -5.92103,-4.142227 -10.06509,-10.46069 -2.76272,-6.513955 -3.7505,-0.986682 -4.54004,3.55206 -5.722941,0.988527 -11.446081,1.774186 -8.881996,0.19735 -9.276119,-1.182177 -6.117804,-0.789347 -2.367305,2.168861 1.579249,6.314773 1.973183,4.145912 0.28016,2.945301 9.981548,-0.57726 18.157373,-1.576849 16.380793,-2.368041 4.93341,-0.791189 4.73812,6.119278 10.06361,9.866841 5.13149,5.52543 6.71074,4.73792 -2.76291,13.81358 -1.38171,2.36988 -4.9349,0.98483 -2.76271,4.34325 1.77732,1.38135 2.96079,-0.592 0.59146,1.38135 1.97392,0.19735 4.53874,-1.57868 1.38172,-3.94858 1.57907,-1.77419 3.15773,-12.04122 0.72317,-7.42687"
       style="fill:#d6c6bf;fill-opacity:1;fill-rule:nonzero;stroke:none;stroke-width:0.184426"
       id="path98" />
    <path
       d="m 47.760831,89.4341 0.278697,0.665778 0.116732,-4.712105 -2.169781,-5.263542 0.591456,-6.475225 -2.565376,-6.073175 -2.369517,-1.213528 -1.183653,3.238536 -3.157571,5.667434 0.148998,5.215592 3.599274,4.500016 6.710734,4.450219"
       style="fill:#d6c6bf;fill-opacity:1;fill-rule:nonzero;stroke:none;stroke-width:0.184426"
       id="path100" />
    <path
       d="m 28.026427,75.439794 -0.592932,-4.736084 -3.15831,-3.948577 -2.565376,-3.155543 0.78953,-2.172548 3.946547,-2.960048 V 55.311451 L 18.749571,54.916749 15.789393,59.256311 13.223979,59.848323 8.6846293,62.218209 7.1069279,61.427017 4.8707532,61.347711 0.39407506,66.756953 0,68.925809 l 3.3557024,1.977056 4.3412403,0.984842 2.9602003,-1.184024 5.72514,-3.354723 3.945796,1.379512 5.525607,7.305147 2.442922,1.764964 -0.270176,-2.358816"
       style="fill:#d6c6bf;fill-opacity:1;fill-rule:nonzero;stroke:none;stroke-width:0.184426"
       id="path102" />
    <path
       d="m 50.128873,80.572388 -1.775111,-4.538742 c 0,0 0.789537,-6.119283 0.789537,-6.71129 0,-0.593857 0.593669,-5.920103 0.593669,-5.920103 l 0.195102,-8.684659 3.354354,-4.933414 -1.577769,7.10412 1.775842,9.274821 1.579803,5.921948 -1.579803,4.343252 -3.355645,4.144067"
       style="fill:#81655a;fill-opacity:1;fill-rule:nonzero;stroke:none;stroke-width:0.184426"
       id="path104" />
    <path
       d="m 11.299023,53.928247 -1.9256721,2.664968 c 0.4452034,0.145691 2.5171501,-1.925416 2.5171501,-1.925416 l -0.591478,-0.739552"
       style="fill:#81655a;fill-opacity:1;fill-rule:nonzero;stroke:none;stroke-width:0.184426"
       id="path106" />
    <path
       d="m 10.484963,53.188695 0.887558,1.182177 0.297517,0.890784 1.108016,-0.890784 0.888274,-1.847955 -1.554663,0.444472 -1.626702,0.221294"
       style="fill:#664e48;fill-opacity:1;fill-rule:nonzero;stroke:none;stroke-width:0.184426"
       id="path108" />
    <path
       d="m 11.670038,53.410009 0.295373,0.665783 0.295374,-0.29506 -0.07492,-0.444472 -0.515832,0.07377"
       style="fill:#a98879;fill-opacity:1;fill-rule:nonzero;stroke:none;stroke-width:0.184426"
       id="path110" />
    <path
       d="M 5.2278463e-6,68.925834 2.6000014,70.458425 2.2693402,68.582804 3.3053058,67.990792 3.1583512,66.804928 1.973261,66.657398 1.4992523,65.423579 0.39413256,66.75699 5.750631e-5,68.925844"
       style="fill:#664e48;fill-opacity:1;fill-rule:nonzero;stroke:none;stroke-width:0.184426"
       id="path112" />
    <path
       d="m 12.038172,67.843252 -3.8477363,2.465786 -2.8247519,1.047546 0.7953384,0.182608 2.4220405,-1.132382 1.9753783,-1.184019 2.961638,-1.774189 2.268598,-0.791187 0.295373,-0.592012 -1.184353,-0.09776 -2.861509,1.875621"
       style="fill:#664e48;fill-opacity:1;fill-rule:nonzero;stroke:none;stroke-width:0.184426"
       id="path114" />
    <path
       d="m 10.853819,50.473937 0.98696,-2.860465 3.947898,-3.55206 2.466706,-0.39465 -0.492776,3.255135 2.268545,2.862303 5.62649,1.678281 0.195314,2.368041 -2.269373,-0.789347 -4.637412,-1.381354 -1.875156,0.49241 -1.776548,-1.578689 -4.440648,-0.09959"
       style="fill:#81655a;fill-opacity:1;fill-rule:nonzero;stroke:none;stroke-width:0.184426"
       id="path116" />
    <path
       d="m 24.324243,62.660856 1.478916,2.812508 1.778059,-0.147522 -1.923571,-2.515581 -0.445934,-1.331559 -0.887458,1.182172"
       style="fill:#81655a;fill-opacity:1;fill-rule:nonzero;stroke:none;stroke-width:0.184426"
       id="path118" />
    <path
       d="m 27.136753,62.957783 4.143699,2.812513 2.813247,3.6996 2.219576,0.741397 1.185127,-0.44447 -2.666261,-2.071111 -2.071109,-4.590384 -6.216474,-3.10944 0.592195,2.961895"
       style="fill:#81655a;fill-opacity:1;fill-rule:nonzero;stroke:none;stroke-width:0.184426"
       id="path120" />
    <path
       d="m 28.616406,69.322356 0.739923,3.848987 2.813245,-0.147522 2.071853,0.741392 0.740655,-0.741392 -2.369517,-1.48095 -1.478916,-3.847141 -2.368778,-1.925416 -1.628118,0.592007 1.479653,2.960053"
       style="fill:#81655a;fill-opacity:1;fill-rule:nonzero;stroke:none;stroke-width:0.184426"
       id="path122" />
    <path
       d="m 36.461003,72.431791 1.037399,-1.038324 -3.256975,-1.036479 -0.14774,0.743239 2.367306,1.331564"
       style="fill:#81655a;fill-opacity:1;fill-rule:nonzero;stroke:none;stroke-width:0.184426"
       id="path124" />
    <path
       d="m 122.60788,49.634793 8.87978,5.479316 2.96318,5.920103 v 7.991212 l -0.44541,3.553907 5.62579,7.10412 0.29538,3.25698 0.8869,5.772556 1.82327,2.982184 1.04034,-7.177891 -1.57923,-14.997589 -3.55373,-12.234874 -12.62902,-8.684661 -10.65637,-1.973366 -11.05344,1.580541 -17.564436,0.787502 -14.999805,-1.578696 -5.921022,-2.764558 -3.748475,0.396532 -5.725711,1.381359 -17.261982,-1.150826 0.735494,1.101031 c 0,0 4.58614,1.036479 5.030793,0.888937 0.445204,-0.151232 7.846073,0.590167 7.846073,0.590167 l 5.920286,2.368036 7.104857,1.038324 5.772557,-0.741392 0.741397,2.664963 0.147001,2.517428 2.071853,0.887092 3.700154,-2.960048 5.180368,-1.777876 12.87834,-1.034632 7.549138,-0.296942 7.9938,-1.036484 10.95182,0.147538"
       style="fill:#81655a;fill-opacity:1;fill-rule:nonzero;stroke:none;stroke-width:0.184426"
       id="path126" />
    <path
       d="m 58.368879,125.49508 -1.554532,1.85164 -1.701705,0.81332 -0.14774,-0.51823 2.145434,-1.99734 0.888202,-2.07296 0.37034,1.92357"
       style="fill:#64504a;fill-opacity:1;fill-rule:nonzero;stroke:none;stroke-width:0.184426"
       id="path128" />
    <path
       d="m 47.415035,133.11928 2.812508,-1.18402 -0.148478,-0.59386 -3.108515,1.18402 -0.826418,2.71292 h 1.002915 c 0.07194,-0.74877 0.26798,-2.11906 0.26798,-2.11906"
       style="fill:#64504a;fill-opacity:1;fill-rule:nonzero;stroke:none;stroke-width:0.184426"
       id="path130" />
    <path
       d="m 46.675849,131.41702 -1.628118,1.40534 -0.427324,2.01025 0.467734,0.13834 0.254126,-1.85165 1.406992,-1.40717 -0.0734,-0.29506"
       style="fill:#64504a;fill-opacity:1;fill-rule:nonzero;stroke:none;stroke-width:0.184426"
       id="path132" />
    <path
       d="m 57.777421,82.791044 0.14774,6.956582 -3.109252,4.293457 -2.368779,0.888932 -1.035187,-1.776029 2.812508,-3.109435 2.071848,-5.920103 1.481133,-1.333404"
       style="fill:#81655a;fill-opacity:1;fill-rule:nonzero;stroke:none;stroke-width:0.184426"
       id="path134" />
    <path
       d="m 66.51114,85.752939 h -2.517244 l -1.186418,6.661495 -2.365826,10.213556 -2.072773,10.35925 -0.147521,5.62503 1.147502,1.85902 -0.16285,-1.01989 0.989266,-7.30145 1.972446,-11.0527 2.56685,-9.472158 3.42997,-0.199182 0.416974,-1.971526 -2.070374,-3.701445"
       style="fill:#d6c6bf;fill-opacity:1;fill-rule:nonzero;stroke:none;stroke-width:0.184426"
       id="path136" />
    <path
       d="m 144.07129,110.47167 1.18421,3.55021 -0.14848,4.2953 1.18515,-4.88547 -0.44489,-2.96004 h -1.77637"
       style="fill:#81655a;fill-opacity:1;fill-rule:nonzero;stroke:none;stroke-width:0.184426"
       id="path138" />
    <path
       d="m 147.23032,117.08152 0.72317,-7.42687 -1.48984,-0.11433 0.76667,1.32603 -0.78972,5.92194 -1.4811,5.52543 -1.97174,5.1326 -2.07404,3.15554 -0.60162,4.5203 0.7997,-0.27666 1.38172,-3.94856 1.57907,-1.77419 3.15773,-12.04123"
       style="fill:#81655a;fill-opacity:1;fill-rule:nonzero;stroke:none;stroke-width:0.184426"
       id="path140" />
    <path
       d="m 133.51358,130.79919 -2.36877,2.76455 -0.39632,1.64141 0.2984,0.23237 0.36888,-0.0737 c 0.23107,-0.73954 0.61801,-1.79999 0.61801,-1.79999 l 2.56538,-2.86416 0.98631,-0.29506 -0.0979,-0.49424 -1.97392,0.88894"
       style="fill:#81655a;fill-opacity:1;fill-rule:nonzero;stroke:none;stroke-width:0.184426"
       id="path142" />
    <path
       d="m 137.26338,131.19386 -2.0728,1.97522 -1.07761,1.92357 0.48614,1.13422 0.0937,0.0101 c 0.23996,-0.90185 0.59717,-2.17993 0.59717,-2.17993 l 2.07206,-2.1707 -0.0988,-0.69161"
       style="fill:#81655a;fill-opacity:1;fill-rule:nonzero;stroke:none;stroke-width:0.184426"
       id="path144" />
    <path
       d="m 32.465579,46.5272 2.50415,-2.338532 -0.43156,-0.127241 -4.600531,-2.013939 -0.43229,4.332185 -0.888937,2.960048 1.92505,1.628491 1.924123,-4.440999"
       style="fill:#81655a;fill-opacity:1;fill-rule:nonzero;stroke:none;stroke-width:0.184426"
       id="path146" />
    <path
       d="M 0.46106992,69.19879 2.6139232e-5,68.925844 0.46106992,69.19879 v 0"
       style="fill:#d6c6bf;fill-opacity:1;fill-rule:nonzero;stroke:none;stroke-width:0.184426"
       id="path148" />
    <path
       d="m 0.39407506,66.756978 4.73745874,-5.722766 2.1720709,-3.948577 0.1981354,-3.354725 1.5769956,-5.130754 4.1452693,-5.724608 4.736026,-2.170701 0.904099,0.05349 -0.16708,0.499782 -1.230495,0.23609 -2.762791,1.58054 -2.663378,2.366196 c 0,0 -2.566136,4.343254 -2.566136,4.640179 0,0.29323 -1.1858063,4.931574 -1.1858063,4.931574 l -0.096558,2.86415 -1.9062348,3.522549 -1.4148853,-0.05176 -4.47667806,5.409242"
       style="fill:#8b6759;fill-opacity:1;fill-rule:nonzero;stroke:none;stroke-width:0.184426"
       id="path150" />
    <path
       d="m 0.39407506,66.756978 v 0 l 4.47667814,-5.409242 1.4148852,0.05176 -0.069164,0.127241 -3.4529508,3.454315 -0.9696871,1.211685 -0.2946414,-0.769065 -1.1051197,1.333411"
       style="fill:#b0988e;fill-opacity:1;fill-rule:nonzero;stroke:none;stroke-width:0.184426"
       id="path152" />
    <path
       d="M 0.46106992,69.19879 2.6139232e-5,68.925844 0.3941012,66.75699 1.4992209,65.423579 1.7938622,66.192644 1.1843947,66.954325 0.46109082,69.198802"
       style="fill:#553d35;fill-opacity:1;fill-rule:nonzero;stroke:none;stroke-width:0.184426"
       id="path154" />
    <path
       d="m 27.038635,48.303229 -3.286484,-0.947954 -1.845007,-0.53115 -1.775111,-1.580534 -1.57906,-0.09776 -0.692376,-1.379509 1.777913,-5.331781 0.591458,-4.736079 0.887646,-0.789347 3.750503,4.737924 2.269373,6.314773 -0.09887,4.341407"
       style="fill:#ce7574;fill-opacity:1;fill-rule:nonzero;stroke:none;stroke-width:0.184426"
       id="path156" />
    <path
       d="m 23.789586,47.366342 -0.03764,-0.01091 -1.845005,-0.53115 -1.775111,-1.580534 -0.216172,-0.01309 0.904982,-3.539148 1.481871,-3.157388 0.492044,-1.776031 2.171255,5.230346 -0.195834,3.65165 -0.980598,1.726236"
       style="fill:#ac5b57;fill-opacity:1;fill-rule:nonzero;stroke:none;stroke-width:0.184426"
       id="path158" />
    <path
       d="m 21.117614,32.909125 -0.887646,0.789347 -0.591458,4.736079 -1.777191,5.331781 0.691654,1.379509 0.11601,0.0074 0.376771,-2.572753 0.887463,-2.862309 0.592195,-4.538743 0.887464,0.592012 1.875249,3.649805 0.492777,3.653496 -0.886721,2.366197 -1.118179,1.268855 0.131119,0.11433 1.845007,0.531148 3.286486,0.947956 0.09885,-4.341407 -2.269371,-6.314775 -3.750505,-4.737924"
       style="fill:#664e48;fill-opacity:1;fill-rule:nonzero;stroke:none;stroke-width:0.184426"
       id="path160" />
    <path
       d="m 133.70226,107.05424 -4.43271,-4.77297 -5.02138,-4.924195 5.02138,4.924195 4.43271,4.77297 v 0"
       style="fill:#d6c6bf;fill-opacity:1;fill-rule:nonzero;stroke:none;stroke-width:0.184426"
       id="path162" />
    <path
       d="m 64.734556,91.625092 3.429969,-0.199182 v 0 l 6.831724,-0.394702 -4.727411,0.272946 -2.495664,0.143879 -3.038618,0.177067"
       style="fill:#8b6759;fill-opacity:1;fill-rule:nonzero;stroke:none;stroke-width:0.184426"
       id="path164" />
    <path
       d="m 133.70226,107.05424 -4.43271,-4.77297 -5.02138,-4.924195 -3.34698,-3.280956 -1.69525,-1.661685 -4.73811,-6.119278 -4.93342,0.791187 -3.78001,0.545907 -12.60078,1.822134 -18.157371,1.576849 -6.831724,0.394704 0.416973,-1.971526 -1.759986,-3.146323 9.358373,0.38179 24.472515,-1.578694 11.24782,-3.35472 5.32975,2.168856 4.73738,7.105967 8.88125,10.658023 2.85364,5.36498"
       style="fill:#b0988e;fill-opacity:1;fill-rule:nonzero;stroke:none;stroke-width:0.184426"
       id="path166" />
    <path
       d="m 63.371458,89.245982 -0.612296,-2.753491 0.919181,-0.0481 0.139799,0.29506 -0.446668,2.506359"
       style="fill:#8b6759;fill-opacity:1;fill-rule:nonzero;stroke:none;stroke-width:0.184426"
       id="path168" />
    <path
       d="m 63.818141,86.739621 -0.139799,-0.29506 0.193848,-0.01091 -0.05406,0.306143"
       style="fill:#b0988e;fill-opacity:1;fill-rule:nonzero;stroke:none;stroke-width:0.184426"
       id="path170" />
    <path
       d="m 63.912566,94.653379 -0.363858,-4.608828 -0.177224,-0.798569 0.446667,-2.506361 0.05406,-0.306142 2.638966,-0.138321 0.310376,0.01309 1.759986,3.146323 -0.416972,1.971524 v 0 l -3.42997,0.199182 -0.821989,3.028287"
       style="fill:#b0988e;fill-opacity:1;fill-rule:nonzero;stroke:none;stroke-width:0.184426"
       id="path172" />
  </g>
</svg>
