<?xml version="1.0" encoding="UTF-8" standalone="no"?>
<!-- Created with Inkscape (http://www.inkscape.org/) -->

<svg
   width="640"
   height="640"
   viewBox="0 0 169.33333 169.33333"
   version="1.1"
   id="svg1764"
   inkscape:version="1.2.2 (732a01da63, 2022-12-09)"
   sodipodi:docname="fox.svg"
   xmlns:inkscape="http://www.inkscape.org/namespaces/inkscape"
   xmlns:sodipodi="http://sodipodi.sourceforge.net/DTD/sodipodi-0.dtd"
   xmlns="http://www.w3.org/2000/svg"
   xmlns:svg="http://www.w3.org/2000/svg">
  <sodipodi:namedview
     id="namedview1766"
     pagecolor="#ffffff"
     bordercolor="#000000"
     borderopacity="0.25"
     inkscape:showpageshadow="2"
     inkscape:pageopacity="0.0"
     inkscape:pagecheckerboard="0"
     inkscape:deskcolor="#d1d1d1"
     inkscape:document-units="mm"
     showgrid="false"
     inkscape:zoom="1.1879191"
     inkscape:cx="197.40401"
     inkscape:cy="277.37578"
     inkscape:window-width="1920"
     inkscape:window-height="1051"
     inkscape:window-x="-9"
     inkscape:window-y="-9"
     inkscape:window-maximized="1"
     inkscape:current-layer="layer1" />
  <defs
     id="defs1761" />
  <g
     inkscape:label="Layer 1"
     inkscape:groupmode="layer"
     id="layer1">
    <path
       d="m 120.55752,70.195209 10.02854,6.385584 3.87527,4.326722 0.91331,1.367417 4.09964,2.734834 1.37004,1.367423 2.05114,1.824078 c 0,0 7.52074,7.066741 7.74783,7.747847 0.22672,0.683809 -0.45636,1.137832 -0.45636,1.137832 0,0 2.96188,2.737363 3.65074,3.418544 0.68089,0.686 5.46705,6.83964 5.46705,6.83964 l 5.69676,7.98004 3.41855,8.65857 0.9133,10.70972 -0.9133,2.50524 c 0,0 -5.24268,-0.68381 -5.92634,-1.13775 -0.68381,-0.45418 -10.25562,-2.05115 -10.25562,-2.05115 l -7.51827,-5.92378 c 0,0 -9.12042,-9.80153 -9.34487,-10.4827 -0.22964,-0.68601 -3.8752,-4.10484 -4.10228,-4.78596 -0.22964,-0.68599 -2.50779,-2.05113 -2.50779,-2.96444 0,-0.91074 -0.45637,-8.20448 -0.45637,-8.20448 l -2.05114,-7.291179 c 0,0 -3.19145,-5.474859 -3.19145,-6.383034 0,-0.910754 -2.5078,-17.779018 -2.5078,-17.779018"
       style="fill:#d8561e;fill-opacity:1;fill-rule:nonzero;stroke:none;stroke-width:0.258004"
       id="path260" />
    <path
       d="m 153.14852,131.04535 -1.36747,-2.04858 4.55893,-0.91075 2.73224,-5.01558 3.64819,0.22453 3.19153,1.5996 1.90407,-2.44842 0.60336,1.53766 0.9133,10.70972 -0.9133,2.50524 c 0,0 -5.24267,-0.68382 -5.92634,-1.13776 -0.68381,-0.45416 -10.25562,-2.05114 -10.25562,-2.05114 l -1.94795,-1.53509 2.85869,-1.42936"
       style="fill:#d6c6bf;fill-opacity:1;fill-rule:nonzero;stroke:none;stroke-width:0.258004"
       id="path262" />
    <path
       d="m 150.28983,132.47469 -5.57032,-4.38867 c 0,0 -9.12042,-9.80153 -9.34487,-10.4827 -0.22965,-0.68601 -3.8752,-4.10484 -4.10228,-4.78596 -0.22965,-0.68599 -2.5078,-2.05113 -2.5078,-2.96444 0,-0.91074 -0.45636,-8.20448 -0.45636,-8.20448 l -1.91694,-6.816462 1.57123,-6.019237 3.08059,11.238649 5.01295,8.20449 7.97748,9.57196 6.83708,7.06666 5.46968,3.19152 -4.55893,0.91075 1.36747,2.04858 -2.85869,1.42934"
       style="fill:#b3441f;fill-opacity:1;fill-rule:nonzero;stroke:none;stroke-width:0.258004"
       id="path264" />
    <path
       d="m 168.41973,137.1987 c 0,0 -5.24267,-0.68381 -5.92633,-1.13775 -0.68381,-0.45418 -10.25563,-2.05115 -10.25563,-2.05115 v 0 l -1.94794,-1.53511 2.85869,-1.42934 -1.36747,-2.04858 4.55893,-0.91075 5.24523,3.1889 7.51819,0.75081 0.22964,2.66773 -0.91331,2.50524"
       style="fill:#b0988e;fill-opacity:1;fill-rule:nonzero;stroke:none;stroke-width:0.258004"
       id="path266" />
    <path
       d="m 27.12155,31.569513 c -0.1726,-0.516041 -3.421131,-6.496531 -3.421131,-6.496531 l -2.56198,-0.85657 -0.513407,1.883427 -0.167697,3.248261 -0.172892,4.440244 6.837107,-2.218831"
       style="fill:#5f4943;fill-opacity:1;fill-rule:nonzero;stroke:none;stroke-width:0.258004"
       id="path268" />
    <path
       d="m 90.474307,97.77317 -0.45636,9.8016 2.737363,7.06154 4.334483,4.78857 3.870077,3.19147 0.68088,2.50267 -0.68088,4.55885 -2.961889,6.38308 -0.908188,0.91073 -2.510354,0.68601 -2.280784,2.73224 0.456362,1.82149 h 5.923776 l 3.877827,-0.22744 0.45636,-3.18889 1.1352,-1.36741 0.22964,-2.27815 2.5078,-4.78601 3.64299,-6.61263 -0.90819,-3.18634 -3.87519,-2.05114 -2.51036,-8.66114 -2.27559,-16.409049 -10.485265,4.329291"
       style="fill:#d8561e;fill-opacity:1;fill-rule:nonzero;stroke:none;stroke-width:0.258004"
       id="path270" />
    <path
       d="m 97.0895,136.97168 0.908189,-0.91073 2.961881,-6.38308 0.68089,-4.55885 -0.43881,-1.61774 1.58154,-0.66041 2.0537,1.37003 3.18634,-0.68382 2.30141,-0.49291 0.20404,0.71744 -3.64299,6.61264 -2.50779,4.78601 -0.22964,2.27815 -1.1352,1.3674 -0.45637,3.1889 -3.877824,0.22745 h -5.923775 l -0.456362,-1.82149 2.280784,-2.73224 2.510352,-0.68601"
       style="fill:#3d2e28;fill-opacity:1;fill-rule:nonzero;stroke:none;stroke-width:0.258004"
       id="path272" />
    <path
       d="m 38.287922,95.949114 1.137831,14.130816 0.913309,10.48527 0.226717,5.69676 -1.597044,5.92635 -2.961816,1.13776 -2.051139,2.50779 0.226719,2.27815 5.926333,-0.22672 2.964448,-2.96445 2.734878,-10.48008 V 98.230189 l -7.520821,-2.280782"
       style="fill:#d8561e;fill-opacity:1;fill-rule:nonzero;stroke:none;stroke-width:0.258004"
       id="path274" />
    <path
       d="m 33.956072,135.83386 2.051141,-2.50779 2.961814,-1.13776 1.597045,-5.92635 -0.226717,-5.69676 -0.913309,-10.48527 -0.320331,-3.94482 3.738507,-1.06813 2.964448,2.07432 v 17.29917 l -2.734877,10.48008 -2.964448,2.96445 -5.926335,0.22672 -0.226719,-2.27815"
       style="fill:#5f4943;fill-opacity:1;fill-rule:nonzero;stroke:none;stroke-width:0.258004"
       id="path276" />
    <path
       d="M 2.194045e-4,49.45947 1.367636,53.564302 5.0132247,56.299144 12.304402,55.612846 h 5.699295 l 4.329298,3.421123 4.788555,15.036441 3.41598,12.766016 4.556301,7.520835 5.245231,6.377799 2.961888,2.05114 0.913307,17.0927 0.454168,10.94193 0.45636,2.96188 -1.594413,5.24523 -2.964519,0.6809 -2.051067,3.87263 1.140318,0.91337 8.888223,-0.91337 2.278224,-8.66114 0.400047,-5.24268 0.513407,-5.1239 1.594485,-4.67507 2.27815,-17.77381 2.961888,-2.28078 6.839642,1.59448 12.304206,-0.22452 15.725305,-2.280782 4.329291,6.380432 2.507798,6.61007 5.92633,5.24523 10.25563,5.2374 2.73487,2.50781 -1.59704,14.13344 -2.73488,0.90819 -2.50516,2.05115 -0.68381,4.09964 2.27815,0.22963 h 5.69676 l 3.64811,-3.18888 1.59449,-1.36748 0.45636,-8.66114 3.41854,-12.07456 -5.46968,-6.84228 -0.686,-6.15335 3.19401,-10.936798 2.73488,-10.485261 c 0,0 -1.59704,-8.204515 -1.82413,-8.890804 -0.22964,-0.681105 -5.92633,-8.656013 -5.92633,-8.656013 L 108.4801,63.819642 87.058106,61.995557 68.827567,60.168897 64.266073,57.663677 57.431551,56.977382 53.785999,55.385498 47.859663,46.494694 38.741797,34.87422 l -7.977475,-4.329296 -8.204501,0.683737 -8.88564,6.604886 -2.04855,3.875211 L 8.2045071,44.673221 0,49.459185"
       style="fill:#d8561e;fill-opacity:1;fill-rule:nonzero;stroke:none;stroke-width:0.258004"
       id="path278" />
    <path
       d="m 40.566072,139.70906 2.964521,-0.6809 1.594413,-5.24523 -0.456362,-2.96188 -0.454168,-10.94192 -0.789489,-14.75518 3.067639,-0.74305 0.910822,-2.05114 5.242597,-1.82405 2.770933,3.0857 -2.087196,16.28772 -1.594484,4.67507 -0.513408,5.12389 -0.400047,5.24267 -2.278223,8.66114 -8.888223,0.91339 -1.140319,-0.91339 2.051067,-3.87264"
       style="fill:#3d2e28;fill-opacity:1;fill-rule:nonzero;stroke:none;stroke-width:0.258004"
       id="path280" />
    <path
       d="m 106.20217,117.14929 -1.36484,-1.21008 2.04858,0.0658 10.48264,1.82414 4.55893,-0.91075 1.31065,-3.22502 0.0585,0.4878 5.46968,6.84228 -3.41854,12.07455 -0.45636,8.66114 -1.59448,1.36749 -3.64812,3.1889 h -5.69676 l -2.27815,-0.22965 0.68381,-4.09965 2.50516,-2.05114 2.73488,-0.90819 1.59704,-14.13344 -2.73488,-2.50781 -10.25562,-5.2374"
       style="fill:#3d2e28;fill-opacity:1;fill-rule:nonzero;stroke:none;stroke-width:0.258004"
       id="path282" />
    <path
       d="m 54.92661,98.000253 1.135198,-2.051139 11.166373,1.137832 h 13.222705 l 10.023421,-0.683811 3.648185,-0.224525 -0.683811,2.734805 -15.725305,2.280785 -12.304206,0.22452 -6.839642,-1.594485 -2.200773,1.689925 -1.442219,-3.51398"
       style="fill:#d6c6bf;fill-opacity:1;fill-rule:nonzero;stroke:none;stroke-width:0.258004"
       id="path284" />
    <path
       d="m 6.1536016,51.051352 5.2374704,-2.502637 4.107414,-1.824078 6.148218,0.908166 7.752996,3.191502 5.015587,1.594464 1.135198,2.734841 -1.367401,6.158538 -1.137759,11.847522 1.137759,8.431553 5.242669,10.709706 2.280711,5.928967 0.32033,3.673924 -1.687368,-1.16876 L 35.094197,94.357261 30.537896,86.836433 27.121914,74.070419 22.333361,59.033976 18.004063,55.612853 H 12.304768 L 5.0135905,56.299151 1.3680017,53.56431 0.90359551,52.176255 6.1539672,51.051361"
       style="fill:#d6c6bf;fill-opacity:1;fill-rule:nonzero;stroke:none;stroke-width:0.258004"
       id="path286" />
    <path
       d="m 46.858812,143.75457 v 0 l 1.684734,-0.17258 2.278224,-8.66115 0.400047,-5.24268 0.513407,-5.1239 1.594486,-4.67507 -1.594486,4.67507 -0.513407,5.1239 -0.400047,5.24268 -2.278224,8.66115 -1.684734,0.17258 m 71.085088,-7.81489 1.24878,-11.04518 -1.24878,11.04255 v 0.003"
       style="fill:#d6c6bf;fill-opacity:1;fill-rule:nonzero;stroke:none;stroke-width:0.258004"
       id="path288" />
    <path
       d="m 114.03513,117.24985 -7.14922,-1.24358 -2.04858,-0.0658 1.36484,1.21009 -1.14551,-1.01401 -4.78082,-4.23122 -2.507796,-6.61007 -4.329289,-6.380434 0.683811,-2.734803 -3.648185,0.224523 -10.023422,0.683811 H 67.228253 l -11.166372,-1.137831 -1.1352,2.05114 1.442221,3.513984 2.200773,-1.689928 -2.961888,2.280778 -0.190883,1.48354 -2.770931,-3.08314 -1.597046,0.55729 v -1.922134 l -0.913308,-5.240109 4.104838,-2.737387 15.268654,3.194113 15.954875,-0.913381 11.393456,-4.331856 2.959328,1.367415 -1.591924,5.242665 6.153414,12.763414 9.11524,8.20704 0.54193,0.5573"
       style="fill:#b3441f;fill-opacity:1;fill-rule:nonzero;stroke:none;stroke-width:0.258004"
       id="path290" />
    <path
       d="m 46.858812,143.75457 0.544123,-2.45359 1.596973,-7.51827 0.224525,-8.66369 1.824056,-6.83453 v -17.22172 l 1.597044,-0.55728 2.770934,3.08314 -2.087196,16.29027 -1.594486,4.67507 -0.513406,5.1239 -0.400049,5.24268 -2.278222,8.66113 -1.684734,0.1726"
       style="fill:#33241f;fill-opacity:1;fill-rule:nonzero;stroke:none;stroke-width:0.258004"
       id="path292" />
    <path
       d="m 117.9439,135.93705 1.24878,-11.04255 -2.73488,-2.50781 -10.25563,-5.2374 -1.36484,-1.21008 2.04858,0.0658 7.14922,1.2436 6.97904,7.19061 -1.59448,10.25299 -1.47579,1.24358"
       style="fill:#33241f;fill-opacity:1;fill-rule:nonzero;stroke:none;stroke-width:0.258004"
       id="path294" />
    <path
       d="m 56.368828,101.51423 -1.442218,-3.513977 1.135198,-2.051139 11.166373,1.137832 h 13.222705 l 10.023421,-0.683811 3.648185,-0.224525 -0.683811,2.734805 -3.036704,0.441003 -12.688601,1.839562 -12.304206,0.22452 -6.839642,-1.594484 -2.200773,1.689924"
       style="fill:#b0988e;fill-opacity:1;fill-rule:nonzero;stroke:none;stroke-width:0.258004"
       id="path296" />
    <path
       d="m 28.032297,32.820828 -4.104838,-0.681105 c 0,0 -0.428278,-0.399902 -0.964935,-0.944295 l 7.802017,-0.650169 7.977475,4.329298 9.117866,11.620474 5.926336,8.890804 3.645551,1.591882 6.834525,0.686297 4.561492,2.50522 18.230539,1.826659 21.421995,1.824086 9.154,3.890692 -5.27873,-0.474718 -19.600573,-2.964462 -18.000895,-0.910748 -8.207046,1.137795 -8.663772,-1.137795 -5.467121,-2.507794 -3.648186,-6.377847 c 0,0 -8.428935,-11.623056 -8.658578,-12.309346 -0.226719,-0.683738 -5.469683,-7.06413 -5.469683,-7.06413 l -6.607439,-2.280755"
       style="fill:#f46b21;fill-opacity:1;fill-rule:nonzero;stroke:none;stroke-width:0.258004"
       id="path298" />
    <path
       d="m 16.695622,40.947937 -3.673972,1.929866 -2.396848,1.367417 1.45256,-1.607364 3.163118,-2.012423 1.455142,0.322525"
       style="fill:#5f4943;fill-opacity:1;fill-rule:nonzero;stroke:none;stroke-width:0.258004"
       id="path300" />
    <path
       d="m 30.54009,21.82472 2.564546,1.197136 4.269978,10.939349 -0.856556,2.051125 -5.296862,3.421123 -1.024255,-2.223987 -1.880808,-2.056288 -1.70799,-0.162498 0.170398,-4.79112 3.761691,-8.374795"
       style="fill:#f46b21;fill-opacity:1;fill-rule:nonzero;stroke:none;stroke-width:0.258004"
       id="path302" />
    <path
       d="m 31.391526,24.048707 -1.243584,-1.357098 0.392003,-0.866889 2.564546,1.197136 4.269976,10.939349 -0.856554,2.051125 -5.296864,3.421123 -0.549242,-1.199712 0.719646,-4.102257 v -5.812815 -4.269962"
       style="fill:#d8561e;fill-opacity:1;fill-rule:nonzero;stroke:none;stroke-width:0.258004"
       id="path304" />
    <path
       d="m 28.316133,35.153178 v 0 l -0.58581,-0.05192 -0.0026,-0.0051 0.588005,0.05705"
       style="fill:#b3441f;fill-opacity:1;fill-rule:nonzero;stroke:none;stroke-width:0.258004"
       id="path306" />
    <path
       d="m 29.642214,36.603157 -1.326081,-1.449979 -0.588004,-0.05705 -0.09288,-0.281204 0.343004,-3.245679 0.167474,-2.905121 2.051141,-3.591411 0.172598,2.564553 -0.172598,4.783386 -0.555094,4.182237"
       style="fill:#d6541e;fill-opacity:1;fill-rule:nonzero;stroke:none;stroke-width:0.258004"
       id="path308" />
    <path
       d="m 30.54009,21.82472 2.564546,1.197136 2.53617,6.501688 -2.371031,-1.032013 -1.878249,0.704362 v -0.87721 -4.269962 l -1.243584,-1.357097 0.392003,-0.86689"
       style="fill:#3d2e28;fill-opacity:1;fill-rule:nonzero;stroke:none;stroke-width:0.258004"
       id="path310" />
    <path
       d="m 2.9775752,54.771758 1.9221297,-0.214139 3.077982,-0.510847 4.7833841,-1.367417 4.445398,0.425718 v 0.513408 L 14.812196,53.448219 12.593365,53.357906 9.0045364,54.29962 5.9265546,55.071054 3.8496275,55.427073 2.9775752,54.771712"
       style="fill:#5f4943;fill-opacity:1;fill-rule:nonzero;stroke:none;stroke-width:0.258004"
       id="path312" />
    <path
       d="M 1.6514431,51.051352 0.94964121,52.310406 1.9015057e-4,49.45947 0.95996054,48.896991 2.3351221,49.173074 v 1.024269 l -1.1120005,0.17289 v 0.681105 h 0.4282776"
       style="fill:#5f4943;fill-opacity:1;fill-rule:nonzero;stroke:none;stroke-width:0.258004"
       id="path314" />
    <path
       d="m 14.729634,39.686301 0.170258,0.601168 -0.170258,0.856572 -0.513407,0.593414 1.878271,-0.255459 1.710557,-0.0877 -1.287435,-1.021693 -1.787964,-0.686297"
       style="fill:#3d2e28;fill-opacity:1;fill-rule:nonzero;stroke:none;stroke-width:0.258004"
       id="path316" />
  </g>
</svg>
